<svg xmlns="http://www.w3.org/2000/svg" width="783.376" height="741.257" xmlns:v="https://vecta.io/nano"><path d="M244.954 738.513c-2.234-1.619-5.413-4.881-7.063-7.25s-5.48-6.732-8.51-9.697l-5.51-5.39-11.472-.11c-9.782-.094-11.783-.39-13.577-2.015-4.344-3.931-3.014-5.825 15.958-22.716 8.169-7.273 12.788-9.944 20.605-11.913 6.823-1.719 11.11-.512 13.655 3.847 3.898 6.675 6.674 23.3 6.676 39.982 0 12.784-.093 13.39-2.454 15.75-3.093 3.094-3.386 3.077-8.308-.488zm4.156-8.639c1.042-2.716.668-9.337-.89-15.754-.823-3.39-2.163-9.745-2.978-14.123-1.191-6.402-2.07-8.547-4.488-10.966l-3.007-3.006-5.548 2.72c-6.605 3.24-23.851 17.287-24.29 19.785-.396 2.25 2.47 3.17 6.379 2.05 7.098-2.037 18.56 2.161 21.871 8.01 3.569 6.302 7.409 11.646 8.757 12.187 2.38.953 3.581.695 4.194-.903zm67.94-28.993c-.332-.866.199-4.227 1.18-7.468 1.416-4.676 1.533-6.197.568-7.36-.848-1.022-1.282-7.469-1.43-21.281l-.214-19.816-3.678-4.773c-2.025-2.629-3.943-6.447-4.27-8.5-1.19-7.488-2.931-12.82-5.532-16.94-1.888-2.988-2.842-6.154-3.285-10.898-.432-4.629-1.593-8.566-3.769-12.788-3.585-6.959-16.064-24.148-21.851-30.101-2.14-2.2-5.519-6.594-7.51-9.764-2.709-4.312-5.01-6.548-9.137-8.876-4.676-2.64-5.469-3.498-5.21-5.643.246-2.041-.286-2.743-2.75-3.624-3.432-1.228-12.073-8.181-12.924-10.4-.709-1.847 1.214-4.193 3.436-4.193.942 0 2.845 1.238 4.228 2.75s4.609 3.976 7.166 5.475c3.862 2.265 4.649 3.224 4.649 5.67 0 2.647.508 3.113 5.022 4.612 6.217 2.065 11.978 7.254 11.978 10.789 0 1.627 1.002 3.307 2.75 4.613 4.806 3.591 8.317 7.492 9.75 10.831.764 1.783 2.427 4.282 3.695 5.554 9.865 9.898 15.204 19.528 17.353 31.3 1.23 6.737 2.687 10.773 5.924 16.406 2.752 4.788 4.345 8.96 5.049 13.216.389 2.356 2.17 7.434 3.956 11.284l3.248 7-.651 17.705c-.358 9.738-.955 18.01-1.327 18.382s-.017 1.617.788 2.767c2.045 2.918 1.831 5.942-.785 11.13-2.31 4.58-5.268 5.936-6.417 2.941zm459.735-18.299c-.588-1.097-1.068-5.863-1.068-10.592 0-5.794-.622-10.461-1.908-14.316-2.073-6.211-2.93-15.438-1.754-18.876.985-2.878 3.654-3.78 5.556-1.876 1.091 1.09 1.586 3.823 1.699 9.383.117 5.78.652 8.595 2.032 10.701 3.546 5.412 2.147 26.501-1.807 27.251-.926.176-2.163-.578-2.75-1.675zm-629.081-14.79c-1.927-1.622-5.27-6.955-8.539-13.62-4.483-9.143-6.396-11.887-11.567-16.585-3.408-3.097-7.137-6.008-8.288-6.469-1.23-.492-4.885-.322-8.862.414-4.606.852-8.25.96-11.403.338-9.5-1.874-8.17-6.858 4.46-16.708 7.442-5.804 19.372-12.706 21.963-12.706.428 0 2.51-.928 4.627-2.063 4.719-2.529 16.787-3.312 20.718-1.344 2.876 1.44 5.79 8.275 8.273 19.407 2.584 11.585 2.86 19.132 1.162 31.653-1.903 14.025-3.047 18.018-5.545 19.355-2.72 1.455-3.505 1.268-7-1.673zm4.837-22.635c.448-18.226-1.597-31.613-5.585-36.556-3.553-4.405-6.438-4.91-11.739-2.056l-10 5.305c-8.901 4.676-20.236 11.583-21.494 13.098-1.758 2.12.345 2.623 5.75 1.375 7.187-1.659 13.733-.423 16.963 3.202 1.437 1.612 3.017 2.931 3.514 2.931 1.555 0 8.73 6.434 8.749 7.846.01.74.86 2.54 1.89 4s3.108 5.129 4.618 8.154c5.75 11.513 6.9 10.369 7.334-7.299zM.642 636.316c-2.139-3.997 1.14-17.155 8.809-35.36 1.622-3.85 3.21-8.575 3.53-10.5.83-5.002 8.444-18.48 13.801-24.43 4.157-4.616 6.932-8.867 12.055-18.464.996-1.867 3.74-5.917 6.096-9s5.1-7.181 6.096-9.106 3.826-4.99 6.287-6.81c2.906-2.149 4.676-4.316 5.049-6.18.856-4.282 7.518-9.782 20.819-17.188 5.661-3.152 25.542-22.01 31.413-29.795 1.308-1.736 4.78-4.511 7.715-6.167s6.233-4.463 7.329-6.237 3.815-4.91 6.042-6.971c3.21-2.97 3.926-4.236 3.455-6.112-.997-3.972 4.727-7.828 14.829-9.99 3.168-.677 3.31-1.666 1.634-11.294-1.251-7.187-2.661-8.41-6.847-5.937-2.304 1.361-3.028 1.408-4.551.294-2.62-1.915-1.312-4.182 4.494-7.791 3.588-2.23 5.02-3.756 5.02-5.346 0-1.225.293-3.693.652-5.485l.652-3.26-5.902.727c-3.246.4-9.786 1.97-14.533 3.49-8.723 2.793-11.869 2.667-11.869-.475 0-2.49 4.612-4.586 16.724-7.6l14.754-3.682c2.57-.65 3.082-1.363 3.747-5.222.965-5.595-.598-7.04-7.297-6.749-5.322.232-7.928-1.325-7.928-4.735 0-2.93 1.012-3.22 9.75-2.79 3.988.195 7.253.006 7.257-.42s2.006-3.876 4.449-7.666c4.3-6.67 4.425-7.085 3.903-13-.843-9.557 3.878-17.609 10.326-17.609 1.328 0 3.63-.628 5.115-1.396 4.174-2.157 21.266-6.602 25.391-6.603 2.03 0 3.973-.458 4.318-1.016s2.06-1.614 3.81-2.347c2.98-1.247 3.334-1.959 5.6-11.234 4.25-17.412 10.065-31.14 14.713-34.737 1.302-1.009 2.368-2.31 2.368-2.892 0-2.607 16.29-26.082 21.009-30.275 1.238-1.1 3.323-3.687 4.633-5.75 1.427-2.245 3.169-3.75 4.34-3.75 1.237 0 2.799-1.472 4.238-3.992 2.456-4.3 5.207-5.173 7.297-2.316 1.137 1.555 1.497 1.474 4.437-1 1.76-1.48 3.615-2.692 4.123-2.692 1.6 0 1.006-3.92-1.256-8.29-1.773-3.425-2.263-6.427-2.629-16.098-.286-7.585.01-13.92.817-17.5.696-3.087 1.125-8.762.953-12.612-.93-20.876-.116-24.831 7.786-37.829l3.752-6.171-.33-23.36c-.274-19.342-.04-24.59 1.367-30.5 2.088-8.777 3.776-11.64 6.864-11.64 2.99 0 3.735.962 7.304 9.438 1.607 3.816 3.382 7.091 3.944 7.278s2.039-3.834 3.281-8.938c2.49-10.222 5.8-15.778 9.402-15.778 2.503 0 2.86.722 8.237 16.681 1.887 5.6 3.433 11.225 3.434 12.5.008 5.336 3.929 21.972 5.949 25.241 1.382 2.237 4.379 4.703 8.167 6.722 8.836 4.71 10.153 6.551 18.14 25.356 1.167 2.75 3.999 7.025 6.291 9.5 5.92 6.39 10.611 13.553 13.077 19.967 1.979 5.147 2.428 5.608 6.435 6.602 3.27.812 4.856 1.936 6.586 4.668 1.252 1.98 2.664 3.838 3.138 4.13s5.245.02 10.604-.608c7.861-.92 9.942-1.51 10.77-3.057 1.724-3.222-.317-4.103-6.083-2.625-4.006 1.027-5.355 1.045-6.313.087-2.211-2.211.48-4.698 4.788-4.425 3.827.242 6.876-1.237 5.878-2.852-.301-.488-2.745-.887-5.43-.887-5.282 0-6.908-1.201-4.901-3.62.908-1.094 2.689-1.438 6.241-1.205 3.357.22 5.111-.086 5.403-.94.62-1.81-6.515-4.534-10.281-3.923-4.694.762-6.152-.501-4.575-3.964.7-1.537.9-2.92.443-3.073-7.67-2.572-10.44-6.924-4.179-6.566 3.313.189 6.818 1.766 18.147 8.165 2.956 1.67 4.234 1.911 5.77 1.09 3.555-1.903 4.26-.27 3.42 7.928-.429 4.184-.826 10.533-.884 14.108l-.104 6.5 10.5.02c5.775.01 11.021-.134 11.658-.322 1.459-.43 3.031-4.46 3.86-9.89.881-5.787 2.325-6.755 7.18-4.813 3.437 1.376 4.565 1.396 9.355.167 2.996-.77 6.01-1.185 6.697-.923 3.764 1.43-2.112 5.535-7.461 5.211-5.508-.334-7.289-.077-7.289 1.05 0 .563 2.806 1 6.418 1 7.313 0 9.582.617 9.582 2.607 0 1.58-.343 1.63-12 1.782-8.37.11-8.5.15-8.5 2.611 0 2.382.35 2.531 7.392 3.16 4.066.363 9.24 1.139 11.5 1.724s8.383 1.955 13.608 3.043 11.413 2.655 13.75 3.481c4.603 1.628 5.175 1.272 2.574-1.603-1.152-1.273-1.354-2.175-.645-2.884 1.797-1.797 6.314.174 12.163 5.308 8.508 7.467 11.158 9.229 11.158 7.417 0-2.72-6.413-9.954-15.011-16.932-4.67-3.79-8.634-7.524-8.812-8.299s.723-1.86 2-2.41 3.04-1.518 3.918-2.15c2.707-1.95 6.077-.227 14.868 7.605 4.655 4.147 8.817 7.54 9.25 7.54s.787-.926.787-2.059c0-2.273-3.827-7.562-11.535-15.941-6.003-6.527-7.93-10.706-7.064-15.322.346-1.846 3.465-7.816 6.93-13.267s8.464-13.961 11.106-18.911l8.153-15.275c1.842-3.452 4.712-8.258 6.38-10.68s3.03-4.691 3.03-5.04c0-1.209 9.806-17.231 16.537-27.022l8.86-12.915c6.508-9.552 17.447-23.103 22.876-28.337 3.425-3.302 6.807-6.73 7.516-7.617 1.652-2.067 4.211-2.087 4.211-.034 0 1.879-12.442 18.48-17.47 23.31-1.942 1.865-3.53 3.826-3.53 4.357s-3.036 5.306-6.748 10.61c-12.724 18.184-26.27 40.918-31.667 53.143-1.69 3.83-2.606 5.4-6.843 11.724-1.556 2.324-3.97 6.804-5.364 9.956s-3.446 7.011-4.56 8.575c-3.907 5.487-9.818 17.045-9.818 19.195 0 2.085 5.165 10.24 11.5 18.158 2.824 3.53 2.996 4.253 2.936 12.321-.069 9.305-2.881 25.845-5.176 30.438-1.328 2.657-1.7 2.806-5.096 2.034-2.015-.457-7.932-.847-13.149-.866-8.228-.03-9.53-.267-9.824-1.788-.42-2.177.497-2.471 9.658-3.104 7.982-.552 9.17-1.026 7.282-2.91-.834-.833-3.95-1.138-9.597-.939-8.373.294-11.064-.664-8.647-3.081.612-.612 1.113-1.437 1.113-1.833 0-.987-7.334-3.221-21-6.395l-14.592-3.586c-9.467-2.8-40.503-5.25-57.422-4.531-12.607.535-23.35 2.287-49.198 8.022-7.745 1.719-19.201 5.711-24.577 8.565-8.264 4.388-15.488 7.014-17.739 6.449-2.834-.712-14.564 5.841-21.955 12.265-5.353 4.653-8.667 5.41-11.692 2.672-2.383-2.156-4.528-1.158-12.022 5.592-4.638 4.178-6.158 5.016-8.18 4.509-2.101-.528-2.867-.016-4.977 3.327-1.729 2.738-3.43 4.138-5.541 4.56-4.095.819-10.518 7.63-14.755 15.645-4.898 9.266-9.488 15.978-13.695 20.027-2.437 2.345-4.656 6.142-6.721 11.5-3.086 8.007-3.555 9.716-6.38 23.263-1.638 7.852-4.814 13.236-7.808 13.236-3.02 0-5.746 1.914-5.746 4.035 0 1.506.684 1.965 2.929 1.965 2.85 0 6.071 2.173 6.071 4.096 0 .525 1.169 1.398 2.597 1.94s2.82 1.845 3.094 2.891 1.53 2.163 2.793 2.48c2.867.72 4.064 3.445 1.882 4.283-2.472.948-6.756-.965-7.866-3.514-.843-1.934-1.512-2.2-4.257-1.689-2.82.525-3.384.272-4.203-1.88-.773-2.034-1.729-2.544-5.243-2.797-3.378-.244-4.511-.806-5.297-2.629-.847-1.965-1.458-2.208-4-1.596-3.97.957-7.6.951-9.75-.014-2.733-1.226-2.253 3.101.5 4.51 3.923 2.006 11.688 10.201 12.769 13.476 1.09 3.305-.074 8.443-1.912 8.443-2.633 0-4.107-1.451-4.107-4.042 0-4.954-1.688-7.554-7.972-12.278-12.688-9.537-17.886-6.943-18.446 9.208-.107 3.083-.943 5.81-2.414 7.876-2.972 4.174-5.953 12.88-7.785 22.736-4.986 26.825-5.026 27.766-1.979 46.473 1.62 9.942 1.617 10.538-.04 11.75-.96.702-2.756 1.277-3.99 1.277-3.733 0-7.374 1.839-7.375 3.725 0 .976-1.238 2.975-2.75 4.442l-10.749 10.608c-4.4 4.368-9.012 8.26-10.25 8.65-2.583.815-3.063 3.575-.621 3.575.895 0 5.733-1.749 10.75-3.886 8.418-3.586 9.791-3.875 17.821-3.75 5.458.085 9.166.602 9.95 1.386.688.687 1.984 1.25 2.88 1.25s3.845 1.13 6.55 2.51 5.82 2.681 6.92 2.891c9.524 1.816 30.63 11.891 37.613 17.955 2.471 2.131 4.973 4.226 7.504 6.285 7.775 6.289 9.988 8.244 15.633 13.814 3.163 3.12 5.75 6.095 5.75 6.61s-1.29.935-2.865.935c-2.98 0-5.495-1.604-13.23-8.44-13.603-12.022-36.592-26.03-45.405-27.666-4.48-.831-11.356-2.998-19.358-6.099-4.546-1.761-6.763-1.992-14.619-1.523-8.034.479-11.349 1.319-25.025 6.34-15.28 5.61-16.002 6.005-23.477 12.838-4.24 3.878-10.368 8.377-13.616 9.999-3.34 1.667-8.295 5.423-11.405 8.642-3.025 3.132-7.008 6.453-8.852 7.38-2.77 1.393-3.267 2.126-2.866 4.224.536 2.803-.13 3.605-8.13 9.785-3.74 2.89-5.163 4.671-5.19 6.5-.027 1.728-1.049 3.154-3.25 4.537-3.333 2.092-7.682 8.846-6.474 10.054.379.38 4.262-1.169 8.628-3.44 8.777-4.567 13.117-5.148 16.109-2.156 2.986 2.986 3.37 6.12 2.248 18.34-.565 6.152-.787 14.677-.493 18.945.625 9.07-1.061 14.767-5.68 19.193l-2.916 2.793-3.51-2.17c-3.35-2.07-8.608-9.3-10.036-13.798-.369-1.162-1.594-3.288-2.724-4.723-1.779-2.262-2.54-2.52-5.708-1.938-2.01.37-5.906 1.666-8.656 2.882s-5.787 2.486-6.75 2.824c-1.029.361-1.75 1.632-1.75 3.085 0 1.445-1.66 4.388-4 7.092-2.2 2.542-4 5.65-4 6.905s-1.083 3.544-2.407 5.085c-2.21 2.573-4.79 9.475-7.574 20.26-1.205 4.673-3.265 5.526-5.094 2.11zm62.91-39.61c1.255-2.422 1.363-42.01.118-42.779-1.433-.886-10.984 3.742-19.784 9.585-10.612 7.048-20.704 19.036-15.919 18.911.688-.018 3.725-.903 6.75-1.967 10.909-3.837 13.782-2.735 19.544 7.5 5.954 10.577 7.562 12.09 9.292 8.75zM309.08 213.912c8.406-6.817 13.246-9.591 21.63-12.4 5.016-1.68 10.108-3.07 11.314-3.087s3.993-1.14 6.193-2.495 4.779-2.466 5.73-2.469 4.552-1.093 8-2.422c10.705-4.127 22.13-7.226 33.96-9.211 5.613-.942 6.264-5.752.95-7.019-3.985-.95-5.192-2.282-8.265-9.132-3.077-6.858-6.314-11.555-12.208-17.715-4.146-4.333-6.677-8.72-8.656-15.006-2.64-8.39-7.721-15.154-15.029-20.012-10.022-6.663-10.577-7.737-13.436-25.992-2.852-18.216-7.985-35.39-9.98-33.395-.402.402-1.718 5.195-7.66 27.899-.973 3.718-3.715 22.145-4.538 30.5-.548 5.56-1.472 7.058-3.8 6.164-2.012-.772-1.977-2.312.436-19.444 2.164-15.367 1.99-17.737-2.127-28.905-2.63-7.138-3.924-9.007-4.93-7.128-1.916 3.577-3.3 28.289-2.07 36.955 1.356 9.566-.648 24.33-3.925 28.905-2.874 4.015-4.952 7.818-4.952 9.067 0 .487.89.886 1.977.886 3.58 0 5.292 4.23 4.854 11.994-.43 7.588-1.928 10.184-6 10.389-2.173.109-2.393.694-3.245 8.617-.503 4.675-.953 13.675-1 20-.082 10.967.07 11.86 3.299 19.25 3.29 7.532 3.483 7.75 6.863 7.75 2.237 0 4.597-.908 6.615-2.544zm3.013-54.221c-2.41-1.576-5.369-7.917-5.372-11.517-.008-8.187 4.445-13.718 11.044-13.718 10.436 0 13.687 19.466 4.08 24.434-3.194 1.651-7.864 2.035-9.752.8zm9.17-4.69c3.122-3.122 3.332-9.592.465-14.295-2.222-3.644-5.263-4.237-8.182-1.595-2.433 2.202-2.322 3.636.219 2.83 4.452-1.413 7.015 5.34 2.869 7.56-1.662.889-2.471.764-4-.62-1.841-1.666-1.917-1.635-1.917.785 0 3.242 3.572 7.79 6.118 7.79 1.085 0 3.077-1.105 4.427-2.455zm222.442 33.205c-.014-1.456-8.724-10.75-10.075-10.75-2.012 0-.666 2.252 4.188 7.005 5.5 5.386 5.905 5.643 5.887 3.745zm-245.264-33.297l1.691-3.547-2.957-2.366-2.958-2.365-.773 2.662c-1.073 3.696.022 9.163 1.834 9.163.81 0 2.232-1.596 3.163-3.547zm-1.724-12.012c0-.857-.45-1.28-1-.941s-1 1.041-1 1.559.45.941 1 .941 1-.702 1-1.559zm475.677 486.755c-.922-1.02-1.678-3.168-1.678-4.775 0-3.584-4.148-20.788-6.954-28.856-1.135-3.264-2.96-6.769-4.055-7.789-2.353-2.192-2.604-5.327-.49-6.138.825-.316 1.5-1.515 1.5-2.664 0-2.404-4.124-10.144-7.616-14.295-2.94-3.493-3.012-5.273-.271-6.74 1.755-.939 2.013-1.747 1.528-4.784-.821-5.131-4.282-15.372-7.625-22.562-1.558-3.351-3.146-8.118-3.53-10.593s-2.291-7.425-4.24-11c-9.237-16.952-9.396-17.437-8.67-26.389 1.163-14.33-1.042-30.362-7.097-51.593-2.97-10.414-7.264-23.79-9.544-29.726l-8.39-22.83c-2.336-6.62-4.803-13.075-5.481-14.343s-.963-3.384-.632-4.704c.746-2.972-4.795-14.4-11.009-22.703-2.382-3.183-4.095-6.402-3.807-7.153.76-1.981-3.263-9.39-7.775-14.319-3.344-3.652-3.743-4.555-2.794-6.327 1.6-2.99-1.81-7.494-11.408-15.072-7.08-5.59-7.686-6.333-6.108-7.487.964-.705 2.251-1.457 2.86-1.672.683-.24.346-1.25-.875-2.623-2.456-2.765-20.857-15.059-22.539-15.059-.818 0-1.036-.957-.653-2.869.517-2.584.057-3.216-4.625-6.356-5.845-3.92-23.01-13.445-35.46-19.674-8.01-4.009-8.337-4.083-10.81-2.463-2.311 1.515-2.695 1.525-4.112.108-1.722-1.722-1.049-4.24 5.549-20.746 1.648-4.125 3.277-9.207 3.62-11.294.927-5.66 5.117-9.777 11.075-10.883l21.198-3.65c5.59-.868 10.112-4.17 12.826-9.366 1.588-3.039 3.744-16.573 6.315-39.642 2.229-19.997 2.037-90.183-.317-116.126-.822-9.054-1.31-16.646-1.085-16.87.993-.993 5.547 1.046 6.56 2.938 2.127 3.976 4.442 44.559 4.442 77.893 0 22.468-2.049 61.672-3.972 76-3.207 23.895-5.838 27.736-21.316 31.118-4.736 1.035-10.56 1.882-12.944 1.882-5.209 0-11.615 2.462-11.02 4.236.31.92 3.671 1.28 12.339 1.324 11.491.058 16.413 1.11 16.413 3.507 0 1.936-3.423 2.254-13.405 1.245-12.202-1.234-18.212-.76-16.501 1.3.633.764 2.356 1.388 3.83 1.388 10.215 0 33.076 8.198 33.076 11.86 0 3.061-2.597 3.26-7.885.604-6.511-3.27-15.973-6.125-24.842-7.495-7.482-1.155-9.273-.852-9.273 1.571 0 1.559.448 1.694 13.408 4.033 9.813 1.77 12.592 3.022 12.592 5.668 0 2.263-2.28 2.24-9.093-.09-7.006-2.395-15.557-3.526-16.396-2.169s3.19 2.708 8.743 2.944c1.352.057 1.695.818 1.5 3.323-.22 2.802.09 3.29 2.246 3.547 4.23.503 8.175 2.378 16.5 7.841 14.553 9.552 22.13 15.983 23.826 20.22.966 2.413 2.923 4.752 5.105 6.1 5.274 3.26 17.27 16.816 20.07 22.682 1.349 2.827 5.163 7.892 8.476 11.257 5.841 5.933 6.445 7.11 6.065 11.83-.099 1.226.909 3.7 2.239 5.5 3.154 4.271 5.719 10.999 5.719 15.002 0 2.283.98 4.193 3.45 6.73 4.964 5.098 10.55 16.3 10.55 21.16 0 2.452 1.341 6.84 3.5 11.45 1.925 4.112 3.502 7.803 3.505 8.204s1.411 4.328 3.131 8.728c3.114 7.965 6.233 18.769 9.815 34 1.035 4.4 3.556 13.4 5.602 20 3.632 11.717 3.726 12.42 3.986 29.853.169 11.272.671 18.257 1.364 18.95.603.603 1.097 2.105 1.097 3.338s.407 2.493.905 2.8c2.8 1.731 7.066 11.837 7.693 18.23.369 3.756 1.018 7.279 1.443 7.829s2.177 3.7 3.893 7c2.869 5.516 4.444 10.425 7.22 22.5.57 2.475 2.191 8.775 3.604 14s2.913 12.425 3.334 16 1.742 9.875 2.936 14 2.594 11.325 3.114 16c1.541 13.864.414 18.482-3.465 14.196zM385.217 509.436c-3.85-2.127-7.9-4.593-9-5.48s-10.325-5.655-20.5-10.596l-20-9.793c-.825-.445-8.7-4.546-17.5-9.112l-17.5-9.15c-.825-.467-2.737-1.288-4.25-1.825-2.17-.77-2.75-1.607-2.75-3.965 0-5.112 2.624-5.536 12.71-2.056 10.307 3.557 41.515 19.026 52.29 25.918l12.171 7.688c8.382 5.186 21.267 14.601 24.091 17.604 5.597 5.95.367 6.36-9.762.767zm54.12-33.997c-2.133-1.065-7.308-3.04-11.5-4.39s-13.47-4.526-20.62-7.057-16.6-5.678-21-6.993a466.47 466.47 0 0 1-15-4.8c-6.2-2.134-19.08-6.21-32.5-10.283l-34.5-10.594c-1.65-.54-10.59-2.477-19.867-4.304-10.022-1.974-17.219-3.879-17.734-4.693-1.566-2.472-1.002-6.745 1.035-7.835 2.71-1.45 8.398-1.288 12.282.35 1.806.762 6.434 2.287 10.284 3.39l36 10.792 35 10.538c6.05 1.718 13.475 4.171 16.5 5.45 10.524 4.45 25.532 10.233 30.5 11.752 10.608 3.243 28.375 10.236 38.75 15.25 2.29 1.108 3.75 2.52 3.75 3.628 0 2.495-6.198 2.385-11.38-.2zm7.401-38.1c-9.131-3.643-68.022-15.48-86.021-17.29-2.475-.25-10.8-1.353-18.5-2.452l-23.5-3.121c-9.982-1.179-13.417-2.61-14.507-6.042-1.276-4.023 1.19-5.266 8.97-4.522 12.05 1.152 47.622 6.579 56.537 8.624 4.675 1.072 15.25 3.311 23.5 4.975 22.315 4.5 29.772 6.437 44.023 11.433 13.006 4.56 16.285 6.394 15.036 8.415-.81 1.311-2.214 1.306-5.538-.02zm-274.271-1.483c-2.612-.803-4.75-2.032-4.75-2.73 0-4.198 7.382-5.021 10.952-1.22 2.335 2.484 2.238 5.611-.17 5.48-.705-.038-3.42-.727-6.032-1.53zm138.75-63.743c-2.75-.707-6.052-1.856-7.338-2.554-4.089-2.217-10.245-8.343-12.095-12.035-2.447-4.884-5.377-19.99-4.162-21.454.521-.627 1.493-3.385 2.16-6.127 3.032-12.47 11.159-23.616 19.99-27.415 8.85-3.808 15.475-4.366 24.48-2.063 4.31 1.102 8.812 2.644 10.006 3.426 6.856 4.492 15.459 26.26 15.459 39.114 0 2.118.773 4.224 2 5.451 2.881 2.881 2.563 5-.75 5-2.119.001-4.072 1.48-8.51 6.443-8.187 9.154-15.914 12.855-27.613 13.226-4.745.15-10.877-.305-13.627-1.012zm25.279-8.266c8.853-4.493 14.789-10.692 15.474-16.16.71-5.668-1.94-22.698-4.233-27.192-6.19-12.134-17.173-17.702-28.91-14.657-6.695 1.736-11.008 4.844-15.284 11.012-5.833 8.414-8.1 15.735-7.992 25.802.11 10.11 1.41 13.824 6.662 19.012 5.27 5.207 10.347 6.86 19.469 6.34 6.133-.35 8.775-1.091 14.814-4.157zm-33.819-15.43c-3.06-3.061-4.157-6.895-3.447-12.053 1.362-9.906 10.89-15.8 15.116-9.351 2.486 3.794 2.942 11.66.974 16.812-2.45 6.417-8.588 8.646-12.643 4.591zm-119.865 8.19c-1.323-.383-2.898-1.502-3.5-2.486-.886-1.448-.644-2.16 1.266-3.728 3.571-2.93 7.496-2.49 10.591 1.189 1.447 1.72 2.465 3.632 2.262 4.25-.429 1.304-7.106 1.792-10.62.775zm288.015-195.441c-3.407-3.407.208-9.086 7.42-11.654 2.733-.973 7.099-2.78 9.7-4.014 5.966-2.83 6.73-5.24 6.837-21.542.044-6.6.496-14.475 1.005-17.5 1.766-10.481 2.172-57.347.627-72.328-1.738-16.857-2.843-18.787-7.762-13.568l-8.949 9.396c-10.31 10.76-22.708 30.623-30.9 49.5l-5.244 11.903c-1.572 3.522-3.49 8.472-4.262 11s-2.834 7.972-4.582 12.097c-5.134 12.118-6.274 16.615-4.88 19.246 1.232 2.325 5.858 6.75 7.059 6.753 1.4.003 3.821 3.216 3.821 5.072 0 3.19-3.514 2.282-9.864-2.547-6.664-5.069-9.628-10.105-8.832-15.01.654-4.027 18.618-49.24 22.256-56.014l6-11.216c8.054-15.1 16.845-28.207 18.953-28.26.557-.013 3.636-3.372 6.841-7.465 9.66-12.333 12.187-14.559 16.52-14.559 6.97 0 8.785 4.296 10.985 26 .53 5.225.945 11.75.922 14.5l-.075 19.5c-.056 25.043-.26 30.28-1.493 38.5-.66 4.4-1.018 12.349-.794 17.664.7 16.613-1.863 22.12-11.75 25.248-2.843.9-5.831 2.051-6.64 2.558-1.695 1.062-.672 2.499 1.792 2.517.923.007 1.679.65 1.679 1.43 0 .985-1.528 1.531-5 1.79-2.75.206-6.188.765-7.64 1.243-1.717.565-3.029.481-3.75-.24zM627.939 4.224c-2.047-2.467.311-4.173 5.836-4.222 3.828-.034 5.475.4 6.28 1.656 1.439 2.244 1.125 2.43-5.423 3.224-4.11.498-5.877.324-6.693-.658z" fill="#faf8f6"/></svg>