<svg xmlns="http://www.w3.org/2000/svg" width="459.86" height="459.74" xmlns:v="https://vecta.io/nano"><path d="M210.425 459.223c-40.56-4.178-76.55-16.807-108.251-37.988-19.308-12.9-37.51-29.424-50.696-46.025l-7.739-9.698c-4.308-5.303-13.777-20.836-19.085-31.308-11.088-21.873-18.134-43.305-22.457-68.301-1.78-10.295-2.168-16.558-2.196-35.5-.034-23.13.577-29.749 4.432-48C21.949 99.483 84.585 32.313 166.215 8.912c31.121-8.921 66.898-11.277 98.211-6.467 73.826 11.34 137.487 57.442 171.189 123.969 10.95 21.614 17.34 41.174 21.957 67.215 1.912 10.776 2.27 16.371 2.289 35.774.014 14.002-.479 26.13-1.26 31-6.1 38.056-17.419 67.635-37.265 97.392-37.385 56.051-97.596 92.656-165.47 100.596-11.542 1.35-36.05 1.799-45.44.831zm58-21.706c53.57-10.3 98.393-38.22 131.23-81.74 46.56-61.706 54.911-146.252 21.373-216.374-20.586-43.04-53.796-76.646-97.577-98.74-43.738-22.07-97.188-27.64-146.155-15.227-49.781 12.619-93.985 43.935-123.235 87.306-12.097 17.937-24.38 45.053-29.062 64.161-15.94 65.042-2.583 129.76 37.594 182.15 3.943 5.143 12.159 14.3 18.257 20.35 33.645 33.383 74.925 53.586 122.575 59.992 16.928 2.276 48.077 1.376 65-1.878zm-162.534-76.233l-22.246-37.773c-.282-1.164 28.875-51.18 79.636-136.608l9.763-16.638c.63-1.176 6.313-10.851 12.629-21.5l21.957-37.223 10.476-17.86 18.604-12.14 53.864-34.387c.972-.255 6.412 3.094 13.25 8.158l23.351 17.296 36.627 27.028 27.435 20.333 2.557 2.011-6.908 6.961c-4.037 4.068-7.75 6.959-8.934 6.956-1.115-.003-18.677-2.927-39.027-6.498l-37.75-6.495c-.413-.001-.75 61.873-.75 137.498v137.5H127.857zm175.288-112.123l-.254-129.742-7.357-1.318c-4.046-.725-7.528-1.146-7.738-.936s-3.779 16.773-7.932 36.81l-31.892 152.807-10.05 45.923c-.299.299-23.378-3.313-51.287-8.026l-51.099-8.235c-.195.184 2.055 4.29 5 9.123l5.855 9.832c.275.574 3.566 6.098 7.314 12.274l6.814 11.23h142.88zm-79.265 80.492c.29-1.237 3.69-17.55 7.556-36.25l13.051-62.5 13.427-64 9.306-44.333c1.335-6.198 1.57-8.938.787-9.185-2.269-.717-15.758-2.673-16.092-2.333-.378.385-14.339 23.993-29.48 49.851l-66.024 112c-26.016 44.06-25.133 42.414-23.16 43.144 1.005.372 16.635 3.221 34.734 6.333l42.906 7.476c13.05 2.375 12.383 2.386 12.989-.203zm144.805-218.856c-.608-.608-13.41-10.225-28.45-21.371l-27.344-20.267-3.5 2.082c-13.511 8.038-36.206 23.631-34.97 24.028.808.26 16.32 3.018 34.47 6.128l45.5 7.965c15.327 2.83 15.73 2.871 14.294 1.435z" fill="#faf8f6"/></svg>