<svg xmlns="http://www.w3.org/2000/svg" width="181.603" height="104.317" xmlns:v="https://vecta.io/nano"><path d="M67.435 104.037c-3.415-.673-6.282-3.199-7.479-6.59-1.342-3.802-1.61-15.166-.433-18.35.293-.792.61-1.764.704-2.16s.298-.72.454-.72.283-.22.283-.491c0-.704.873-1.954 2.807-4.02 2.254-2.41 3.592-2.678 10.526-2.106.381.031.801.165.933.297s.568.24.968.24.81.132.908.292.756.39 1.46.508 1.278.312 1.278.428.324.23.72.25 1.727.346 2.959.72c3.788 1.154 6.736.878 13.235-1.236 3.938-1.282 5.692-1.678 7.246-1.639 1.644.042 4.64.705 4.64 1.027 0 .136.317.348.705.47a3.41 3.41 0 0 1 1.163.683c.319.318.56.356.793.124s-.056-.716-.943-1.585c-2.338-2.292-6.635-2.535-12.105-.686l-2.953.964c-.055 0-.1-.27-.1-.6 0-.82-.541-1.205-2.325-1.654-.966-.243-1.515-.556-1.515-.863 0-.366-.103-.396-.43-.125-.236.196-.542.25-.68.12s-.148.122-.022.562.519 1.052.875 1.36c.552.478.57.56.113.56-.294 0-.453.132-.353.293s0 .365-.221.455-.042.184.398.212.619.124.398.213-.327.284-.234.434-.498.372-1.312.494c-1.4.21-1.54.16-2.64-.94-.843-.842-1.014-1.16-.623-1.16.296 0 .654-.18.795-.4s.544-.56.896-.753c1.132-.623.967-1.815-.464-3.349-.713-.765-1.31-1.613-1.326-1.885l-.08-1.43c-.042-.78-.447-1.21-2.45-2.599-1.32-.915-2.933-2.333-3.584-3.151s-1.615-1.85-2.142-2.294a9.32 9.32 0 0 1-1.605-1.852c-.355-.574-1.335-1.493-2.177-2.041s-2.026-1.44-2.63-1.982-1.18-.985-1.28-.985-.99-.756-1.978-1.68-2.427-2.03-3.2-2.456-1.476-.86-1.564-.963-.736-.569-1.44-1.035-1.64-1.187-2.08-1.6-1.541-1.132-2.446-1.596-2.535-1.434-3.623-2.157-2.045-1.313-2.128-1.313-.945-.587-1.916-1.304-2.299-1.545-2.95-1.84c-.742-.345-1.458-.742-2.142-1.19a24.75 24.75 0 0 0-2.155-1.272c-.66-.34-1.2-.721-1.2-.846s-.504-.409-1.12-.631-1.12-.501-1.12-.618c0-.55-8.222-2.686-11.84-3.077-1.144-.123-5.533-.2-9.754-.17l-7.673.054 1.076-.654c1.707-1.038.899-1.33-3.53-1.272-2.165.028-3.835-.051-3.71-.177.355-.354 3.368-1.359 3.545-1.182.087.087.415.014.73-.162.439-.246.704-.168 1.143.34.315.362.573.522.573.354s-.168-.472-.373-.677c-.41-.41.294-.772 2.231-1.144.958-.184 1.011-.156.561.294-.32.32-.756.422-1.218.286l-.721-.211.696.511c.69.506 1.327.516 2.437.037.316-.136.65-.171.744-.078s.617.043 1.162-.114c.607-.174 1.134-.165 1.36.023.245.203.772.103 1.551-.295.65-.33 1.455-.53 1.79-.443s3.104-.065 6.154-.34l7.146-.631c.88-.074 1.875-.247 2.212-.386.43-.178.544-.143.383.117-.15.242-.056.305.268.18.676-.259.624-.677-.143-1.156-.392-.245-.64-.746-.64-1.293 0-.491-.208-.972-.461-1.07s-.695-.534-.982-.971c-.405-.62-.437-.895-.143-1.25.22-.263.273-.69.129-1.018-.43-.977-.352-2.35.123-2.167.234.09.495.163.579.163s.069.136-.034.302.323.543.946.839c1.284.609 1.721 1.1.981 1.1-.274 0-.498-.145-.498-.32a.32.32 0 0 0-.32-.32c-.742 0-.222.56 1.13 1.216.798.388 1.533.92 1.634 1.182s.321.392.49.288c.182-.113.123-.406-.145-.719-.249-.29-.54-.776-.647-1.079-.215-.606.527-1.529 1.23-1.529.737 0 3.368.951 5.748 2.078 1.61.744 3.242 1.437 4.895 2.08 2.152.827 2.586 1.103 2.292 1.457-.651.785-.02 1.136 1.718.956 1.518-.158 1.603-.132 1.033.309-.786.608-.478.609 1.032.002l1.19-.478-.756.638c-.456.385-.583.64-.32.643.348.004.342.064-.028.298-.363.23-.277.34.4.51.486.122.864.44.864.726 0 .336.107.401.317.192.2-.2.21-.689.026-1.33-.27-.941-.248-.987.31-.638.44.274.497.444.214.632s-.226.38.222.722c.548.419.556.486.082.668-.29.111-.452.325-.36.475s.37.195.614.101c.25-.095.602.123.801.494.196.366.567.665.825.665s.469.134.469.299.317.399.705.522.902.42 1.143.661c.502.503 1.167.595.874.122-.113-.182.017-.235.305-.124.275.105.75-.002 1.057-.239.502-.388.5-.365-.016.242-.56.659-.551.677.397.866.532.107 1.15.15 1.371.095s.296-.039.164.035c-.47.263-.25 1.113.24.925.292-.112.48 0 .48.286 0 .424.383.612 1.04.508.132-.02.24.178.24.442s.2.48.445.48.535.231.643.513.398.437.643.343c.264-.102.512.081.607.448.1.382.341.55.63.44s.531.064.64.478c.09.381.428.652.82.658.369 0 .737.278.853.645.113.354.34.561.504.46s.386.04.491.315.393.5.638.5.446.144.446.32.167.32.371.32c.405 0 2.189 1.873 2.189 2.298 0 .144.108.245.24.224.764-.12 1.36.097 1.36.497 0 .252.288.55.64.661s.64.338.64.502.206.298.458.298.55.288.662.64.387.64.612.64.669.288.988.64.748.64.955.64.57.36.805.8.597.8.805.8c.631 0 4.502 3.567 4.514 4.16.007.342 1.737 2.01 1.907 1.84.1-.1-.046-.619-.323-1.154-.904-1.748-.712-1.984 1.065-1.309l1.568.596 1.552-.745c3.313-1.591 4.624-2.129 5-2.05.216.046.781-.177 1.258-.495s1.038-.471 1.249-.341c.222.137.3.102.185-.085-.22-.356 2.185-1.19 2.633-.913.154.095.368-.058.476-.339.115-.3.4-.433.69-.322.283.109.41.055.298-.126s.227-.317.803-.317c.548 0 .918-.129.82-.286s.01-.358.236-.445c.236-.09.431.089.456.42.046.603-.716 1.085-1.221.773-.16-.099-.291-.027-.291.16 0 .387 1.251.448 1.817.089.207-.132.35-.506.32-.831-.075-.772.973-1.492 1.333-.916.197.315.483.323 1.305.037.817-.285 1.108-.278 1.299.03s.3.309.482.015c.13-.21.076-.542-.12-.738-.543-.543-.433-.779.444-.946.44-.084.8-.043.8.093s.3.167.667.07c.507-.132.564-.239.24-.444-.291-.185-.306-.273-.046-.276.813-.01.733.655-.122 1.013-.803.336-.828.389-.238.494.618.11 1.574-.182 2.699-.824 1.668-.952 2.78-1.336 5.607-1.935.084-.018.297-.033.473-.033s.32-.24.32-.533.09-.443.202-.331.493.046.848-.144c.54-.29.614-.262.448.17-.266.696.068.655.711-.087.534-.615 3.072-1.515 2.735-.97-.1.162.034.295.298.295.585 0 .974-.541.502-.698-.186-.062 1.073-.525 2.798-1.03l4.578-1.381c1.766-.572 8.609-2.33 9.068-2.33.184 0 .069.193-.256.43-.424.31-.482.498-.207.668.21.13.61.048.887-.182.323-.268 1.266-.397 2.626-.357 1.476.042 1.927-.027 1.482-.227-.352-.158-1.288-.31-2.08-.338-1.39-.048-1.407-.06-.48-.35.528-.166 2.08-.364 3.45-.441s2.618-.218 2.773-.314c.67-.414 4.178-.567 4.619-.201.353.293.493.285.621-.035s.172-.32.191-.014c.014.22.178.4.365.4s.25-.144.14-.32c-.24-.388.234-.425.657-.051.167.148.83.583 1.471.966l1.168.698-.048-1.034c-.043-.943.05-1.051 1.073-1.23.616-.11 1.432-.301 1.814-.427.44-.145.847-.066 1.108.214.35.375.51.352 1.046-.147.348-.324.93-.57 1.292-.545.602.04.596.056-.06.182-.892.172-.953.734-.08.734a.59.59 0 0 1 .314 1.123c-.178.11-.251.32-.161.466s-.077.356-.37.468-.63.045-.751-.15c-.15-.242-.386-.187-.749.175-.29.291-.708.457-.926.37-.314-.128-.314-.167.003-.187.447-.028.553-1.492.128-1.755-.15-.093-.461.403-.692 1.1-.493 1.495-1.125 1.716-.841.294.112-.56.07-.898-.098-.795-.161.1-.38.042-.485-.13-.34-.55-1.052-.006-1.052.806 0 .632.087.715.44.422.322-.267.44-.269.44-.006 0 .353-.413.485-1.2.383-.22-.029-.4.098-.4.282s-.16.334-.354.334-.279-.198-.186-.44c.21-.546-1.055-1.16-2.39-1.16-.738 0-.934.118-.795.48.102.264.045.48-.125.48s-.274.172-.23.381-.198.441-.538.515c-.578.125-.583.099-.08-.404.296-.296.538-.733.538-.972 0-.652-.918-1.44-1.676-1.44-.746 0-.607.238.445.768.847.426 1.15 1.152.48 1.152-.265 0-.548-.252-.629-.56s-.163-.092-.183.48c-.043 1.208-.677 1.433-.677.24 0-.44-.118-.8-.262-.8s-.232.612-.194 1.36 0 1.108-.082.8c-.215-.809-1.062-.694-1.062.144 0 .926-.564.365-.709-.704-.164-1.218-.526-1.603-1.47-1.566l-.861.034.88.348c.976.386 1.17.864.35.864-.493 0-.493.04 0 .585.695.768.668 1.015-.11 1.015-.352 0-.64.144-.64.32s-.424.32-.941.32-1.032.146-1.142.325-.326.249-.477.155-.366-.024-.477.155-.552.325-.982.325c-.456 0-.781.186-.781.448 0 .297-.317.426-.94.383-.517-.035-.886.023-.82.13s-.518.474-1.297.816-1.419.731-1.42.863-.291.24-.643.24-.64.144-.64.32c0 .448.01.445 3.294-.772 5.546-2.056 9.677-3.346 11.431-3.57.965-.122 1.928-.36 2.14-.528s.538-.211.723-.097c.372.23.967-1.063.751-1.632-.075-.197.106-.451.401-.564.549-.21.545.116-.018 1.483-.27.656.45.78 1.049.181.208-.208.69-.402 1.07-.43.63-.046.643-.014.147.348-.3.22-.416.48-.256.58s.481-.176.714-.61c.479-.895 1.143-1.086.795-.229-.816 2.012-1.441 4.151-1.441 4.93 0 .5-.132.91-.294.91s-.545.097-.853.215c-.324.124-.479.085-.368-.094s-.29-.264-.988-.2l-1.177.106.8-.482c.44-.265 1.088-.499 1.44-.519.37-.02.466-.106.226-.202-.266-.107-.307-.297-.116-.535.17-.213.18-.673.023-1.089-.255-.675-.935-.9-2.213-.733-.333.044-.284-.089.16-.432.506-.391.535-.497.14-.505-.275-.005-.811.411-1.192.926-.574.777-1.006.975-2.54 1.166-2.932.365-3.5 1.05-3.628 4.372-.032.854-.596 1.008-.88.24-.25-.674-.26-.672-.63.14-.274.601-.573.794-1.103.713-1.01-.154-.915-.576.473-2.122.66-.735 1.2-1.47 1.2-1.63 0-.45-1.523-.351-2.512.16-.484.25-2.025.836-3.424 1.3-3.88 1.288-5.682 2.39-5.936 3.63-.115.564-.083 1.104.071 1.2a.65.65 0 0 1 .28.493c0 .176-.18.212-.4.08-.271-.164-.258-.067.04.3.475.587.843.743.52.222-.108-.176-.044-.32.142-.32s.339-.226.339-.501c0-.332.19-.442.56-.324.433.137.56-.007.56-.635 0-.616-.135-.777-.56-.666-1.105.289-.87-.408.312-.924.664-.29 1.604-.738 2.088-.997l.88-.469-.001 1.218c-.001 1.023-.283 1.534-1.76 3.188-1.331 1.494-1.912 1.93-2.398 1.803-.352-.092-.64-.375-.64-.63 0-.267-.156-.365-.37-.232-.266.164-.312-.063-.165-.8.271-1.356-.87-2.586-2.411-2.601-.899-.009-.979-.068-.541-.401.282-.215.624-.75.76-1.19l.246-.799-.698.874c-.384.48-.798.86-.92.842-.862-.123-2.082.092-1.742.308.27.17-.02.438-.887.82-4.172 1.841-11.142 7.39-12.15 9.673l-.44.997-1.345-1.65c-.922-1.133-2.002-1.985-3.438-2.714-1.966-.998-2.346-1.073-6.208-1.23-2.263-.091-5.513-.061-7.223.067-3.062.23-3.109.245-3.109 1.053 0 .8-.016.805-.64.24s-.64-.559-.64.305c0 .71-.11.841-.56.669-.37-.142-.26.096.32.703 1.165 1.215 1.126 2.104-.124 2.896-.701.444-1.027.917-1.078 1.566-.04.512-.174 1.248-.297 1.636-.161.507-.093.705.243.705.6 0 .796.532.69 1.87-.083 1.052-.068 1.065 1.001.865 1.02-.192 1.085-.15 1.085.675 0 .683.086.793.384.494.53-.53.896-.48.896.119 0 .277.22.723.49.992.392.393.582.411.965.093s.593-.291 1.08.15c.519.469.71.486 1.355.124.412-.232.832-.532.932-.666.288-.388 2.218.418 2.218.927 0 .355.14.385.62.128.71-.38 2.095.024 2.361.688.11.277.177.229.194-.139.014-.308.162-.56.33-.56s.45.252.63.56c.301.518.327.513.336-.064.007-.475.098-.535.382-.251s.475.242.8-.176c.403-.518.451-.518.859.006.483.622.848.432.848-.44 0-.628-1.503-1.555-2.521-1.555-.348 0-.886-.252-1.194-.56s-.774-.56-1.033-.561-.513-.287-.564-.635-.246-.683-.432-.745c-.4-.134-.123-.699.342-.699.176 0 .217.167.091.37-.157.254-.012.314.461.19.38-.099.69-.072.69.06s.576.411 1.28.622 1.28.532 1.28.713.27.243.6.138c.42-.133.957.168 1.796 1.007.658.658 1.036 1.25.84 1.315s-.356.255-.356.422-.828 1.461-1.84 2.876c-2.745 3.838-3.067 4.582-3.218 7.442-.073 1.383.015 2.823.196 3.2.602 1.254.989 2.752 1.207 4.676l.215 1.904-.979-.37c-.539-.203-.973-.45-.965-.547.044-.564-.496-1.581-.754-1.422-.168.104-.234.374-.148.6.185.482-.637 1.764-1.131 1.764-.226 0-.214-.153.034-.451.273-.33.278-.511.017-.673-.207-.128-.43.062-.533.452-.1.383-.435.672-.778.672-.332 0-.603.216-.603.48 0 .661-.613.605-.872-.08-.117-.308-.4-.75-.63-.984-.348-.35-.45-.323-.602.16a8.13 8.13 0 0 1-.48 1.143c-.209.389-.152.728.185 1.12l1.42 1.681c.738.882 1.02 1.038 1.33.731s.29-.658-.114-1.684c-.558-1.42-.603-1.427 1.843.246l1.6 1.094.105-.873c.058-.48-.05-1.027-.24-1.217-.695-.695-.323-.926 1.14-.707 1.275.191 1.457.151 1.29-.284-.285-.741.112-.62 1.116.343.723.693.973.777 1.359.456.393-.326.608-.177 1.278.885.986 1.56 1.365 1.817 1.96 1.324.331-.275.372-.544.146-.966-.523-.977-.362-1.017.734-.18 1.256.957 2.03.7 1.711-.567-.196-.781-.16-.81.618-.514.455.172 1.14.488 1.525.7s.878.35 1.098.306.4.07.4.253.144.334.32.334.32-.288.32-.64c0-.728-.485-.7 14.254-.808 8.15-.06 9.183-.2 9.859-1.348.321-.546 1.335-.408 5.167.702l6.88 1.92c3.537.965 4.48 1.35 5.2 2.122 1.097 1.174 1.108 1.892.052 3.148-1.166 1.385-2.432 1.34-3.738-.136-1.079-1.218-1.883-1.368-4.234-.79a167.25 167.25 0 0 1-3.498.8l-2.219.486-1.23-1.202c-1.173-1.145-1.35-1.208-3.702-1.328-2.652-.134-16.534.4-24.811.956-3.822.256-5.283.247-5.971-.038-.715-.296-1.072-.288-1.66.037-.412.228-.89.373-1.064.322s-.914-.003-1.646.107c-.952.142-1.378.378-1.495.825-.09.344-.308.625-.484.625s-.247-.278-.158-.618c.128-.49.03-.584-.474-.452-.35.091-.732.01-.85-.182-.358-.579-1.401-.39-1.618.292-.111.352-.333.64-.491.64s-.22-.18-.135-.4c.164-.425-2.272-.418-9.614.027l-3.52.213-.72 1.428c-1.15 2.282-.821 4.343.961 6.018.902.847 3.155 1.674 4.56 1.674 1.357 0 1.948.667 1.387 1.566-1.11 1.777-5.013 1.905-10.496.343-4.967-1.414-6.4-1.293-11.052.938-5.22 2.503-7.948 3.525-10.338 3.87-2.435.353-2.598.352-4.47-.017zm49.699-22.684a.4.4 0 0 0-.547-.141c-.215.133-.182.298.093.468.514.317.747.149.453-.327zm-6.644-2.516c.078-.234-.068-.305-.38-.186-.278.107-.506.335-.506.507 0 .42.727.157.886-.321zm-1.846-1.48c0-.339-.615-.48-.797-.185-.11.179.023.325.298.325s.499-.063.499-.14zm-20.023-16.1c.39-.72.48-.767.49-.256.01.465.105.532.375.262.2-.2.278-.584.174-.855-.165-.43-.32-.436-1.243-.048-.58.243-1.039.599-1.021.79.076.832.145.987.437.987.17 0 .525-.396.788-.88zm.186-5.547c-.299-1.267-.33-1.227-.44.55-.064 1.038.002 1.238.308.932.264-.265.306-.741.132-1.482zm-1.611 1.307c.142 0 .343-.218.445-.484.148-.386.01-.442-.686-.276-1.184.283-1.396.43-1.164.804.108.176.41.238.671.138s.59-.182.734-.182zm-3.397-.8c.198-.516-.052-1.44-.39-1.44-.113.001-.236.433-.273.96-.07 1.005.347 1.306.663.48zm.076-4.423c.447.171.512.04.39-.789-.08-.547-.028-.921.117-.832s.262.01.262-.177-.352-.339-.782-.339-.87-.144-.978-.32c-.625-1.01-.777.615-.27 2.88l.179.8.273-.714c.19-.496.438-.652.81-.51zm1.409.282c0-.078-.144-.23-.32-.339s-.32-.045-.32.141.144.34.32.34.32-.064.32-.142zm-5.325-4.179c-.116-.304.005-.48.33-.48.283 0 .515-.216.515-.48 0-.502-1.123-.674-1.406-.215-.227.367.14 1.655.473 1.655.15 0 .19-.216.088-.48zm-9.103-2.72c-.011-.316-.111-.262-.292.16-.378.88-.378 1.385 0 .8a1.98 1.98 0 0 0 .292-.96zm6.428.381c0-.142-.228-.538-.507-.88-.463-.568-.49-.571-.32-.035.103.323.187.719.187.88s.144.294.32.294.32-.116.32-.259zm24.133-.575c.279-.107.507-.32.507-.472s-.35-.145-.78.018c-.531.202-.816.182-.898-.065-.135-.404-.882-.056-.882.412 0 .338 1.278.404 2.053.107zm-29.892-1.726a.32.32 0 0 0-.64 0 .32.32 0 0 0 .64 0zm2.618-1.35c-.23-.229-.378-.248-.378-.047 0 .182.096.427.213.544s.288.139.379.048-.005-.336-.214-.544zm-3.065-.483c-.325-.325-.594.164-.327.596.202.326.277.327.386.001.074-.222.047-.49-.06-.597zm44.127-3.03c.201-.19-.035-.22-.64-.078-.528.123-1.104.36-1.28.525-.202.19.035.219.64.078.528-.124 1.104-.36 1.28-.526zm30.88.383c0-.176-.153-.32-.34-.32s-.25.144-.14.32.26.32.338.32.142-.144.142-.32zm-.8-3.2c.108-.176-.019-.32-.283-.32s-.569.144-.677.32.018.32.282.32.569-.144.678-.32zm-80.247-2.433c-.106-.106-.382-.118-.613-.025-.256.102-.18.178.193.193.337.014.526-.062.42-.168zm66.967-.127a.32.32 0 0 0-.64 0 .32.32 0 0 0 .64 0zm4.48-.16c0-.264-.127-.48-.281-.48s-.46.216-.68.48c-.332.401-.286.48.281.48.39 0 .68-.204.68-.48zm-76.48-.48c.413-.267.405-.31-.062-.315-.297-.003-.63.14-.738.315-.25.405.173.405.8 0zm80.08-.226a4.56 4.56 0 0 0-1.44 0c-.396.077-.072.139.72.139s1.116-.062.72-.139zm-85.52-1.054c0-.176-.136-.32-.302-.32s-.39.144-.498.32.026.32.3.32.5-.144.5-.32zm86.56 0c.108-.176.045-.32-.142-.32s-.338.144-.338.32.063.32.14.32.23-.144.34-.32zm11.68.194c0-.069-.216-.208-.48-.31s-.48-.044-.48.126.216.31.48.31.48-.056.48-.126zm-7.547-.708c.279-.107.507-.323.507-.48 0-.458-.846-.33-1.28.194-.423.509-.11.625.773.286zm10.43-.602c-.218-.262-.539-.388-.714-.28-.193.119-.147.304.116.471.69.438 1.03.329.598-.191zm-14.49-.037c-.106-.106-.382-.118-.613-.025-.256.102-.18.178.193.193.337.014.526-.062.42-.168zm2.13-.18c.724-.206 1.46-.51 1.637-.677.204-.193.088-.237-.32-.123-.352.099-1.18.275-1.84.392s-1.2.34-1.2.497c0 .366.142.36 1.722-.09zm6.367-.305c-.255-.255-.711-.264-1.584-.033l-1.226.325 1.584.033c1.168.024 1.49-.06 1.226-.325zM7.331 20.911c.09-.147-.039-.267-.287-.267s-.378.12-.287.267.22.266.287.266.196-.12.287-.266zm22.593-.694c0-.4-.34-.4-.96 0-.389.251-.343.311.24.315.396.003.72-.139.72-.315zm1.44-.32c.108-.176.045-.32-.142-.32s-.338.144-.338.32.063.32.14.32.23-.144.34-.32zm7.308-1.04c-.206-.338-1.954-.3-2.169.048-.097.159.383.267 1.069.24s1.18-.156 1.1-.288zm11.412-3.9c0-.079-.144-.231-.32-.34s-.32-.045-.32.141.144.34.32.34.32-.064.32-.142zm-2.24-.839c0-.186.18-.235.4-.108s.289.108.153-.041c-.299-.33-1.513-.45-1.513-.152s.373.64.693.64c.147 0 .267-.152.267-.339zm73.506 75.98c-.434-.435-.222-.7.424-.53.383.1.938-.078 1.35-.43l.698-.6-.506.8c-.503.795-1.532 1.193-1.966.76zm47.953-7.707c-.107-.278-.125-.575-.04-.66.231-.231 1.14.184 1.14.522 0 .54-.903.653-1.1.138zm-2.74-.524c0-.527.176-.85.462-.85.764 0 .842.52.171 1.127-.615.556-.632.549-.632-.277zm-2.657-.642c-.236-.617.578-1.365.907-.833.124.202.013.58-.248.84-.419.42-.495.419-.659-.006zm-2.576-1.002c-.171-.447.543-.91.882-.57.32.319.216.646-.262.83-.243.098-.52-.018-.62-.26zm-2.766-.649c0-.48.183-.797.46-.797.755 0 .83.49.163 1.06-.594.509-.623.496-.623-.263zm-2.653-.477c-.089-.339.038-.782.282-.984.646-.536.976.505.356 1.124-.422.423-.495.407-.638-.14zm-62.787-10.24c-.11-.176-.046-.32.14-.32s.34.144.34.32-.064.32-.142.32-.23-.144-.338-.32zm28.05-9.28c-.478-.646-.572-.96-.289-.96.231 0 .676.432.988.96s.442.96.289.96-.597-.432-.988-.96zm-2.06-2.421c-.666-.62-1.371-1.025-1.57-.902s-.276.087-.174-.078-.308-.637-.91-1.05-1.094-.913-1.092-1.11c.003-.24.083-.25.24-.028.13.182 1.028.852 1.996 1.488 1.781 1.172 3.558 2.828 3.015 2.813-.162-.005-.84-.515-1.505-1.134zm-1.83-3.312a.54.54 0 0 1 .24-.428c.132-.074.047-.085-.19-.025-.682.172-1.14-.25-.645-.595.31-.214.24-.247-.24-.113-.379.106-.815.01-.994-.219-.447-.57-.726-1.847-.404-1.847.356 0 2.375 1.26 3.452 2.154.728.604.786.764.38 1.036-.603.403-1.6.426-1.6.037zm5.126-.18c-.252-.303-.277-.487-.064-.487.386 0 .837.607.615.83-.08.08-.328-.074-.551-.342zm26.554-6.101c0-.273.354-1.16.786-1.973s.712-1.598.621-1.745.06-.268.334-.268.499-.24.499-.533.08-.453.179-.355c.192.193-.853 3.596-1.444 4.699-.42.784-.975.884-.975.175zm12.54-.794c-.809-.493-1.012-.796-.858-1.279.11-.348.059-.633-.114-.633s-.373.173-.443.384c-.079.236-.21.168-.343-.177-.118-.308-.088-.481.068-.385.479.296.67-.74.308-1.665-.343-.872-.346-.873-.621-.157-.374.973-.679.916-.429-.08.14-.557.07-.803-.234-.81-.297-.007-.25-.15.152-.455.429-.325.562-.783.495-1.706-.07-.98.097-1.486.752-2.264.74-.88.9-.945 1.311-.534.272.271.561 1.447.69 2.798.121 1.282.437 3.31.702 4.505.46 2.075.417 3.108-.126 3.105-.138 0-.727-.292-1.31-.647zm-10.29-4.712c.03-.632.876-1.737 1.079-1.41.256.416-.328 1.65-.78 1.65-.17 0-.304-.108-.298-.24zm-63.057-2.168c-.222-.268-.343-.55-.267-.625s.314.144.528.488c.465.744.31.825-.26.137zm26.247-2.835c0-.067.288-.198.64-.29s.56-.037.461.123c-.172.279-1.101.42-1.101.167zm-32-2.066c-1.102-1.206-1.281-1.33-1.92-1.33-.176 0-.32-.217-.32-.48s.152-.48.338-.48.27.113.184.251.23.436.7.66c.876.418 2.9 2.609 2.41 2.607-.15 0-.776-.553-1.392-1.228zm78.437 1c-.02-.215-.253-.308-.517-.207-.643.247-.605-.293.113-1.634l.594-1.108.383.84c.23.505.263.916.083 1.03-.165.103-.371.476-.46.828s-.176.465-.196.25zm-81.553-3.662c-.04-.515.039-.593.316-.317.242.243.26.476.051.684s-.333.083-.367-.367zm-1.638-1.02c-.969-1.03-.852-1.303.274-.638.983.581 1.167.903.686 1.2-.15.093-.582-.16-.96-.561zm-2.078-1.84c-.316-.368-.493-.751-.393-.85.213-.213 1.465.856 1.465 1.25 0 .472-.479.294-1.072-.4zm-2.585-2.056c-.34-.256-.529-.554-.421-.662s.52.107.917.477c.816.76.446.898-.496.185zm101.642-1.098c.441-.707.752-.62.464.131-.104.272-.339.494-.522.494-.21 0-.19-.23.058-.625zm-9.161-.354c-.609-.613-.605-.62.37-.62.828 0 .959.101.818.64-.204.782-.396.778-1.188-.02zm10.176-.557c.1-.163.87-.468 1.711-.679l2.686-.684c2.1-.546 2.079-.29-.037.462-2.478.88-4.62 1.323-4.36.901zm.36-1.482c1.056-.245 1.98-.387 2.053-.314.31.306-.339.5-2.1.626l-1.873.134zm-113.442-3.22c.413-.44.808-.742.878-.672.251.25-.72 1.47-1.17 1.47-.32 0-.232-.24.292-.799zm-47.48-2.868c.239-.62 1.722-.516 1.722.12 0 .358-.09.384-.37.105-.251-.252-.554-.27-.952-.056-.462.247-.545.211-.4-.17zm2.232-.445c-.093-.15.295-.28.86-.288.839-.013.911.033.39.25-.855.353-1.052.359-1.25.038zm5.89-.354c-.44-.15-1.264-.285-1.83-.303-.786-.024-.986-.148-.842-.521.123-.323.407-.42.83-.286.857.272 1.331-.5.625-1.016-.456-.333-.413-.366.305-.229.633.121.797.308.676.77-.202.773.497.806 1.07.05.234-.308.432-.416.44-.24s.146.527.306.78c.247.39.37.393.82.02.429-.356.577-.36.784-.025.141.229.524.33.856.227.641-.2 1.653.245 1.194.526-.538.328-4.449.513-5.234.247zm-7.141-.542c-.094-.094-12.758-.505-14.22-.461-.395.011-.72-.104-.72-.256 0-.401 4.971-1.245 9.6-1.63l5.927-.49c1.388-.114 2.115-.027 2.598.311.37.259.782.368.917.242s.176-.013.09.251-.395.438-.685.386-.526.026-.526.172-.305.289-.677.317c-.887.067-1.17.375-.642.701.29.18.11.308-.57.408-.548.08-1.039.102-1.092.049zm13.38-.113c.11-.176.022-.32-.194-.32s-.326-.066-.245-.147c.236-.235 1.56.193 1.56.504 0 .156-.297.283-.66.283s-.57-.144-.46-.32zm24.957-.325c-.11-.179-.325-.249-.476-.155s-.367.024-.477-.155.08-.325.423-.325.708.216.81.48c.208.545.024.647-.28.155zm-35.566-.358c.424-.246.691-.243.944.01.258.258.098.35-.59.343-.828-.008-.872-.052-.354-.353zm3.09-2.757c0-.323.15-.342.64-.08.352.189.64.379.64.423s-.288.08-.64.08-.64-.19-.64-.423zm2.72-2.032c-1.626-.546-1.92-.761-1.92-1.404s.075-.695.48-.358c.264.22 1.128.598 1.92.84s1.783.699 2.203 1.016l.763.578-.763-.014c-.42-.007-1.627-.303-2.683-.658zM8.484 10.6C.949 9.422-.381 9.114.082 8.65c.549-.548 17.259.45 20.482 1.224.396.095.72.373.72.618 0 .523-.512.592-.81.11-.128-.207-.35-.224-.579-.043-.474.373-9.089.404-11.411.041zm14.232-2.556c-.114-.183-.518-.246-.9-.139-.393.11-.535.081-.328-.067.266-.19.245-.372-.08-.673-.365-.34-.444-.326-.444.08 0 .571-.367.638-.85.155-.186-.186-1.042-.391-1.904-.457s-1.926-.207-2.366-.314c-1.115-.271-2.616-.54-3.28-.588-.308-.023-.56-.139-.56-.259s-.324-.208-.72-.197c-1.198.034-6.526-1.37-7.164-1.888-.54-.438-.339-.468 2.124-.318 2.261.138 10.767 1.965 12.48 2.681.264.11.624.213.8.227s.51.146.74.29.509.178.615.072.456.045.779.337.586.426.586.298.213-.02.474.242.8.412 1.2.336c.673-.128.68-.116.086.166-.856.407-1.046.409-1.288.016zm2.494.111c.311-.08.743-.075.96.012s-.038.154-.566.148-.706-.078-.394-.16zm2.132-.92c-.402-.428-.92-.778-1.154-.778s-.424-.132-.424-.294-.468-.394-1.04-.515c-1.396-.296-4.183-1.475-4.475-1.894-.13-.185-.238-.225-.24-.089s-.473 0-1.045-.305-1.148-.525-1.28-.489-.24-.073-.24-.244-.198-.234-.44-.141-.655-.05-.921-.315-.557-.41-.646-.32c-.24.239-3.113-1.171-3.113-1.528 0-.167-.18-.202-.4-.078-.284.16-.304.12-.069-.136.382-.417 3.989.462 3.989.972 0 .162.138.209.307.104s.564-.052.88.115 1.689.774 3.053 1.349 2.48 1.17 2.48 1.325.14.195.31.089c.332-.205 2.279.681 2.605 1.186.108.167.324.292.48.28.537-.045 1.565.364 2.104.837.297.26.693.38.88.264s.34-.058.34.128c0 .432-.507.432-1.315 0-.574-.307-.597-.28-.242.288.215.345.582.554.815.465s.423-.09.423-.002c0 .55-1.008.379-1.622-.275z" fill="#faf8f6"/></svg>