<svg xmlns="http://www.w3.org/2000/svg" width="611.916" height="2606.584" xmlns:v="https://vecta.io/nano"><path d="M368.355 2606.028c-3.806-.35-4.121-.628-5.322-4.696-.703-2.379-1.442-8.893-1.644-14.477-.212-5.893-.944-11.312-1.744-12.916-.758-1.52-1.497-5.66-1.641-9.2s-.526-6.864-.848-7.385-.498-4.694-.39-9.275c.131-5.666-.17-8.328-.943-8.328-.625 0-.881-.665-.57-1.478s.134-6.1-.396-11.75l-1.943-23.772c-1.199-16.521-1.66-19.87-2.954-21.428-.554-.669-1.263-5.008-1.574-9.644-1.592-23.708-2.43-29.474-5.384-37.073-1.634-4.205-3.26-9.186-3.614-11.07-.424-2.26-2.651-5.582-6.55-9.77-3.248-3.488-6.169-7.17-6.49-8.18s-1.452-1.835-2.515-1.835c-1.871 0-2.379-.998-1.976-3.886.12-.863-.382-1.165-1.33-.801-.963.37-1.752-.133-2.142-1.364-.34-1.072-1.039-1.95-1.552-1.95s-.932-.9-.932-2-.45-2-1-2-1-1.087-1-2.416-.456-2.569-1.013-2.754c-1.293-.431-2.974-10.621-2.981-18.08-.003-3.162-.345-5.75-.76-5.75-.773 0-3.667-14.396-5.228-26-.48-3.574-1.836-10.774-3.011-16-3.383-15.031-3.883-18.116-3.972-24.5-.045-3.3-.517-7.8-1.047-10-1.803-7.481-3.164-22.582-2.147-23.821.532-.648 1.123-2.303 1.313-3.678.251-1.815.894-2.44 2.346-2.28 1.1.122 1.55.01 1-.25s-.956-3.436-.902-7.06c.095-6.434-2.79-19.958-4.663-21.86-.514-.523-.935-1.78-.935-2.793 0-1.76-.652-2.832-4-6.58-1.264-1.413-1.343-3.096-.5-10.677.86-7.75 1.388-9.41 3.796-11.946 1.537-1.62 3.512-4.457 4.389-6.303.978-2.062 2.115-3.158 2.944-2.84s1.585-.418 1.962-1.92c.536-2.135 1.13-2.417 4.76-2.264 4.297.181 10.649-2.004 10.649-3.663 0-.52.667-.074 1.483.994 1.456 1.905 1.495 1.901 2.099-.24.709-2.513 2.424-3.395 5.464-2.81 1.522.294 1.982.01 1.598-.993-.432-1.125.527-1.335 4.79-1.051 4.973.33 5.295.216 4.79-1.711-.348-1.336-.155-1.829.55-1.394.598.37 1.334.274 1.636-.214.533-.862 6.332-2.548 7.84-2.28.412.075.696-.203.631-.615-.293-1.855.285-2.138 2.583-1.264 1.674.637 2.686.58 3.155-.18.445-.72.192-.853-.715-.374-.772.408-.292-.163 1.068-1.267 2.446-1.988 4.653-1.986 3.423 0-.383.62.215.574 1.505-.116 1.177-.63 2.653-.83 3.278-.443.768.475.954 0 .573-1.454-.467-1.786-.108-2.184 2.092-2.315 1.461-.087 3.427-.096 4.368-.019 1.062.087 1.514-.376 1.19-1.218-.72-1.879 4.61-3.191 5.739-1.413.578.912.834.606.844-1.009.013-1.914.39-2.199 2.167-1.635 1.688.536 2.022.346 1.55-.881-.415-1.084-.154-1.394.85-1.009.996.383 1.449-.135 1.449-1.658 0-1.537.449-2.041 1.47-1.65.81.311 2.172-.135 3.029-.991 1.316-1.317 1.81-1.35 3.202-.208 1.451 1.19 1.58 1.093 1.086-.823-.4-1.55.267-2.963 2.327-4.937 1.587-1.52 2.886-3.757 2.886-4.97s.675-2.466 1.5-2.782 1.5-1.73 1.5-3.142.624-3.564 1.387-4.782c2.86-4.565 3.995-13.075 3.824-28.685-.164-15.061-.844-19.285-4.512-28.03-.576-1.375-.946-2.908-.821-3.408s-.2-1.175-.723-1.5-1.092-1.942-1.265-3.592-.609-3.45-.969-4-2.131-5.5-3.937-11-3.778-10.33-4.384-10.734-.751-.742-.325-.75c1.079-.021-1.668-4.99-4.46-8.069-3.581-3.948-6.7-9.347-7.396-12.805-.15-.747-1.207-2.35-2.347-3.564s-2.072-2.928-2.072-3.81-.887-3.67-1.97-6.198-1.966-4.927-1.961-5.332c.009-.751-1.771-5.175-5.323-13.225-1.089-2.468-2.747-5.025-3.684-5.682s-2.28-3.137-2.982-5.512-1.978-5.106-2.834-6.069c-1.764-1.983-4.246-2.331-4.246-.595 0 .655-.866.372-2-.655-1.1-.995-2-1.316-2-.712s-.965.912-2.144.685-2.641-.102-3.25.278c-1.612 1.007-7.597 1.073-8.205.09-.286-.462-1.647-.84-3.026-.84s-3.406-.482-4.505-1.07c-1.455-.778-2.389-.745-3.434.123-1.148.952-1.436.866-1.436-.431 0-.892-.654-1.622-1.453-1.622-6.597 0-9.4-5.882-10.236-21.48-.526-9.827-.37-11.612 1.26-14.37 1.023-1.733 2.192-3.15 2.597-3.15 1.113 0 2.729-6.678 2.151-8.887-.278-1.065.923-4.93 2.67-8.59s2.96-7.214 2.696-7.9.365-2.344 1.396-3.685 1.884-3.62 1.896-5.066.653-4.146 1.423-6 1.628-5.622 1.904-8.372 1.238-7.7 2.136-11c1.023-3.763 1.615-9.73 1.586-16-.026-5.5.615-14.275 1.422-19.5.882-5.702 1.237-12.3.887-16.5-.527-6.352-.326-7.464 2.171-12 1.514-2.75 3.471-5.823 4.349-6.828s1.655-3.705 1.729-6c.183-5.711 1.377-9.672 2.916-9.672 1.576 0 4.667-7.4 3.913-9.367-.301-.784.372-2.07 1.495-2.857 1.322-.926 1.894-2.207 1.62-3.63-.264-1.373-.026-1.954.633-1.546.993.613 5.839-4.062 5.839-5.633 0-.397 4.06-5.093 9.021-10.436s9.735-11.094 10.607-12.78c1.802-3.483 2.753-4.768 6.622-8.94 1.512-1.63 2.751-3.493 2.753-4.138s.903-2.647 2-4.448 1.997-4.008 1.997-4.905 1.098-3.072 2.441-4.832c2.158-2.83 2.457-4.292 2.576-12.595.197-13.655.69-20.839 1.757-25.607.62-2.767.6-4.328-.059-4.548-.648-.216-.606-1.075.12-2.431.618-1.153 1.825-5.857 2.684-10.452l1.842-9.855c.367-1.966 1.432-4.799 3.195-8.5.786-1.65 1.578-4.05 1.76-5.333s.749-2.632 1.258-3c1.01-.727 6.243-15.002 7.107-19.384.295-1.495 1.342-2.973 2.328-3.286 1.453-.461 1.69-1.315 1.26-4.523-.309-2.306-.048-4.535.625-5.346.635-.766.955-2.995.712-4.956-.273-2.2.058-3.978.864-4.648.92-.763 1.074-2.11.522-4.56-.435-1.929-.385-3.721.112-4.029 1.552-.959 1.022-11.313-.714-13.963-.886-1.351-1.348-3.14-1.028-3.973.827-2.157-1.035-6.5-2.788-6.5-.811 0-1.835-.562-2.275-1.25-2.254-3.523-7.726-6.012-14.179-6.448-6.119-.413-8.796-1.098-13.357-3.418-.955-.486-2.642-.883-3.75-.883s-2.013-.378-2.013-.84-1.463-.877-3.25-.923l-24.372-.462c-17.758-.318-21.535-.648-23.715-2.077-1.426-.934-3.325-1.698-4.22-1.698s-2.772-.9-4.17-2-3.11-2-3.801-2-1.528-.704-1.858-1.564-1.455-1.423-2.5-1.25c-2.116.35-6.114-2.784-6.114-4.792 0-.712-.579-1.655-1.286-2.095-2.678-1.665-5.509-6.368-5.001-8.31.285-1.092-.277-3.201-1.25-4.686-1.196-1.825-1.839-4.986-1.984-9.752-.197-6.5-.925-11.802-2.137-15.551-.267-.825-.585-4.206-.708-7.513s-.638-6.682-1.144-7.5-1.03-4.22-1.16-7.562c-.467-11.898-1.123-17.68-2.076-18.298-1.765-1.146-2.207-12.436-1.1-28.127 2.294-32.531 1.356-53.408-2.748-61.155-.773-1.46-1.406-3.597-1.406-4.75s-.338-2.095-.75-2.094-.68-2.096-.596-4.658-.478-7.084-1.25-10.05-1.404-6.467-1.404-7.783-.45-2.67-1-3.01-1-1.404-1-2.363-1.575-3.272-3.5-5.137-3.5-4.028-3.5-4.804c0-.872-.6-1.18-1.575-.806-1.672.642-14.562-1.041-17.925-2.34-1.1-.425-3.703-1.51-5.784-2.412s-4.347-1.638-5.035-1.638-2.1-1.463-3.139-3.25-2.9-4.208-4.135-5.378-3.243-4.445-4.462-7.277c-1.9-4.417-2.11-6.105-1.473-11.872.407-3.698.805-8.748.884-11.223.096-3.013.728-4.936 1.91-5.819.972-.725 1.508-1.737 1.191-2.25s-.242-1.47.165-2.128.626-3.329.488-5.934.279-5.727.927-6.938 1.41-5.403 1.695-9.316c.467-6.427 1.093-7.99 3.547-8.859.428-.151.878-1.621 1-3.266s1.008-3.578 1.97-4.297 1.75-2.033 1.75-2.921.606-2.325 1.346-3.194 2.129-3.603 3.087-6.078c1.697-4.382 4.579-8 6.371-8 .488 0 1.701-.9 2.697-2s2.415-2 3.155-2 1.345-.643 1.345-1.429c0-.815 2.37-2.315 5.53-3.497 4.661-1.744 6.251-1.908 10.112-1.042 4.648 1.041 5.346.83 9.175-2.782.73-.688 2.531-1.253 4.004-1.257s3.825-.604 5.226-1.335 7.659-1.622 13.905-1.98c11.763-.672 15.35-2.022 14.926-5.612-.223-1.88 1.114-5.323 2.404-6.19.51-.343 1.083-2.603 1.274-5.021s1.943-9.17 3.895-15.003 3.559-11.224 3.571-11.979.902-2.498 1.978-3.873 1.965-3.288 1.978-4.25.41-1.75.883-1.75c2.33 0 1.698-28.364-.667-29.914-.493-.322-.81-2.161-.705-4.086s-1.087-7.057-2.649-11.404-2.84-8.933-2.84-10.191-.502-2.598-1.116-2.977c-.677-.418-.921-2.41-.62-5.074.271-2.412.174-4.583-.216-4.824s-.755-4.115-.812-8.608c-.117-9.385-1.04-15.922-2.245-15.922-1.023 0-2.301-5.251-2.46-10.111-.066-1.986-.887-4.783-1.825-6.215s-1.709-3.182-1.712-3.89-.716-2.634-1.584-4.284c-2.614-4.975-2.483-23.766.28-40 .28-1.65.578-5.813.66-9.25.128-5.32.42-6.25 1.967-6.25 1.423 0 1.668-.49 1.128-2.25-.38-1.238-1.034-2.7-1.455-3.25s-1.074-2.88-1.452-5.176c-.722-4.379.516-8.096 3.228-9.691 1.233-.725 1.25-1.009.104-1.735-2.107-1.33-3.87-1.056-3.87.606 0 .825-.697 1.5-1.548 1.5s-2.59 1.125-3.865 2.5c-2.806 3.028-3.204 3.075-3.887.46-.421-1.61-1.063-1.907-3.043-1.41-2.148.539-3.603-.464-10.1-6.96-4.174-4.175-7.341-7.59-7.038-7.59s.098-.847-.456-1.883c-1.165-2.176-9.921-3.965-10.985-2.244-.958 1.55-11.085-3.793-12.318-6.5-.569-1.249-1.985-2.406-3.147-2.572-1.483-.211-2.21-1.144-2.437-3.125-.178-1.553-1.211-3.803-2.296-5l-3.427-3.76c-.8-.871-1.453-1.95-1.453-2.397s-1.531-2.682-3.403-4.966-4.865-6.942-6.652-10.353-3.533-6.2-3.878-6.2-1.5-2.25-2.567-5-2.291-5-2.72-5-.78-.606-.78-1.345-.9-2.16-2-3.155-2-2.43-2-3.187-.71-1.648-1.577-1.981-1.98-1.669-2.475-2.969-1.585-2.363-2.424-2.363-1.524-.394-1.524-.875-1.606-2.618-3.57-4.75-5.329-6.575-7.48-9.875c-6.52-10-16.982-24.345-22.846-31.327-1.075-1.28-2.24-3.98-2.589-6-.708-4.097-2.21-6.496-4.637-7.405-.891-.334-1.93-1.84-2.309-3.348s-2.011-4.346-3.629-6.308-2.94-4.064-2.94-4.671-1.14-1.714-2.534-2.46c-2.701-1.445-6.466-6.773-6.466-9.15 0-.788-2.25-3.957-5-7.042s-5-6.09-5-6.677-1.129-1.806-2.508-2.71-3.66-3.937-5.068-6.741-4.668-8.182-7.243-11.95-5.631-8.628-6.793-10.8-2.771-4.727-3.578-5.68-2.966-4.809-4.799-8.57-3.843-7.362-4.468-8-2.38-4.104-3.9-7.7c-1.717-4.063-3.593-6.903-4.954-7.5-1.368-.6-2.22-1.899-2.271-3.461-.046-1.393-1.643-4.178-3.607-6.29-1.939-2.084-4.777-6.359-6.307-9.5s-3.07-5.935-3.425-6.21-2.12-3.538-3.924-7.25-3.702-6.75-4.218-6.75-.937-.46-.937-1.02-1.107-2.774-2.46-4.917-2.761-5.096-3.129-6.561-1.278-2.898-2.022-3.183-3.877-5.762-6.962-12.17l-6.745-14.008c-.625-1.298-1.137-4.11-1.137-6.25 0-2.751-.446-3.936-1.523-4.044l-3.022-.273c-1.593-.13-1.54-3.342.083-5.024 1.505-1.56 1.04-3.338-.833-3.19-.963.077-1.75-.535-1.75-1.36s-.728-2.228-1.617-3.117-1.94-3.771-2.334-6.405c-.639-4.257-3.485-9.84-5.92-11.612-1.247-.908-1.8-19.629-.746-25.27 1.004-5.376.45-8.894-1.247-7.925-.638.365-.776.256-.316-.248a3.66 3.66 0 0 1 2-1.017c3.068-.31 5.67-1.801 6.233-3.573.783-2.47-2.17-8.833-4.1-8.833-.8 0-1.453-.9-1.453-2s-.461-2-1.025-2-1.464-1.156-2-2.568c-.777-2.04-1.438-2.437-3.226-1.934-1.633.46-1.863.366-.841-.34 1.198-.827 1.154-1.508-.297-4.565-.938-1.976-2.134-3.593-2.658-3.593s-.953-.62-.953-1.378-.617-1.889-1.37-2.514c-.778-.646-1.416-3.217-1.478-5.948-.06-2.646-.828-6.533-1.707-8.638s-1.382-4.657-1.116-5.673.092-2.09-.386-2.385-1.308-1.983-1.845-3.75-1.737-5.24-2.667-7.714c-2.109-5.609-4.348-15.528-4.402-19.5-.023-1.65-.752-4.35-1.621-6s-1.804-5.475-2.079-8.5-1.135-7.197-1.914-9.27-1.415-5.562-1.415-7.75-.398-3.98-.884-3.98c-.785 0-2.018-2.714-2.5-5.5-.781-4.517-2.018-7.626-3.323-8.356-1.22-.683-1.626-3.244-1.902-12.034-.192-6.14-.753-11.94-1.245-12.888s-.558-2.622-.146-3.722.28-2.899-.293-3.997c-1.549-2.969-1.687-7.503-.23-7.503.816 0 1.066-.939.725-2.722-.467-2.444-.6-2.52-1.291-.75-.534 1.365-.816 1.51-.917.472-.081-.825-.334-2.4-.561-3.5a19.5 19.5 0 0 1-.325-4c.049-1.1.166-8.525.26-16.5.115-9.702.775-17.28 1.994-22.9 1.39-6.41 1.565-8.965.736-10.784-.866-1.9-.783-2.5.408-2.957.821-.315 1.494-1.65 1.494-2.966s.378-2.393.84-2.393c1.99 0 3.16-5.785 3.16-15.63 0-8.008.3-10.427 1.25-10.079.687.252 1.105 1.061.929 1.797-.558 2.324.88 7.993 1.871 7.38 1.662-1.027 1.025-7.076-.99-9.399-1.52-1.752-1.88-3.462-1.665-7.903.261-5.385.524-6.558 2.686-11.963 1.23-3.075 1.173-11.928-.081-12.703-.55-.34-1-1.7-1-3.022 0-3.443 3.98-13.609 5.065-12.938.501.31.642-.14.311-1.001s-.14-2.122.421-2.802 2.036-4.387 3.275-8.237 2.8-7.45 3.469-8 2.03-3.25 3.027-6 3.526-7.859 5.622-11.353 3.824-6.868 3.842-7.5.648-1.961 1.402-2.955c1.313-1.731 1.432-1.72 2.808.243 1.477 2.109 2.758 1.802 2.758-.661 0-.766-.412-1.138-.915-.827-1.566.968-1.884-1.825-.507-4.447.722-1.375 2.064-4.188 2.981-6.25s2.308-3.75 3.09-3.75 2.25-1.913 3.262-4.25 3.02-5.511 4.464-7.052 2.625-3.471 2.625-4.29 1.8-3.252 4-5.408 4-4.34 4-4.852 1.155-1.221 2.567-1.576 3.324-1.975 4.25-3.602 2.237-2.96 2.914-2.964 1.52-1.157 1.872-2.563l.642-2.557 1.916 2.057c2.05 2.2 3.839 2.692 3.839 1.057 0-.55-.45-1-1-1-1.3 0-1.3-3.697 0-4.5.55-.34 1-.217 1 .274s.632.892 1.404.892 1.192-.554.932-1.232c-.598-1.559 1.306-2.822 2.164-1.434.932 1.508 2.5.197 2.5-2.09 0-1.086.787-2.269 1.75-2.63s2.298-1.36 2.968-2.218c1.089-1.397 1.222-1.377 1.25.188.017.962-.418 1.75-.968 1.75s-1 .578-1 1.285.867 1.286 1.926 1.286 1.708-.354 1.441-.786c-1.169-1.89.865-2.717 3.44-1.397 1.48.76 3.77 1.32 5.088 1.246 2.075-.116 2.41-.656 2.5-4.033.07-2.58-.437-4.236-1.497-4.898-1.433-.894-1.381-1.221.492-3.101 2.53-2.54 8.963-4.974 9.443-3.574.183.535.732.972 1.219.972s.658-.591.381-1.313.318-2.057 1.322-2.966c1.604-1.451 2.152-1.482 4.518-.255 2.442 1.267 5.02.45 2.837-.898-1.328-.821-.143-4.518 1.273-3.975.653.25 2.184-.473 3.402-1.608s2.215-1.796 2.215-1.469 1.161-.667 2.58-2.21 2.303-2.26 1.964-1.593.264 2.095 1.342 3.173c1.661 1.661 2.047 1.729 2.54.446.319-.832.359-1.871.088-2.31s.178-1.352.997-2.032 1.506-.843 1.528-.363.697-.642 1.5-2.494c1.217-2.801 1.881-3.286 3.961-2.888 1.536.293 2.5.018 2.5-.715 0-1.759 4.586-3.903 6.652-3.11.983.377 1.5.399 1.15.05-.74-.741 1.464-3.1 5.742-6.146 2.23-1.588 3.47-1.896 4.751-1.179 1.275.714 2.498.426 4.624-1.088 1.589-1.131 3.382-2.057 3.985-2.057s1.096-.761 1.096-1.692c0-1.512.142-1.496 1.348.153 1.434 1.96 4.136 1.242 3.32-.883-.285-.743 1.056-1.625 3.432-2.26 3.87-1.033 4.807-.626 2.914 1.267-.648.648-.305.986 1 .986 1.092 0 1.986-.354 1.986-.786s.675-.785 1.5-.785 1.5-.645 1.5-1.433.883-1.713 1.962-2.055c2.01-.638 6.038.93 6.038 2.35 0 .435 1.296.6 2.881.368 2.166-.318 2.767-.86 2.42-2.189-.666-2.542 2.074-3.2 5.732-1.375 2.307 1.15 3.43 1.27 4.251.449s.418-1.115-1.525-1.115c-1.453 0-2.92-.45-3.26-1s.22-1 1.242-1 2.43-.563 3.13-1.25c1.019-1.002 1.208-.978.95.117-.177.752.466 1.5 1.429 1.661s1.75-.315 1.75-1.06c0-1.373 3.698-4.468 5.339-4.468.492 0 .679 1.125.416 2.5-.649 3.393.23 3.144 3.537-1 2.969-3.72 4.708-4.46 4.708-2 0 .825-.675 1.5-1.5 1.5s-1.5.498-1.5 1.107.675.848 1.5.531 1.507-.027 1.515.643c.011.906.224.89.83-.065.45-.708 1.564-.996 2.485-.643 1.133.435 1.67.124 1.67-.966 0-.884-.702-1.607-1.56-1.607s-1.264-.477-.904-1.059c.366-.592 1.88-.79 3.437-.447 2.383.523 2.876.244 3.424-1.942.353-1.404 1.109-2.552 1.68-2.552s.782.419.465.93c-.862 1.396 1.47 2.458 2.698 1.23 1.32-1.32 5.122.445 4.194 1.947-.343.553-.276 2.218.147 3.7.769 2.688.771 2.686 1.397-.807.344-1.925.31-3.95-.078-4.5s.346-1.786 1.631-2.747c2.24-1.675 2.361-1.668 2.95.187.338 1.064.047 2.842-.646 3.952-1.57 2.514-.449 3.864 1.55 1.866 1.532-1.533 1.624-3.353.278-5.508-.772-1.235-.108-1.694 1.837-1.269 3.917.857 5.506.574 6.028-1.07.733-2.309 3.472-1.365 3.472 1.196 0 1.04.45 1.893 1 1.893s1-.62 1-1.378c0-2.442 2.6-3.88 4.172-2.307 1.18 1.18 1.593 1.162 2.79-.12 1.243-1.331 1.477-1.293 2.048.335.405 1.153.897 1.43 1.322.741.372-.602 1.923-.899 3.446-.659 5.742.905 10.222.995 10.222.205 0-1.436 2.764-.875 3.361.683.746 1.943 2.639 1.943 2.639 0 0-2.187 1.645-1.835 3.51.75 1.5 2.078 1.6 2.097 1.307.25-.23-1.451.322-2.09 2.01-2.33 2.117-.3 2.221-.129 1.146 1.88-1.154 2.156-1.127 2.17 1.144.58 2.95-2.066 8.472-2.144 9.244-.13.68 1.771 2.752 2.04 2.389.309-.138-.655.59-1.373 1.618-1.596 1.17-.254 1.615.004 1.191.69-.41.664.16 1.097 1.44 1.097 1.166 0 1.84-.45 1.5-1s-.171-1 .374-1 1.253.82 1.571 1.825c.43 1.353 1.317 1.716 3.435 1.406 1.571-.23 4.199.275 5.84 1.123 2.028 1.05 3.31 1.217 4.003.523 1.124-1.123 6.278 2.971 6.278 4.987 0 .625.45 1.136 1 1.136s1-.675 1-1.5c0-2.124 2.64-1.86 5 .5 1.1 1.1 2.225 2 2.5 2h2c.825 0 1.512.562 1.527 1.25.026 1.241 7.212 4.739 18.223 8.87 3.162 1.186 5.75 2.545 5.75 3.018s.932.862 2.071.862 2.764.692 3.611 1.54c1.386 1.385 1.663 1.37 2.776-.152.87-1.19 1.448-1.35 1.95-.537.493.797 1.282.85 2.552.17 1.322-.707 1.98-.62 2.336.307.272.711 2.339 1.845 4.592 2.52 4.589 1.375 9.712 5.864 9.304 8.152-.149.832.629.388 1.748-1 1.616-2.006 2.02-2.16 2.037-.776.013.948 1.26 2.37 2.773 3.16s3.603 3.042 4.646 5.005 2.742 3.837 3.777 4.165 2.6 1.696 3.48 3.039c1.252 1.911 1.898 2.194 2.973 1.302s1.374-.77 1.374.554c0 2.077 2.437 4.637 4.77 5.01.951.151 1.673.975 1.604 1.829s.432 1.34 1.117 1.077c1.625-.624 7.72 5.482 6.861 6.873-.364.589-.254.829.243.534 1.501-.892 5.405 1.055 5.405 2.695 0 .843.458 1.533 1.017 1.533s2.548 1.575 4.417 3.5 3.887 3.5 4.482 3.5 1.084 1.094 1.084 2.432c0 1.56 1.074 3.197 2.999 4.567 2.444 1.74 2.814 2.48 2.002 3.999-.822 1.535-.606 1.92 1.226 2.182 1.222.176 2.766 1.413 3.43 2.75s2.179 2.502 3.367 2.59c2.393.176 3.937 2.037 3.96 4.773.008.987.578 1.701 1.266 1.588 2.246-.372 6.593 1.267 7.14 2.692.295.77 1.22 1.13 2.072.803.998-.383 1.538-.015 1.538 1.048 0 .901.787 1.932 1.75 2.291s2.343 1.478 3.068 2.486 1.732 1.577 2.237 1.264c1.338-.826 4.63 2.571 6.364 6.57.826 1.905 1.52 2.677 1.542 1.715.044-1.978 1.981-2.43 2.145-.5l.25 3.244c.079 1.097.828 1.997 1.664 2 2.385.008 4.667 2.693 4.23 4.977-.241 1.26.615 3.17 2.176 4.855 1.416 1.527 2.574 3.403 2.574 4.168s.84 1.98 1.865 2.699 1.881 1.532 1.9 1.807.774 3.047 1.679 6.16c1.525 5.246 2.693 6.774 4.941 6.462.487-.067 1.257.883 1.712 2.111.539 1.457 1.36 2.028 2.364 1.643.846-.325 2.323-.29 3.282.079 1.552.595 1.47.883-.75 2.62-1.371 1.073-1.749 1.688-.838 1.367 1.232-.434 1.824.186 2.316 2.426.455 2.07 1.343 3.107 2.845 3.32 1.201.172 2.223.762 2.27 1.312.334 3.863 6.47 15.307 9.15 17.063 1.245.815 2.264 2.132 2.264 2.924s.935 1.943 2.077 2.554c1.167.624 1.843 1.725 1.542 2.509-.295.768.052 1.746.771 2.173 2.027 1.203 2.986 6.277 1.188 6.277-.803 0-1.768.498-2.144 1.107-.46.745.01.886 1.44.432 1.567-.497 2.126-.25 2.126.937 0 .939.675 1.489 1.617 1.317 2.014-.365 4.292 3.598 5.005 8.707.791 5.671 1.32 7.483 2.887 9.873.94 1.436 1.44 3.318 1.108 4.182s.005 2.78.748 4.258c.75 1.49 1.147 4.328.892 6.37-.347 2.775.05 4.229 1.607 5.9 1.136 1.221 1.837 2.59 1.557 3.044-.637 1.031 1.467 12.741 2.727 15.174 1.692 3.267 1.899 20.384.283 23.448-.797 1.513-1.732 4.463-2.077 6.555-.442 2.683-1.036 3.648-2.014 3.273-1.094-.42-1.165-.118-.334 1.435.58 1.082 1.378 1.919 1.774 1.86 2.054-.31 2.414.265.87 1.394-1.618 1.183-1.624 1.48-.088 4.558 1.382 2.77 1.475 4.274.586 9.484-2.072 12.147-2.228 13.692-1.385 13.692.47 0 .533 3.037.14 6.75-.683 6.444-1.308 31.813-1.015 41.186.076 2.44-.317 4.893-.875 5.45-1.437 1.437-1.26 7.36.237 7.893.878.314.611 1.156-.896 2.833-2.317 2.577-3.555 9.946-3.554 21.153 0 3.43-.494 7.135-1.1 8.235-1.303 2.366-2.514 9.616-3.677 22-1.302 13.862-2.197 19.9-3.125 21.072-.467.59-.933 3.515-1.036 6.5s-.744 6.778-1.427 8.428-1.565 5.7-1.961 9-1.05 6.45-1.454 7-1.543 4.937-2.533 9.75-2.18 8.75-2.644 8.75-.843 1.095-.843 2.434c0 6.373-4.675 24.606-6.62 25.816-.662.413-1.517 2.663-1.9 5s-1.798 5.717-3.147 7.51c-2.707 3.601-5.254 11.308-6.026 18.24-.276 2.475-.908 4.927-1.404 5.45s-.903 2.449-.903 4.281c0 1.876-.59 3.558-1.352 3.85-.853.328-1.168 1.478-.854 3.12.273 1.432-.179 3.997-1.004 5.7s-2.049 4.899-2.718 7.099-1.847 5.35-2.618 7-1.888 5.553-2.483 8.673-1.731 6.213-2.526 6.872-1.445 1.984-1.445 2.942-.897 2.883-1.993 4.276-2.158 4.37-2.36 6.614-.828 4.653-1.39 5.352-2.335 3.746-3.94 6.77-3.724 6.718-4.705 8.207-1.468 3.218-1.08 3.845-.177 2.333-1.254 3.794-2.962 5.805-4.19 9.655c-2.283 7.157-4.126 11.61-5.174 12.5-.324.275-1.065 2.75-1.647 5.5-1.016 4.804-2.754 10.338-4.24 13.5-.388.825-1.514 4.087-2.503 7.25s-2.186 5.75-2.661 5.75-.863.8-.863 1.777-.618 2.665-1.373 3.75-1.698 3.548-2.098 5.473-1.39 4.548-2.203 5.83-1.23 2.977-.927 3.767-.336 2.891-1.42 4.67-1.973 3.863-1.976 4.633c-.005 1.973-5.228 12.384-6.853 13.659-1.21.95-2.02 3.646-3.837 12.77-.31 1.556-1.182 3.067-1.938 3.357s-1.375 1.046-1.375 1.68-.86 1.69-1.911 2.346c-1.514.945-1.805 1.985-1.402 4.996.404 3.005.07 4.201-1.588 5.702-1.155 1.045-2.1 2.505-2.1 3.245s-.674 1.345-1.5 1.345c-.844 0-1.5.894-1.5 2.045 0 1.125-1.09 3.136-2.422 4.468s-2.712 3.337-3.067 4.454-1.3 2.033-2.102 2.033-1.844 1.012-2.315 2.25-1.96 3.375-3.305 4.75-2.739 3.297-3.095 4.272-1.446 2.055-2.42 2.4c-3.908 1.383-9.919 5.908-11.987 9.024-2.293 3.453-4.52 10.117-3.78 11.314.237.383-.68 1.203-2.038 1.822-1.666.759-2.468 1.937-2.468 3.623 0 1.535-.927 3.106-2.405 4.074-1.323.867-2.689 2.707-3.036 4.089s-2.077 4.101-3.845 6.042c-2.885 3.168-7.495 10.486-10.922 17.34-.688 1.375-1.795 2.844-2.461 3.266-1.66 1.05-7.326 9.553-7.354 11.034-.012.66-.902 2.325-1.977 3.7s-1.966 3.114-1.978 3.864c-.029 1.764-7.71 12.67-11.272 16.006-1.513 1.416-2.75 2.926-2.75 3.355s-1.739 2.35-3.864 4.27c-3.323 3.002-3.866 4.087-3.883 7.748-.01 2.341.34 4.707.777 5.257s.408 3.025-.066 5.5c-.78 4.085-.465 15.347.579 20.593.229 1.151 1.462 3.176 2.74 4.5s2.401 3.583 2.497 5.022 1.085 4.738 2.197 7.332 2.023 5.61 2.023 6.701.458 2.84 1.019 3.887 1.042 6.193 1.07 11.435c.042 7.647.34 9.53 1.506 9.53 1.552 0 3.405 3.856 3.405 7.086 0 1.076 1.1 3.634 2.447 5.685 1.437 2.19 2.717 5.998 3.1 9.229.36 3.025 1.26 7.975 1.999 11 1.09 4.461 1.381 14.786.48 17-.525 1.287.237 10.614.94 11.5 1.13 1.426 1.887 22.473.83 23.125-.482.299-.594 1.437-.247 2.53.364 1.148.013 2.697-.832 3.666-.805.923-1.758 3.32-2.117 5.328-.768 4.293-2.845 8.754-6.764 14.53-1.56 2.3-2.836 5.31-2.836 6.692s-.422 2.771-.937 3.09c-1.534.948-4.063 6.67-4.063 9.192 0 1.29-.345 2.347-.766 2.347-.992 0-4.234 9.124-4.234 11.915 0 1.181-.675 2.406-1.5 2.723s-1.5 1.214-1.5 1.995c0 2.015-7.169 11.367-8.714 11.367-.731 0-1.296 1.186-1.308 2.75-.015 1.923-1.107 3.652-3.633 5.75-1.986 1.65-4.292 3.748-5.125 4.662s-2.12 1.43-2.86 1.145-5.173.052-9.848.748c-7.75 1.153-8.67 1.111-10.424-.476-1.518-1.373-3.795-1.747-10.786-1.769-12.028-.038-16.4 2.027-21.614 10.208-2.097 3.29-4.223 5.982-4.725 5.982s-1.668 1.462-2.592 3.25-2.871 4.825-4.327 6.75c-3.9 5.156-8.36 19.018-6.665 20.712.36.36 4.412.552 9.003.426 7.003-.193 8.933.115 11.983 1.914 1.999 1.18 3.635 2.55 3.635 3.046s1.094.902 2.432.902c1.435 0 2.665.718 2.999 1.75.56 1.733 4.824 4.25 7.2 4.25.679 0 1.52.9 1.869 2s1.02 2 1.49 2 1.38 1.59 2.021 3.535 2.252 4.246 3.578 5.115 2.41 2.115 2.41 2.769 1.334 3.291 2.963 5.86c1.79 2.821 3.234 6.76 3.647 9.946.377 2.901 1.134 5.566 1.681 5.922s1.355 2.606 1.795 5c1.7 9.259 2.945 14.185 3.867 15.296.528.636 1.266 3.159 1.64 5.606s1.085 4.966 1.579 5.595c1.434 1.827 2.288 11.356 1.018 11.356-1.371 0-.459 13.931 1.031 15.75.704.859.676 1.67-.09 2.592-.612.738-.782 1.673-.377 2.078.988.987.383 23.74-.945 35.58-.587 5.225-.988 12.875-.892 17s.125 11.882.063 17.237.216 10.27.617 10.919c.76 1.227 1.447 10.077 1.387 17.823-.02 2.464.479 5.84 1.108 7.5 2.304 6.085 3.902 9.27 5.189 10.338 1.362 1.13 19.223 1.012 20.37-.135.335-.335 2.463-.39 4.73-.121s7.045.692 10.62.942c9.547.668 10.388.885 12.8 3.296 1.421 1.422 3.428 2.2 5.67 2.2 1.908 0 4.953.834 6.767 1.853s6.163 2.357 9.666 2.974 7.357 1.77 8.566 2.561 4.313 1.757 6.9 2.145c3.817.573 4.983 1.248 6.192 3.587.82 1.584 2.228 2.88 3.13 2.88 1.848 0 2.066.182 12.002 9.976 3.956 3.9 7.506 8.088 7.888 9.308s2.504 6.035 4.716 10.702c3.04 6.414 4.093 9.955 4.313 14.5.16 3.308.56 7.887.889 10.176.343 2.396.168 4.426-.413 4.785-.644.398-.68 1.493-.098 3.022.537 1.414.547 3.665.024 5.49-.488 1.701-.716 3.982-.507 5.067s-.075 1.975-.63 1.975c-.597 0-.712.92-.28 2.25 1.397 4.311 1.125 8.256-.733 10.635-1.024 1.311-1.862 3.892-1.862 5.735 0 3.746-1.756 11.938-3.14 14.652-.498.974-1.182 3.899-1.52 6.5s-.969 5.181-1.4 5.736c-1.285 1.653-3.91 9.823-3.926 12.219-.008 1.258-1.097 2.936-2.506 3.859-1.795 1.176-2.34 2.234-1.952 3.783.342 1.363-.206 2.95-1.497 4.337-1.142 1.225-1.775 2.87-1.441 3.74.384 1.003.033 1.554-.992 1.554-1.63 0-2.053 1.22-3.11 8.97-.336 2.458-1.096 4.77-1.69 5.137s-1.227 2.855-1.408 5.53c-.57 8.447-2.549 24.687-3.576 29.363l-1.854 9c-1.615 8.402-2.281 10.326-5.636 16.262-1.844 3.261-3.132 6.284-2.864 6.719.66 1.066-1.472 7.019-2.513 7.019-1.031 0-3.975 5.777-3.975 7.8 0 .822-1.575 3.416-3.5 5.765s-3.5 4.563-3.5 4.92-1.125 2.123-2.5 3.926-2.5 3.716-2.5 4.253-1.575 2.816-3.5 5.065-3.5 4.58-3.5 5.18-.675 1.09-1.5 1.09c-1.336 0-1.714.7-1.403 2.594.188 1.141-5.484 6.407-6.9 6.407-.912 0-1.25.687-.935 1.895.337 1.286-.27 2.306-1.883 3.17-1.475.789-2.38 2.17-2.38 3.635 0 1.3-.594 2.59-1.32 2.87-.833.319-1.161 1.599-.888 3.459.238 1.624-.312 4.815-1.222 7.09s-2.514 9.07-3.564 15.098-2.395 11.547-2.991 12.266-.984 1.69-.862 2.161-.163 2.88-.636 5.356-.943 6.975-1.045 10-1.188 10.651-2.413 16.947-2.042 12.709-1.816 14.25-.02 2.803-.546 2.803c-.533 0-.71 1.526-.4 3.44.308 1.893.168 3.58-.31 3.75s-1.1 1.435-1.385 2.81a73.85 73.85 0 0 1-1.186 4.79c-.66 2.26-.562 2.289 7.118 2.11 7.485-.173 7.868-.07 9.846 2.645 1.132 1.554 2.15 3.457 2.264 4.228.294 2.003 3.462 5.28 4.49 4.644.477-.294.867.393.867 1.529s1.125 4.395 2.5 7.246 2.5 5.971 2.5 6.936.399 2 .886 2.302 1.197 2.24 1.576 4.309c.655 3.58 2.255 7.605 6.736 16.941 1.103 2.3 1.708 4.662 1.345 5.25s-.216 1.07.328 1.07 1.976 2.137 3.183 4.75 2.813 5.944 3.57 7.404 1.376 3.372 1.376 4.25.337 1.608.75 1.623 1.853 1.814 3.2 4 2.811 3.973 3.25 3.973.8.567.8 1.26 1.125 2.473 2.5 3.956 2.502 3.054 2.505 3.49 1.465 2.47 3.25 4.519c7.155 8.214 8.005 9.791 8.67 16.098.357 3.397 1.42 7.708 2.362 9.58s1.713 4.01 1.713 4.75.4 1.347.889 1.347 1.24 1.687 1.672 3.75.88 3.975.996 4.25.541 1.512.944 2.75 1.186 2.25 1.74 2.25c.58 0 .762 1.236.426 2.912-.368 1.841-.09 3.322.755 4.023 1.372 1.14 2.651 5.266 3.273 10.565.494 4.21.296 50.135-.263 61-.255 4.95-.881 9.141-1.392 9.314s-.697.915-.416 1.65.074 1.604-.462 1.935-.74 1.502-.452 2.602c.293 1.117.03 1.999-.594 1.999-.614 0-1.116.9-1.116 2s-.563 1.887-1.25 1.75c-.713-.143-1.118.528-.942 1.56.183 1.08-1.364 3.434-3.829 5.825-2.509 2.436-3.915 4.59-3.574 5.477.323.844-.171 1.744-1.17 2.127-1.775.682-6.235 4.754-6.235 5.694 0 .95-11.198 11.567-12.2 11.567-.539 0-1.727.896-2.64 1.991s-2.61 2.127-3.772 2.29-2.881 1.069-3.821 2.009-2.269 1.71-2.952 1.71-2.5 1.314-4.04 2.92c-1.586 1.656-3.58 2.771-4.602 2.574-1.027-.197-2.57.672-3.58 2.02-.978 1.301-2.108 2.162-2.51 1.913-1.104-.682-5.88 1.734-5.898 2.983-.008.6-.417.455-.908-.32-.745-1.177-1.403-1.198-3.985-.129-1.7.705-3.092 1.677-3.092 2.16s-1.364.879-3.032.879c-1.772 0-3.27.623-3.607 1.5-.316.825-1.427 1.5-2.468 1.5s-1.893.45-1.893 1-.922 1-2.048 1-3.09 1.125-4.365 2.5-3.004 2.5-3.845 2.5-1.765.616-2.054 1.37-2.825 2.197-5.634 3.207c-3.223 1.16-4.93 2.303-4.625 3.098.266.693.053 1.527-.473 1.852s-.97 0-.987-.718c-.018-.815-.411-.655-1.04.425-.556.954-1.28 6.144-1.608 11.533-.49 8.046-.297 10.38 1.082 13.045.923 1.786 1.402 3.694 1.064 4.241-.77 1.245.453 7.114 1.364 6.55 1.017-.628.594 12.941-.667 21.397-1.975 13.236-2.268 30.318-.7 40.796.798 5.337 1.565 11.442 1.705 13.566s.728 4.045 1.306 4.267.995 2.459.927 4.971c-.085 3.113.327 4.742 1.294 5.113.78.3 1.158 1.225.839 2.057s.139 2.61 1.018 3.951 1.359 3.066 1.065 3.83.01 1.966.674 2.67c1.623 1.719 3.766 5.967 4.076 8.082.139.944.878 2.275 1.644 2.957 1.18 1.051 1.19.974.067-.51-2.918-3.857.664-1.414 5.634 3.84 2.908 3.076 5.287 5.046 5.287 4.378 0-.921.372-.905 1.545.07.85.705 1.329 1.847 1.063 2.539-.645 1.682 1.856 2.558 3.27 1.144.83-.829 1.122-.678 1.122.578 0 .935.567 1.7 1.26 1.7 1.406 0 4.174 3.899 3.352 4.722-.29.29.27 1.258 1.245 2.152 1.897 1.742 3.989 7.158 4.586 11.878l1.414 10.323c1.065 7.553 1.438 14.447 3.134 57.925.526 13.475 1.398 27.918 1.938 32.095 1.643 12.706 1.425 50.128-.35 59.905-.848 4.675-1.58 10.75-1.625 13.5-.09 5.489-2.058 15.938-3.22 17.1-.404.403-.734 2.031-.734 3.617 0 3.23-2.067 7.764-4.434 9.729-1.29 1.07-1.566 1.062-1.566-.045 0-.776-.632-.443-1.493.786-1.005 1.434-2.166 1.954-3.554 1.591-1.33-.347-2.765.217-4.046 1.592-1.092 1.172-2.08 2.052-2.196 1.956s-2.032-.342-4.257-.547zm-26.725-434.882c-.332-.332-1.195-.367-1.917-.079-.797.32-.56.557.604.605 1.055.043 1.645-.193 1.313-.526zM325.919 915.501c.01-.688 1.36-3.23 3-5.65 3.864-5.703 3.872-8.489.03-10.08-3.59-1.487-5.985-4.92-6.07-8.703-.124-5.559 2.102-14.817 3.924-16.317 1.996-1.644 5.098-7.518 5.098-9.654 0-.74.45-1.346 1-1.346s1-.677 1-1.504c0-.844 2.156-2.446 4.91-3.649 2.7-1.179 5.477-3.202 6.17-4.496s1.825-2.351 2.517-2.351c1.924 0 4.584-3.085 3.992-4.63-.29-.753-.116-1.37.386-1.37s1.71-1.35 2.684-3 2.35-3 3.056-3 1.285-.645 1.285-1.433.802-1.687 1.783-1.999 2.582-1.916 3.557-3.567 2.422-3.001 3.216-3.001 1.45-.338 1.456-.75 1.695-2.624 3.75-4.913c7.205-8.025 8.337-9.636 7.786-11.073-.342-.89.195-1.646 1.394-1.96 2.183-.57 9.058-8.896 9.058-10.968 0-.735.401-1.336.891-1.336s1.174-1.125 1.52-2.5 1.095-2.5 1.667-2.5.76-.454.417-1.008.08-1.711.941-2.571 1.564-2.896 1.564-4.524c0-1.709.634-3.203 1.5-3.536.825-.316 1.5-1.715 1.5-3.108s.787-3.109 1.75-3.813 1.789-1.653 1.836-2.11.348-1.505.667-2.33.854-2.75 1.189-4.276 1.453-3.62 2.484-4.651c1.858-1.858 3.654-5.877 3.272-7.323-.11-.413.243-.75.781-.75s1.885-1.774 2.991-3.942 3.134-5.596 4.506-7.619 2.212-4.135 1.866-4.695.356-1.762 1.56-2.67 2.264-2.636 2.355-3.837.745-2.408 1.454-2.68 1.289-1.382 1.289-2.467.45-2.25 1-2.59 1-1.506 1-2.59.675-2.232 1.5-2.549 1.51-1.54 1.522-2.718.902-3.268 1.978-4.643 1.968-3.4 1.984-4.5.768-3.35 1.672-5c1.591-2.905 2.492-11.443 2.33-22.09-.051-3.446.423-5.505 1.469-6.373.85-.705 1.559-2.24 1.577-3.41s.692-3 1.5-4.068 1.468-2.803 1.468-3.855c0-1.664 1.222-4.498 5.696-13.204.565-1.1 2.327-4.7 3.916-8s3.263-6.163 3.72-6.361 1.68-2.336 2.715-4.75 2.4-4.39 3.034-4.39c.657 0 .929-.853.632-1.987s.303-3.035 1.383-4.408c1.047-1.331 1.904-3.076 1.904-3.877s1.012-2.745 2.25-4.318 2.127-3.096 1.977-3.385c-.368-.707 3.078-7.438 4.023-7.858.412-.183.75-1.32.75-2.527s1.396-3.42 3.103-4.917c3.751-3.292 3.827-3.302 3.708-.472-.155 3.692.14 4.898 1.055 4.333.476-.295.648-1.671.383-3.06-.283-1.48-.02-2.523.634-2.523.614 0 1.117-.45 1.117-1s-1.4-1-3.112-1c-3.052 0-3.098-.07-2.412-3.75.385-2.063 1.316-4.1 2.07-4.527s1.132-1.397.84-2.157c-.512-1.337.357-4.31 4.472-15.304 1.494-3.993 1.876-7.078 1.607-12.976-.231-5.058.04-7.98.784-8.44.843-.521.821-1.397-.086-3.387-.974-2.137-.962-2.996.057-4.22 1.572-1.89 4.85-12.585 5.188-16.93.136-1.754.81-3.868 1.499-4.697s1.13-3.45.983-5.85c-.297-4.825.636-7.162 2.429-6.087.65.39.506-.14-.32-1.175-.873-1.098-.978-1.571-.25-1.133.787.472 1.25.173 1.25-.808 0-.858-.76-1.56-1.69-1.56-1.55 0-1.556-.104-.073-1.25 1.112-.858 1.963-4.162 2.718-10.552.605-5.116.86-9.689.568-10.162-.713-1.154 2.294-15.252 3.514-16.471.53-.53.965-2.112.967-3.514s.903-4.024 2-5.825 1.997-3.722 1.997-4.27 1.14-2.803 2.535-5.012 2.44-4.562 2.325-5.23.997-3.865 2.473-7.106 2.957-8.416 3.293-11.5 1.165-6.507 1.844-7.607c.84-1.36 1.177-6.135 1.056-14.924-.153-11.01.074-13.176 1.53-14.632 1.12-1.121 1.405-2.178.826-3.076-.74-1.147-1.023-1.15-1.754-.017-1.367 2.12-2.013-4.618-.816-8.517.72-2.347.684-4.048-.126-5.825-.694-1.524-.76-2.51-.165-2.51.538 0 .979-1.124.979-2.5s-.427-2.5-.948-2.5c-.57 0-.52-1.23.127-3.084.676-1.94.84-7.041.44-13.75l-1.027-17.165c-.559-9.328-.117-10.434 2.948-7.37 1.353 1.354 2.46 2.89 2.46 3.415s.45.955 1 .955 1 .9 1 2c0 2.718-2.047 2.539-2.774-.243-.552-2.11-.632-2.071-1.364.664-.992 3.71-.262 4.863 2.233 3.527 1.807-.967 1.955-.758 1.738 2.462-.13 1.936.074 3.83.455 4.211 1.237 1.238.525-12.973-.756-15.078-.684-1.124-1.81-4.743-2.502-8.043s-1.66-6.76-2.148-7.69c-1.083-2.06.779-3.55 2.405-1.923 1.556 1.555 3.394 1.386 4.07-.375.33-.86.058-1.388-.643-1.25-.668.13-1.228-.75-1.244-1.96s-.338-2.504-.715-2.88-.204-1.583.383-2.681c.798-1.492.741-2.198-.227-2.796-1.441-.89-3.873-8.198-3.896-11.709-.008-1.245-.448-3.045-.977-4-.865-1.564-2.426-11.223-3.495-21.633-.22-2.143-.77-4.168-1.221-4.5s-1.67-2.27-2.705-4.307-2.644-4.522-3.576-5.522-1.51-2.37-1.284-3.046-.078-1.228-.674-1.228-1.083-1.065-1.083-2.366-.9-3.509-2-4.907-2-3.26-2-4.135-.45-1.592-1-1.592-1-.681-1-1.514-.398-2.295-.884-3.25c-2.308-4.538-3.219-6.944-3.365-8.894-.088-1.168-.681-1.923-1.318-1.679s-3.07-1.842-5.41-4.636c-3.612-4.314-4.486-4.889-5.788-3.807-1.337 1.11-1.473.855-1.058-1.978.376-2.561.143-3.197-1.1-2.997-1.035.167-1.471-.37-1.268-1.562.17-1-.602-3.362-1.716-5.25-1.569-2.658-1.708-3.433-.619-3.433 1.65 0 3.018-1.842 2.071-2.788-.36-.36-1.08.007-1.6.817-.832 1.294-1.059 1.294-1.89 0-.521-.81-1.267-1.15-1.659-.76-1.07 1.072-3.396-1.251-3.396-3.392 0-1.231-.712-1.877-2.068-1.877-1.612 0-1.927-.44-1.432-2 .378-1.192.18-2-.492-2-.62 0-.83-.48-.467-1.068s-.284-1.314-1.44-1.616-2.101-1.1-2.101-1.772-1.138-1.742-2.528-2.375-2.789-1.831-3.107-2.66-1.003-1.51-1.52-1.51c-1.241 0-5.17-4.46-8.593-9.757-1.514-2.341-3.54-4.509-4.502-4.817-1.711-.548-2.52-3.425-.963-3.425.433 0 .855-.9.938-2 .1-1.332-.466-2-1.694-2-1.365 0-1.705.53-1.31 2.042.355 1.36.095 1.945-.777 1.75-.72-.16-1.963 1.058-2.76 2.708-2.693 5.573-4.088 6.539-8.441 5.843-2.615-.419-5.112-1.779-7.322-3.99-1.845-1.844-3.897-3.353-4.56-3.353s-2.092-.788-3.179-1.75c-1.376-1.22-2.101-1.389-2.393-.557-.526 1.5-3.29.53-3.29-1.155 0-.686-2.137-1.96-4.75-2.831s-4.187-1.612-3.5-1.646 1.25-.56 1.25-1.168-.674-.848-1.5-.532c-2.806 1.077-4.693-.432-4.06-3.247.484-2.152.4-2.305-.475-.864-.631 1.038-2.278 1.75-4.05 1.75-3.598 0-8.17-2.763-7.214-4.36.397-.662.017-.6-.906.147-1.343 1.088-1.895.9-3.553-1.208-1.08-1.372-3.15-3.037-4.602-3.698s-2.64-1.607-2.64-2.1.42-.64.932-.324 1.213.118 1.559-.441c.371-.601-.583-1.016-2.336-1.016-2.55 0-3.397-.77-6.067-5.5-1.708-3.025-3.55-5.5-4.096-5.5s-.991-.704-.991-1.563c0-1.047-.743-1.46-2.25-1.25-1.862.259-2.193-.098-1.915-2.067.288-2.05.01-2.299-2-1.796-2.272.568-2.34.39-2.49-6.475-.085-3.882-.622-7.527-1.195-8.099-.721-.721-2.432-.651-5.57.227-2.492.698-5.426 1.035-6.519.749s-2.47.062-3.061.774-1.952 1.064-3.025.783c-1.222-.32-2.182.093-2.57 1.103-.78 2.032-2.405 2.109-2.405.114 0-.825-.45-1.5-1-1.5s-1 .648-1 1.44c0 2.284-1.878 2.853-5.062 1.534-2.32-.96-3.254-.957-4.428.017-.819.68-1.202 1.747-.853 2.372.373.667.08.62-.71-.113-.741-.688-2.795-1.25-4.564-1.25s-3.395-.535-3.613-1.188c-.284-.855-1.03-.744-2.653.393-1.612 1.129-1.88 1.732-.937 2.109.961.385.9.55-.23.607-.853.043-1.995-.367-2.54-.91-1.329-1.33-11.307-1.89-14.323-.805-1.454.523-4.509.433-7.688-.227-4.389-.911-5.792-.828-8.355.498-2.69 1.391-3.152 1.406-3.647.115-.436-1.135-1.149-1.257-3.072-.526-2.57.977-23.116 1.119-24.715.17-.49-.29-8.14-.614-17-.719-15.88-.188-20.61-.776-20.61-2.56 0-.499-2.025-1.83-4.5-2.957s-4.5-2.475-4.5-2.994-.75-.656-1.664-.305c-1.248.479-1.45.283-.808-.781.734-1.219.612-1.223-.86-.028-.944.766-1.996 1.113-2.338.771s-2.445.719-4.673 2.357-4.568 2.98-5.2 2.98-1.882.812-2.78 1.805-3.198 2.418-5.11 3.168-3.227 1.768-2.922 2.262-.052.815-.795.713c-2.617-.36-3.961.063-3.35 1.052.34.55-.084 1-.941 1s-1.56.701-1.56 1.559-.386 1.32-.859 1.027c-1.021-.63-6.121 1.584-6.132 2.664-.004.412-.892.75-1.973.75s-2.447.9-3.035 2c-.647 1.207-2.146 2.028-3.785 2.072-1.993.053-3.78 1.373-6.715 4.964-3.636 4.446-6.822 6.7-11.787 8.34-.982.324-2.545 1.91-3.472 3.526-1.033 1.799-2.797 3.159-4.556 3.51-2.742.549-8.685 5.813-8.685 7.693 0 .492-.638.895-1.416.895-2.165 0-12.113 11.522-14.967 17.336-3.216 6.548-7.931 15.011-8.728 15.664-.335.275-1.331 1.908-2.213 3.628s-2.294 3.395-3.14 3.72-1.536 1.297-1.536 2.162-.9 2.54-2 3.72-2 2.865-2 3.742-1.575 4.04-3.5 7.028-3.5 6.257-3.5 7.266-.71 3.205-1.577 4.881-1.72 3.792-1.896 4.7-1.033 3.903-1.906 6.653c-1.583 4.992-3.304 16.373-4.281 28.323-.374 4.576-.13 6.787.881 8 .77.922 1.29 2.577 1.156 3.677-.617 5.076-1.275 8.426-2.375 12.099-1.757 5.864.57 30.305 3.513 36.9.737 1.65 1.574 4.8 1.861 7s.967 6.476 1.511 9.5 1.496 9.776 2.115 15 1.737 11.75 2.483 14.5 1.875 8.77 2.51 13.379 1.63 9.558 2.213 11 1.227 3.972 1.43 5.622 1.14 7.178 2.084 12.284c1.333 7.216 1.456 9.7.55 11.151-.847 1.357-.882 2.895-.127 5.63.572 2.069.77 5.104.443 6.744-.85 4.252 3.161 27.663 5.471 31.927.517.955.94 2.412.94 3.238 0 1.95 5.687 20.033 7.668 24.383.84 1.846 1.337 4.659 1.104 6.25s-.064 2.893.376 2.893c1.683 0 6.025 10.706 7.388 18.216.371 2.045 1.726 4.94 3.01 6.435 1.69 1.966 2.302 3.844 2.214 6.784-.068 2.235.877 7.44 2.1 11.565s2.467 8.804 2.765 10.399 1.61 5.194 2.915 8c2.889 6.213 11.46 28.22 11.46 29.423 0 .477.9 1.682 2 2.678s2.001 2.527 2.001 3.405.9 3.962 2 6.855 2 6.502 2 8.018 1.044 4.324 2.32 6.24 3.11 6.182 4.076 9.482c1.722 5.88 5.688 16.06 10.13 26 1.23 2.75 2.57 6.125 2.98 7.5s2.196 4.525 3.967 7 3.9 5.85 4.731 7.5l6.992 13.5 5.48 10.5 8.653 1.065c6.094.75 9.263 1.637 10.718 3 5.467 5.122 6.953 6.823 6.953 7.964 0 .68.897 1.472 1.995 1.76s2.264 1.351 2.593 2.366 1.702 3.87 3.05 6.345 4.7 9 7.447 14.5l5.809 11.5c2.423 4.47 11.947 24.792 12.42 26.5 1.213 4.378 3.318 9.23 5.936 13.68 1.512 2.572 2.75 5.608 2.75 6.748s.45 2.072 1 2.072 1 .655 1 1.455 1.125 3.114 2.5 5.14 2.5 4.226 2.5 4.89.9 2.02 2 3.015 2 2.779 2 3.963.66 3.028 1.468 4.096 1.482 2.628 1.5 3.468 1.328 2.664 2.912 4.054 3.884 4.528 5.112 6.973 3.02 5.346 3.982 6.446c1.69 1.932 6.394 10.185 12.2 21.406 1.54 2.973 3.48 6.158 4.312 7.078s1.514 2.002 1.514 2.403 1.321 2.391 2.937 4.421 3.238 4.927 3.607 6.436 2.192 4.66 4.053 7 3.388 4.814 3.393 5.497.91 1.804 2.01 2.49 2 1.9 2 2.695.83 2.374 1.846 3.51 3.578 5.889 5.693 10.564 4.458 9.236 5.206 10.135c.809.975 1.37 4.109 1.387 7.75.016 3.363.443 6.115.949 6.115s.927-.563.937-1.25zm2.538-115.66c-.31-.5-2.474-.893-4.81-.873-3.165.027-5.577-.824-9.474-3.34-2.875-1.858-5.238-3.767-5.25-4.243-.028-1.097-2.207-3.427-16.724-17.883-6.49-6.461-12.1-11.749-12.469-11.75s-.967-1.351-1.33-3.001c-.452-2.064-1.258-3-2.579-3-1.056 0-1.92-.643-1.92-1.428s-1.125-2.312-2.5-3.394-2.5-2.685-2.5-3.564-.9-2.16-2-2.846-2-1.858-2-2.601-.9-2.496-2-3.894-2-3.088-2-3.753-.9-2.025-2-3.02-2-2.459-2-3.251-.835-2.635-1.854-4.095-2.154-3.892-2.52-5.404-1.106-2.75-1.645-2.75-.981-1.302-.981-2.893c0-1.635-.645-3.141-1.483-3.463s-1.229-1.232-.897-2.098c.343-.894-.08-1.785-1.017-2.145-.882-.338-1.603-1.173-1.603-1.855s-.773-2.77-1.716-4.643-1.741-3.853-1.77-4.403-1.096-3.195-2.368-5.878-2.08-5.77-1.794-6.86c.357-1.368-.061-2.135-1.348-2.471-1.026-.269-1.654-1.041-1.394-1.717s-.023-2.53-.628-4.12-1.333-6.89-1.619-11.776c-.46-7.863-.293-9.13 1.444-11.031 1.08-1.181 2.27-3.16 2.645-4.397s1.165-2.25 1.755-2.25 1.624-.755 2.298-1.677c1.606-2.196 12.56-3.087 16.325-1.328 8.43 3.94 13.17 7.415 13.17 9.655 0 .709.911 2.912 2.026 4.896s1.941 4.135 1.837 4.78c-.344 2.133 1.41 6.987 3.791 10.496 1.29 1.901 2.347 4.631 2.35 6.067s.911 4.1 2.021 5.92 1.821 3.63 1.58 4.02.41 2.5 1.445 4.69 1.897 4.332 1.916 4.761 1.834 3.957 4.034 7.84 4 7.659 4 8.392 1.022 2.606 2.272 4.16 3.042 4.515 3.984 6.578 2.169 3.75 2.728 3.75 1.016.637 1.016 1.416.405 1.567.9 1.75c1.211.449 12.1 14.455 12.1 15.564 0 .483 1.557 2.387 3.461 4.232s4.18 4.746 5.057 6.446 2.695 4.62 4.039 6.49c1.385 1.926 2.443 4.796 2.443 6.627 0 1.776.691 3.804 1.537 4.505s1.407 2.058 1.25 3.015.485 2.593 1.428 3.637c1.472 1.629 1.53 2.253.416 4.401-1.072 2.067-1.064 2.723.044 3.758.884.826 1.045 1.837.47 2.957-.482.936-.687 2.223-.457 2.86.44 1.22-5.595 6.342-7.474 6.342-.603 0-1.35-.41-1.658-.91zm-39.785-68.904c.218-.654-.654-1.61-1.938-2.124s-1.696-.964-.917-.999 1.181-.299.894-.587-1.252-.244-2.14.097c-1.475.566-1.466.829.106 2.99 1.783 2.45 3.307 2.688 3.995.623zm-25.771-1.186c0-.55-.477-1-1.06-1s-.78.45-.44 1 .816 1 1.059 1 .44-.45.44-1zm18-45.623c0-1.329-.272-1.397-1.5-.377-.825.684-1.5 1.414-1.5 1.622s.675.378 1.5.378 1.5-.73 1.5-1.623zm-34.365-1.87c1.391-1.391 1.12-3.527-.444-3.492-1.797.04-3.195 1.81-2.618 3.315.787 2.05 1.167 2.072 3.062.177zm-8.635-14.507c0-.55-.477-1-1.06-1s-.78.45-.44 1 .816 1 1.059 1 .44-.45.44-1zm6-4c0-.55-.199-1-.441-1s-.72.45-1.06 1-.14 1 .442 1 1.059-.45 1.059-1zm-6.5-2c-.45-1.42-.18-2 .932-2 .862 0 1.568-.45 1.568-1 0-1.59-4.002-1.159-4.639.5-.73 1.902.237 4.5 1.675 4.5.643 0 .836-.829.464-2zm1.957-11.931c.316-.512.118-1.214-.441-1.56s-1.016.074-1.016.932c0 1.756.6 2.015 1.457.628zm5.043-6.07c-.34-.55-1.068-1-1.618-1s-.722.45-.382 1 1.068 1 1.618 1 .722-.45.382-1zm-30.237-30.312c-1.78-1.203-3.243-2.695-3.25-3.315s-.66-1.664-1.449-2.319-1.725-2.51-2.08-4.122-1-2.931-1.438-2.931-2.426-1.495-4.42-3.321c-2.711-2.483-3.626-4.124-3.626-6.5 0-1.749-.436-3.18-.969-3.18s-.731-.618-.441-1.373-.748-2.77-2.306-4.477-3.446-5.175-4.194-7.709-1.962-4.838-2.698-5.12-1.62-2.014-1.963-3.848-1.257-3.576-2.028-3.872-1.401-1.406-1.401-2.466-1.302-4.563-2.893-7.782c-3.655-7.395-6.368-13.561-6.535-14.852-.42-3.244-2.018-8.05-4.143-12.454-1.336-2.77-2.43-6.584-2.43-8.476s-.507-4.707-1.127-6.255-1.476-4.39-1.902-6.315c-.938-4.24-1.866-6.924-7.09-20.5-.636-1.65-1.268-4.8-1.407-7s-.928-9.965-1.756-17.255c-.839-7.391-1.174-14.72-.757-16.568.41-1.822.545-4.691.297-6.377s.044-3.368.647-3.741c1.528-.944 1.368-4.805-.293-7.076-.764-1.045-1.164-2.487-.888-3.204s-.055-1.974-.734-2.792c-.98-1.18-.977-1.797.01-2.987 1.015-1.222.963-1.5-.277-1.5-1.014 0-1.934-1.754-2.753-5.25-.677-2.888-1.677-5.813-2.223-6.5s-.771-1.25-.503-1.25c.585 0-.37-4.716-3.135-15.48-2.415-9.401-4.38-25.586-3.523-29.004.332-1.321.238-2.99-.208-3.71-1.009-1.624-1.15-24.806-.15-24.806.92 0 .02-11.3-1.29-16.205-1.018-3.81-3.274-6.795-5.134-6.795-.634 0-.817-1.18-.46-2.968.356-1.776-.207-5.476-1.4-9.212-1.098-3.434-1.764-6.846-1.48-7.584s.118-1.096-.365-.797-1.599-.554-2.478-1.896-1.214-2.677-.744-2.967c1.108-.684.65-4.723-.852-7.53-.648-1.212-.938-2.828-.645-3.592s.12-1.646-.385-1.958c-.55-.34-.507-1.649.106-3.26.564-1.482.695-2.365.293-1.963-1.32 1.32-4.393-2.521-4.393-5.494 0-1.601-.451-3.754-1.003-4.784-.867-1.62-1.563-9.03-2.411-25.668-.117-2.295-.707-4.77-1.311-5.5s-1.25-2.643-1.437-4.25-.948-3.124-1.693-3.369c-.992-.326-1.183.19-.714 1.923.515 1.9.307 1.778-1.05-.616-3.409-6.016-6.03-32.379-3.381-34.015.55-.34 1-1.89 1-3.443 0-2.208.538-2.927 2.465-3.295 1.356-.26 2.644.025 2.863.633s.68.847 1.024.532-.035-1.44-.844-2.5c-1.2-1.574-1.637-1.674-2.377-.55-.5.759-1.415 1.065-2.036.682-1.744-1.078-.261-2.56 2.563-2.56 1.397 0 4.067-.724 5.933-1.61 2.287-1.085 4.293-1.358 6.151-.837 1.517.425 3.257.695 3.867.599s2.298 1.621 3.75 3.816c2.8 4.23 3.275 5.542 1.64 4.533-.55-.34-1-.13-1 .465s1.126 1.512 2.5 2.035c2.763 1.05 2.689.573 2.889 18.5.106 9.467.258 10.154 2.862 12.896 1.512 1.592 2.75 3.435 2.75 4.095s.9 2.013 2 3.009 2 2.367 2 3.048.63 1.48 1.401 1.775c1.144.44 1.372 4.15 1.24 20.197-.088 10.812.181 19.87.599 20.128 1.428.883.83 10.048-.74 11.352-.825.684-1.5 2.052-1.5 3.039s-.414 1.944-.92 2.127c-.551.2-.569 2.136-.044 4.834.482 2.475.896 6.412.92 8.75s.441 4.25.927 4.25c1.675 0 5.339 16.434 4.435 19.89-.27 1.037-.003 2.186.595 2.556s1.087 3.02 1.087 5.89.598 6.106 1.329 7.191 1.242 3.323 1.137 4.973.42 4.215 1.17 5.7 1.364 4.41 1.364 6.5.856 6.05 1.901 8.8 1.916 5.225 1.935 5.5c.044.636.761 2.934 1.717 5.5.41 1.1.645 3.013.524 4.252s.486 3.67 1.35 5.404 1.573 4.657 1.573 6.497.406 3.347.902 3.347 1.215 2.7 1.598 6.001 1.102 6.253 1.598 6.56.902 1.565.902 2.798.542 2.782 1.204 3.445 1.104 2.69.982 4.507c-.18 2.662.613 4.213 4.086 7.995 2.37 2.582 4.769 4.694 5.331 4.694 2.244 0 10.397 10.84 10.397 13.824 0 1.048.913 3.066 2.028 4.484 1.314 1.671 1.982 3.919 1.898 6.385-.33 9.638 2.037 31.043 4.017 36.307 1.137 3.025 2.035 7.075 1.995 9-.094 4.524 4.49 27.594 5.81 29.24.557.693 1.336 4.86 1.732 9.26s1.312 9.425 2.035 11.168 1.095 3.388.826 3.657.297 1.993 1.257 3.832c1.013 1.939 1.647 5.052 1.51 7.411-.13 2.238.434 5.838 1.255 8s1.735 7.532 2.034 11.932c1.154 17.03 2.522 25.5 4.118 25.5 1.738 0 1.383 8.212-.45 10.42s-6.965 1.861-10.802-.733zm-26.263-56.687c0-.55-.675-1-1.5-1s-1.5.45-1.5 1 .675 1 1.5 1 1.5-.45 1.5-1zm6-2.76c0-1.217-3.989-3.366-5.041-2.715-1.509.932-1.125 2.285.79 2.785 2.89.755 4.25.733 4.25-.07zm-36.925-93.515c-.124-1.196-1.496-.965-1.925.325-.22.66.14 1.02.8.8s1.166-.727 1.125-1.125zm-8.714-65.225c.317-.825.14-1.5-.393-1.5s-.968.675-.968 1.5.177 1.5.393 1.5.652-.675.968-1.5zm19.322-3.688c-.32-.798-.556-.56-.604.604-.044 1.054.193 1.645.525 1.313s.368-1.195.079-1.917zm-25.322-21.312c.317-.825.188-1.5-.286-1.5s-1.12.675-1.437 1.5-.188 1.5.286 1.5 1.12-.675 1.437-1.5zm11.639-12.06c0-.857-.458-1.276-1.017-.93s-.757 1.047-.44 1.559c.857 1.387 1.457 1.128 1.457-.628zm3.416-1.082c.526-1.372.38-1.434-.893-.377-1.736 1.44-1.916 2.019-.63 2.019.49 0 1.176-.739 1.523-1.642zm-7.432-14.775c.008-.504-.268-.633-.616-.285s-1.526.152-2.62-.433c-1.584-.848-1.831-.79-1.213.285 1.967 3.42 2.755 3.997 3.611 2.647.453-.714.83-1.71.838-2.214zm-8.587-10.417c.283-.458-.12-.833-.897-.833s-1.18.375-.897.833.687.834.897.834.613-.375.897-.834zm5.603-3.773c0-.217-.675-.393-1.5-.393s-1.5.436-1.5.968.675.71 1.5.393 1.5-.752 1.5-.968zm-4.271-7.485c-.974-.567-1.51-1.454-1.191-1.97s.103-.938-.48-.938c-1.482 0-1.326 2.725.192 3.337 2.269.916 3.283.621 1.479-.43zm-1.758-30.87c.809-.511 1.21-1.19.893-1.508-.788-.787-3.864.468-3.864 1.577 0 1.14 1.1 1.114 2.97-.068zm2.029-8.097c0-.518-.45-.941-1-.941s-1 .701-1 1.559.45 1.28 1 .94 1-1.04 1-1.558zm-3-5.941c0-.55-.45-1-1-1s-1 .45-1 1 .45 1 1 1 1-.45 1-1zm-12-2c0-.55-.45-1-1-1s-1 .45-1 1 .45 1 1 1 1-.45 1-1zm-5.619-15.552c.342-.89.174-1.292-.393-.941-.543.336-.988 1.034-.988 1.552 0 1.438.716 1.121 1.381-.611zm-.381-8.007c0-.858-.458-1.277-1.017-.931s-.757 1.047-.44 1.559c.857 1.387 1.457 1.128 1.457-.628zm3-5.441c0-.55-.477-1-1.06-1s-.78.45-.44 1 .816 1 1.059 1 .44-.45.44-1zm-1.619-8.552c.342-.89.174-1.292-.393-.941-.543.336-.988 1.034-.988 1.552 0 1.438.716 1.121 1.381-.611zm22.555-10.698c-.059-3.04-.124-3.099-1.002-.908-.516 1.288-.686 2.75-.377 3.25 1.024 1.657 1.443.944 1.38-2.342zm-11.165-3.563c.217-.653-.317-1.187-1.188-1.187a1.59 1.59 0 0 0-1.583 1.583c0 1.766 2.152 1.458 2.77-.396zM307.901 880.56c0-1.314-2.273-.491-2.771 1.004-.244.73.213.954 1.187.58.871-.334 1.584-1.047 1.584-1.584zm-110-87.75c0-.518-.375-1.173-.834-1.456s-.833.14-.833.94.375 1.457.833 1.457.834-.424.834-.941zm255-54.06c0-.55-.927-1-2.06-1s-1.78.45-1.44 1 1.266 1 2.059 1 1.44-.45 1.44-1zm-20-10.44c0-.243-.45-.72-1-1.06s-1-.14-1 .442.45 1.059 1 1.059 1-.199 1-.441zm-260.655-10.102c-.326-.85-.807-1.33-1.069-1.067s-.18.957.183 1.543c.986 1.596 1.562 1.286.886-.476zm321.655-8.016c0-.858-.458-1.277-1.017-.931s-.757 1.047-.44 1.559c.857 1.387 1.457 1.128 1.457-.628zm4.683-.629c-.32-.798-.556-.56-.604.604-.044 1.054.193 1.645.525 1.313s.368-1.195.079-1.917zm-16.683-50.812c0-.55-.45-1-1-1s-1 .45-1 1 .45 1 1 1 1-.45 1-1zm11.51-22.984c-.288-.465.043-1.047.734-1.294s.894-.835.451-1.306-1.223-.196-1.734.613c-1.249 1.974-1.212 4.244.055 3.46.559-.345.781-1.008.494-1.473zm-15.51-7.21c0-.522-.675-.274-1.5.55s-1.5 1.813-1.5 2.195.675.133 1.5-.551 1.5-1.672 1.5-2.194zm43-77.306c0-.825-.675-1.5-1.5-1.5s-1.5.675-1.5 1.5.675 1.5 1.5 1.5 1.5-.675 1.5-1.5zm-1.026-16.326c-.81-.26-1.805-.97-2.209-1.574-.427-.64-.741-.197-.75 1.056-.012 1.739.415 2.044 2.209 1.575 1.566-.41 1.788-.722.75-1.057zm43.709-6.362c-.32-.798-.556-.56-.604.604-.044 1.054.193 1.645.525 1.313s.368-1.195.079-1.917zM54.46 482.219c-2.17-1.641-5.56-1.969-5.56-.538 0 .867 2.494 1.658 6 1.902 1.098.076.98-.29-.44-1.364zm515.44-.91c0-1.592-1.814-3.077-2.69-2.202-.822.823.462 3.644 1.66 3.644.567 0 1.03-.649 1.03-1.441zm-477.542-10.49c.316-.511.118-1.213-.441-1.558s-1.016.073-1.016.93c0 1.757.6 2.016 1.457.629zm420.496-8.512c.982-1.183.823-1.415-.878-1.287-1.141.086-2.075.735-2.075 1.443 0 1.712 1.467 1.634 2.953-.156zm59.047-8.556c0-1.1-.45-2-1-2s-1 .9-1 2 .45 2 1 2 1-.9 1-2zm-49.994-10.483c-.483-1.271-.607-2.583-.276-2.915s.123-.602-.465-.602-1.024 1.527-.971 3.393c.064 2.274.508 3.236 1.344 2.915.868-.333.98-1.181.368-2.79zm3.994-19.517c0-.55-.199-1-.441-1s-.72.45-1.06 1-.14 1 .442 1 1.059-.45 1.059-1zm9.59-20.5c-.422-1.679-.211-2.508.64-2.523.699-.012.157-.877-1.202-1.921-2.78-2.136-4.012-1.892-3.516.698l.427 2.246c.05.275.486-.123.967-.884.645-1.017 1.058-.554 1.564 1.75.379 1.724.927 3.134 1.218 3.134s.246-1.125-.099-2.5zm2.017-16.082c-.334-.87-.607-2.178-.607-2.907 0-2.318-3.774-.478-4.262 2.08-.403 2.107-.09 2.409 2.507 2.409 2.296 0 2.831-.359 2.362-1.582zm-3.226-24.418c-.317-2.268-.145-4 .397-4 1.11 0 .955-10.004-.183-11.846-.422-.683-.332-1.785.2-2.448s1.208-3.55 1.505-6.414c.468-4.517.286-5.289-1.372-5.815-3.051-.969-4.027.373-3.9 5.36a91.97 91.97 0 0 1-.31 9.163c-.237 2.475-.047 5.538.423 6.807.549 1.486.498 2.088-.144 1.69-.549-.338-.997.134-.997 1.05 0 1.07.536 1.46 1.5 1.091.825-.317 1.5-.14 1.5.393s-.505.969-1.123.969c-.736 0-.796.43-.175 1.25.521.687.828 2.487.683 4-.176 1.825.209 2.75 1.145 2.75 1.073 0 1.277-.96.851-4zm55.426-17.527c-.308-.308-.867.247-1.243 1.233-.543 1.426-.428 1.54.56.56.683-.678.99-1.485.683-1.793zm-57.265-18.404c-.316-.512-.11-1.218.458-1.57 1.34-.828.298-2.5-1.56-2.5-1.765 0-1.925 3.638-.19 4.338 1.863.752 1.916.741 1.292-.268zm21.458-.07c0-.55-.477-1-1.06-1s-.78.45-.44 1 .816 1 1.059 1 .44-.45.44-1zm13.5-58c.34-.55-.309-1-1.441-1s-2.06.45-2.06 1 .65 1 1.442 1 1.719-.45 2.059-1zm-551.5-41.19c0-1.314-2.273-.491-2.771 1.004-.244.73.213.954 1.187.58.871-.334 1.584-1.047 1.584-1.584zm514.345-.8c.847-1.697 1.095-3.237.574-3.56-.506-.312-.92-.064-.92.55s-.45.84-1 .5-1.005-.253-1.013.192-.285 1.821-.617 3.059c-.882 3.293 1.226 2.768 2.976-.741zm-512.36-9.866c-.03-1.232-1.955-3.65-1.97-2.475-.008.642-.29 1.885-.627 2.761-.447 1.166-.179 1.428 1 .975.887-.34 1.605-.908 1.596-1.261zm-2.14-18.595c.216-1.111-.073-1.526-.765-1.098-.612.378-.878 1.068-.59 1.533s.058 1.075-.509 1.356-.458.395.244.253 1.43-1.062 1.62-2.044zm551.155-3.548c0-.55-.45-1-1-1s-1 .45-1 1 .45 1 1 1 1-.45 1-1zM23.698 181.334c-.163-1.146-.747-2.083-1.297-2.083s-1.134.937-1.298 2.083c-.195 1.365.252 2.083 1.298 2.083s1.493-.718 1.297-2.083zm509.645-13.49c.308-.499-.34-.671-1.44-.383-2.336.61-2.631 1.29-.561 1.29.792 0 1.693-.408 2.001-.907zm-55.76-8.28c-.318-.799-.555-.562-.603.603-.044 1.054.193 1.645.525 1.313s.368-1.195.079-1.917zm57.859-9.747c-.363-.586-1.1-1.066-1.64-1.066s-.4.63.31 1.399c1.435 1.558 2.356 1.327 1.33-.333zm-495.937-4.796c-1.017-1.016-1.855.514-1.021 1.864.63 1.02.865 1.02 1.204.004.232-.695.15-1.535-.183-1.868zm488.203-7.797c-.308-.308-.867.247-1.243 1.234-.543 1.425-.428 1.54.56.56.683-.679.99-1.486.683-1.794zm-5.624-6.69c-.717-.718-1.183-.777-1.183-.15 0 1.335 1.182 2.517 1.85 1.85.284-.284-.016-1.05-.667-1.7zm-13.624-12.358c1.067-.865 1.378-1.289.69-.94s-1.25.156-1.25-.426c0-1.855-1.746-1.138-2.289.94-.63 2.409.243 2.54 2.849.426zm-386.56-2.425c0-.55-.198-1-.44-1s-.72.45-1.06 1-.14 1 .442 1 1.059-.45 1.059-1zm-61.167-3.924c.246-1.678.83-2.137 2.25-1.765 1.055.276 1.918.094 1.918-.405s-.45-.906-1-.906-.947-.338-.882-.75c.43-2.72-.475-2.169-2.63 1.602-2.841 4.97-2.968 5.472-1.238 4.903.687-.227 1.4-1.432 1.582-2.679zm8.248-.227c.988-1.845.87-1.967-1.244-1.287-1.285.414-2.899.756-3.586.761-1.801.014-1.537 1.417.478 2.545 2.032 1.137 2.872.747 4.352-2.019zm431.92-1.29c0-.243-.45-.72-1-1.06s-1-.14-1 .442.45 1.059 1 1.059 1-.199 1-.441zm-23.317-6.747c-.32-.798-.556-.56-.604.604-.044 1.054.193 1.645.525 1.313s.368-1.195.079-1.917zM80.608 96.029c-1.61-1.61-1.707-1.59-1.707.34 0 2.622 1.08 3.702 2.39 2.391.699-.698.481-1.566-.683-2.73zm1.582-5.278c.384-1.467.031-2-1.324-2-2.116 0-3.374 1.53-2.465 3 1.044 1.689 3.238 1.11 3.79-1zm299.973-3.338c-.908-1.557-2.534 1.19-1.788 3.02.697 1.711.785 1.7 1.508-.182.422-1.1.548-2.377.28-2.838zm83.096.404c-.865-.957-2.53 1.848-1.799 3.03.58.939.97.766 1.488-.663.386-1.063.526-2.128.31-2.367zm8.691 1.408c3.073-1.59 4.059-2.837 1.45-1.836-1.13.434-1.5-.174-1.5-2.472 0-3.54-.817-4.288-3.826-3.502-2.4.628-2.927 4.058-1.138 7.401 1.246 2.328 1.296 2.332 5.014.409zM98.017 81.968c-.575-1.075-.724-2.31-.331-2.746s.183-.488-.466-.115-1.493.17-1.875-.447c-.494-.8-.93-.742-1.512.2-.951 1.54.675 3.89 2.69 3.89.758 0 1.378.526 1.378 1.167s.261.905.58.586.111-1.46-.464-2.535zm17.053-2.423l-.497-3.294-.794 2.914c-.816 2.997-.326 4.98 1.024 4.146.42-.26.54-1.955.267-3.766zm-11.67 2.206c.34-.55.142-1-.44-1s-1.06.45-1.06 1 .2 1 .442 1 .719-.45 1.059-1zM447.398 64.76c.727-2.292-.079-4.045-1.806-3.93-.868.057-.855.215.05.58.94.38.88.862-.25 1.992-1.886 1.886-1.912 3.349-.059 3.349.788 0 1.717-.896 2.065-1.991zm-10.944-2.924c-.311-.503-.073-1.079.528-1.28s.922-1.7.713-3.335l-.382-2.97-1.338 2.686c-1.226 2.463-.965 5.814.453 5.814.325 0 .336-.412.026-.915zm-299.813-7.537c-1.534-1.666-1.986-1.353-1.159.803.346.9 1.027 1.39 1.514 1.09s.327-1.153-.355-1.893zm38.989-23.153c-.332-.332-1.195-.367-1.917-.078-.798.319-.56.556.604.604 1.055.043 1.645-.193 1.313-.526zM390.304 26.9c-.884-1.145-2.117 1.22-1.616 3.102.597 2.238.603 2.237 1.243-.251.354-1.375.522-2.658.373-2.85zm-41.903-15.15c.34-.55.141-1-.441-1s-1.06.45-1.06 1 .2 1 .442 1 .719-.45 1.059-1zm-47.5-5c0-.55-.199-1-.441-1s-.72.45-1.06 1-.14 1 .442 1 1.059-.45 1.059-1zm34 .393c0-.828-1.942-1.296-2.387-.575-.289.467.13.85.93.85s1.457-.124 1.457-.275zm-38.5-2.392c.34-.55.141-1-.441-1s-1.06.45-1.06 1 .2 1 .442 1 .719-.45 1.059-1zm58.969 1244.95c-.95-1.538.351-2.53 1.635-1.247.718.719.735 1.278.052 1.7-.56.346-1.32.142-1.687-.454zm-166.706-220.476c-2.605-1.912-5.444-3.475-6.309-3.475s-1.282-.47-.927-1.044.216-1.587-.308-2.25-1.19-3.962-1.48-7.33-1.251-7.228-2.136-8.58-1.353-2.714-1.037-3.029c.748-.748-3.363-9.767-4.453-9.767-.46 0-.628-1.088-.374-2.417s-.036-4.74-.645-7.578c-.653-3.047-.748-5.801-.232-6.723.55-.982.368-2.531-.488-4.172-2.056-3.94-1.676-5.985 1.626-8.764 1.724-1.45 3-3.497 3-4.813 0-1.259.626-2.808 1.392-3.444s1.915-2.416 2.553-3.956c.813-1.965 3.16-3.813 7.857-6.192 6.295-3.188 7.234-3.378 15.607-3.157 4.9.13 9.51.734 10.245 1.343s2.265.866 3.402.568c1.205-.315 2.274 0 2.565.76.274.714 3.396 3.16 6.939 5.434s6.44 4.642 6.44 5.262.736 1.666 1.635 2.324c2.146 1.569 5.541 14.488 5.723 21.775.079 3.162-.092 5.75-.38 5.75-.838 0-3.728 6.072-5.474 11.5-.884 2.75-3.101 7.267-4.926 10.038-3.471 5.271-13.151 15.462-14.687 15.462-.49 0-.891.857-.891 1.906 0 1.386-.523 1.77-1.915 1.406-1.301-.34-2.46.33-3.615 2.093-.935 1.427-2.522 2.595-3.526 2.595s-2.104.45-2.444 1c-1.406 2.274-7.969.973-12.737-2.525zm294.237-33.507c0-.567-.788-1.31-1.75-1.649-2.507-.885-6.25-4.444-6.25-5.944 0-.702-.711-1.674-1.58-2.16-1.064-.595-1.765-2.927-2.147-7.138-.354-3.9-1.076-6.448-1.92-6.772-.744-.286-1.353-1.068-1.353-1.738s-1.14-2.29-2.534-3.6c-1.879-1.764-2.39-3.039-1.978-4.924.34-1.552-.232-4.088-1.466-6.505-1.112-2.179-2.022-5.415-2.022-7.19s-.43-3.496-.957-3.821-.69-1.282-.367-2.127c.531-1.383-.107-3.357-2.793-8.637-.763-1.5-.28-5.001 1.726-12.524.185-.693.358-1.472.384-1.73.116-1.117 7.805-8.51 8.852-8.51.635 0 1.155-.397 1.155-.883 0-1.328 12.736-7.398 13.949-6.648.578.357 1.05.143 1.05-.477 0-.714.825-.864 2.25-.409 1.238.394 3.725.663 5.527.597 4.047-.149 10.066 2.893 13.622 6.883 2.58 2.897 6.912 14.294 5.84 15.366-.288.288-.052 1.097.524 1.797 1.354 1.648 1.891 6.908.874 8.554-.434.703-.92 3.114-1.08 5.359s-.688 4.368-1.174 4.72-1.033 2.442-1.217 4.642-1.445 7.15-2.804 11-2.863 9.107-3.344 11.683c-1.085 5.805-2.64 8.817-4.552 8.817-.806 0-1.465.498-1.465 1.107s.67.85 1.49.535c.995-.382 1.691.233 2.099 1.856.467 1.861-.055 3.011-2.24 4.933-1.567 1.378-3.418 2.52-4.113 2.537s-2.157.482-3.25 1.032l-3.973 2c-2.503 1.26-3.013 1.255-3.013-.031zm14-7.968c0-1.1-.173-2-.384-2s-.618.9-.906 2-.115 2 .383 2 .907-.9.907-2zm-37.317-64.188c-.32-.798-.556-.56-.604.604-.044 1.054.193 1.645.525 1.313s.368-1.195.079-1.917zM97.179 938.448c-2.323-1.21-4.235-2.93-4.25-3.826s-.703-2.188-1.528-2.872-1.5-1.895-1.5-2.689-.516-2.406-1.146-3.584-1.232-3.555-1.337-5.282-.915-4.175-1.8-5.438c-1.021-1.458-1.4-3.341-1.038-5.153.327-1.633.138-2.854-.44-2.854-1.654 0-3.965-6.085-4.722-12.435-.389-3.264-1.202-7.09-1.807-8.5s-1.237-5.04-1.406-8.065a402.01 402.01 0 0 0-.91-12c-.333-3.575-.548-8.89-.477-11.81s-.206-5.845-.614-6.5-.82-2.765-.917-4.69l-.681-10.743c-.42-6.032-.196-7.635 1.343-9.592 1.101-1.4 1.624-3.203 1.294-4.463-.416-1.593.708-3.417 4.552-7.384 2.808-2.898 5.106-5.565 5.106-5.927s.787-.923 1.75-1.246a16.47 16.47 0 0 0 3.25-1.592c7.253-4.855 24.076-7.51 29-4.575 1.375.82 3.272 1.77 4.217 2.114s1.972 1.429 2.284 2.413c.379 1.193 1.223 1.618 2.534 1.275 1.583-.414 1.965-.006 1.965 2.103s.475 2.617 2.44 2.617c1.343 0 2.8.562 3.236 1.25 1.537 2.42 4.54 11.272 4.48 13.204-.035 1.074.31 2.424.764 3 1.597 2.018 2.031 10.145 1.1 20.546-.961 10.722-1.066 11.455-2.992 21-.61 3.025-1.36 10-1.666 15.5s-.907 10.45-1.337 11-.99 3.655-1.248 6.9c-.338 4.274-.992 6.284-2.372 7.297-1.048.769-1.776 2.207-1.619 3.195.334 2.093-4.054 11.255-6.271 13.095-.833.692-1.515 1.862-1.515 2.6s-.9 1.824-2 2.413-2.015 2.067-2.032 3.285c-.04 2.713-2.063 5.527-3.602 5.008-.624-.21-1.749.2-2.5.912s-2.941 1.327-4.866 1.367-4.175.354-5 .698-3.4-.364-5.722-1.573zm480.464-89.575c-.302-1.154-1.605-2.54-2.896-3.077-3.206-1.336-5.846-3.538-5.846-4.877 0-.61-1.354-2.11-3.01-3.334-2.608-1.93-2.926-2.664-2.388-5.53.494-2.63.29-3.305-.991-3.305-1.04 0-1.611-.862-1.611-2.429 0-1.336-.663-3.091-1.473-3.901s-1.91-3.417-2.444-5.794-1.67-4.833-2.527-5.459-1.556-2.326-1.556-3.778-.45-2.64-1-2.64-1-.877-1-1.95-.574-2.31-1.274-2.75c-2.169-1.361-4.726-6.104-4.726-8.764 0-1.395-.338-2.536-.75-2.537s-.775-2.588-.805-5.75c-.032-3.348-.795-7.282-1.827-9.42-1.358-2.814-1.521-4.141-.699-5.678.59-1.103.777-2.778.415-3.723-.38-.991-.062-2.184.754-2.822.778-.608 2.72-3.13 4.315-5.605 3.942-6.115 6.269-8.26 11.847-10.916 2.612-1.245 4.75-2.576 4.75-2.96 0-.819.867-.938 11.766-1.62 7.32-.457 8.968-.22 14.402 2.067 3.375 1.42 6.994 2.358 8.041 2.084 1.126-.294 1.754-.045 1.535.61-.406 1.22 1.1 3.22 5.957 7.92 1.761 1.703 3.5 4.496 3.866 6.206s1.015 3.559 1.443 4.109.678 3.25.552 6 .188 6.575.696 8.5c1.142 4.324.956 15.306-.315 18.65-.519 1.364-.946 5.938-.949 10.165-.007 8.995-1.241 14.193-3.955 16.649-2.24 2.027-7.04 10.819-7.04 12.895 0 .768-.674 1.956-1.5 2.64s-1.5 2.002-1.5 2.927-1.56 3.194-3.467 5.043c-2.856 2.767-4.419 3.44-8.854 3.807-4.824.4-5.444.228-5.936-1.653zm-5.742-33.336c0-1.044-1.16-.972-2.988.184-1.169.739-1.008.904.75.772 1.23-.093 2.238-.523 2.238-.956zm21-47.787c0-.55-.45-1-1-1s-1 .45-1 1 .45 1 1 1 1-.45 1-1zM101.151 74.087c-1.741-.702-1.567-2.337.25-2.337.825 0 1.5.675 1.5 1.5s-.113 1.464-.25 1.42c-.504-.185-1.004-.379-1.5-.583zm107.75-55.337c-1.293-.836-1.267-.972.19-.985.93-.008 1.97.435 2.31.985.782 1.265-.542 1.265-2.5 0z" fill="#faf8f6"/></svg>