<svg xmlns="http://www.w3.org/2000/svg" width="906.667" height="817.057" xmlns:v="https://vecta.io/nano"><path d="M785.333 815.799c0-1.374 4.188-8.814 8.966-15.929 4.02-5.987 3.867-8.289-1.693-25.486-7.74-23.944-11.163-45.97-15.2-97.801-2.156-27.697-2.975-33.577-4.985-35.798-1.323-1.462-9.309-7.517-17.746-13.455-37.287-26.243-66.263-49.61-77.046-62.133-11.432-13.278-13.753-17.094-20.52-33.754C645.617 503.146 640 476.82 640 451.24c0-17.701 2.264-25.982 12.26-44.85l14.84-28c20.383-38.441 50.823-86.207 59.874-93.954 14.054-12.03 23.078-8.792 45.273 16.245 12.02 13.561 24.393 24.9 41.526 38.06 3.025 2.324 5.377 5.62 6.366 8.919 1.376 4.592 1.153 6.51-1.82 15.648-1.863 5.728-5.849 15.978-8.857 22.778s-6.667 16.687-8.132 21.973c-6.346 22.898 0 56.894 11.722 62.805 2.191 1.104 10.524 2.138 21.16 2.624 20.704.947 21.32.647 18.426-8.971-1.366-4.54-1.53-7.127-.567-8.927 1.638-3.06 2.256-3.097 8.463-.503 3.65 1.524 5.528 1.673 7.541.596 2.44-1.307 2.625-2.434 2.06-12.59-.696-12.487-2.414-16.748-9.94-24.66-3.853-4.05-6.147-5.377-9.296-5.377-5.384 0-6.695 4.346-3.926 13.02 3.46 10.845.286 14.358-12.052 13.335-17.717-1.47-16.33-12.23 6.778-52.557 11.156-19.47 13.455-26.878 12.715-40.976-.875-16.683-8.732-31.742-28.601-54.822-5.05-5.867-15.883-19.377-24.073-30.022s-18.74-23.732-23.448-29.082-9.873-12.064-11.48-14.923c-2.863-5.093-2.87-5.248-.406-7.712 1.884-1.884 6.072-2.916 16.677-4.11 17.731-1.994 32.396-5.792 43.462-11.253 37.149-18.334 42.459-58.15 13.368-100.232-7.99-11.556-27.446-30.715-40.58-39.957-13.24-9.317-37.585-21.31-54.193-26.697-30.238-9.808-79.024-11.815-100.762-4.145-14.407 5.083-23.508 12.806-25.102 21.301-1.975 10.528 8.345 23.083 25.479 31 12.809 5.918 21.861 8.178 41.912 10.464 20.843 2.377 24.88 3.215 26.834 5.57 2.164 2.607-1.374 5.02-11.501 7.844-28.488 7.947-47.002 17.096-44.1 21.793 1.724 2.788 13.406 3.042 35.059.761 13.387-1.41 24.918-1.971 28.708-1.397 13.24 2.007 7.004 5.536-30.053 17.004-16.288 5.041-34.714 10.072-40.947 11.18l-18.546 3.289c-14.409 2.542-22.857 9.205-66.788 52.67-37.666 37.267-41.14 40.353-47.093 41.821-9.686 2.389-14.904.892-19.253-5.525-2.606-3.845-6.902-7.186-14.987-11.655-14.21-7.856-15.01-9.584-10.11-21.832 2.116-5.29 3.233-10.05 2.731-11.63-1.011-3.188-5.699-5.192-12.144-5.192-6.157 0-11.964-5.66-13.13-12.799-2.096-12.828-6.653-14.917-9.86-4.52-5.146 16.69-3.972 15.319-13.125 15.322-10.202.004-13.906 2.507-19.915 13.457-4.229 7.707-8.447 23.333-8.447 31.294 0 3.67.328 3.913 5.286 3.913 6.098 0 8.047 2.394 8.047 9.882 0 6.03 3.781 8.68 13.872 9.721 12.693 1.31 14.852-3.524 6.094-13.643-6.588-7.611-10.929-15.865-10.377-19.729.328-2.298 1.218-2.84 4.304-2.616 5.684.412 12.168 6.251 23.44 21.11 5.5 7.25 11.921 14.402 14.268 15.895a519.65 519.65 0 0 0 10.315 6.317c8.92 5.316 11.738 10.54 10.941 20.29-.76 9.3-5.477 19.312-23.609 50.106-6.692 11.367-14.516 25.27-17.385 30.897-5.659 11.096-6.124 11.386-18.586 11.59-3.332.054-12.332 1.582-20 3.395l-43.943 10.104c-16.5 3.743-31.697 7.47-33.77 8.281-7.975 3.121-7.897 2.426-6.848 60.682.933 51.866.894 53.125-1.722 56.334l-2.676 3.282-5.74-3.798c-8.751-5.792-28.227-22.561-43.86-37.765-7.728-7.515-14.541-13.665-15.14-13.666-1.646-.003.155 4.917 5.854 15.998 2.828 5.5 16.018 34 29.31 63.333l27.241 60 11.993 26.667c8.68 19.464 12.74 26 16.155 26 2.296 0 5.644-4.468 19.006-25.362 24.924-38.972 53.279-78.007 70.854-97.54 23.96-26.63 58.457-28.351 85.258-4.254 14.66 13.18 37.516 42.336 64.751 82.601 32.09 47.44 54.498 61.64 116.626 73.906 21.913 4.326 28.955 7.263 35.199 14.683 4.42 5.253 5.528 9.742 8.27 33.48l2.254 19.516-3.54 9.265c-4.884 12.78-10.217 20.734-23.758 35.426-7.564 8.207-13.721 13.594-17.652 15.441l-6.036 2.838H0V782.38l349.38.014 353-1.885c5.58-2.929 12.96-11.355 17.035-19.453 3.09-6.14 3.678-8.96 3.608-17.333-.102-12.067-3.589-27.998-7.109-32.473-2.055-2.613-5.692-3.982-18.24-6.868-70.172-16.136-93.618-29.04-118.34-65.128-16.786-24.501-30.792-43.407-43.118-58.198-17.86-21.431-42.208-45.504-49.637-49.074-12.545-6.03-22.079-2.835-39.018 13.074-21.464 20.16-39.747 45.002-68.195 92.667-10.066 16.866-20.455 32.907-23.085 35.646-13.322 13.872-27.082 7.133-39.541-19.366-10.286-21.878-30.133-67.526-51.426-118.28l-10.647-25.334-10.621-25.333-11.468-27.333c-6.71-15.896-9.588-27.844-7.356-30.533 4.1-4.939 9.435-1.804 35.014 20.574 27.154 23.756 39.616 33.959 41.479 33.959 2.503 0 3.148-13.183 1.92-39.247-.606-12.881-.922-29.56-.702-37.064.59-20.084-.227-19.49 41.792-30.373l42.608-11.225c5.134-1.434 14.967-3.632 21.852-4.886 14.456-2.631 19.35-5.907 24.299-16.264 1.65-3.451 8.08-14.075 14.29-23.608C460.943 298.841 468 286.379 468 283.341c0-1.188-1.569-3.238-3.486-4.556s-5.668-4.59-8.333-7.274c-7.522-7.57-9.698-7.637-17.29-.536-4.059 3.797-7.728 6.081-9.769 6.081-1.797 0-7.102-2.7-11.789-6s-9.88-6-11.543-6c-5.175 0-18.247-5.585-22.107-9.445-3.618-3.618-5.121-11.338-2.683-13.778.55-.55 1-7.4 1-15.222 0-14.962.62-16.939 8.012-25.555 1.573-1.833 3.64-5.824 4.594-8.869 1.965-6.272 9.602-16.902 15.026-20.913 3.17-2.346 4.26-2.494 8.587-1.166 6.392 1.962 7.408 1.06 11.827-10.505 4.365-11.424 9.731-17.214 15.954-17.214 7.2 0 11.922 5.087 15.95 17.182 1.912 5.743 4.806 11.656 6.43 13.14 3.813 3.486 10.816 7.012 13.924 7.012 1.34 0 3.791.949 5.447 2.109 2.92 2.045 2.984 2.561 2.12 17.023-.748 12.505-.563 15.187 1.145 16.604 1.12.93 2.563 1.52 3.205 1.31s4.029 1.961 7.524 4.822c6.503 5.323 11.41 6.415 16.525 3.677 2.832-1.515 13.283-12.226 47.043-48.212 13.416-14.3 27.759-28.55 31.873-31.668 9.361-7.093 19.021-10.789 33.14-12.678 6.054-.81 11.007-1.822 11.007-2.248s-3.599-2.367-7.998-4.311c-8.48-3.749-10.118-5.793-8.811-11 .807-3.216 2.885-4.435 21.81-12.793 3.85-1.7 7-3.455 7-3.9s-3.926-2.519-8.724-4.609c-18.709-8.15-34.478-21.288-40.135-33.437-10.042-21.563 4.669-42.493 38.433-54.683 26.615-9.609 66.901-7.012 106.936 6.892 41.318 14.35 83.65 42.452 105.418 69.98 15.091 19.085 19.405 31.5 19.405 55.855 0 33.378-8.93 51.02-34.075 67.32-17.99 11.661-20.458 12.613-32.682 12.613-8.853 0-10.727.352-10.133 1.9.894 2.33 13.128 19.287 36.145 50.1 39.666 53.103 41.428 56.225 41.38 73.334-.032 10.87-.38 12.167-8.537 31.758-8.323 19.99-8.461 20.517-6.463 24.707 1.86 3.899 5.365 6.815 16.143 13.425 6.236 3.825 7.557 9.156 7.535 30.4-.012 10.474-.462 19.677-1 20.452s-2.897 2.184-5.24 3.132c-5.154 2.083-5.792 4.286-3.513 12.126.96 3.3 1.75 7.35 1.759 9 .016 3.507-2.11 3.749-13.861 1.577-4.234-.783-17.994-1.533-30.578-1.667-22.529-.24-22.98-.302-29.317-4.027-8.96-5.267-13.344-12.817-17.477-30.102-6.164-25.781-4.116-45.68 7.058-68.55 12.165-24.902 10.226-34.329-9.953-48.37-13.148-9.149-18.354-14.063-23.865-22.528-5.61-8.616-9.094-11.667-13.326-11.667-4.83 0-8.255 3.596-13.652 14.334-6.43 12.79-22.708 41.154-43.116 75.125-22.404 37.293-24.585 43.422-24.512 68.875.048 16.847.42 19.77 3.825 30 2.074 6.233 6.019 15.833 8.766 21.333s6.346 13.9 7.998 18.667c4.324 12.475 6.71 15.828 20.636 29.008 21.333 20.19 50.223 43.147 77.948 61.942 2.934 1.989 6.691 6.189 8.35 9.333 2.876 5.454 3.02 7.185 3.139 37.717.114 29.422.416 33.396 3.754 49.333 4.196 20.034 8.518 34.58 15.62 52.564l5.042 12.77 44.1.35 44.102.352v31.964H846c-37.104 0-60.667-.488-60.667-1.257z" fill="#faf8f6"/></svg>