<svg xmlns="http://www.w3.org/2000/svg" width="69.281" height="181.388" xmlns:v="https://vecta.io/nano"><path d="M23.666 180.183c-3.172-3.676-10.299-15.125-14.353-23.056-3.738-7.31-4.097-8.556-2.832-9.821.797-.797 1.434-2.204 1.416-3.127-.028-1.394-.344-1.307-1.86.51l-1.828 2.188-1.119-3.689c-3.581-11.806-3.919-15.82-1.69-20.13 2.077-4.016 6.016-5.117 14.232-3.978 8.51 1.18 12.21 2.424 13.874 4.666 1.125 1.515 1.598 1.573 3.473.427 1.933-1.182 1.877-.943-.513 2.191-1.476 1.935-3.18 3.684-3.787 3.886-1.68.56.113 2.75 2.251 2.75 1.035 0 2.16-.45 2.5-1s1.436-1 2.437-1 2.39-.69 3.089-1.531c1.05-1.266.941-1.795-.628-3.052-1.825-1.462-1.811-1.497.352-.901 1.333.366 2.25.176 2.25-.468 0-.616.973-.857 2.25-.557 1.238.29 2.925.09 3.75-.448 1.292-.842 1.204-1.274-.63-3.112-2.08-2.085-2.193-2.093-4.893-.324l-2.764 1.811-2.883-3.453c-2.652-3.176-2.746-3.553-1.18-4.699.937-.685 1.41-1.54 1.051-1.898s-1.39-.041-2.291.707c-1.426 1.183-1.958.974-4.09-1.608l-6.441-7.717c-2.194-2.613-3.515-4.75-2.934-4.75 1.34 0 5.055-3.675 5.055-5 0-1.256-.648-1.259-2.975-.013C17.278 96.49 7.93 88.477 7.93 81.964c0-3.157-.083-3.236-1.468-1.405-1.432 1.892-1.47 1.885-1.5-.309-.018-1.237.427-2.25.987-2.25s.766-1.012.457-2.25c-.44-1.76.538-3.332 4.48-7.212 2.775-2.73 5.044-4.66 5.044-4.29s-.912 1.524-2.027 2.562c-1.235 1.15-1.779 2.533-1.393 3.54.867 2.257 2.496 2.075 3.13-.35.618-2.36 1.142-2.427 3.728-.47 1.74 1.316 2.171 1.246 4.228-.686l2.29-2.151-4.58-2.104-4.58-2.104 4.352-3.14c11.254-8.12 15.89-15.211 16.624-25.425.579-8.062-1.55-13.568-7.982-20.637-2.393-2.63-4.963-5.58-5.712-6.556-1.185-1.544-1.15-1.692.28-1.143 1.12.43 1.642.097 1.642-1.044 0-1.22-.544-1.502-2-1.04-2.283.725-2.772-.99-.527-1.851.854-.328 2.122.362 3.019 1.643.85 1.214 1.875 2.208 2.277 2.208s.607.37.456.824.224.517.832.14c.717-.443.132-1.701-1.662-3.574C26.802 1.3 26.035 0 26.62 0s4.143 3.488 7.906 7.75l12.685 14.104c3.215 3.494 5.63 6.569 5.367 6.831s.159 2.002.937 3.864c1.818 4.351 1.846 4.256-1.085 3.696-1.46-.28-2.5-.013-2.5.638 0 .615.398 1.117.883 1.117s1.142.987 1.457 2.194c.561 2.143.62 2.151 2.617.345 1.124-1.017 2.043-2.653 2.043-3.635s.45-2.064 1-2.404 1.006-.254 1.012.191 1.891 2.832 4.187 5.305c5.227 5.629 7.054 8.994 5.742 10.575-.536.646-.7 1.892-.365 2.767.703 1.831-2.77 7.16-5.683 8.72-2.491 1.333-5.971.31-5.26-1.546.314-.816 1.218-1.126 2.2-.755 1.446.548 1.428.39-.136-1.187-1.743-1.758-1.879-1.748-4.064.306-1.244 1.168-2.683 2.11-3.197 2.094s-.148-.49.814-1.05c2.539-1.479 2.145-2.92-.797-2.92-2.526 0-2.532-.02-.75-2.469.988-1.357 2.212-2.482 2.718-2.5s1.744-.776 2.75-1.686c1.332-1.205 1.829-1.3 1.829-.345 0 .913.606.762 2-.5 1.1-.995 2-2.378 2-3.072s.563-1.462 1.25-1.708.954-.766.593-1.157-2.045.007-3.741.884c-1.804.933-4.101 1.34-5.533.98-1.927-.483-3.214.152-6.042 2.98C47.48 50.383 45.23 52 44.456 52s-1.729.52-2.121 1.155-.285.89.238.565c1.616-.998 3.336.757 3.575 3.649.126 1.516.803 3.234 1.505 3.816 2.29 1.901 1.39 2.999-1.873 2.282-2.695-.592-3.056-.447-2.5 1.002.357.932.65 2.156.65 2.72s.7.756 1.555.428c.897-.344 2.538.35 3.881 1.643l2.327 2.24-5.382 5.16c-4.044 3.877-5.381 4.7-5.381 3.308 0-1.017.445-2.125.989-2.461 1.28-.791-1.75-5.507-3.539-5.507-.726 0-2.504.45-3.952 1l-2.633 1.002 1.904 2.749c1.046 1.512 2.268 3.424 2.714 4.249.659 1.22.558 1.266-.536.25-2.057-1.909-3.146-1.49-1.947.75.589 1.1.807 2 .484 2s-1.244-1.575-2.048-3.5c-1.606-3.843-3.436-4.642-3.436-1.5 0 1.1-.45 2-1 2s-1 .9-1 2 .505 2 1.122 2c.762 0 .712.496-.157 1.542-.902 1.087-.967 1.856-.22 2.603s2.05.364 4.407-1.293c1.842-1.294 3.482-2.642 3.646-2.996s1.111-.43 2.106-.17c1.675.437 1.702.778.372 4.64-.79 2.291-1.287 6.306-1.106 8.92l.33 4.755h-3.781c-4.22-.001-5.324 1.451-4.278 5.621.6 2.393.98 2.566 4.412 2.018 3.527-.564 4.055-.284 8.737 4.63 7.73 8.113 9.156 9.954 7.104 9.166-1.85-.71-2.163.276-.78 2.46.486.767 1.605 1.119 2.486.78 1.145-.438 3.598 1.73 8.6 7.605 3.85 4.52 7 8.712 7 9.314s-.863 1.876-1.917 2.83c-2.281 2.065-4.558 1.176-8.26-3.224-1.317-1.564-3.053-2.645-3.858-2.403-1.154.348-1.114.073.189-1.296 1.892-1.989 3.846-1.252 3.846 1.45 0 1.009.712 2.107 1.582 2.441 2.243.861 2.418.792 2.418-.952 0-.857-.403-1.31-.895-1.006-1.281.792-1.985-1.611-1.388-4.736.492-2.57.398-2.635-2.402-1.659-1.603.559-3.511 1.845-4.241 2.858-1.29 1.789-1.505 1.788-7.451-.02-3.368-1.025-7.36-1.866-8.873-1.87-1.519-.004-2.638-.513-2.5-1.135s-.987-1.311-2.5-1.535c-2.975-.44-3.882 1.274-1 1.888 1.202.257.882.55-1.025.94-2.247.459-2.676.256-2.257-1.064.673-2.121-3.232-4.738-4.773-3.197-.758.758-.406 1.773 1.212 3.496l2.28 2.427-2.343 3.176c-2.108 2.855-2.335 4.18-2.254 13.132.073 7.938-.18 9.851-1.25 9.441-2.461-.944-1.377 2.085 1.16 3.241 1.375.627 2.5 1.544 2.5 2.038s.68 2.528 1.511 4.517 1.468 3.907 1.415 4.26.43.969 1.072 1.366c.838.518.747.885-.32 1.294-.82.315-2.143-.185-2.942-1.11zm-7.234-18.442c-2.342-1.31-3.65.05-2.232 2.322 1.152 1.846 1.31 1.861 2.49.25 1.035-1.415.989-1.874-.258-2.572zM13.43 159c.34-.55-.11-1-1-1s-1.34.45-1 1 .79 1 1 1 .66-.45 1-1zm-1.5-3c0-.55-.198-1-.441-1s-.72.45-1.059 1-.141 1 .441 1 1.059-.45 1.059-1zm-1-4.666c0-.965-.565-1.331-1.5-.972-.825.316-1.5.064-1.5-.56s-.261-.874-.581-.554-.072 1.532.55 2.694c1.219 2.278 3.031 1.914 3.031-.608zm2.418-4.847c-2.05-1.932-3.994-3.22-4.322-2.863s-.033.85.654 1.096 1.25 1.234 1.25 2.197c0 2.358.88 3.083 3.738 3.083 2.289 0 2.225-.17-1.32-3.513zm-.749-5.907c-.364-.95-1.672-1.428-3.536-1.293-2.225.16-2.704.52-1.932 1.452.564.681 1.334 1.049 1.71.816s1.325-.027 2.108.457c1.77 1.093 2.407.54 1.65-1.432zm-2.996-5.115c1.46-.467 1.394-.73-.51-2.064-1.242-.87-3.042-1.257-4.173-.898-2.213.702-2.681 3.09-.74 3.766 1.213.424 1.906.32 5.423-.804zm43.205.631c1.44-.911.736-3.096-.996-3.096-.55 0-.748.408-.44.907s-.452.645-1.69.326c-2.006-.516-2.102-.397-.88 1.094 1.558 1.898 2.069 1.997 4.006.77zm-2.378-3.941c.55-.087-.322-1.294-1.937-2.683-2.566-2.207-3.12-2.343-4.387-1.077-2.946 2.947.076 4.744 6.324 3.76zM22.865 77.578c.91-1.097.884-1.895-.118-3.5-1.72-2.754-3.247-2.624-4.621.392-.933 2.046-.832 2.641.59 3.47 2.3 1.341 2.77 1.3 4.149-.362zm41.95-21.649c-1.604-.991-2.334-.465-1.416 1.02.368.596 1.136.795 1.707.442.672-.415.57-.93-.29-1.462zm-26.47-.57c.528-1.373.381-1.435-.892-.378-1.735 1.44-1.916 2.019-.63 2.019.491 0 1.176-.739 1.523-1.641zm3.55-7.293c1.62-3.026 1.294-3.337-2.715-2.588-4.495.84-4.46.812-3.667 2.879.87 2.265 5.117 2.071 6.382-.291zM35.13 12.8c-.642-.642-1.499-.835-1.904-.429s-.09 1.139.704 1.629c1.868 1.154 2.71.31 1.2-1.2zm8.307 109.211c-.35-.566.051-.734.941-.393 1.732.665 2.05 1.382.611 1.382-.518 0-1.216-.445-1.552-.989zM33.18 108.294c-2.952-.568-2.895-1.794.083-1.794 1.284 0 2.334.563 2.334 1.25s-.038 1.189-.084 1.114-1.095-.331-2.333-.57zM44.43 65c-.34-.55-.141-1 .441-1s1.059.45 1.059 1-.198 1-.441 1-.72-.45-1.059-1z" fill="#faf8f6"/></svg>