<svg xmlns="http://www.w3.org/2000/svg" width="1118.581" height="1127.243" xmlns:v="https://vecta.io/nano"><path d="M178.89 1125.476c-3.912-.947-8.607-2.521-10.434-3.499-3.879-2.076-10.618-13.077-15.492-25.287-6.007-15.052-7.086-21.317-14.912-86.6-3.945-32.915-7.48-110.233-6.642-145.334 1.064-44.655 11.078-133.54 18.552-164.666 5.79-24.118 13.966-40.133 25.044-49.06 10.724-8.641 18.182-12.136 26.05-12.208 6.876-.062 7.5.222 12.271 5.596 9.515 10.717 15.619 33.873 19.419 73.672 2.823 29.57 4.142 131.683 2.074 160.666-5.223 73.222-12.094 136.437-19.638 180.667-8.028 47.078-11.918 62.99-16.216 66.333-2.674 2.08-10.788 1.967-20.077-.28zm7.606-47.72c4.384-10.344 8.05-30.686 15.434-85.666 8.528-63.488 10.406-89.445 11.05-152.667.372-36.665.025-68.248-.91-82.667-4.428-68.3-4.3-67.214-9.613-81.728-1.597-4.365-3.533-7.557-4.446-7.334-3.1.757-15.366 16.192-16.646 20.944-5.327 19.784-16.327 101.499-20.747 154.118-6.944 82.675-1.888 175.197 12.094 221.334 3.383 11.16 7.603 19.333 9.982 19.333.77 0 2.481-2.55 3.802-5.667zm149.86 48.261c-13.347-2.634-17.31-6.292-25.11-23.176-6.04-13.07-9.225-26.976-13.191-57.572-8.424-64.988-10.54-103.87-9.714-178.513l.59-53.333 6.134-46.732c8.298-63.213 11.797-78.904 21.92-98.301 7.778-14.905 24.448-27.96 38.023-29.778 15.069-2.017 25.823 18.137 30.937 57.977 4.947 38.547 7.385 124.981 4.837 171.5-3.295 60.153-8.96 118.35-16.29 167.334-8.347 55.784-14.711 85.362-19.37 90.02-2.16 2.16-9.577 2.387-18.766.574zm6.324-48.315c1.392-3.146 3.75-12.596 5.24-21 4.603-25.97 13.171-88.793 15.359-112.612l4.213-43.953c1.744-17.416 2.011-32.562 1.47-83.333-.364-34.126-1.31-69.248-2.101-78.048l-2.72-32.752c-.91-11.902-2.324-19.913-4.887-27.667-1.984-6.003-4.037-10.914-4.561-10.914s-4.302 3.51-8.395 7.801c-9.153 9.597-10.141 12.73-15.626 49.532l-6.006 40c-2.628 17.227-8.308 75.743-9.966 102.667-1.732 28.138-1.729 81.765.007 106.667 3.745 53.707 12.97 100.406 21.1 106.8 1.77 1.394 3.472 2.533 3.78 2.533s1.701-2.574 3.093-5.72zm152.653 48.79c-13.871-1.845-20.31-6.524-26.916-19.562-8.114-16.011-10.42-26.754-16.42-76.483-6.777-56.185-8.461-85.476-8.568-149.024-.105-62.646-.504-57.48 10.709-138.667 7.77-56.273 15.558-78.117 32.92-92.347 9.468-7.76 17.868-11.613 25.365-11.634 5.899-.017 6.887.473 12.126 6.018 7.192 7.612 10.834 17.127 14.91 38.958 4.072 21.806 5.476 41.175 7.287 100.563 1.923 63.024-.065 105.467-8.825 188.442-5.316 50.352-6.68 59.98-16.527 116.667-3.736 21.512-7.381 33.373-11.044 35.938-2.836 1.986-6.503 2.263-15.017 1.13zm3.152-48.07c2.872-7.133 5.478-21.466 11.336-62.332 6.071-42.351 7.343-52.775 10.818-88.667 6.347-65.556 6.327-135.63-.061-212.554-2.088-25.14-6.308-44.552-10.21-46.964-2.66-1.644-15.508 13.955-17.723 21.518-1.761 6.012-10.815 62.244-14.062 87.333-.711 5.5-2.914 26.5-4.895 46.667-3.33 33.91-3.603 41.327-3.62 98.667-.018 57.41.206 63.628 3.036 84 7.25 52.187 13.984 76 21.492 76 1.387 0 3.042-1.56 3.89-3.667zm290.048 28.468c-2.493-2.494-4.533-5.712-4.533-7.151s2.322-11.55 5.16-22.467l47.393-183.444 21.43-83.072 21.524-84.666 5.372-21.849c.652-2.19.256-2.39-3.065-1.551-10.399 2.626-26.305 4.75-36.439 4.864-10.524.118-11.49-.104-14.213-3.27-1.607-1.868-4.204-6.825-5.772-11.016-6.505-17.385-2.48-19.06 52.903-22.014 29.953-1.598 31.051-1.568 33.803.922 4.166 3.771 6.57 9.126 6.57 14.635 0 2.67-5.659 24.75-12.575 49.066l-66.732 234.88c-40.682 143.283-39.859 140.666-44.193 140.666-1.155 0-4.14-2.04-6.633-4.533zm180.913-24.467c-2.986-3.483-5.433-6.758-5.437-7.277s-2.62-2.475-5.813-4.345c-8.406-4.927-10.79-8.042-10.555-13.793.357-8.713 12.531-32.335 21.06-40.865 5.389-5.388 14.203-7.383 20.71-4.688 5.469 2.265 17.256 15.666 17.256 19.618 0 1.714-2.108 8.575-4.684 15.245s-5.889 16.847-7.362 22.615c-3.472 13.602-4.89 16.548-8.83 18.343-6.678 3.042-10.569 1.887-16.345-4.853zm-908.638 1.199c-5.604-1.257-8.526-6.206-10.352-17.532-2.174-13.492-2.17-168.336.006-250.506l1.056-62.42c-.812-.813-6.64 5.632-12.543 13.868-6.768 9.445-9.102 10.034-14.593 3.682-7.153-8.275-6.473-10.925 10.226-39.856 4.534-7.856 11.476-21.16 15.426-29.566 7.006-14.911 7.271-15.262 10.907-14.44 2.049.463 6.126 2.52 9.059 4.572l5.333 3.729.431 23.802c.425 23.464-1.267 138.556-4.243 288.468-1.491 75.164-1.573 76.67-4.188 76.866-1.466.109-4.403-.191-6.525-.667zm922.05-107.576c-6.69-5.63-7.326-9.81-5.536-36.38.874-12.967 2.129-25.721 2.789-28.343 1.301-5.173 8.837-13.558 15.222-16.94 2.2-1.166 7.6-2.228 12-2.36 11.237-.337 10.697-.169 15.297-4.768 9.343-9.344 15.19-26.797 24.543-73.253 7.067-35.103 8.93-58.748 5.972-75.803-1.26-7.258-2.36-9.616-6.364-13.63-8.736-8.758-21.004-10.044-36.168-3.79-14.173 5.844-19.27 6.41-23.336 2.591-4.801-4.51-4.14-8.146 2.617-14.374 11.832-10.906 28.62-17.035 55.404-20.227 17.419-2.075 23.89-1.702 31.369 1.811 7.68 3.608 10.416 6.323 13.282 13.182 2.702 6.466 2.588 13.969-.576 37.84l-7.363 57.154c-9.153 72.162-16.062 104.161-25.98 120.334-3.332 5.434-5.97 5.47-15.722.217-6.389-3.441-8.655-4.001-13.825-3.414-3.4.386-8.321 1.596-10.935 2.688-4.07 1.7-5.046 3.002-6.808 9.08-1.131 3.902-2.972 13.635-4.09 21.628-2.577 18.405-5.59 25.549-11.885 28.179-5.878 2.456-5.18 2.556-9.907-1.422zm-372.75-44.5c-5.928-1.26-8.365-3.916-9.593-10.461-2.05-10.932 2.02-12.766 42.152-18.981l40.974-6.827c14.431-2.698 15.349-2.72 25.333-.575 20.378 4.376 24.169 5.818 26.342 10.02 6.81 13.172-5.485 20.532-41.316 24.733-19.929 2.336-76.137 3.737-83.891 2.09zm89.92-460.278c-4.428-1.766-8.081-5.184-9.496-8.882-.665-1.74-.624-12.568.095-25.334l2.684-50.962 4.066-80.667 10.259-238.808c-.464-.464-10.407-.162-22.095.67-14.114 1.006-22.411 1.075-24.7.204-1.897-.72-6.161-4.997-9.478-9.502-6.97-9.468-8.078-16.04-3.148-18.679 3.484-1.864 40.676-5.755 74.452-7.789l69.647-4.962c.539-.33 3.492 1.742 6.561 4.606l5.582 5.206-3.098 5.012c-6.65 10.759-20.383 18.177-40.692 21.982-13.213 2.475-13.677 2.626-14.488 4.74-.814 2.122-5.153 42.19-14.168 130.849L720.047 338.09l-10.893 129.666c-1.334 5.309-3.009 5.953-9.127 3.512zM998 465.21c-10.81-2.311-26.992-8.752-32.116-12.783-6.163-4.848-7.217-9.637-7.217-32.775 0-27.581.795-33.374 4.835-35.215 4.419-2.013 11.454.282 13.384 4.367.853 1.807 2.495 11.55 3.648 21.65s2.995 20.102 4.092 22.223c2.695 5.213 9.424 7.311 19.711 6.147 17.073-1.931 29.066-9.03 34.984-20.71 4.766-9.405 6.527-17.87 14.57-70.024 9.518-61.72 10.843-71.437 13.364-98l5.464-54.667c5.3-51.293 5.295-51.167 2.735-57.87-1.244-3.256-3.221-6.717-4.394-7.692-1.5-1.245-9.103-2.021-25.597-2.612-34.38-1.231-44.75-5.223-51.187-19.702-6.655-14.97-8.038-35.56-3.543-52.723 4.963-18.949 9.862-24.997 24.257-29.95 18.679-6.426 44.432-6.969 69.677-1.468 19.122 4.167 22.5 7.089 19.323 16.715-2.35 7.121-4.28 7.555-23.558 5.3-30.421-3.558-41.51-2.252-49.605 5.841-10.898 10.899-11.197 34.877-.55 44.225 4.194 3.682 5.188 3.934 15.436 3.91 6.025-.016 14.854-.604 19.62-1.31 23.333-3.45 30.746-4.049 33.284-2.69 1.548.828 3.478 4.46 4.804 9.039 1.219 4.21 4.9 14.203 8.18 22.208 10.628 25.93 12.587 8.886-19.401 168.779l-29.542 145.575c-1.706 5.984-8.886 16.645-13.559 20.134-8.09 6.04-32.728 8.006-51.1 4.078zm-876.667-3.32c-2.566-.693-6.166-2.396-8-3.786L110 455.578l-.893-52.411c-.515-30.206-1.798-62.014-3.03-75.077l-6.07-69.667c-.01-4.434-2.27-3.641-3.8 1.333l-19.34 60.334-21.54 68c-6.11 20.766-19.256 61.252-20.522 63.203-1.34 2.066-23.099 6.626-27.553 5.774-3.66-.7-7.252-6.884-7.252-12.485 0-2.437 2.25-11.344 5-19.794l5-15.365-.3-26.667-2.398-125.045C5.184 158.431 5.558 128.093 9.44 84.756c1.634-18.251 3.167-24.769 6.087-25.89 3.58-1.374 11.118.692 12.595 3.452.941 1.758 1.09 28.456.465 83.511-.6 52.952-.41 91.759.552 112.26l2.363 55.736c.52 14.189 1.388 23.908 2.076 23.22.65-.65 5.688-13.731 11.194-29.069l34.82-94.553 9.082-23.075c2.352-6.09 4.913-11.712 5.693-12.492 1.001-1.001 3.434-.934 8.284.23 5.316 1.275 7.153 2.402 8.138 4.992.7 1.84 2.782 14.82 4.627 28.845l5.278 39.038c1.971 13.882 6.638 72.4 7.838 98.286.944 20.385 1.81 20.297 4.818-.49l17.259-116.506 6.038-43.334 15.895-139.29c1.713-16.18 2.03-17.327 5.717-20.694 2.764-2.525 4.946-6.91 7.478-15.032 1.966-6.307 4.465-12.206 5.554-13.11 2.892-2.4 12.42.994 15.867 5.654 2.707 3.659 2.71 3.798.344 17.333-4.114 23.545-13.135 82.344-29.504 192.312l-8.024 52.666-20.641 136.667c-2.751 19.673-8.304 51.96-9.458 54.995-.977 2.57-2.064 2.985-7.509 2.867-3.501-.076-8.466-.704-11.033-1.396zm215.044-12.643c-2.36-1.163-4.687-3.365-5.172-4.894-1.089-3.43-.93-18.072.762-70.263 2.31-71.272 2.74-76.907 10.85-142 6.905-55.428 9.364-80.149 8.367-84.122-1.154-4.598 1.747-4.876-64.882 6.206-4.967.826-9.863 2.333-10.878 3.349-2.364 2.364-2.814 9.394-5.624 87.9-1.407 39.303-2.21 88.936-2.08 128.62.235 71.812.577 69.004-8.74 71.795-8.914 2.671-13.396 2.041-17.96-2.524l-4.11-4.109.928-54.891 2.173-105.558 1.288-84.666c.043-34.496 5.62-131.462 7.678-133.5.562-.558 4.323-1.199 8.356-1.424l7.334-.41.7-6.967c.386-3.832 1.414-7.68 2.285-8.551 2.205-2.206 11.093-1.64 13.603.864 3.299 3.293 3.471 35.595.303 56.654-1.797 11.943-2.106 17.179-1.088 18.472 1.548 1.969 4.741 1.708 20.05-1.64 5.053-1.105 18.354-2.428 29.558-2.94s21.084-1.374 21.957-1.913c1.11-.686 1.92-11.215 2.7-35.066 1.284-39.27 1.689-42.306 6.254-46.872 4.493-4.492 6.966-4.257 12.22 1.164 2.418 2.495 7.186 5.58 10.594 6.854s7.027 2.972 8.041 3.773c2.329 1.839 1.802 9.778-4.438 66.835l-37.521 339c-.477 2.376-1.498 2.994-4.91 2.97-2.37-.017-6.239-.983-8.598-2.146zM588 444.449c-3.904-4.19-6.053-12.84-10.024-40.36l-15.285-104.666-8.107-56c-2.914-20.968-5.807-34.123-8.114-36.903-.843-1.017-4.076-1.739-7.633-1.704-7.806.075-31.965 4.535-33.64 6.21-1.554 1.554-5.344 16.527-21.869 86.397l-28.597 115.831c-2.597 6.831-16.064 3.328-16.064-4.178 0-7.568 15.943-78.466 37.552-166.986l48.46-192.902c1.708-4.089 2.413-4.558 6.285-4.185 3.473.334 4.825 1.371 6.635 5.087 1.25 2.566 2.306 7.366 2.347 10.666.155 12.39 8.975 48.703 23.193 95.48 12.164 40.022 16.642 63.04 22.15 113.854 6.01 55.438 16.075 117.04 24.29 148.666 4.942 19.024 5.022 18.41-3.096 23.876-8.423 5.672-14.349 6.255-18.483 1.817zm-47.45-271.503c1.148-1.858-13.722-59.14-15.925-61.342-1.764-1.764-3.275 3.898-9.922 37.185-4.731 23.694-4.724 23.592-1.703 24.382 4.283 1.119 26.833.935 27.55-.225zm299.336 15.598c-2.456-4.589-.687-13.206 8.576-41.788 4.753-14.666 9.614-31.39 10.802-37.162 2.546-12.373 4.663-37.535 4.706-55.925.037-15.95 1.027-18.246 7.87-18.246 5.822 0 18.984 7.74 24.058 14.147 2.786 3.519 2.974 4.72 2.17 13.853-1.69 19.174-8.465 45.113-18.282 70-7.88 19.978-22.22 48.23-27.113 53.418-5.096 5.403-10.426 6.113-12.787 1.703z" fill="#faf8f6"/></svg>