<svg xmlns="http://www.w3.org/2000/svg" width="265.077" height="73.254" xmlns:v="https://vecta.io/nano"><path d="M0 73.203c0-.352 4.842-5.266 10.76-10.92C28.23 45.591 42.666 24.118 47.427 7.739L49.677 0l3.143 3.654 3.142 3.653-4.187 7.614C38.148 39.704 20.305 61.35 6.5 69.844c-3.575 2.2-6.5 3.711-6.5 3.359zm170.073-17.02l-8.497-17.648c-.314-.734 2.175 1.313 5.53 4.549 5.094 4.91 6.433 5.607 8.109 4.216 2.604-2.162 15.68-18.299 18.886-23.31l2.481-3.876-7.29.972c-9.463 1.262-40.162 4.722-42.197 4.756-1.825.03-5.762-3.618-5.762-5.34 0-.646 2.914-.83 6.475-.408 6.62.784 27.947-1.159 42.072-3.832 7.486-1.417 8.002-1.34 10.333 1.538 1.35 1.667 2.454 3.797 2.454 4.733 0 1.568-15.44 17.265-24.541 24.95l-3.874 3.271 3.59 7.34c2.938 6.004 3.346 7.984 2.24 10.89-.742 1.953-1.514 3.542-1.716 3.532s-3.933-7.36-8.293-16.333zm40.64 12.44c-2.03-3.793-1.927-3.912 4.818-5.61 5.105-1.286 8.62-3.896 19.955-14.812 7.567-7.288 17.168-17.704 21.337-23.147 7.894-10.306 10.318-11.93 6.436-4.31-6.105 11.982-25.19 33.538-39.491 44.604-8.353 6.463-10.994 7.125-13.054 3.274zM59.444 31.088c-3.911-4.647-3.35-7.154 1.34-5.977 6.926 1.739 38.869.917 52.437-1.348l13.886-2.32 3.114 3.62c1.712 1.991 3.113 4.037 3.113 4.546s-9.15 1.002-20.334 1.094c-11.248.094-26.543 1.136-34.234 2.334l-14.881 2.164c-.54 0-2.538-1.85-4.441-4.113zm159.206-12.73c-3.119-4.13-6.84-8.68-8.272-10.11-4.35-4.35-1.951-3.915 6.067 1.1 7.799 4.879 12.155 10.736 10.735 14.436-1.277 3.33-2.514 2.543-8.53-5.426z" fill="#faf8f6"/></svg>