<svg xmlns="http://www.w3.org/2000/svg" width="296.503" height="271.641" xmlns:v="https://vecta.io/nano"><path d="M118.618 270.94c-4.4-.677-9.8-1.22-12-1.208s-6.7-1.404-10-3.149-9.3-3.954-13.333-4.909-8.562-2.817-10.064-4.138-4.639-2.783-6.97-3.25-4.926-1.675-5.766-2.687-2.372-1.839-3.405-1.839-2.22-.888-2.636-1.972-3.416-3.301-6.667-4.925-9.08-6.286-12.954-10.36c-9.368-9.855-21.069-27.344-20.057-29.98.534-1.392-.337-2.488-2.689-3.382-1.913-.727-3.37-1.786-3.236-2.352s-.379-2.529-1.139-4.362c-3.464-8.36-4.339-12.488-2.992-14.111.989-1.191.518-2.245-1.695-3.795-2.948-2.065-3.061-2.835-3.006-20.453.072-23.196 4.435-43.184 10.532-48.244 1.143-.948 2.077-2.658 2.077-3.8 0-3.117 3.05-10.93 4.268-10.93.586 0 1.066-1.54 1.066-3.422 0-4.67 1.881-7.876 10.206-17.393 3.92-4.482 7.127-8.707 7.127-9.39 0-1.637 8.656-9.823 22.83-21.587 8.34-6.923 12.549-9.547 15.333-9.56 6.068-.029 10.057-1.485 9.322-3.401-.422-1.099.825-2.063 3.394-2.628 2.232-.49 5.153-1.985 6.49-3.321 3.185-3.186 7.222-5.299 10.122-5.299 1.284 0 4.834-1.21 7.89-2.689s8.449-2.906 11.986-3.17c3.617-.272 7.059-1.337 7.865-2.436 1.542-2.101 31.13-7.944 33.415-6.6.722.426 6.122.85 12 .942 15.696.249 42.12 4.726 41.965 7.112-.03.463-1.734 2.805-3.788 5.204l-3.734 4.363-13.212-1.48c-18.757-2.1-43.628-.507-48.194 3.087-.907.714-3.157.92-5 .457-1.872-.47-3.35-.264-3.35.467 0 .719-2.34 1.937-5.198 2.707-6.795 1.83-17.144 6.431-18.16 8.074-.44.713-1.707 1.296-2.814 1.296s-4.631 1.8-7.829 4-7.11 4-8.694 4c-4.242 0-13.186 6.832-12.888 9.845.172 1.734-1.071 2.973-4.01 4-2.497.872-7.484 5.22-12.046 10.502-4.281 4.958-9.993 10.515-12.692 12.35-3.195 2.17-4.64 4.03-4.142 5.329.421 1.097-.2 3.469-1.381 5.27s-2.147 4.093-2.147 5.091-1.451 3.178-3.225 4.845c-6.992 6.568-13.714 28.57-14.99 49.059-.626 10.06-.408 14.154.833 15.65.925 1.114 1.813 5.484 1.973 9.71.421 11.1 5.108 23.71 13.83 37.206 9.504 14.705 12.947 18.375 25.974 27.686 12.763 9.121 14.603 10.123 18.584 10.123 1.735 0 3.839.684 4.674 1.52 1.479 1.479 10.9 3.559 20.347 4.493 2.567.254 7.067 1.09 10 1.86 6.376 1.67 23.334 1.925 23.334.35 0-.612 4.35-1.124 9.666-1.14 7.643-.022 12.598-1.05 23.667-4.91 7.7-2.685 16.4-6.704 19.333-8.93s6.384-4.387 7.667-4.801 2.333-1.283 2.333-1.93 1.212-1.178 2.692-1.178c2.206 0 2.541-.603 1.856-3.334-.722-2.876-.389-3.333 2.43-3.333 2.273 0 5.674-2.534 11.186-8.333 9.423-9.917 17.836-21.244 17.836-24.016 0-1.095.807-2.66 1.793-3.48 2.75-2.28 11.802-21.337 10.86-22.86-.457-.74.784-4.649 2.76-8.686 3.534-7.225 5.071-20.606 2.79-24.296-.497-.805-.192-3.024.678-4.933 1.228-2.694 1.205-5.625-.1-13.1l-2.056-12.296c-.564-4.014-3.038-9.624-4.697-10.65-.808-.499-1.132-1.973-.718-3.274.415-1.308-.158-3.12-1.28-4.051-1.116-.927-2.03-2.27-2.03-2.984s-2.4-4.025-5.333-7.357-5.333-6.575-5.333-7.205-.854-1.146-1.898-1.146-3.594-1.365-5.667-3.035c-4.737-3.815-12.726-6.614-15.66-5.488-1.294.496-2.912.008-3.84-1.16-.88-1.108-4.765-3.036-8.631-4.283l-7.03-2.267 3.696-4.651c2.033-2.559 7.08-8.323 11.217-12.81l7.521-8.157 8.48 2.357c8.14 2.263 15.795 6.095 19.617 9.822.994.968 4.175 2.969 7.07 4.446 3.872 1.975 5.07 3.298 4.53 5.002-.508 1.597.481 3.037 3.177 4.629 2.889 1.707 3.848 3.215 3.665 5.766-.238 3.324 1.216 4.864 5.958 6.309 3.285 1 14.8 26.025 13.955 30.326-.376 1.91-.197 4.01.397 4.667 4.167 4.608 5.424 32.69 2.083 46.527-1.063 4.4-1.941 9.663-1.953 11.696-.03 5.365-9.6 27.38-12.2 28.066-1.545.407-1.989 1.578-1.523 4.013.43 2.253-.312 4.67-2.154 7.012-1.546 1.965-2.81 4.153-2.81 4.861s-3.684 5.878-8.186 11.487c-13.32 16.597-37.008 34.265-59.423 44.322-8.224 3.69-13.848 5.521-35.058 11.416-4.033 1.12-11.533 2.197-16.667 2.391s-13.533.682-18.666 1.084-12.934.177-17.334-.5zm-55.135-74.203c-5.362-13.07-6.938-22.43-6.114-36.31.782-13.164 5.645-37.334 7.512-37.334.589 0 1.07-.842 1.07-1.872 0-1.997 7.512-15.824 12.09-22.253 1.75-2.459 3.944-3.875 6.001-3.875 2.192 0 3.25-.756 3.263-2.333.012-1.283.566-3.195 1.232-4.248 1.03-1.626 1.543-1.639 3.415-.085s2.385 1.54 3.414-.086c.666-1.053 1.22-3.452 1.232-5.332.016-2.629 2.56-5.566 11.02-12.723 14.01-11.852 23.476-18.781 34.185-25.025 7.309-4.262 9.05-4.781 12.272-3.658 3.153 1.1 3.88.916 4.533-1.142.59-1.862 9.103-6.701 11.787-6.701.214 0 .352 2.338.306 5.196-.076 4.768-.742 5.686-8.083 11.133-14.87 11.033-28.274 27.26-34.974 42.338-2.523 5.677-4.776 11.937-8.19 22.761-1.574 4.987-2.09 30.157-.693 33.796.445 1.16 1.782 2.11 2.972 2.11 3.317 0 20.261-6.72 25.998-10.31 10.8-6.76 44.887-43.476 44.887-48.35 0-1.177.635-2.775 1.41-3.55s3.118-4.646 5.205-8.6c3.765-7.132 3.852-7.194 10.59-7.594 3.738-.221 6.795-.014 6.795.461s-1.182 2.524-2.627 4.554c-2.92 4.1-2.412 5.388 2.12 5.388 2.48 0 8.761 2.023 11.001 3.542.272.184-1.378 2.881-3.666 5.993-4.58 6.227-5.058 7.799-2.372 7.799 1.37 0 1.02 2.428-1.487 10.333-1.802 5.683-3.811 11.233-4.466 12.333-3.19 5.367-13.17 29.04-13.17 31.243 0 1.963 4.016 3.378 9.667 3.406 3.894.02 4.609 1.21 2.183 3.635-2.1 2.1-.563 3.907 4.123 4.844 2.215.443 4.028 1.324 4.028 1.956s-3.196 4.667-7.101 8.965l-7.1 7.813-7.446-1.666c-4.094-.916-12.299-4.014-18.232-6.883-10.187-4.926-12.898-7.851-9.325-10.06.804-.496 4.326-6.982 7.827-14.411l12.026-25.508c8.606-18.24 10.684-23.319 10.684-26.11 0-4.26-3.078-2.816-8 3.755-20.49 27.35-40.646 46.494-58 55.085-9.437 4.673-37.348 13.033-38.768 11.613-.296-.296-1.083-4.394-1.75-9.107-2.426-17.152.53-43.693 6.076-54.57 2.325-4.558 3.302-12 1.575-12-.477 0-5.207 4.95-10.512 11-10.326 11.778-18.513 27.087-24.26 45.367-2.629 8.364-3.028 12.487-3.028 31.3v21.644c0-.013-1.41-3.463-3.135-7.667z" fill="#faf8f6"/></svg>