<svg xmlns="http://www.w3.org/2000/svg" width="534.259" height="546.755" xmlns:v="https://vecta.io/nano"><path d="M257.941 545.192c-12.09-4.429-20.286-13.195-27.42-29.327-4.056-9.174-5.742-15.2-6.908-24.69-1.463-11.898-1.358-13.31 2.01-27.016 3.852-15.678 4.755-17.82 13.848-32.825 12.398-20.463 15.728-24.786 30.215-39.225 8.154-8.127 16.305-16.784 18.113-19.24s4.639-6.142 6.289-8.192 3-4.203 3-4.783 1.123-2.294 2.496-3.808c3.071-3.386 8.957-18.072 10.93-27.276.806-3.755 1.865-6.581 2.353-6.28 1.196.74.751-29.519-.505-34.395-.591-2.292-.494-3.555.237-3.103 1.539.95 1.368-2.385-.75-14.679-.914-5.306-1.57-10.01-1.456-10.454s-.668-1.504-1.735-2.354-2.338-3.814-2.824-6.588c-.656-3.743-1.467-4.945-3.148-4.666-1.601.266-2.39-.706-2.69-3.313-.232-2.03-.941-3.37-1.574-2.979s-2.712-.736-4.62-2.504c-3.172-2.94-3.288-3.398-1.349-5.337 1.58-1.58 1.772-2.72.752-4.473-1.238-2.125-1.374-2.07-1.41.57-.057 4.065-2.233 5.008-3.223 1.397-.683-2.492-1.035-2.655-2.13-.985-1.05 1.599-1.318 1.345-1.334-1.267-.015-2.414-.41-2.876-1.516-1.77-1.81 1.81-5.171.75-5.171-1.63 0-.943-.95-2.079-2.11-2.524-3.256-1.25-3.692-.98-1.903 1.175 1.33 1.604 1.246 2.138-.44 2.785-1.147.44-2.652.45-3.344.023-2.033-1.256-2.909 2.932-1.427 6.828 2.92 7.682-.267 16.4-5.983 16.36-2.606-.018-2.576-.13.435-1.667 1.775-.905 3.513-2.547 3.861-3.647.462-1.457-.15-1.303-2.26.569-2.217 1.969-3.258 2.202-4.46 1s-1.103-1.569.43-1.569c4.612 0 5.983-13.917 1.72-17.456-1.54-1.277-1.527-.756.077 3.083 2.142 5.126 1.425 10.373-1.418 10.373-1.015 0-1.906.75-1.981 1.667s-.639-.433-1.253-3c-.769-3.215-.507-6.479.842-10.494 1.077-3.205 1.6-6.955 1.163-8.333-.485-1.529-.153-2.506.85-2.506.905 0 1.303-.342.886-.76-1.062-1.062-11.919 4.636-11.163 5.859.338.548-.583.996-2.048.996-2.313 0-2.557-.62-1.853-4.714.591-3.435.442-4.172-.551-2.715-.75 1.1-1.381 3.5-1.403 5.334-.033 2.644-.308 2.92-1.334 1.333-1.05-1.626-1.296-1.454-1.313.921-.01 1.607-.687 3.334-1.503 3.838-1.936 1.197-3.826-1.921-2.81-4.638.703-1.882.523-1.901-1.604-.17-1.435 1.17-1.802 2.15-.916 2.445 2.133.711 1.841 6.937-.326 6.937-.993 0-3.4 1.479-5.35 3.286-2.285 2.118-4.367 2.976-5.861 2.417-2.036-.763-2.093-.593-.466 1.406 1.597 1.964 1.528 2.632-.512 4.885-1.299 1.436-2.79 2.345-3.315 2.021s-1.694 2.84-2.598 7.032l-2.854 13.15c-.664 3.042-1.298 12.942-1.407 22l-.347 22.47c-.082 3.3.298 10.2.843 15.333.872 8.218.775 8.954-.812 6.154-1.344-2.371-2.075-2.74-2.874-1.446-.696 1.127.137 2.707 2.381 4.513 3.47 2.793 5.824 8.77 5.164 13.113-.195 1.283.26 2.333 1.012 2.333s2.005 2.377 2.788 5.282 2.9 8.455 4.705 12.334 3.284 8.25 3.287 9.717c.004 2.36-.263 2.27-2.32-.797-1.279-1.906-3.02-3.224-3.87-2.93s-1.934-.097-2.412-.869-2.512-1.404-4.522-1.404-4.374-.72-5.254-1.6c-1.245-1.244-1.6-1.12-1.6.558 0 1.187-1.95 3.368-4.334 4.846-11.57 7.175-17.778 18.093-19.618 34.499-.912 8.128-1.769 10.786-4.082 12.66-3.942 3.191-4.856 3.005-6.361-1.296l-1.284-3.667-2.693 6.132c-3.217 7.321-7.366 10.83-17.122 14.48-10.494 3.927-12.72 3.592-7.546-1.134 6.518-5.953 13.36-17.625 16.23-27.685l4.7-15.93c2.694-8.744 11.243-21.856 13.648-20.932 1.691.648 2.004.12 2.328-3.93.074-.917 2.143-3.432 4.6-5.588 3.69-3.24 4.132-4.167 2.549-5.334-1.054-.776-2.266-2.312-2.694-3.412-.479-1.231-.818-1.36-.883-.333-.058.916-1.171 1.666-2.474 1.666-1.967 0-2.28-.922-1.849-5.448.655-6.864-1.756-9.882-3.735-4.676-.762 2.004-1.019 5.101-.571 6.884.707 2.819.355 3.24-2.707 3.24-1.936 0-3.859-.884-4.274-1.965-.664-1.732-.988-1.732-2.72 0-3.263 3.263-4.85 2.329-4.082-2.402 1.026-6.32-1.884-9.882-6.691-8.192-2.015.709-4.447 2.924-5.405 4.924-2.158 4.502-4.264 4.705-4.264.411 0-1.773-.364-4.173-.81-5.333-.68-1.774.432-2.112 7-2.13 10.966-.028 12.326-1.258 7.135-6.45-2.308-2.307-5.014-4.196-6.012-4.196-1.13 0-2.156-2.267-2.716-6-.495-3.3-1.385-6-1.978-6-1.524 0-4.316 9-3.302 10.64 1.723 2.788-2.154 1.213-8.002-3.252-7.342-5.604-13.646-6.955-23.147-4.962-8.379 1.757-10.712.982-6.736-2.238 2.646-2.142 2.75-2.951 1.647-12.903l-1.175-10.618-3.619 7.462c-1.99 4.104-3.618 8.227-3.618 9.163 0 3.902-3.949-1.818-6.86-9.939-2.94-8.193-3.296-8.586-11.089-12.234-20.793-9.731-30.712-17.764-38.416-31.109l-3.855-6.677h13.443c8.074 0 13.444-.532 13.444-1.333 0-3.128-5.599-6.848-9.766-6.489-2.86.246-5.973-.81-9.548-3.24-2.918-1.982-6.552-3.604-8.074-3.604-5.344 0-7.171-3.131-11.215-19.224-2.721-10.826-4.993-16.988-7.13-19.333-8.29-9.104-16.518-26.152-20.124-41.698-2.91-12.549-4.31-33.079-2.256-33.079.882 0 1.271.538.865 1.195s.21 2.907 1.37 5l2.109 3.805-.787-3.584c-.433-1.972-.185-3.958.55-4.413s1.343-.041 1.347.919.926 3.506 2.048 5.657 1.726 4.733 1.34 5.736-.151 1.485.518 1.072 1.493.305 1.83 1.597c.527 2.02.646 1.974.843-.317.161-1.867.719-1.267 1.86 2 1.3 3.728 2.254 4.598 4.737 4.323 2.339-.258 2.911.172 2.311 1.736-.439 1.144-.246 1.739.428 1.322s1.609-.138 2.077.62 1.341 1.073 1.94.703c1.761-1.089 2.56 4.25.906 6.046-1.153 1.25-1.08 1.395.303.608 1.072-.61 2.273-.293 2.931.773.846 1.368 1.403 1.03 2.302-1.4l1.185-3.204 1.875 4.237c1.032 2.33 2.413 4.236 3.07 4.236s1.991 1.05 2.965 2.333c1.437 1.893 1.783 1.956 1.834.334.056-1.778.207-1.778 1.356 0 .861 1.333 1.299 1.444 1.312.333.012-.917.47-1.666 1.02-1.665s1.012 3.882 1.026 8.625c.014 5.019.711 9.31 1.667 10.265 1.3 1.3 1.642 1.1 1.646-.958.007-3.604 4.594-10.78 8.085-12.648 1.594-.853 2.559-1.002 2.144-.33s1.012 2.266 3.172 3.542c3.464 2.046 3.928 2.074 3.928.233 0-1.73.441-1.81 2.58-.475 1.42.886 2.366 1.958 2.104 2.382s.717 2.254 2.176 4.066c2.283 2.837 2.454 2.89 1.229.384-.783-1.602-1.405-4.002-1.382-5.333.038-2.283.118-2.288 1.4-.088.747 1.284 2.243 2.334 3.325 2.334s2.562 1.565 3.29 3.478c1.021 2.687 1.724 3.144 3.089 2.011.972-.806 2.162-1.072 2.645-.589s.877-.256.877-1.642c0-2.279.197-2.237 2.075.445 2.339 3.338 5.286 4.029 4.11.963-1.466-3.818 4.21-2.1 7.703 2.334 3.24 4.11 4.813 3.893 2.162-.299-1.594-2.52 1.19-4.44 3.572-2.462 3.986 3.308 1.831 12.446-7.737 32.808-9.095 19.354-8.585 20.94 6.073 18.863 5.042-.714 9.814-1.803 10.605-2.421 2.032-1.59 20.345-1.923 21.293-.39.432.7 2.441 1.676 4.465 2.17s5.894 2.418 8.6 4.275 5.558 2.984 6.334 2.504c2.04-1.26 1.698-8.823-.573-12.715-7.362-12.613-9.12-20.796-5.821-27.088l1.527-2.912-3.028 2.667c-1.666 1.466-4.615 5.96-6.553 9.986s-4.57 7.521-5.846 7.767c-3.466.668-11.396-4.771-13.836-9.489-1.178-2.279-2.446-7.921-2.816-12.538s-1.192-8.393-1.825-8.393-1.15-1.481-1.15-3.292c0-2.555.521-3.11 2.333-2.48 1.283.446 3.154 1.777 4.158 2.958 1.604 1.888 1.724 1.714.995-1.438-.962-4.155 1.071-6.051 3.937-3.673 2.371 1.968 3.91.72 3.91-3.17 0-3.703 4.57-4.664 6.916-1.455 1.366 1.868 2.117 2.05 3.355.812s1.237-1.595-.005-1.595c-.88 0-1.6-1.267-1.6-2.815 0-2.752.059-2.745 2.666.333 2.327 2.748 2.878 2.894 4.333 1.148 1.816-2.177 4.713-2.527 7.335-.886 2.451 1.535 2.067-1.795-.54-4.675-1.32-1.46-1.588-2.439-.667-2.439.847 0 1.54.556 1.54 1.236s1.8 2.133 4 3.231c3.186 1.59 4 1.638 4 .24 0-.965-.9-2.1-2-2.522-2.131-.818-2.78-3.518-.847-3.518 3.575 0 16.743 11.016 20.734 17.346l4.471 7.091.918-5.43c.504-2.986.29-7.7-.477-10.476-1.655-5.996-1.42-6.46 1.965-3.876 2.225 1.698 2.302 2.14.57 3.3-1.525 1.019-1.574 1.342-.21 1.358.986.011 2.112-1.204 2.504-2.701.88-3.362 3.816-2.622 3.41.86-.161 1.39.04 1.774.448.853s1.385-1.278 2.171-.792c.922.57 1.163-.138.678-1.991-.414-1.582-.272-2.875.314-2.875 1.285 0 3.232 4.148 2.797 5.962-.17.713.86.238 2.289-1.056 1.656-1.488 3.91-2.123 6.099-1.718 2.14.389 3.532.022 3.584-.943.046-.869.632-.216 1.301 1.45s2.131 3.381 3.249 3.81 2.032 1.766 2.033 2.97c0 1.397 1.21 2.26 3.333 2.383 3.676.213 4.474-2.901 1.952-7.613-.951-1.778-.951-2.579 0-2.579.76 0 1.38.6 1.38 1.334s.548 1.333 1.216 1.333 1.052-1.5.85-3.333c-.398-3.629 1.548-4.56 2.786-1.334.422 1.1 1.603 2 2.625 2 3.004 0 2.131-2.113-1.57-3.8-2.349-1.07-3.351-2.5-3.186-4.547.966-11.962.395-13.103-11.84-23.653-15.444-13.316-38.88-39.96-38.88-44.202 0-.586 1.447-.515 3.216.158 3.883 1.476 16.896 8.974 28.117 16.2 10.044 6.468 27.583 16.039 28.222 15.4.878-.878-9.797-37.493-13.089-44.89-1.468-3.3-3.558-8.7-4.643-12s-2.843-7.8-3.907-10c-2.487-5.145-7.564-33.247-8.19-45.332L210.331 0l3.75 6.667c10.17 18.074 24.65 32.11 44.34 42.982 11.539 6.371 26.208 18.573 31.833 26.479 4.71 6.62 8.815 14.176 8.441 15.539-.15.55.244 1 .878 1 1.628 0 5.21 9.897 7.514 20.764 2.243 10.571 2.597 46.133.503 50.49-1.126 2.343-.918 2.284 1.422-.402 1.508-1.731 2.742-2.708 2.742-2.17s.9.23 2-.682 2-1.068 2-.345 1.35 1.21 3 1.08 4.65.57 6.667 1.55 3.667 1.394 3.667.92 1.015-.042 2.256.965c1.942 1.575 2.113 1.552 1.234-.17-.562-1.1-.077-.835 1.077.588s2.1 1.974 2.1 1.223c0-1.884 5.313-1.333 6.557.68.77 1.244 1.417 1.146 2.711-.413 2.104-2.536 4.207-1.469 3.216 1.631-.479 1.495.175 1.18 1.88-.908 1.957-2.395 2.782-2.73 3.284-1.334.368 1.027-.302 3.016-1.49 4.422-2.127 2.518-2.094 2.518 2.231.012 3.616-2.095 4.588-2.221 5.518-.718.62 1.004 1.808 1.405 2.639.891s.25 1.486-1.292 4.444c-4.852 9.308-3.106 9.8 9.357 2.633 10.595-6.091 15.847-8.051 14.13-5.271-1.384 2.237.718 5.32 3.035 4.453 1.825-.684 1.936-.479.619 1.145-1.794 2.212-1.82 8.068-.03 6.963.63-.39.826-1.027.437-1.416s.182-1.98 1.271-3.534c1.516-2.162 3.38-2.824 7.953-2.824 5.595 0 5.973.226 5.973 3.588 0 1.973-.6 3.958-1.333 4.412s-1.333 1.476-1.333 2.273 1.47-.138 3.27-2.079c3.187-3.44 6.063-4.607 6.063-2.461 0 .587-.72 1.787-1.6 2.667-1.245 1.244-1.089 1.6.7 1.6 1.264 0 2.865-1.489 3.557-3.308.912-2.399 1.892-3.065 3.566-2.422 1.429.548 1.699 1.089.71 1.419-.88.293-1.6 1.118-1.6 1.834s.75.883 1.667.373-.628 1.367-3.433 4.17c-5.712 5.71-9.417 12.34-10.727 19.197-1.251 6.545-4.374 10.737-7.997 10.737-4.224 0-7.04-3.57-8.147-10.327-.51-3.113-1.569-6.055-2.351-6.54s-1.073-.312-.645.381c1.702 2.754-3.388 9.588-9.696 13.022-4.737 2.577-7.572 5.406-10.496 10.47-2.204 3.817-3.738 7.209-3.409 7.537s2.84-.636 5.583-2.144c5.42-2.98 15.907-3.3 36.556-1.113l10.238 1.084 2.055-4.92c1.351-3.233 1.97-8.437 1.804-15.184-.318-12.973 1.864-19.612 7.384-22.466 2.902-1.5 4.317-1.693 4.67-.635.278.835 1.11 1.144 1.85.687s4.603-.982 8.586-1.167c6.542-.303 7.167-.095 6.453 2.156-.435 1.371-.151 2.492.632 2.492s1.423-.636 1.423-1.412.6-1.041 1.334-.588c1.755 1.085 1.72-1.08-.048-2.847-.952-.952-.434-1.296 1.667-1.106 3.102.28 3.28.814 1.664 4.968-.69 1.773-.4 2.151 1.184 1.544 1.154-.443 2.461-1.95 2.905-3.349s1.667-2.543 2.717-2.543 1.91-.6 1.91-1.334 1.236-1.333 2.746-1.333c1.773 0 2.4.558 1.771 1.576-1.44 2.33-1.61 9.1-.208 8.233.664-.41.911-1.516.55-2.458s.337-3.13 1.551-4.865 2.22-3.453 2.233-3.82 1.431-.484 3.151-.262 4.535-.52 6.257-1.648c2.821-1.848 3.336-1.846 5.207.025 1.308 1.308 2.076 1.495 2.076.505 0-.864.884-1.232 1.963-.818 2.42.929 6.037-3.924 6.037-8.098 0-1.67.664-3.037 1.476-3.037s1.13.9.708 2-.186 2 .524 2 1.292-1.235 1.292-2.745c0-1.568.597-2.376 1.392-1.885.765.473 2.37.058 3.564-.922 1.914-1.569 2.08-1.423 1.4 1.22-.426 1.652-.23 2.666.435 2.255s1.209-2.476 1.209-4.59c0-4.05 2.032-6.523 3.02-3.674.319.92 1.004-.213 1.522-2.52 1.017-4.526 3.875-7.677 8.137-8.969 1.473-.447 3.273-2.168 4-3.824s2.671-3.204 4.321-3.439 3-1.17 3-2.078.928-2.817 2.063-4.24c1.89-2.373 2.018-1.53 1.539 10.078-1.093 26.472-13.452 49.926-33.756 64.06-4.868 3.39-5.605 4.616-6.54 10.88-.578 3.883-.973 7.47-.875 7.971s-1.845.584-4.316.183c-6.277-1.019-13.564 1.72-16.85 6.334-2.261 3.177-3.241 3.655-5.267 2.57-4.859-2.6-11.601-1.59-14.568 2.182-1.52 1.932-2.763 4.032-2.763 4.666s8.685 1.154 19.3 1.154h19.3l-1.156 3.042c-3.796 9.983-8.043 16.677-14.99 23.623-8.908 8.908-23.695 17.636-34.764 20.52-10.573 2.753-12.588 4.12-14.459 9.805-.906 2.755-3.095 7.2-4.863 9.878-3.066 4.643-3.43 4.808-7.879 3.58-7.904-2.183-20.27 2.13-25.623 8.934-2.251 2.862-3.176 3.213-5.372 2.038-1.459-.781-3.851-1.42-5.317-1.42s-3.02-1.121-3.455-2.49-1.949-3.54-3.364-4.82c-2.505-2.268-2.553-2.204-1.804 2.414.66 4.065.222 5.217-3.059 8.04-4.731 4.072-3.512 5.474 4.95 5.69 11.942.303 11.357.001 11.286 5.814-.056 4.57-.578 5.493-3.731 6.597-3.185 1.114-3.667.941-3.667-1.314 0-3.98-4.928-8.159-9.056-7.679-4.464.52-7.054 6.464-4.558 10.461 2.03 3.25 2.017 3.514-.205 4.366-1.166.448-2.88-1.423-4.768-5.206-3.433-6.874-5.413-6.555-5.413.872 0 4.622-.376 5.255-3.122 5.255-2.482 0-3.447-1.082-4.704-5.277-2.017-6.733-4.174-8.14-4.174-2.723 0 2.432-.553 3.815-1.333 3.333-1.9-1.173-1.653 1.145.333 3.146 1.336 1.346 1.204 1.503-.667.79-1.283-.488-2.393-2.174-2.466-3.745-.128-2.763-.161-2.769-1-.168-1.196 3.71-5.36 3.332-7.59-.69-1.017-1.833-1.87-2.911-1.896-2.396-.085 1.679 3.085 8.338 5.135 10.787 1.827 2.183 1.776 2.306-.59 1.417-2.291-.86-2.381-.713-.775 1.262 1 1.229 2.304 1.934 2.898 1.567 1.182-.73 6.618 6.255 6.618 8.503 0 .767.78 1.875 1.733 2.461 1.94 1.193 3.89 7.24 6.797 21.066 1.079 5.134 2.403 10.482 2.942 11.886.685 1.783.51 2.261-.58 1.588-.857-.53-1.559-.33-1.559.448s.75 1.413 1.667 1.415 3.32 3.151 5.34 7 5.808 9.247 8.417 11.997c3.93 4.142 4.309 5 2.206 5-1.395 0-6.238-1.85-10.762-4.11-5.843-2.92-9.398-5.816-12.277-10-4.536-6.594-6.205-7.3-6.832-2.89-.584 4.114-7.759 5.211-7.759 1.186 0-1.462 1.05-2.932 2.333-3.267 1.949-.51 1.978-.636.176-.765-2.48-.177-4.639-11.155-2.353-11.96.794-.279.586-1.365-.513-2.666-3.076-3.645-7.98-18.083-6.328-18.634 1.395-.465-3.43-5.561-5.266-5.561-.482 0-2.79-1.871-5.13-4.158-3.095-3.027-4.252-3.571-4.252-2 0 1.187-.646 2.158-1.435 2.158-2.356 0-18.103 16.971-22.017 23.728-1.998 3.45-6.11 9.572-9.14 13.605-16.167 21.528-29.586 46.804-33.37 62.857-2.393 10.15-2.624 24.356-.497 30.61.847 2.494 4.537 9.168 8.2 14.833 5.592 8.65 7.587 10.654 12.459 12.514 6.243 2.384 6.697 3.02 4.133 5.782-1.372 1.479-1.195 1.607 1 .725 1.467-.59 6.872-1.185 12.013-1.324 6.94-.188 11.21-1.145 16.582-3.716 3.98-1.905 7.817-3.105 8.527-2.666.738.456.857.096.278-.84-.586-.948.1-2.862 1.628-4.54 5.026-5.522 7.639-13.16 7.639-22.332 0-7.379-.594-9.661-3.755-14.438-4.261-6.44-10.141-9.465-18.393-9.465-4.88 0-6.365.799-12.043 6.476-3.562 3.562-6.476 5.938-6.476 5.28 0-2.266 5.067-11.097 8.466-14.756 3.088-3.323 4.277-3.666 12.697-3.666h9.29l7.107 7.398c9.072 9.445 10.839 13.623 10.987 25.974.11 9.22-.261 10.669-4.547 17.756-10.473 17.32-36.49 28.587-52.48 22.73zm85.813-129.036c0-.281-1.2-.826-2.668-1.21s-2.333-.153-1.922.512c.718 1.161 4.59 1.75 4.59.698zm-177.36-4.188c-.927-1.118-1.961-1.758-2.297-1.422-.924.925.954 3.454 2.566 3.454.884 0 .783-.765-.269-2.032zm161.605-.923c-.957-.957-1.578-1.036-1.578-.2 0 .757.4 1.777.889 2.266s1.199.58 1.578.2-.022-1.399-.89-2.266zm6.089-2.056c-2.017-1.25-3.667-3.034-3.667-3.964s-.6-1.691-1.333-1.691-1.334.328-1.334.73c0 1.315 7.02 7.27 8.528 7.234.81-.02-.178-1.058-2.194-2.309zm-160.54-2.38c-.435-1.131-1.076-1.771-1.425-1.422s-.24 1.276.243 2.058c1.315 2.127 2.083 1.714 1.182-.636zM339.478 403c1.041-1.255.588-1.666-1.837-1.666-3.444 0-4.295 1.343-1.553 2.45.916.37 1.743.72 1.836.778s.793-.645 1.554-1.562zm-170.813-2.583c-.426-1.064-.742-.748-.806.805-.057 1.406.258 2.193.7 1.75s.491-1.593.106-2.555zm159.58-.798c.355-.576-.465-1.047-1.824-1.047s-2.18.471-1.824 1.047 1.177 1.048 1.824 1.048 1.467-.472 1.823-1.048zm2.42-4.574c-.956-.957-1.577-1.036-1.577-.2 0 .757.4 1.777.888 2.266s1.2.58 1.578.2-.02-1.399-.889-2.266zm-4.27-1.744c-.928-1.117-1.962-1.757-2.298-1.422-.924.925.954 3.455 2.566 3.455.884 0 .783-.766-.269-2.033zm12.597 1.033c-.664-.55-1.655-1.6-2.202-2.334-.568-.76-1.004-.331-1.015 1-.012 1.297.966 2.334 2.201 2.334 1.223 0 1.68-.45 1.016-1zm-7.265-6.366c-.927-1.118-1.96-1.758-2.296-1.422-.925.925.954 3.454 2.565 3.454.884 0 .783-.765-.269-2.032zm-146.267-2.02c-.391-1.496-1.01-2.422-1.373-2.058-.722.721.553 4.777 1.5 4.777.322 0 .264-1.224-.127-2.72zm151.628-1.857c0-.317-1.8-1.858-4-3.424s-4-2.358-3.998-1.758 1.651 2.086 3.667 3.303c4.34 2.62 4.33 2.615 4.33 1.879zm-26.667-10.757c0-1.1-.581-2-1.292-2s-.946.9-.524 2 1.004 2 1.292 2 .524-.9.524-2zm6.801-4.284c-1.28-2.2-1.39-2.17-1.427.395-.045 3.086 1.647 5.493 2.36 3.355.25-.751-.17-2.439-.933-3.75zm-95.652.284c-.422-1.1-.116-2 .68-2 1.022 0 1-.98-.072-3.334-.835-1.833-2.022-3.333-2.638-3.333-1.564 0-1.4 2.336.236 3.347.745.46.992 1.424.548 2.142-.832 1.347.164 5.178 1.346 5.178.367 0 .322-.9-.1-2zM190.992 369c-.664-.55-1.655-1.6-2.202-2.333-.568-.761-1.004-.332-1.015 1-.012 1.297.966 2.333 2.201 2.333 1.223 0 1.68-.45 1.016-1zm23.006-1.916c-.425-1.064-.741-.748-.805.805-.058 1.406.257 2.193.7 1.75s.49-1.593.105-2.555zm93.334 0c-.426-1.064-.742-.748-.806.805-.058 1.406.257 2.193.7 1.75s.49-1.593.106-2.555zm-4.244-2.417c.453-.733.188-1.333-.588-1.333s-1.412.6-1.412 1.333.264 1.333.588 1.333.958-.6 1.412-1.333zm-91.893-6.337c-1.452-1.452-2.003.447-1.082 3.728l.92 3.276.468-3.115c.258-1.713.12-3.463-.306-3.889zm105.872 5.337c-.037-1.825-2.488-4.936-3.272-4.152-1.05 1.05.623 5.152 2.102 5.152.655 0 1.181-.45 1.17-1zm-109.339-18.143c-1.24-1.176-1.388-.802-.647 1.643.545 1.8.44 2.846-.245 2.423-.663-.41-1.252 2.665-1.31 6.833L205.42 364l1.958-8.476c1.525-6.605 1.603-8.812.35-10zm7.498 14.17c-1.355-1.355-2.473.686-1.361 2.485.84 1.36 1.154 1.36 1.606.005.308-.926.198-2.047-.245-2.49zm89.439-3.277c-.426-1.064-.742-.748-.806.805-.057 1.406.258 2.193.7 1.75s.491-1.593.106-2.555zm-88-1.334c-.426-1.063-.742-.747-.806.806-.057 1.406.258 2.193.7 1.75s.491-1.593.106-2.556zm-20.91-1.305c0-1.345-.53-2.445-1.179-2.445s-1.465 1.1-1.817 2.445c-.389 1.487.073 2.444 1.178 2.444 1 0 1.817-1.1 1.817-2.444zm115.742-.48c-.41-.41-1.156.33-1.657 1.645-.724 1.9-.57 2.053.746.746.912-.904 1.321-1.98.91-2.39zm33.59 1.532c0-.277-1.05-1.327-2.333-2.333-2.115-1.659-2.162-1.612-.503.503 1.742 2.221 2.837 2.927 2.837 1.83zm-144.422-5.08c-.426-1.063-.742-.748-.806.806-.057 1.405.258 2.193.7 1.75s.491-1.593.106-2.556zm13.692-1.827c-2.355-2.837-3.12-1.383-1.033 1.96.965 1.546 1.963 2.184 2.219 1.419s-.279-2.286-1.186-3.379zm94.73 1.41c0-1.1-.235-2-.523-2s-.87.9-1.292 2-.186 2 .524 2 1.292-.9 1.292-2zm14.217-5c-.37-.916-.673-.166-.673 1.667s.303 2.583.673 1.667.37-2.417 0-3.334zm-128.883.922c0-1.143-.61-1.702-1.355-1.241s-1.01 1.396-.588 2.078c1.143 1.85 1.943 1.505 1.943-.837zm3.55-3.588c-.37-.917-.673-.167-.673 1.666s.303 2.584.673 1.667.37-2.417 0-3.333zm116.027 1.416c-.425-1.063-.741-.747-.805.806-.058 1.406.257 2.193.7 1.75s.49-1.593.105-2.556zm-109.857-2.418c.384-1.468.154-2.332-.511-1.921s-1.21 1.611-1.21 2.668c0 2.76.907 2.366 1.721-.747zm8.947.669c0-1.1-.582-2-1.292-2s-.946.9-.524 2 1.003 2 1.292 2 .524-.9.524-2zm-22.708-4c0-.734-.582-.434-1.292.666s-1.293 2.6-1.293 3.334.582.433 1.293-.667 1.292-2.6 1.292-3.333zm145.327.503c-1.727-6.023-5-10.507-7.65-10.483-1.305.012-1.725.445-.97 1 .734.539 1.5 2.18 1.705 3.646.95 6.836 1.81 8.516 4.631 9.06 1.649.317 3.106.659 3.238.759s-.297-1.692-.954-3.982zm-7.953 1.496c0-.733-.635-1.333-1.412-1.333s-1.041.6-.588 1.334 1.089 1.333 1.412 1.333.588-.6.588-1.333zm-118.687-1c-.011-.55-.602-1.9-1.313-3-1.045-1.617-1.296-1.425-1.313 1-.01 1.65.58 3 1.313 3s1.324-.45 1.313-1zm-36.598-2c.347-.916.799-5.383 1.005-9.925.308-6.811.058-7.996-1.428-6.764-2.706 2.246-5.625 8.486-5.625 12.023 0 4.888 4.616 8.449 6.048 4.667zm23.028-1.701c-.41-.411-1.156.329-1.657 1.644-.724 1.9-.57 2.053.746.746.912-.904 1.321-1.98.91-2.39zm5.59-.79c0-.733-.6-.962-1.333-.509s-1.333 1.425-1.333 2.158.6.962 1.333.51 1.334-1.425 1.334-2.158zm122.253-3.509c-.335-1.283-.61-.233-.61 2.334s.275 3.617.61 2.333.335-3.383 0-4.666zm25.748 1.94c0-3.187-5.12-11.224-7.816-12.267-1.23-.476-1.552-.018-1 1.421.449 1.169.816 4.133.816 6.587 0 4.993 3.054 8.932 6.038 7.787 1.079-.414 1.962-2.001 1.962-3.528zm-165.865 1.187c.396-1.03.525-3.88.289-6.333l-.431-4.46-2.427 4.454c-2.428 4.457-2.23 8.212.434 8.212.779 0 1.74-.842 2.135-1.873zm129.844-1.127c-.016-2.425-.268-2.617-1.313-1-1.67 2.586-1.67 4 0 4 .734 0 1.324-1.35 1.313-3zm-108.389-3.307c-.338-1.298-.637-.56-.664 1.64s.25 3.262.615 2.36.387-2.703.05-4zm112 0c-.338-1.298-.637-.56-.664 1.64s.25 3.262.615 2.36.387-2.703.05-4zm-122.257.307c.926-1.115 1.07-2 .326-2-.733 0-2.08.9-2.993 2-.926 1.116-1.07 2-.326 2 .733 0 2.08-.9 2.993-2zm7.59-4.307c-.338-1.298-.636-.56-.664 1.64s.25 3.262.615 2.36.388-2.703.05-4zm6.983.64c-.052-.916-.61-2.866-1.24-4.332-.96-2.235-1.16-1.965-1.24 1.666-.05 2.384.507 4.334 1.24 4.334s1.291-.75 1.24-1.667zm111.671-1.25c-.426-1.063-.742-.747-.806.806-.057 1.406.258 2.193.7 1.75s.491-1.593.106-2.555zm6.521-3.23c3.625 1.392 2.004-5.244-2.92-11.951-2.652-3.613-4.384-5.368-3.85-3.901s1.653 7.166 2.488 12.666c.924 6.095 1.686 8.527 1.949 6.229.3-2.622 1.012-3.55 2.333-3.042zm-116.194-1.09c-.49-1.955-1.149-3.296-1.463-2.982s-.17 2.17.32 4.124 1.15 3.296 1.464 2.982.17-2.17-.32-4.125zm-49.396-.165c.456-1.187.232-1.722-.524-1.255-.725.448-1.318 1.38-1.318 2.07 0 1.917.956 1.495 1.842-.815zm43.471-4.042c.011-1.528-.747-2.778-1.686-2.778-1.16 0-1.534 1.471-1.17 4.593.375 3.21.882 4.046 1.686 2.778.632-.999 1.159-3.065 1.17-4.593zm176.183 3.831c-4.536-2.234-9.475-8.676-9.498-12.386-.026-4.217-2.77-11.49-5.712-15.147l-3.069-3.813-5.128 3.48c-3.534 2.398-7.037 3.529-11.275 3.637-5.176.133-5.525.291-2.21 1.002 3.216.69 4.192 1.82 5.333 6.179 2.677 10.223 6.116 12.033 5.06 2.661-.373-3.3-.286-6 .192-6 1.886 0 11.478 7.112 11.48 8.511.004 3.865 12.364 13.872 17.331 14.031 1.1.036-.027-.934-2.504-2.155zm-186.83-.387c0-.733-.264-1.333-.587-1.333s-.959.6-1.412 1.334-.189 1.333.588 1.333 1.412-.6 1.412-1.333zM319.754 314c0-.931-.778-.746-2 .476-1.1 1.1-2 2.686-2 3.524 0 .931.778.746 2-.476 1.1-1.1 2-2.686 2-3.524zm-130.142 1.891c.445-1.16.809-4.55.809-7.532v-5.423l-3.35 6.3c-1.842 3.465-3.007 6.854-2.588 7.532 1.207 1.952 4.242 1.434 5.129-.877zm175.476-2.992c0-3.783-5.33-10.319-7.645-9.375-.642.262-.35 3.326.65 6.81 1.364 4.757 2.46 6.333 4.405 6.333 1.953 0 2.59-.927 2.59-3.768zm43.224 2.959c4.184-1.606 2.458-7.92-3.975-14.54-3.347-3.443-6.416-5.929-6.821-5.524s-.067 2.657.75 5.004 1.488 5.717 1.488 7.489c0 6.686 3.287 9.593 8.558 7.57zm-260.51-11.685c4.415-8.635 10.619-12 10.619-5.761 0 1.693.8 4.173 1.778 5.51 1.615 2.209 1.777 2.035 1.777-1.905 0-3.014.983-5.092 3.223-6.814 3.117-2.396 3.13-2.478.405-2.507-1.549-.016-5.081-1.83-7.85-4.03-8.498-6.753-10.965-4.918-12.776 9.5-.663 5.285-2.203 11.16-3.421 13.055l-2.216 3.446 2.823-2.494c1.552-1.372 4.089-4.972 5.637-8zm8.619.163c0-3.482-.381-6.332-.847-6.333-1.722-.005-5.153 6.681-5.153 10.043 0 2.839.548 3.395 3 3.047 2.63-.374 3-1.207 3-6.757zm45.744.822c-.38-1.847-.943-1.285-2.175 2.174-1.537 4.314-1.498 4.502.513 2.491 1.196-1.196 1.943-3.295 1.662-4.665zm145.59 3.509c-.786-1.467-1.728-2.667-2.095-2.667s-.024 1.2.76 2.667 1.728 2.667 2.095 2.667.024-1.2-.76-2.667zm-8.259-2.201c.246-1.727-1.213-4.715-3.666-7.51-2.242-2.552-4.085-5.462-4.096-6.465-.016-1.426-.303-1.387-1.313.176-1.78 2.753-1.656 9.833.244 14.002 2.015 4.423 8.192 4.28 8.831-.203zm41.01 2.062c.5-.81-.664-3.046-2.587-4.97-3.671-3.67-4.375-2.703-2.198 3.022 1.375 3.617 3.276 4.391 4.786 1.948zm-211.439-4.273c.011-.593-.58-.708-1.313-.255s-1.324 1.839-1.313 3.079c.018 1.943.2 1.978 1.313.255.711-1.1 1.302-2.486 1.313-3.08zm13.922 1.412c3.133-4.786 3.955-13.224 1.591-16.333l-2.026-2.667.663 2.667c.397 1.598-.698 4.506-2.733 7.259-3.268 4.419-4.368 9.324-2.508 11.185 1.567 1.567 3.002.963 5.013-2.111zm143.389-1.08c-.931-1.74-1.323-5.774-.945-9.717l.648-6.741-2.497 3.083c-1.373 1.696-2.496 3.844-2.496 4.773s-.9 2.436-2 3.349-1.991 2.336-1.98 3.163.633.603 1.383-.497c1.14-1.674 1.929-1.289 4.84 2.362 3.816 4.789 5.558 4.917 3.047.225zm-119.957-.666c0-1.935-.577-3.055-1.333-2.587-.734.453-1.334 1.988-1.334 3.412s.6 2.588 1.334 2.588 1.333-1.536 1.333-3.413zm-84.567-2.584c-.055-2.564-.48-4.664-.944-4.666-1.272-.006-2.407 5.324-1.589 7.458 1.307 3.406 2.635 1.943 2.533-2.792zm76.953 1.997c.384-1.467.154-2.667-.511-2.667s-1.208 1.2-1.208 2.667.23 2.666.51 2.666.826-1.2 1.21-2.666zm-63.1-4.334l-.047-4.333-1.836 3.316c-1.86 3.36-1.609 5.35.676 5.35.69 0 1.233-1.95 1.207-4.333zm253.778.376c-.377-1.442-1.43-3.24-2.342-3.996-1.309-1.087-1.357-.419-.228 3.186 1.478 4.723 3.783 5.45 2.57.81zm-185.702-6.723c.601-.374 1.528-2.413 2.06-4.532.69-2.747.529-3.581-.561-2.908-.84.52-1.528 2.145-1.528 3.611s-.582 2.307-1.294 1.867c-1.718-1.062-3.269 5.341-1.833 7.567.802 1.242 1.259.786 1.593-1.591.258-1.833.962-3.64 1.563-4.014zm-9.623 1.734c.223-1.505-1.017-4.39-2.754-6.41l-3.159-3.672.512 5.181c.28 2.85.77 5.98 1.087 6.958.836 2.58 3.839 1.149 4.314-2.057zm145.483.46c-.305-.267-2.055-1.265-3.889-2.218-3.049-1.584-3.177-1.543-1.503.486 1.006 1.22 2.756 2.219 3.889 2.219s1.809-.22 1.503-.487zm-129.222-2.101c0-.69-.6-1.626-1.333-2.08s-1.334.112-1.334 1.255.6 2.08 1.334 2.08 1.333-.565 1.333-1.255zm140.757-1.847c6.14-2.35 13.465-8.552 11.894-10.072-.725-.7-4.083-1.679-7.463-2.174-5.505-.805-6.222-.608-6.876 1.89-.862 3.3-6 3.824-7.185.733-.679-1.768-1.095-1.797-2.959-.203-1.192 1.02-3.262 2.245-4.6 2.72-3.758 1.338-2.081 5.12 3.099 6.988 5.797 2.09 8.866 2.117 14.09.118zm22.442.652c.822-1.331-2.839-6.884-4.539-6.884-.653 0-.56 1.8.206 4 1.381 3.961 3 5.04 4.333 2.884zm22.782-1.49c1.165-3.672-2.522-8.677-9.333-12.668-3.184-1.866-6.158-3.393-6.608-3.393-.731 0 3.136 7.4 8.188 15.667 2.256 3.691 6.635 3.914 7.753.394zm-276.01-2.222c1.187-1.188 2.508-3.9 2.933-6.027s1.296-4.19 1.935-4.585 1.16-1.236 1.16-1.87c0-1.357-7.636 2.146-11 5.045-2.316 1.997-3.147 7.006-1.444 8.71 1.512 1.51 4.156.987 6.415-1.273zm54.029.464c9.382-3.332 9.746-5.152 1.704-8.512-4.175-1.745-4.798-1.717-6.258.28-2.245 3.071-6.68 1.932-7.219-1.853-.3-2.114-1.071-2.846-2.442-2.32-1.102.423-3.004.778-4.228.79s-3.1.574-4.17 1.251c-1.66 1.05-1.562 1.665.666 4.17 6.577 7.397 13.255 9.28 21.947 6.194zm-67.432-4.274c2.095-5.013 8.954-10.016 13.744-10.024 1.639-.003 4.88-1.703 7.203-3.778l4.223-3.774-6.87-4.451c-3.777-2.448-6.868-4.985-6.868-5.638s-.66-.78-1.466-.282c-1.064.658-1.063.152.004-1.84 1.496-2.796-.244-5.541-1.858-2.93-1.36 2.202-2.982 1.558-3.783-1.504-.69-2.636-1.379-2.801-8.87-2.122-5.975.542-9.349 1.673-12.767 4.28-6.142 4.684-12.528 5.679-17.126 2.666-5.847-3.831-5.341-1.306.803 4.004C80.897 265.153 83.403 266 95.142 266h9.88l-1.3 3.42c-1.92 5.051-1.303 19.247.837 19.247.271 0 1.365-2.087 2.43-4.638zm37.004-1.362c1.463-2.632 1.446-2.634-1.378-.127-1.573 1.397-2.852 3.497-2.84 4.667.018 1.864.188 1.88 1.378.126.746-1.1 2.024-3.2 2.84-4.666zm174.183 2.66c-.837-1.836-1.779-3.08-2.093-2.766-.942.941 1.087 6.106 2.4 6.106.667 0 .53-1.503-.307-3.34zM202.178 284c.836-1.833 1.3-3.333 1.034-3.333s-1.467 1.5-2.669 3.333-1.666 3.333-1.034 3.333 1.834-1.5 2.67-3.333zm119.392 0c-.422-1.1-1.285-2-1.917-2s-.803.9-.381 2 1.284 2 1.916 2 .804-.9.382-2zm-111.572-2.25c-.425-1.063-.741-.748-.805.806-.058 1.405.257 2.193.7 1.75s.49-1.593.105-2.556zm125.654-2.496c3.097-2.243 6.937-4.605 8.533-5.248l2.903-1.17-2.845-.085c-1.575-.046-5.094-2.573-7.88-5.658l-5.036-5.573.84 5.168.838 5.169-3.132-3.262c-1.722-1.794-4.377-7.461-5.898-12.595s-3.738-10.533-4.926-12-1.71-1.805-1.162-.752.874 8.707.723 17.008c-.278 15.286.858 20.41 4.524 20.41 1.075 0 1.954.6 1.954 1.334 0 2.586 4.998 1.287 10.564-2.746zM195.433 279c4.362-4.657 5.867-10.042 6.24-22.333.19-6.234.837-13.434 1.438-16 1.01-4.315.92-4.524-1.205-2.776-3.747 3.082-4.895 6.3-6.108 17.123-.974 8.684-1.696 10.732-4.694 13.31-3.792 3.262-6.016 2.96-6.016-.814 0-1.284-.881-3.498-1.958-4.922-1.882-2.488-1.96-2.453-2 .916-.059 4.864-2.068 6.015-12.042 6.9-4.767.422-10.167 1.351-12 2.064-2.575 1.001-1.664 1.151 4 .659 6.415-.559 8.501-.056 16.666 4.018 11.102 5.538 13.95 5.837 17.679 1.855zm4.064-.368c-.41-.411-1.156.329-1.657 1.644-.724 1.9-.57 2.053.746.746.912-.904 1.321-1.98.91-2.39zm148.257 1.29c0-1.144-.6-1.708-1.333-1.255s-1.333 1.388-1.333 2.079.6 1.254 1.333 1.254 1.333-.935 1.333-2.079zm-181.36-1.287c-.927-1.118-1.961-1.758-2.297-1.422-.924.924.954 3.454 2.566 3.454.884 0 .783-.765-.269-2.032zm38.687-2.918c-1.453-2.266-1.49-2.263-.76.059.421 1.343.814 3.143.872 4 .076 1.124.288 1.108.76-.059.362-.889-.031-2.689-.872-4zm223.483 2.84c-.446-1.16-.81-2.36-.81-2.666s-.544-.558-1.208-.558-.895 1.2-.511 2.667 1.291 2.667 2.017 2.667.957-.95.512-2.11zM89.57 277.333c.422-1.1.186-2-.524-2s-1.292.9-1.292 2 .236 2 .524 2 .87-.9 1.292-2zm45.661-.333c2.705-3.563 2.19-5.048-.81-2.333-2.612 2.364-3.507 4.667-1.814 4.667.47 0 1.65-1.05 2.624-2.334zm278.434-2.666c-.482-2.75-1.773-6.426-2.868-8.168-1.66-2.642-1.69-3.358-.183-4.313 2.84-1.8 10.767-1.364 14.96.822 5.817 3.034 12.864 2.51 17.514-1.3l4-3.279-4.914-.048c-6.864-.067-10.04-1.566-18.195-8.591-6.093-5.248-7.939-6.124-12.91-6.124-4.928 0-6.23.604-8.66 4.016-1.644 2.31-3.523 3.635-4.423 3.12-.861-.493-1.139-.424-.618.154 1.514 1.678-6.459 12.191-11.704 15.433-4.155 2.568-4.541 3.218-2.891 4.868 2.25 2.25 8.56 2.688 17.255 1.199 5.883-1.007 6.506-.826 10 2.91 2.05 2.191 3.903 4.055 4.12 4.142s0-2.092-.483-4.842zm-37.91 1.828c0-2.281-6.932-5.286-10.229-4.435-1.965.508-1.856.66.562.785 1.65.085 3 .774 3 1.531 0 1.07 3.344 3.115 6.333 3.873.183.046.333-.743.333-1.754zm-226.667-.006c0-.281-1.201-.825-2.669-1.21s-2.332-.153-1.921.512c.717 1.161 4.59 1.75 4.59.698zM316.141 274c-.384-1.466-.928-2.666-1.209-2.666s-.511 1.2-.511 2.666.544 2.667 1.208 2.667.895-1.2.512-2.667zm-106.903-3.05c-1.09-1.088-1.484-.94-1.484.562 0 1.124.438 2.481.972 3.016s1.203.282 1.484-.56-.157-2.202-.972-3.018zm144.822 3.578c-.443-.443-1.593-.49-2.556-.105-1.063.426-.748.742.806.805 1.405.058 2.193-.257 1.75-.7zm-194.199-8.27c-2.125-.708-5.44.717-5.44 2.339 0 .845 1.298.755 3.484-.241 1.917-.874 2.797-1.817 1.956-2.098zm193.346.553c-1.799-2.168-6.786-3.733-6.786-2.13 0 .603 1.65 1.7 3.667 2.436 4.926 1.8 4.871 1.805 3.12-.306zm-141.712-2.034c.4-1.2-.253-1.46-2.15-.858-1.864.591-3.166.108-4.118-1.527-.944-1.623-1.405-1.796-1.432-.539-.047 2.118 4.002 5.576 5.876 5.019.687-.204 1.508-1.147 1.824-2.095zm-73.074-2.916c-5.56-1.548-7.525-1.206-4.067.71 1.796.994 4.196 1.45 5.333 1.013 1.554-.597 1.24-1.025-1.266-1.723zm204.453-3.256c2.317-1.009 3.297-1.857 2.177-1.886-3.158-.08-7.98 3.846-7.809 6.357.132 1.924.248 1.896.787-.19.347-1.347 2.528-3.273 4.845-4.281zm-188.453 2.729c1.833-1.048 2.733-1.906 2-1.906s-2.833.858-4.667 1.906-2.733 1.905-2 1.905 2.834-.857 4.667-1.905zm35.55-2.334c-.37-.916-.673-.166-.673 1.667s.303 2.583.673 1.667.37-2.417 0-3.334zm18.694.084c-.426-1.064-.742-.748-.806.805-.057 1.406.258 2.193.7 1.75s.491-1.593.106-2.555zm183.09-.417c1.722-1.833 2.83-3.333 2.464-3.333s-2.076 1.5-3.798 3.333-2.832 3.333-2.465 3.333 2.076-1.5 3.798-3.333zm-238.694-1.324c3.103-1.095 6.058-1.735 6.564-1.422s1.747.06 2.756-.563c1.386-.857-.051-2.865-5.907-8.246-9.992-9.182-11.009-9.74-12.01-6.582-1.936 6.099-11.377 3.291-11.377-3.383 0-2.97-.471-3.368-3.334-2.82-1.833.35-3.333.12-3.333-.512s.7-1.148 1.555-1.148 1.28-.276.942-.614-1.988-.254-3.668.185c-2.043.534-2.52 1.129-1.442 1.795.886.548-2.663 1.426-7.888 1.95s-9.5 1.416-9.5 1.98 2.097 2.454 4.658 4.199 4.662 3.559 4.667 4.033c.015 1.39 12.42 8.95 18.108 11.033 6.873 2.518 12.306 2.55 19.209.115zm8.998 1.185c-.443-.443-1.593-.49-2.556-.105-1.063.425-.748.741.806.805 1.405.058 2.193-.257 1.75-.7zm167.028-1.94c0-1.51-.574-2.39-1.276-1.957s-.937 1.669-.524 2.745c1.058 2.756 1.8 2.432 1.8-.788zm54.286-1.267c3.824-2.194 7.61-5.217 8.414-6.718 1.348-2.518 5.971-5.187 8.274-4.776 1.74.31 5.383-6.002 4.167-7.218-.641-.642-5.96-1.561-11.82-2.043s-11.063-1.116-11.563-1.41-1.237 0-1.639.65-2.583 1.554-4.847 2.006c-2.706.541-3.782 1.363-3.142 2.4.667 1.079.245 1.295-1.342.686-2.58-.99-6.647.76-11.023 4.742-1.678 1.527-3.592 2.213-4.54 1.627-1.032-.638-1.296-.46-.714.482.537.869-1.044 2.768-3.778 4.54-5.85 3.79-5.95 5.037-.4 5.07 2.383.014 7.333.86 11 1.881 10.44 2.905 15.24 2.504 22.953-1.92zm-15.03-12.545c-1.422-1.04-2.151-2.326-1.62-2.857s1.8-.273 2.821.574c1.419 1.178 2.208 1.115 3.354-.266.824-.993 1.104-2.2.621-2.683s.228-.877 1.578-.877c2.253 0 2.215.254-.457 3.099-1.601 1.704-2.506 3.504-2.01 4 1.688 1.688-1.691.908-4.287-.99zm-16.95 14.419c-.444-.443-1.594-.49-2.556-.106-1.064.426-.748.742.805.806 1.406.058 2.193-.257 1.75-.7zm-146.855-5.521c-1.457-1.457-2.456.86-1.41 3.269.992 2.284 1.064 2.282 1.616-.047.318-1.341.225-2.791-.206-3.222zm108.69 3.842c.855 1.35 1.156 1.087 1.171-1.027.013-1.77-1.027-3.118-2.751-3.57-2.082-.544-2.58-.223-2 1.288.424 1.106.82 2.712.877 3.569.063.933.395.829.828-.26.61-1.535.902-1.535 1.875 0zM191.304 251c-.37-.916-.673-.166-.673 1.667s.303 2.583.673 1.667.37-2.417 0-3.334zm17.784 3.746c0-.324-.6-.96-1.334-1.412s-1.333-.19-1.333.587.6 1.413 1.333 1.413 1.334-.265 1.334-.588zm-38.667-2.148c-1.1-.75-3.8-2.333-6-3.52-3.8-2.05-3.903-2.04-2.046.199 1.907 2.299 6.04 4.49 8.713 4.618.733.036.433-.548-.667-1.297zm42.257-4.906c-.338-1.297-.637-.558-.664 1.642s.25 3.26.615 2.358.387-2.702.05-4zm104.41 2.975c0-1.1-.582-2-1.292-2s-.946.9-.524 2 1.003 2 1.292 2 .524-.9.524-2zm-127.159-12.4c2.186-5.977 1.638-14.068-1.066-15.739-.85-.525-1.204-.146-.85.914.332.997-.394 5.038-1.613 8.98-1.804 5.829-1.947 8.324-.765 13.372 1.296 5.537 1.493 5.775 1.825 2.206.205-2.2 1.316-6.58 2.469-9.733zm16.492 9.654c0-1.143-.6-1.707-1.333-1.254s-1.334 1.388-1.334 2.079.6 1.254 1.334 1.254 1.333-.935 1.333-2.079zm2.244-.838c-.426-1.063-.742-.747-.806.806-.057 1.406.258 2.193.7 1.75s.491-1.593.106-2.555zm122.143-1.085c.383-1.467.153-2.332-.511-1.921s-1.21 1.612-1.21 2.669c0 2.76.907 2.366 1.72-.748zm4.079-2.04c-1.058-2.757-1.8-2.432-1.8.788 0 1.51.574 2.39 1.276 1.957s.937-1.669.524-2.746zm-225.773-1.259c-.927-1.118-2.58-2.032-3.67-2.032-1.353 0-.982.813 1.162 2.552 3.55 2.878 5.067 2.563 2.508-.52zm64.857-1.032c-.37-.917-.673-.167-.673 1.666s.303 2.584.673 1.667.37-2.417 0-3.333zm152.382-2c-.146-3.484.16-7.348.68-8.589s.725-3.34.455-4.667c-.428-2.094-.773-1.973-2.627.922-1.805 2.819-1.909 4.518-.668 11 .808 4.217 1.683 7.667 1.947 7.667s.359-2.85.213-6.333zm-22.599 2.066c0-2.153-.394-2.539-1.484-1.449-.816.816-1.08 2.136-.588 2.933 1.38 2.232 2.072 1.736 2.072-1.484zM212.994 237c.158-2.813-2.215-1.846-3.02 1.232-.997 3.81.613 6.341 1.916 3.013.556-1.418 1.052-3.328 1.104-4.245zm6.338 3.417c-.426-1.064-.742-.748-.806.805-.058 1.406.257 2.193.7 1.75s.49-1.593.106-2.555zm91.889-.55c-.475-1.237-1.163-1.949-1.53-1.582s-.278 1.679.197 2.915 1.162 1.949 1.529 1.582.278-1.679-.196-2.915zm35.586.8c.384-1.467.154-2.667-.511-2.667s-1.208 1.2-1.208 2.667.23 2.666.51 2.666.826-1.2 1.21-2.666zm-205.11.091c.423-.683-.57-2.18-2.205-3.325-2.634-1.845-3.103-1.854-4.095-.08-.616 1.1-.753 2.597-.303 3.324 1.034 1.673 5.586 1.728 6.604.081zm-40.276-.974c-.917-.37-2.417-.37-3.333 0s-.167.672 1.666.672 2.584-.302 1.667-.672zm237.91-3.367c-.425-1.064-.74-.748-.805.805-.058 1.406.257 2.193.7 1.75s.49-1.593.106-2.555zm-16.91.995c0-.323-.6-.959-1.333-1.412s-1.334-.189-1.334.588.6 1.412 1.334 1.412 1.333-.264 1.333-.588zm30.244-2.329c-.426-1.063-.742-.747-.806.806-.057 1.406.258 2.193.7 1.75s.491-1.593.106-2.556zm-154.653-3.39c-.339-1.298-.637-.56-.665 1.64s.25 3.262.615 2.36.388-2.704.05-4zm118.625.64c-.37-.916-.672-.166-.672 1.667s.302 2.583.672 1.667.37-2.417 0-3.334zm16.028 1.417c-.426-1.064-.742-.748-.806.806-.057 1.405.258 2.193.7 1.75s.491-1.593.106-2.556zm-243.577.132c0-.56-1.01-1.214-2.246-1.452s-4.689-4.015-7.676-8.393c-4.201-6.158-7.088-8.78-12.754-11.58-4.029-1.99-8.824-3.989-10.658-4.441-2.973-.733-2.809-.381 1.515 3.255 2.667 2.243 7.365 7.94 10.441 12.662 3.421 5.25 6.975 9.078 9.152 9.859 4.183 1.499 12.226 1.558 12.226.09zm56-.549c-1.834-1.048-3.934-1.905-4.667-1.905s.167.857 2 1.905 3.933 1.906 4.667 1.906-.167-.858-2-1.906zm151.577-.916c-.426-1.064-.742-.748-.806.805-.057 1.406.258 2.193.7 1.75s.491-1.593.106-2.555zm-70.244.359c0-.674.38-2.324.846-3.667.743-2.146.587-2.119-1.291.224-2.477 3.091-2.777 4.667-.888 4.667.733 0 1.333-.55 1.333-1.224zm112-2.11c0-1.013-.6-2.213-1.333-2.666-.76-.47-1.334.68-1.334 2.667s.574 3.136 1.334 2.666c.733-.453 1.333-1.653 1.333-2.666zm95.412-2.595c1.791-1.174 4.952-5.872 7.023-10.442s4.92-9.46 6.327-10.867c2.524-2.524 2.494-2.547-2.101-1.657-5.093.987-6.67 2.732-12.661 14.024-3.083 5.809-5.276 8.15-9.562 10.21-3.059 1.47-5.936 3.048-6.395 3.506-1.662 1.663 14.2-2.698 17.37-4.774zm-89.028.414c-.333-1-.938-.395-1.41 1.408-.58 2.218-.406 2.739.584 1.75.775-.776 1.146-2.197.826-3.158zm11.645-2.234c-.383-.382-.705.155-.716 1.194-.017 1.543-.227 1.563-1.148.11-.902-1.423-1.294-1.343-1.964.403-.49 1.274-.29 1.842.48 1.366.726-.448 1.357.27 1.403 1.597.065 1.845.385 1.661 1.362-.781.703-1.757.965-3.507.583-3.889zm-46.03 1.75c0-1.014-.6-2.214-1.332-2.668-.76-.469-1.334.68-1.334 2.667s.574 3.136 1.334 2.667c.733-.453 1.333-1.653 1.333-2.667zm40-2.256c0-2.725-2.43-.684-3.051 2.563-.651 3.406-.575 3.476 1.178 1.079 1.03-1.41 1.874-3.049 1.874-3.642zm-136.422 1.338c-.425-1.063-.741-.747-.805.806-.058 1.406.257 2.193.7 1.75s.49-1.593.105-2.556zm17.15-2.214c-2.106-2.061-2.14-1.958-.539 1.616.941 2.1 1.953 3.09 2.25 2.202s-.474-2.607-1.711-3.818zm86.102 1.564c-1.571-2.702-1.951-1.837-.664 1.516.457 1.191 1.112 1.885 1.455 1.542s-.012-1.72-.79-3.058zm-19.252-.683c-.425-1.064-.741-.748-.805.806-.058 1.405.257 2.193.7 1.75s.49-1.593.105-2.556zm-116.11-1.883c-.475-1.237-1.163-1.949-1.53-1.582s-.278 1.679.196 2.915 1.163 1.948 1.53 1.582.278-1.679-.196-2.915zm123.2 2.242c0-2.155-1.586-5.442-2.625-5.442-.553 0-.719 1.5-.368 3.333.595 3.117 2.993 4.806 2.993 2.11zm8.165-1.798c-1.317-1.307-1.47-1.154-.746.747.5 1.315 1.246 2.055 1.656 1.644s.001-1.486-.91-2.39zm-145.499-.978c-.785-1.466-1.727-2.666-2.094-2.666s-.024 1.2.76 2.666 1.728 2.667 2.095 2.667.024-1.2-.76-2.667zm33.459-3.074c-1.056-1.056-1.459-.71-1.459 1.252 0 3.525 1.865 5.396 2.459 2.467.252-1.244-.198-2.917-1-3.72zm18.5-.259c0-.733-.581-.433-1.292.667s-1.293 2.6-1.293 3.333.582.433 1.293-.667 1.292-2.6 1.292-3.333zm132.952 1.75c-.426-1.064-.742-.748-.806.806-.057 1.405.258 2.193.7 1.75s.491-1.593.106-2.556zm-30.55 0c-.29-.87-1.24-1.82-2.112-2.111-.974-.325-1.272.285-.774 1.583.93 2.424 3.686 2.928 2.886.528zm11.856-2.75c-.37-.917-.673-.167-.673 1.667s.303 2.583.673 1.666.37-2.416 0-3.333zm4.45.176c0-1.467-.6-2.296-1.333-1.843s-1.334 2.025-1.334 3.491.6 2.296 1.334 1.843 1.333-2.024 1.333-3.49zm-66.667 1.538c0-.708-1.35-1.995-3-2.861-2.984-1.566-2.986-1.559-.46 1.286 2.822 3.179 3.46 3.469 3.46 1.575zm25.459-4.455c-1.742-1.742-1.984.188-.498 3.965.926 2.356.978 2.355 1.458-.032.274-1.361-.158-3.131-.96-3.934zm13.762 3.553c1.094-2.851-.371-7.416-2.048-6.38-.837.518-.81 1.398.075 2.465.993 1.196.825 1.659-.602 1.659-1.089 0-1.98-1.027-1.98-2.281s-.9-3.029-2-3.942c-1.26-1.046-2-1.136-2-.241 0 .78.6 1.788 1.334 2.241s1.334 1.714 1.334 2.802c0 2.031 2.661 5.724 4.19 5.814.472.028 1.235-.933 1.697-2.137zm31.778-1.177c.354-1.85.124-3.686-.51-4.079s-1.155.173-1.155 1.256-.365 2.92-.81 4.08-.215 2.108.511 2.108 1.61-1.514 1.964-3.365zm-170.443-1.11c-.463-1.206-1.382-2.192-2.043-2.192s-.47 1.173.425 2.607c1.888 3.022 2.843 2.776 1.618-.416zm38.462.485c2.174-1.71 3.873-4.918 4.766-9 1.934-8.846 2.851-29.539 1.35-30.467-.718-.443-.91.826-.456 3.012.432 2.078-.72.478-2.56-3.555-3.464-7.595-4.58-7.638-1.944-.074 1.123 3.222 1.12 5.564-.016 9.198-1.672 5.353-7.095 12.21-9.656 12.21-3.103 0-6.502-4.437-6.542-8.54-.034-3.392-.278-3.72-1.372-1.843-2.443 4.19-1.6 10.964 2.478 19.919 3.501 7.688 6.753 11.608 9.754 11.756.451.023 2.34-1.155 4.198-2.616zm9.485-4.602c.922-2.528.878-2.53-1.779-.126-1.498 1.355-2.724 3.705-2.724 5.221 0 2.724.022 2.725 1.779.127.978-1.446 2.204-3.796 2.724-5.222zm5.962 1.772c-2.74-1.736-3.8-1.412-3.778 1.153.018 1.998.21 2.046 1.334.334 1.081-1.648 1.48-1.413 2.259 1.333.791 2.789 1.03 2.924 1.464.827.285-1.38-.29-3.02-1.28-3.647zm54.848 4.265c-.042-1.594-2.318-4.332-3.429-4.125-.633.117-1.393-.515-1.69-1.405-.345-1.034.087-1.232 1.193-.548 1.27.784 1.488.432.817-1.318-.593-1.543-.083-3.02 1.44-4.176 3.154-2.394 4.047-2.308 4.77.46.436 1.667.654 1.43.765-.83.136-2.78.42-2.942 2.347-1.343 1.963 1.63 2.082 1.474 1.14-1.493s-.822-3.123 1.142-1.493c2.481 2.06 3.025.192.639-2.194-1.183-1.183-1.945-1.02-3.19.683-1.277 1.747-2.046 1.895-3.512.679-1.032-.857-4.433-1.967-7.557-2.466-5.071-.811-5.972-1.532-8.414-6.726-1.504-3.199-3.12-5.817-3.59-5.817s-2.287 2.7-4.038 6c-2.316 4.366-3.95 5.958-5.998 5.846-2.16-.119-2.286-.294-.543-.753 1.25-.329 4.112-3.587 6.36-7.241s4.606-6.323 5.24-5.931 2.39 3.347 3.905 6.567c2.533 5.39 3.249 5.93 8.998 6.792 4.807.721 6.726.458 8.324-1.14 2.997-2.997.762-4.363-2.424-1.48-1.47 1.331-2.674 1.8-2.674 1.044s.995-2.2 2.21-3.207c2.82-2.334 7.055-11.585 7.094-15.497.016-1.65.629-3 1.362-3a1.34 1.34 0 0 0 1.334-1.333c0-.733-.9-1.333-2-1.333s-2-.251-2-.558-.402-1.605-.894-2.885c-.657-1.712-.426-2.04.873-1.237 1.22.754 1.45.58.743-.564-1.377-2.227-2.627-.524-4.531 6.177-1.43 5.03-3.92 7.776-10.51 11.584-1.94 1.121-.965-2.156 2.035-6.845l1.916-2.995-4.96 2.073c-2.728 1.14-5.337 1.697-5.796 1.237s-.845-6.79-.856-14.07c-.02-12.778-.1-13.13-2.308-10.242-1.258 1.645-3 4.687-3.87 6.76-1.132 2.695-2.287 3.585-4.048 3.125-1.356-.355-2.129-.1-1.718.564s1.55 1.21 2.529 1.21c1.095 0 1.971 1.99 2.274 5.17.36 3.767.035 4.996-1.193 4.524-.928-.356-1.686.036-1.686.871s.9 1.863 2 2.285 2 1.373 2 2.112-1.48.375-3.287-.81c-4.35-2.85-4.713-2.75-4.713 1.292 0 2.159-.622 3.24-1.667 2.896-2.262-.744-7.618-10.359-7.645-13.724-.015-1.849-.974-2.788-3.005-2.94-2.1-.159-2.45.105-1.178.89 1.439.89 1.5 2.04.305 5.663-2.014 6.105-.04 16.26 4.032 20.73 2.43 2.668 2.62 3.274.824 2.629-1.283-.461-2.333-.257-2.333.453s1.35 1.334 3 1.385c2.852.09 2.868.148.333 1.19l-2.666 1.097 2.666 1.012c1.467.557 3.666 1.869 4.888 2.915 1.983 1.7 2.02 2.387.334 6.422-1.039 2.485-1.888 5.11-1.888 5.832 0 1.216 7.822-2.185 9.332-4.056 1.288-1.597 7.99.003 13.313 3.178 5.08 3.03 9.38 4.147 9.334 2.428zm-16.713-9.898c1.959-1.432 2.258-2.775 1.51-6.761-.513-2.737-1.3-5.931-1.748-7.1-.5-1.301-.27-1.787.591-1.254 2.242 1.385 3.49 12.761 1.645 14.985-.875 1.054-2.232 1.916-3.016 1.916s-.325-.803 1.018-1.786zm9.4.453c-.453-.733-.45-1.937.006-2.676 1.338-2.165 8.447-5.416 9.195-4.205.377.61-1.421 2.113-3.996 3.34s-4.313 2.827-3.864 3.553.517 1.321.15 1.321-1.037-.6-1.49-1.333zm19.334 8c-1.621-3.028-4-3.557-4-.889 0 2.278 1.294 3.556 3.602 3.556 1.412 0 1.502-.604.398-2.667zm72 1.333c0-.733-.265-1.333-.588-1.333s-.96.6-1.412 1.333-.19 1.334.588 1.334 1.412-.6 1.412-1.334zm-132.607-2.777c.034-1.04.784-1.74 1.667-1.556 1.9.394 2.118-.526.38-1.6-1.38-.853-5.44 2.734-5.44 4.806 0 2.098 3.325.48 3.393-1.65zm11.253-1.635c.011-.593-.58-.707-1.313-.254s-1.324 1.838-1.313 3.078c.018 1.944.199 1.979 1.313.255.71-1.1 1.302-2.485 1.313-3.079zm110.644-1.509c.024-.69-.838-.09-1.915 1.333s-1.976 3.153-2 3.843.839.09 1.915-1.333 1.977-3.153 2-3.843zm119.302 3.173c-1.379-1.524-3.53-2.477-4.824-2.138-1.286.336-3.033-.227-3.883-1.251-2.057-2.48-5.856-2.34-13.783.503-11.678 4.189-9.456 5.634 8.66 5.634h16.318zm-159.015-1.54c-.956-.957-1.577-1.036-1.577-.2 0 1.78 1.576 3.356 2.466 2.466.38-.379-.02-1.399-.889-2.266zm-136.079-1.4c-1.316-1.307-1.47-1.154-.746.746.5 1.315 1.246 2.055 1.657 1.644s0-1.486-.91-2.39zm121.318-1.362c-1.089-1.088-1.483-.94-1.483.562 0 2.65 1.793 4.443 2.455 2.455.282-.843-.156-2.2-.972-3.017zm28.877 2.315c1.624-1.137 3.574-3.229 4.333-4.647 2.092-3.91 3.804-14.565 2.473-15.388-.641-.396-1.166.172-1.166 1.263s-1.017 3-2.26 4.244c-2.125 2.125-2.455 2.034-5.501-1.507-2.914-3.388-3.16-4.582-2.43-11.832.446-4.435 1.138-9.564 1.538-11.398.677-3.1.638-3.13-.564-.43-.71 1.596-3.094 5.39-5.297 8.431-4.68 6.46-7.554 17.666-6.277 24.473 1.473 7.854 8.888 11.178 15.15 6.791zm29.62-1.677c-.018-1.943-.2-1.978-1.313-.254-1.688 2.611-1.688 4.376 0 3.333.733-.453 1.324-1.838 1.312-3.079zm-20.513-1.054c-.475-1.237-1.163-1.949-1.53-1.582s-.278 1.679.196 2.915 1.163 1.948 1.53 1.582.278-1.679-.196-2.915zm9.866-.024c0-1.1-.6-1.63-1.333-1.176s-1.333 1.724-1.333 2.824.6 1.63 1.333 1.176 1.333-1.724 1.333-2.824zm15.501 1.534c1.357-3.536-.132-4.698-1.709-1.333-.861 1.839-.99 3.29-.291 3.29.687 0 1.587-.88 2-1.957zm-202.167.163c0-.253-1.35-1.603-3-3l-3-2.54 2.54 3c2.386 2.82 3.46 3.607 3.46 2.54zm6.054-2.118c-.483-.782-1.517-1.422-2.296-1.422-.885 0-.783.765.268 2.032 1.829 2.204 3.463 1.712 2.028-.61zm60.19-.338c-.426-1.064-.742-.748-.806.805-.058 1.406.257 2.193.7 1.75s.49-1.593.106-2.555zM353.088 210c.784-1.466 1.127-2.666.76-2.666s-1.309 1.2-2.094 2.666-1.127 2.667-.76 2.667 1.309-1.2 2.094-2.667zm14.216-1.666c-.37-.917-.673-.167-.673 1.666s.303 2.584.673 1.667.37-2.417 0-3.333zm-178.216 2.412c0-.324-.6-.96-1.334-1.412s-1.333-.19-1.333.587.6 1.413 1.333 1.413 1.334-.265 1.334-.588zm104.91-2.33c-.425-1.063-.741-.747-.805.806-.058 1.406.257 2.193.7 1.75s.49-1.593.105-2.555zm83.645.727c1.27-3.31-.13-3.763-1.828-.59-.819 1.53-.931 2.78-.25 2.78s1.616-.985 2.078-2.19zm-193.429-1.2c-.434-1.132-1.075-1.772-1.425-1.422s-.24 1.275.244 2.057c1.314 2.127 2.083 1.714 1.181-.635zm55.297-1.229l.6-5.196c.189-1.508-.84-2.92-2.622-3.598-2.286-.87-2.77-.693-2.194.807.406 1.059 1.276 1.593 1.932 1.187 2.018-1.247 1.32 4.436-.806 6.562-2.57 2.57-2.518 2.953.4 2.953 1.429 0 2.517-1.098 2.69-2.715zm7.577-1.493c-4.215-3.38-6-3.99-6-2.05 0 .645 1.8 1.918 4 2.83s4 2.283 4 3.05.45.94 1 .385-.8-2.451-3-4.215zm53.222 1.637c-.463-1.205-1.398-2.191-2.079-2.191s-.568 1.25.251 2.78c1.698 3.173 3.098 2.721 1.828-.59zm8.25-.497c-1.356-1.355-2.474.685-1.362 2.485.84 1.359 1.154 1.36 1.606.005.309-.927.199-2.047-.244-2.49zm32.16.973c-.11-1.467-.672-2.667-1.25-2.667-1.262 0-1.297.47-.24 3.224 1.106 2.882 1.732 2.648 1.49-.557zm90.871-8.664l1.328-5.336-3.127 3.868c-1.72 2.128-3.366 5.92-3.659 8.427l-.532 4.559 2.332-3.091c1.282-1.7 2.929-5.492 3.658-8.427zm-259.072 6.298c-2.304-2.2-2.34-2.164-.813.813.879 1.713 1.963 2.749 2.41 2.302s-.272-1.849-1.597-3.115zm50.569 2.366c.453-.734.224-1.334-.51-1.334s-1.704.6-2.157 1.334-.224 1.333.51 1.333 1.703-.6 2.157-1.333zm11.197-4.667c.028-.733-.81-.195-1.864 1.196s-1.53 3.152-1.06 3.912c.812 1.316 2.81-2.175 2.924-5.108zm70.27 2.533c-.475-1.236-1.164-1.948-1.53-1.581s-.279 1.678.196 2.915 1.163 1.948 1.53 1.581.278-1.678-.197-2.915zm39.866.8c.453-.733.189-1.333-.588-1.333s-1.412.6-1.412 1.333.264 1.334.588 1.334.959-.6 1.412-1.334zm-260.667-2.585c0-1.422-2.4-5.359-5.333-8.748-5.233-6.047-6.634-5.593-4.013 1.3 1.043 2.742 7.397 9.787 9.013 9.991.183.023.333-1.121.333-2.543zm103.973.553c-.927-1.118-1.96-1.758-2.296-1.422-.925.925.954 3.454 2.565 3.454.884 0 .783-.765-.269-2.032zm168.019-4.556c-.005-1.143-.905-.36-2 1.74-2.521 4.835-2.496 6.294.05 2.927 1.077-1.424 1.954-3.524 1.95-4.667zm22.176 3.299c1.404-3.66-.26-5.03-1.856-1.529-.997 2.187-1.086 3.485-.241 3.485.74 0 1.684-.88 2.097-1.956zm15.927-5.474c-1.32-5.258-2.876-3.696-2.303 2.31.422 4.426.79 5.08 1.822 3.237.712-1.27.928-3.767.481-5.547zm-252.761 4.097c-.913-1.1-2.26-2-2.994-2-.743 0-.599.884.327 2 .913 1.1 2.26 2 2.993 2 .744 0 .6-.885-.326-2zm38.766.3c-.165-1.595-1.994-1.286-2.566.433-.294.88.186 1.36 1.066 1.067s1.555-.969 1.5-1.5zM227.769 199c2.827-4.637 3.752-15.17 1.193-13.589-.802.496-1.182 2.352-.843 4.125s.316 2.923-.051 2.556c-.963-.964-5.647 5.31-5.647 7.563 0 1.766 1.165 3.679 2.242 3.679.255 0 1.653-1.95 3.106-4.334zm71.985.334c-.852-1.593-1.842-2.603-2.2-2.245s.118 1.883 1.057 3.387c2.222 3.558 3.158 2.623 1.143-1.142zm8.944.333c-.38-2.017-1.562-5.976-2.625-8.799-1.46-3.877-2.143-4.584-2.792-2.89-2.354 6.132.052 15.356 4.005 15.356 1.574 0 1.93-.924 1.412-3.667zm41.3.75c-.425-1.064-.741-.748-.805.805-.058 1.406.257 2.193.7 1.75s.49-1.593.105-2.555zm109.144 1.494c1.435-2.321-.199-2.813-2.028-.61-1.051 1.267-1.153 2.033-.268 2.033.78 0 1.813-.64 2.296-1.423zm-162.99-2.133c-.376-.978-1.119-1.778-1.652-1.778s-.968.8-.968 1.778.743 1.778 1.65 1.778 1.344-.8.97-1.778zm51.602-2.044c0-3.102-.4-3.867-1.466-2.801-.806.806-1.065 2.726-.576 4.266 1.273 4.011 2.042 3.46 2.042-1.465zm98.667 1.294c0-.78-.847-.651-2 .306-1.1.912-2 1.867-2 2.12s.9.117 2-.305 2-1.377 2-2.121zm-263.756-1.317c-.956-.956-1.577-1.035-1.577-.2 0 .758.4 1.778.888 2.267s1.2.579 1.578.2-.02-1.399-.889-2.267zm3.932-.714c-.755-1.411-1.033-3.863-.619-5.448s.159-2.882-.568-2.882-1.33 1.65-1.338 3.667c-.016 3.863 2.098 9.028 3.232 7.895.366-.367.048-1.821-.707-3.232zm175.962-2.059c-1.073-1.073-1.46-.406-1.43 2.462.035 3.448.216 3.63 1.47 1.472 1.026-1.765 1.015-2.88-.04-3.934zm6.93 1.673c.46-1.76.156-2.577-.84-2.25-.859.283-1.762 1.884-2.007 3.558-.54 3.689 1.824 2.603 2.846-1.308zm14.265 1.977c0-1.143-.6-1.708-1.333-1.254s-1.333 1.388-1.333 2.078.6 1.255 1.333 1.255 1.333-.936 1.333-2.079zm40-2.248c0-.743-.884-.6-2 .327-1.1.913-2 2.26-2 2.993 0 .744.885.6 2-.326 1.1-.913 2-2.26 2-2.994zm-248 2.406c0-.324-.6-.96-1.333-1.412s-1.333-.19-1.333.587.6 1.413 1.333 1.413 1.333-.265 1.333-.588zm166.258-4.387c-.339-1.297-.637-.559-.665 1.641s.25 3.262.615 2.359.388-2.703.05-4zm116.409.975c.785-1.467.899-2.667.253-2.667s-2.26 1.2-3.586 2.667c-2.13 2.353-2.16 2.666-.254 2.666 1.188 0 2.802-1.2 3.587-2.666zm-82.76-3.08c-.09-2.816-.135-2.825-1.24-.254-1.577 3.67-1.577 4.975 0 4 .733-.453 1.291-2.138 1.24-3.745zm29.427 2.413c.956-1.153 1.086-2 .305-2-.744 0-1.699.9-2.121 2s-.56 2-.306 2 1.209-.9 2.122-2zm-110.185-1.333c-.422-1.1-1.003-2-1.291-2s-.524.9-.524 2 .58 2 1.291 2 .946-.9.524-2zm34.185.745c0-.69-.6-1.626-1.334-2.079s-1.333.112-1.333 1.255.6 2.079 1.333 2.079 1.334-.565 1.334-1.255zm-239.279-2.657c-.483-.782-1.517-1.422-2.297-1.422-.884 0-.783.765.269 2.032 1.829 2.204 3.463 1.712 2.028-.61zm208.725-1.562c-1.175-2.936-1.284-2.97-1.362-.415-.046 1.527.316 3.177.804 3.666 1.593 1.593 1.864.014.558-3.25zm54.513-.526c0-.734-.582-.434-1.293.666s-1.292 2.6-1.292 3.334.581.433 1.292-.667 1.293-2.6 1.293-3.333zm2.298-.308c-.338-1.298-.637-.56-.664 1.64s.25 3.262.614 2.36.388-2.703.05-4zm3.462.973c-.96-3.669-1.72-3.339-1.72.747 0 1.876.544 3.076 1.209 2.665s.894-1.946.51-3.412zm-213.931 1.668c-.465-2.196 1.957-5.673 4.02-5.772 1.5-.072 1.641-.326.448-.804-.96-.384-2.91.357-4.334 1.646-2.75 2.49-3.48 5.93-1.256 5.93.734 0 1.238-.45 1.122-1zm20.212.412c0-.324-.6-.959-1.334-1.412s-1.333-.189-1.333.588.6 1.412 1.333 1.412 1.334-.265 1.334-.588zm4.666-2.079c-1.327-1.466-3.013-2.666-3.746-2.666s-.248 1.2 1.08 2.666 3.013 2.667 3.746 2.667.248-1.2-1.08-2.667zm7.334 1.825c0-.219-1.187-1.033-2.637-1.809-2.068-1.107-2.487-1.02-1.943.398.573 1.491 4.58 2.726 4.58 1.41zm5.312-2.237c-.013-1.083-.378-1.022-1.147.19-.894 1.41-1.311 1.302-2.011-.524-.486-1.266-1.255-1.93-1.71-1.477-1.17 1.17 2.278 5.013 3.707 4.13.65-.402 1.173-1.445 1.161-2.319zm42.02 1.746c.454-.734.19-1.334-.587-1.334s-1.412.6-1.412 1.334.264 1.333.588 1.333.959-.6 1.412-1.333zm12.668 0c0-.734-.636-1.334-1.412-1.334s-1.042.6-.588 1.334 1.088 1.333 1.412 1.333.588-.6.588-1.333zm76 .775c0-.306.412-1.656.916-3 .806-2.15.647-2.223-1.333-.612-1.907 1.55-2.253 1.55-2.27 0-.017-1.438-.298-1.401-1.313.17-1.065 1.647-1.297 1.666-1.313.111-.012-1.039-.395-1.515-.852-1.058-1.586 1.587.762 4.947 3.456 4.947 1.49 0 2.709-.251 2.709-.558zm37.312-3.775c.012-.55-.58-1-1.312-1s-1.325 1.35-1.313 3c.016 2.425.267 2.617 1.313 1 .71-1.1 1.301-2.45 1.312-3zm123.763.964c-.41-.41-1.156.33-1.656 1.645-.724 1.9-.57 2.053.746.746.911-.904 1.32-1.98.91-2.39zm-141.075.258c0-.978-.843-1.778-1.873-1.778s-1.566.8-1.191 1.778 1.218 1.778 1.873 1.778 1.19-.8 1.19-1.778zm-126.667-.318c0-.419-.9-1.662-2-2.762-1.778-1.777-2-1.693-2 .762 0 1.566.866 2.762 2 2.762 1.1 0 2-.343 2-.762zm140-1.317c0-1.143-.6-1.707-1.333-1.254s-1.334-.505-1.334-2.144c0-1.632-.372-2.595-.827-2.14-1.2 1.2.642 7.617 2.186 7.617.72 0 1.308-.935 1.308-2.079zm-266.667-2.588c-.942-1.135-2.013-1.764-2.38-1.397s.105 1.595 1.047 2.73 2.013 1.765 2.38 1.399-.104-1.596-1.047-2.732zm13.578.378c-.957-.956-1.578-1.035-1.578-.2 0 1.78 1.577 3.357 2.467 2.467.379-.379-.021-1.399-.889-2.267zm33.254-.066c-1.316-1.307-1.47-1.154-.746.746.5 1.315 1.246 2.055 1.657 1.644s0-1.486-.91-2.39zm108.502 1.688c.453-.733.188-1.333-.588-1.333s-1.412.6-1.412 1.333.264 1.334.588 1.334.958-.6 1.412-1.334zm60.666-1.936c0-.978-.923-2.132-2.05-2.565-2.63-1.01-4.302 3.048-1.874 4.548 2.165 1.338 3.924.45 3.924-1.983zm45.334-.809c0-1.423-.6-2.588-1.334-2.588s-1.333 1.536-1.333 3.412c0 1.935.577 3.055 1.333 2.588.734-.453 1.334-1.989 1.334-3.412zm57.333 1.333c0-.69-.6-1.254-1.333-1.254s-1.334.935-1.334 2.078.6 1.708 1.334 1.255 1.333-1.389 1.333-2.079zm85.333-2.764c0-.55-.6-1.37-1.333-1.824s-1.333.063-1.333 1.146-.35 3.069-.776 4.412c-.71 2.235-.596 2.223 1.333-.146 1.16-1.423 2.11-3.038 2.11-3.588zm-382.286 1.489c-.66-2.527-3.047-5.114-3.047-3.304 0 1.134 2.64 5.991 3.255 5.991.272 0 .179-1.209-.208-2.687zm81.864-.23c-.426-1.063-.742-.747-.806.806-.058 1.406.257 2.193.7 1.75s.49-1.593.106-2.555zm38.666 0c-.425-1.063-.741-.747-.805.806-.058 1.406.257 2.193.7 1.75s.49-1.593.105-2.555zm114.68-2.057c-.338-1.297-.637-.559-.664 1.641s.25 3.262.615 2.359.387-2.703.05-4zm30.819 1.606c-.41-.41-1.156.33-1.657 1.644-.724 1.9-.57 2.054.746.747.912-.905 1.321-1.98.91-2.391zm-293.854-1.107c-.462-1.205-1.398-2.191-2.078-2.191s-.569 1.25.25 2.78c1.698 3.173 3.098 2.721 1.828-.59zm104.955-3.646c-1.503-1.4-3.039-2.545-3.413-2.545-1.149 0 .91 4.339 3.134 6.603 1.688 1.718 2.191 1.78 2.556.314.25-1.005-.775-2.972-2.277-4.372zm14.888 4.57c-.606-1.578-.36-1.915.851-1.167 1.262.78 1.47.318.804-1.781-.656-2.067-.334-2.834 1.19-2.834 1.435 0 2.033-1.149 1.908-3.667-.163-3.302-.24-3.357-.773-.558-.566 2.97-.682 3-2.594.667-1.832-2.234-1.94-2.243-1.264-.097.406 1.29.15 3.89-.567 5.779s-.966 3.983-.551 4.655c1.253 2.026 1.905 1.373.996-.998zm31.192-2.756c-.338-1.298-.637-.56-.664 1.64s.25 3.262.615 2.36.387-2.703.05-4zm77.32 2.057c-.425-1.063-.741-.747-.805.806-.058 1.406.257 2.193.7 1.75s.49-1.593.105-2.556zm10.64-1.416c-.37-.917-.673-.167-.673 1.666s.302 2.584.672 1.667.37-2.417 0-3.333zm20.286-.435c.655.405 1.477-.756 1.826-2.58s.118-3.319-.514-3.319-1.148.9-1.148 2-.6 2.075-1.334 2.167l-2.555.333c-.673.092-1.723.713-2.334 1.38-.645.706-.412.813.556.256 1.122-.646 1.694.046 1.751 2.12l.085 3.078 1.237-3.086c.68-1.697 1.774-2.754 2.43-2.349zm15.741 1.851c-.426-1.063-.742-.747-.806.806-.057 1.406.258 2.193.7 1.75s.491-1.593.106-2.556zm25.756.093c0-.733-.6-.962-1.333-.51s-1.334 1.425-1.334 2.158.6.963 1.334.51 1.333-1.425 1.333-2.158zm-265.17-2.076c-1.572-2.703-1.952-1.838-.665 1.515.457 1.192 1.112 1.886 1.455 1.543s-.012-1.72-.79-3.058zm50.748.611c-.957-.957-1.578-1.035-1.578-.2 0 .758.4 1.778.889 2.267s1.199.579 1.578.2-.022-1.399-.89-2.267zm7.795.363c-1.872-3.497-4.263-4.89-3.108-1.81.796 2.123.635 2.187-1.38.548-2-1.629-2.173-1.579-1.41.41.478 1.245 1.692 1.949 2.697 1.563s1.828-.12 1.828.59.621 1.292 1.38 1.292c.95 0 .947-.81-.007-2.593zm4.205-.363c-.957-.957-1.578-1.035-1.578-.2 0 .758.4 1.778.889 2.267s1.199.579 1.578.2-.022-1.399-.89-2.267zm60.666.04c-.426-1.065-.742-.749-.806.805-.057 1.405.258 2.193.7 1.75s.491-1.593.106-2.556zm77.306-1.418c-.37-.916-.673-.166-.673 1.667s.303 2.583.673 1.667.37-2.417 0-3.334zm-166.217 2.412c0-.323-.6-.958-1.333-1.412s-1.333-.188-1.333.588.6 1.412 1.333 1.412 1.333-.264 1.333-.588zm10.64-1.444c-.927-1.117-1.961-1.757-2.297-1.422-.924.925.954 3.454 2.566 3.454.884 0 .783-.765-.269-2.032zm199.08-.634c.383-1.467.153-2.667-.511-2.667s-1.209 1.2-1.209 2.667.23 2.666.511 2.666.825-1.2 1.209-2.666zm3.614-.158c0-.733-.6-.962-1.334-.509s-1.333 1.424-1.333 2.158.6.962 1.333.509 1.334-1.424 1.334-2.158zm-152.423-1.426c-.426-1.063-.742-.747-.806.806-.057 1.406.258 2.193.7 1.75s.491-1.593.106-2.556zm25.333 0c-.425-1.063-.741-.747-.805.806-.058 1.406.257 2.193.7 1.75s.49-1.593.105-2.556zm74.667 0c-.426-1.063-.742-.747-.806.806-.057 1.406.258 2.193.7 1.75s.491-1.593.106-2.556zm13.995.25c1.82-4.016 1.063-5.301-1.572-2.666-1.467 1.466-2.667 3.266-2.667 4 0 1.98 3.193.976 4.24-1.334zm62.428-.305c0-.78-.848-.651-2 .305-1.1.913-2 1.868-2 2.122s.9.116 2-.306 2-1.377 2-2.121zm122.666-1.393c0-3.078-.306-2.916-2.517 1.335-1.298 2.496-1.22 2.846.486 2.19 1.117-.428 2.031-2.014 2.031-3.525zm-302.206.974c-.435-1.131-1.076-1.771-1.425-1.422s-.24 1.276.243 2.058c1.315 2.127 2.083 1.714 1.182-.636zm20.873.803c0-.69-.6-1.625-1.333-2.079s-1.334.112-1.334 1.255.6 2.079 1.334 2.079 1.333-.565 1.333-1.255zm73.333 0c0-1.573-2.6-3.256-3.555-2.3s.727 3.555 2.3 3.555a1.26 1.26 0 0 0 1.255-1.255zm2.244-1.662c-.425-1.064-.741-.748-.805.806-.058 1.405.257 2.193.7 1.75s.49-1.593.105-2.556zm-63.26-2.463c-1.233-1.441-2.783-2.62-3.443-2.62s-.454.9.46 2 1.136 2.009.496 2.02-.292.572.773 1.246c3.07 1.941 4.178.231 1.715-2.646zm47.683 1.301c0-.69-.6-1.255-1.333-1.255s-1.334.936-1.334 2.08.6 1.707 1.334 1.254 1.333-1.389 1.333-2.079zm26.667-6.65c0-.613-.6-1.485-1.334-1.938s-1.333.126-1.333 1.288-1.5 2.682-3.333 3.379c-3.161 1.202-4.33 3.892-2.492 5.73.914.914 8.492-6.635 8.492-8.46zm39.98 5.65c-.018-1.943-.2-1.978-1.314-.255-1.687 2.612-1.687 4.377 0 3.334.734-.453 1.324-1.839 1.313-3.079zm-177.82 1.212c1.544 1.282 1.738 1.153 1.031-.688-.494-1.289-1.704-1.945-2.806-1.522-1.065.409-2.223.743-2.573.743s-.191.72.353 1.601c.762 1.234 1.116 1.221 1.542-.055s.982-1.3 2.453-.08zm9.778-1.58c-.818-1.53-1.753-2.516-2.078-2.192-.933.934.959 4.972 2.33 4.972.68 0 .567-1.25-.252-2.78zm135.599-2.553c.988 0 1.796-.9 1.796-2s-.64-2-1.423-2c-.796 0-1.066-1.127-.613-2.555 1.087-3.425-1.238-4.648-3.857-2.029-2.677 2.678-2.758 4.117-.107 1.917 1.21-1.005 2-1.112 2-.272 0 .763.364 2.336.81 3.496.587 1.532 0 2.11-2.143 2.11s-2.73.577-2.143 2.109c.445 1.16.85 2.81.9 3.666s.74.208 1.537-1.442 2.255-3 3.243-3zm27.344 2.364c2.008-3.163 1.132-4.123-1.548-1.698-1.655 1.498-2.667 1.8-2.667.795 0-.89-.6-1.248-1.333-.795s-1.333 1.655-1.333 2.67c0 2.256 5.308 1.507 6.881-.972zm36.53 1.035c2.497-1.865 2.482-1.906-.432-1.172-1.662.419-3.347 1.289-3.746 1.934-1.127 1.824 1.312 1.38 4.178-.762zm132.548-2.733c0-.733-.582-.433-1.293.667s-1.292 2.6-1.292 3.333.581.434 1.292-.666 1.293-2.6 1.293-3.334zm-359.293 2c-.453-.733-1.424-1.333-2.157-1.333s-.963.6-.51 1.333 1.425 1.334 2.158 1.334.962-.6.51-1.334zm5.189-.563c-.4-1.043-1.698-2.27-2.884-2.724-1.77-.68-1.715-.341.31 1.897 2.904 3.209 3.57 3.423 2.574.827zm58.62-.118c-.574-1.498-.164-1.782 1.595-1.107 1.621.622 2.063.417 1.403-.652-1.318-2.132-4.807-1.974-4.807.218 0 1.62 1.187 3.556 2.18 3.556.222 0 .055-.907-.37-2.015zm34.191 1.253c0-1.422-4.122-4.893-4.895-4.121-1.34 1.34.73 4.883 2.853 4.883 1.123 0 2.042-.343 2.042-.762zM332.141 174c.383-1.467.586-2.667.451-2.667s-1.273 1.2-2.528 2.667c-1.749 2.042-1.855 2.667-.452 2.667 1.007 0 2.145-1.2 2.529-2.667zm-33.72-.667c0-1.1-.881-2-1.958-2-1.193 0-1.658.782-1.191 2 .422 1.1 1.303 2 1.958 2s1.19-.9 1.19-2zm-94.667.08c0-.324-.6-.96-1.333-1.413s-1.333-.189-1.333.588.6 1.412 1.333 1.412 1.333-.264 1.333-.588zm34.667-.788c0-1.596-3.761-3.308-4.858-2.212-1.167 1.168.813 3.587 2.937 3.587 1.056 0 1.92-.619 1.92-1.375zm-178-1.292c.453-.733.189-1.333-.588-1.333s-1.412.6-1.412 1.333.264 1.334.588 1.334.959-.6 1.412-1.334zm106 .83c0-.276-.914-1.261-2.03-2.188-1.698-1.41-1.894-1.327-1.191.503.717 1.87 3.22 3.18 3.22 1.685zm88.984-1.75c-1.24-1.24-2.628-1.88-3.086-1.422-1.312 1.312.702 3.676 3.133 3.676 2.035 0 2.032-.176-.047-2.254zm81.683.92c0-.733-.265-1.333-.588-1.333s-.96.6-1.412 1.333-.19 1.334.588 1.334 1.412-.6 1.412-1.334zm-166.694-2.032c-.927-1.117-1.961-1.757-2.297-1.422-.924.925.954 3.454 2.566 3.454.884 0 .783-.765-.269-2.032zm5.36 1.445c0-.324-.6-.96-1.333-1.413s-1.333-.188-1.333.588.6 1.412 1.333 1.412 1.333-.264 1.333-.587zm106.667-2.08a1.34 1.34 0 0 0-1.333-1.333 1.34 1.34 0 0 0-1.334 1.334 1.34 1.34 0 0 0 1.334 1.333 1.34 1.34 0 0 0 1.333-1.333zm19.472-2.305c-1.355-1.355-2.474.685-1.362 2.485.84 1.359 1.155 1.36 1.606.005.309-.927.2-2.047-.244-2.49zm23.195-.522c0-.731-.6-.959-1.334-.506s-1.342-.26-1.354-1.587c-.017-2.046-.217-2.108-1.312-.413-1.857 2.873-1.66 3.408 1.333 3.634 1.467.11 2.667-.397 2.667-1.128zm-48.724-2.598c-.422-.682-1.705-1.24-2.852-1.24-1.695 0-1.776.37-.437 1.984 1.722 2.075 4.625 1.418 3.289-.744zm27.635-2.863c-.957-.957-1.578-1.036-1.578-.2 0 1.78 1.577 3.356 2.467 2.467.378-.38-.022-1.4-.89-2.267zm-65.093-.37c-.42-1.096-1.311-1.655-1.98-1.241-1.398.864-.276 3.233 1.532 3.233.667 0 .868-.896.448-1.992zm8.487-1.48c-.443-.443-1.593-.49-2.555-.105-1.064.425-.748.741.805.805 1.406.058 2.193-.257 1.75-.7zm5.695-.528c0-.733-.265-1.333-.588-1.333s-.96.6-1.412 1.333-.19 1.333.588 1.333 1.412-.6 1.412-1.333zm18.666 0c-2.585-1.67-4-1.67-4 0 0 .733 1.35 1.324 3 1.313 2.426-.016 2.617-.268 1-1.313zm13.334.163c0-.643-.9-1.917-2-2.83-2.171-1.801-2.443-1.37-1.191 1.891.857 2.233 3.19 2.92 3.19.94zm20-2.084c0-.324-.6-.959-1.334-1.412s-1.333-.189-1.333.588.6 1.412 1.333 1.412 1.334-.265 1.334-.588zm-52-3.412c0-.734-.9-1.334-2-1.334s-2 .6-2 1.334.9 1.333 2 1.333 2-.6 2-1.333zm25.333-1.334c0-.733-1.2-1.333-2.667-1.333s-2.666-.804-2.666-1.786-1.554-2.494-3.454-3.36c-2.741-1.248-3.336-1.224-2.888.12.31.931 1.252 1.693 2.094 1.693s2.475 1.35 3.63 3c2.13 3.04 5.95 4.11 5.95 1.666zm248.326-2c.35-1.833.12-3.333-.511-3.333s-1.148 1.5-1.148 3.333.23 3.334.51 3.334.799-1.5 1.15-3.334zM257.754 150c-.453-.733-1.424-1.333-2.157-1.333s-.963.6-.51 1.333 1.425 1.333 2.158 1.333.962-.6.51-1.333zm35.334 0c0-.733-1.2-1.333-2.667-1.333s-2.667.6-2.667 1.333 1.2 1.333 2.667 1.333 2.667-.6 2.667-1.333zm-31.09-4.25c-.425-1.063-.741-.748-.805.806-.058 1.405.257 2.193.7 1.75s.49-1.593.105-2.556zm35.09.329c0-1.573-2.6-3.256-3.556-2.301s.728 3.555 2.3 3.555a1.26 1.26 0 0 0 1.256-1.254zm-18.667-2.222c0-1.104-2.59-1.728-3.183-.767-.385.623.174 1.132 1.242 1.132s1.94-.164 1.94-.365zm-43.236-2.552c-2.74-2.073-4.271-1.744-2.819.606.483.783 1.894 1.403 3.134 1.38 1.98-.037 1.94-.28-.315-1.986zm24.57 1.44c0-.323-.6-.958-1.334-1.412s-1.333-.188-1.333.588.6 1.412 1.333 1.412 1.333-.264 1.333-.587zm41.162-4.856c-1.104-.686-2.026-.564-2.325.308-.273.795.327 1.956 1.333 2.581 1.103.686 2.026.563 2.325-.308.273-.795-.327-1.956-1.333-2.581zm-57.916 1.584c.406-.656-.128-1.526-1.187-1.932-1.283-.492-1.677-.095-1.183 1.194.86 2.24 1.348 2.392 2.37.738zm-235.247-1.25c0-.612-.873-1.112-1.941-1.112s-1.632.5-1.255 1.111 1.251 1.111 1.942 1.111 1.254-.5 1.254-1.11zm252-3.635c0-1.143-.61-1.702-1.355-1.241s-1.01 1.396-.588 2.079c1.143 1.849 1.943 1.504 1.943-.838zm6 .745c.453-.733.224-1.333-.51-1.333s-1.703.6-2.156 1.333-.225 1.334.509 1.334 1.704-.6 2.157-1.334zm41.578-1.583c-.426-1.063-.742-.748-.806.806-.058 1.405.257 2.193.7 1.75s.49-1.593.106-2.556zm-32.093-1.006c-.083-1.423-2.661-4.736-5.729-7.36s-5.836-6.11-6.152-7.745c-.566-2.929-.577-2.926-.756.16-.112 1.944 1.39 4.598 3.96 7 2.277 2.127 3.673 3.868 3.1 3.868s.37 1.5 2.092 3.333c3.758 4 3.674 3.982 3.485.744zm-19.485.668c0-.323-.6-.959-1.333-1.412s-1.333-.188-1.333.588.6 1.412 1.333 1.412 1.333-.264 1.333-.588zm46.306-2.884c-.443-.443-1.593-.49-2.556-.105-1.063.425-.747.741.806.805 1.405.058 2.193-.257 1.75-.7zm-17.395-4.778c-.426-1.063-.742-.748-.806.806-.057 1.405.258 2.193.7 1.75s.491-1.593.106-2.556zm-19.689 1.236c-.305-.191-1.905-1.484-3.555-2.873-2.74-2.307-3-2.328-3-.24 0 1.256.558 1.94 1.241 1.517s1.618-.157 2.079.588 1.502 1.355 2.314 1.355 1.227-.156.921-.347zm16.794-11.075c-.798-4.585-7.25-15.244-9.228-15.244-.705 0-2.724-1.35-4.486-3l-3.204-3 .895 5.333c1.757 10.466 4.775 17.515 9.644 22.528l4.941 5.087 1.075-3.807c.592-2.094.755-5.648.363-7.897zm9.562 5.84c-.426-1.064-.742-.749-.806.805-.058 1.405.257 2.193.7 1.75s.49-1.593.106-2.556zm-37.217 0c-.29-.872-1.24-1.822-2.112-2.112-.974-.325-1.272.285-.774 1.583.93 2.424 3.686 2.928 2.886.528zm2.973-5.084c0-.734-.9-1.334-2-1.334s-2 .6-2 1.334.9 1.333 2 1.333 2-.6 2-1.333zm-8-1.334c0-.733-.636-1.333-1.412-1.333s-1.042.6-.588 1.333 1.088 1.334 1.412 1.334.588-.6.588-1.334zm41.966-10.19c-3.006-2.197-4.277-1.26-2.005 1.477.92 1.11 2.297 1.632 3.058 1.162.848-.524.44-1.546-1.053-2.638zm-32.889-.39c-.886-1.42-2.127-2.262-2.757-1.872s-.06 1.532 1.266 2.538c3.218 2.44 3.384 2.365 1.491-.666zm25.59-2.753c-.853-1.592-1.843-2.602-2.201-2.244s.118 1.882 1.057 3.387c2.222 3.558 3.158 2.622 1.143-1.143zm-9.371-7c-1.813-1.65-4.387-4.2-5.72-5.667-2.408-2.65-2.414-2.65-1.008.23C269 92.315 275.226 98 276.897 98c.43 0-.7-1.35-2.513-3zm15.37-5c-.453-.733-1.424-1.333-2.157-1.333s-.963.6-.51 1.333 1.425 1.333 2.158 1.333.962-.6.51-1.333zm-18.873-3.39c-.434-1.132-1.076-1.772-1.425-1.423s-.24 1.276.243 2.058c1.315 2.127 2.084 1.714 1.182-.636zM256.421 50c-.453-.733-1.539-1.324-2.412-1.313-.954.013-.79.537.412 1.313 2.561 1.656 3.023 1.656 2 0zm-36.687-17c-.011-.55-.602-1.9-1.313-3-1.045-1.617-1.297-1.426-1.313 1-.011 1.65.58 3 1.313 3s1.324-.45 1.313-1zm-9.379 480.871c-1.533-3.004-2.558-5.691-2.279-5.97s1.814 2.178 3.41 5.462c3.633 7.48 2.65 7.92-1.131.508zm-.416-76.537c.422-1.1 1.284-2 1.916-2s.803.9.381 2-1.284 2-1.916 2-.803-.9-.381-2zm3.149-6.474c0-.917 6.778-19.034 12.295-32.86 1.61-4.033 3.3-9.733 3.757-12.666.778-5.001.892-5.115 1.825-1.832.738 2.596-.066 5.772-3.108 12.278-2.256 4.826-4.103 9.272-4.103 9.878 0 1.17-9.33 24.621-10.171 25.564-.273.306-.495.143-.495-.362zm-77.667-85.26c-5.248-2.073-4.801-5.212.667-4.684 3.32.32 4.432 1.118 4.759 3.418.467 3.29-.018 3.404-5.426 1.267zm247.935-3.308c-.813-4.254.776-5.577 6.732-5.605 5.879-.027 5.513 2.628-.864 6.268l-5.176 2.956zm-125.57-8.77c-2.452-1.793-2.449-1.872.133-3.253 1.61-.862 3.4-.95 4.574-.224 1.668 1.032 1.65 1.47-.133 3.253-1.767 1.768-2.418 1.8-4.573.224zM292.136 320c.01-3.666.269-5.008.575-2.981s.298 5.026-.018 6.666-.567-.018-.557-3.685zm-30.382-11.333c-.453-.733-.188-1.333.588-1.333s1.412.6 1.412 1.333-.264 1.333-.588 1.333-.959-.6-1.412-1.333zm-.561-4.778c.064-1.553.38-1.87.805-.805.386.962.338 2.112-.105 2.555s-.758-.344-.7-1.75zm-3.563-23.891c-1.23-1.877-1.867-4.648-1.457-6.334 2.632-10.824 3.584-13.665 4.702-14.038.695-.231.957-1.592.582-3.023-1.047-4.006.406-3.101 3.533 2.199 3.512 5.951 5.202 19.594 2.788 22.503-2.597 3.13-7.669 2.476-10.148-1.307zm3.415-.331c-.023-.55-.923-2.165-2-3.588-1.997-2.64-2.607-1.323-1.148 2.479.814 2.122 3.227 2.972 3.148 1.109zM264.742 269c-.078-4.94-.096-4.956-1.458-1.333-.758 2.017-2.312 3.709-3.454 3.76-1.483.067-1.314.421.59 1.24 4.198 1.803 4.406 1.627 4.322-3.667zm-2.321-3.588c0-.323-.6-.959-1.333-1.412s-1.334-.188-1.334.588.6 1.412 1.334 1.412 1.333-.264 1.333-.588zm-25.583 1.01c.962-.384 2.112-.337 2.555.106s-.344.758-1.75.7c-1.553-.064-1.87-.38-.805-.805zm17.583-43.624c0-2.265 2.178-4.01 3.101-2.486.34.562-.218 1.795-1.241 2.74-1.528 1.413-1.86 1.367-1.86-.254zm-124.793-48.992c-2.523-2.84-2.52-2.85.385-1.326 3.241 1.7 5.237 4.187 3.36 4.187-.663 0-2.348-1.287-3.745-2.86zm94.903-1.318c.363-.587-.563-1.831-2.058-2.765s-2.71-2.603-2.698-3.71c.018-1.786.168-1.788 1.333-.013s1.47 1.778 2.734 0c1.12-1.577 1.241-1.364.574 1.007-.582 2.07-.194 3.256 1.246 3.809 2.632 1.01 2.727 2.74.15 2.74-1.067 0-1.644-.48-1.28-1.068zm162.89-2.038c.917-.37 2.417-.37 3.333 0s.167.673-1.666.673-2.584-.303-1.667-.673z" fill="#faf8f6"/></svg>