<svg xmlns="http://www.w3.org/2000/svg" width="213.333" height="173.333" xmlns:v="https://vecta.io/nano"><path d="M93.333 166.666V160H80v-13.333H40v-13.334H13.333V120H0V93.333h13.333V80H40V66.667h13.333V53.333H40V40h13.333V26.667h13.334V13.333h40V0h26.666v13.333h13.334v13.334H160V40h13.333v13.333H160v13.334h13.333V80H200v13.333h13.333V120H200v13.333h-26.667v13.334h-40V160H120v13.333H93.333zM120 153.333v-6.666H93.333V160H120zm-66.667-26.666V120h13.334v13.333h80V120H160v13.333h13.333V120h13.334V93.333h-13.334V120H160V66.667h-13.333V53.333H160V40h-13.333V26.667h-13.334V13.333h-26.666V40H93.333V26.667H66.667V40H53.333v13.333h13.334v13.334H53.333V120H40V93.333H26.667V120H40v13.333h13.333zm13.334-80V40H80v13.333H66.667zm66.666 0V40h13.334v13.333h-13.334z" fill="#faf8f6"/></svg>