<svg xmlns="http://www.w3.org/2000/svg" width="484.882" height="358.122" xmlns:v="https://vecta.io/nano"><path d="M315.504 347.795c-17.885-18.478-33.277-43.835-45.184-74.436-4.283-11.007-4.518-11.308-9.689-12.395-3.202-.673-7.513-.562-10.89.28-3.075.768-11.876 1.395-19.558 1.395s-14.975.387-16.207.86c-3.204 1.23-17.978 31.83-17.978 37.236 0 6.686-2.177 11.238-5.375 11.238-3.726 0-25.442-9.507-26.195-11.468-.328-.854 2.14-10.832 5.484-22.171s6.473-23.48 6.952-26.977c.856-6.242.813-6.341-2.33-5.397-4.303 1.293-23.339 8.822-53.203 21.044-28.954 11.85-42.165 15.016-57.995 13.899-11.987-.846-28.672-5.708-28.672-8.354 0-1.875 3.92-5.163 10.869-9.117l4.465-2.54-12.667-2.348c-6.967-1.291-15.667-3.357-19.333-4.591C11.127 251.641.004 245.33 0 243.742c-.008-2.87 9.045-9.328 15.756-11.24 4.166-1.187 8.09-2.636 8.718-3.22s-2.581-2.42-7.133-4.08l-8.276-3.017 3.133-2.402c5.55-4.256 19.768-9.197 32.952-11.452 10.56-1.805 23.455-2.21 72.413-2.277l59.565-.081 8.2-5.782c6.205-4.376 7.974-6.322 7.273-8-1.805-4.322-2.239-14.767-.786-18.935 1.392-3.993 1.043-4.822-6.358-15.088-4.307-5.974-9.164-13.519-10.793-16.765-3.707-7.39-4.838-19.043-2.71-27.916 1.616-6.733 1.57-6.932-4.562-20.05-7.85-16.792-8.49-20.603-4.848-28.836 2.783-6.292 2.795-6.64.657-19.185-2.243-13.154-1.992-25.781.644-32.497 1.25-3.185 1.843-3.516 4.115-2.3 4.498 2.408 9.295 10.837 12.908 22.687 10.505 34.445 25.815 63.898 48.17 92.667 8.008 10.305 17.657 21.11 18.247 20.434.21-.239 1.096-4.62 1.971-9.736 2.906-16.986 10.648-32.84 25.235-51.678 2.121-2.739 5.71-10.704 7.974-17.7s5.957-15.395 8.205-18.662c5.035-7.319 14.153-14.427 22.422-17.48 7.975-2.945 9.153-3.892 11.811-9.493 1.751-3.69 4.095-5.483 11.7-8.948 5.23-2.384 11.663-6.225 14.295-8.536 5.957-5.23 11.199-5.573 13.341-.87 2.43 5.332-1.298 18.975-14.913 54.573-4.823 12.613-5.722 16.645-6.688 30-1.63 22.53-5.351 31.227-20.725 48.432-12.196 13.649-15.643 21.206-16.342 35.827-.308 6.441-.161 13.84.327 16.44l.887 4.73h9.94c7.84 0 9.94-.412 9.94-1.953 0-3.79 5.185-4.714 26.49-4.714h21.332l.422 3.667.422 3.667 28.667.666c28.089.654 28.807.74 35.622 4.334 3.826 2.016 9 3.666 11.5 3.666 14.193 0 17.703 3.108 26.94 23.847 4.046 9.082 7.107 16.762 6.801 17.067s-5.374-.675-11.264-2.18c-16.35-4.174-20.993-3.756-30.698 2.76-5.385 3.616-10.129 5.703-13.875 6.103-3.131.335-19.147-.651-35.59-2.191-28.004-2.622-30.312-2.663-36.42-.634-4.303 1.43-8.194 1.85-11.436 1.235-6.062-1.15-32.247-2.412-32.247-1.555 0 2.026 10.114 29.178 12.963 34.8 7.678 15.152 23.32 33.098 30.395 34.874 6.49 1.629 4.227 6.095-12.036 23.745-8.44 9.159-16.012 17.065-16.827 17.569-.853.527-6.08-3.836-12.322-10.284zm24.396-10.526l12.367-13.37-9.562-10.066c-16.674-17.554-27.417-37.107-32.701-59.52-3.63-15.393-4.517-14.51 14.327-14.274 12.846.16 16.844.657 18.725 2.328 2.054 1.825 3.185 1.892 8 .474 15.507-4.568 23.927-4.879 46.617-1.722 25.692 3.574 31.297 2.897 43.513-5.261 6.422-4.289 8.974-5.219 14.322-5.219 3.579 0 8.564.59 11.077 1.31s4.76 1.12 4.995.886c.862-.862-5.009-16.088-7.09-18.388-1.376-1.52-5.101-2.712-10.322-3.303-5.603-.633-11.228-2.534-17.9-6.047l-9.73-5.124h-57.207v-6.667h-16.745c-9.21 0-16.45.479-16.088 1.064s.122 1.93-.533 2.988c-.934 1.512-3.919 1.833-13.912 1.497-14.583-.49-14.446-.642-9.347 10.311 1.842 3.957 3.052 7.49 2.69 7.853-1.32 1.32-9.748-6.351-11.855-10.792-4.14-8.724-6.532-22.348-5.706-32.497 1.345-16.51 4.704-23.184 20.588-40.899 13.247-14.772 18.525-27.315 19.713-46.841 1.1-18.085 2.761-24.833 11.49-46.684 5.293-13.25 8.236-22.668 8.72-27.905l.732-7.904-4.244 3.021c-2.334 1.662-5.798 6.12-7.7 9.905-9.824 19.569-18.384 28.947-10.611 11.626 3.548-7.906 4.359-12.076 2.348-12.076-2.29 0-5.39 5.136-14.889 24.666-10.068 20.7-13.203 23.305-7.354 6.108 1.85-5.44 3.124-10.131 2.83-10.425s-2.997.204-6.007 1.106c-8.46 2.534-15.502 9.469-20.797 20.478-5.786 12.028-8.709 23.297-14.117 54.425-2.323 13.37-4.706 25.508-5.297 26.975-1.917 4.762-1.35-16.26.834-30.975 1.142-7.69 1.803-14.257 1.468-14.592-.995-.994-6.991 7.636-11.487 16.533-5.414 10.713-9.955 28.985-12.116 48.746-1.182 10.819-2.147 15.283-3.096 14.333-2.275-2.274-8.664-1.56-11.512 1.288-3.864 3.865-3.465 7.535 3.08 28.334 2.33 7.406 1.062 8.391-2.145 1.666-1.224-2.566-2.985-4.719-3.913-4.783-9.468-.655-37.136.223-39.874 1.265-1.935.737-5.535 3.092-8 5.233s-5.867 4.622-7.56 5.512c-2.202 1.157-22.383 1.962-70.853 2.824-62.763 1.116-76.828 2.003-82.55 5.205-3.281 1.837 10.207 5.213 27.047 6.77 28.32 2.62 29.974 4.347 5.605 5.851-21.731 1.342-44.786 6.97-42.658 10.414 1.208 1.953 14.26 7.498 21.438 9.106 6.96 1.56 34.965 1.82 48.914.454 12.607-1.235 10.69 1.049-4.998 5.952-11.91 3.723-19.638 7.016-23.263 9.913-2.477 1.98.424 3.571 6.555 3.597 12.383.053 28.882-4.487 67.595-18.6 22.198-8.092 41.76-14.713 43.473-14.713 8.91 0 9.378 10.71 1.628 37.27-3.306 11.332-5.674 21.149-5.262 21.816.824 1.334 14.376 7.581 16.446 7.581.712 0 1.295-1.683 1.295-3.74 0-4.86 16.41-38.663 20.7-42.64 2.418-2.243 3.3-4.443 3.3-8.232 0-9.696-.752-9.388 22.9-9.388 19.618 0 21.23.182 20.647 2.333-2.27 8.373-2.219 9.57.469 11.009 3.61 1.932 5.042.817 6.084-4.737.478-2.549 1.332-4.92 1.899-5.27s3.533 6.706 6.592 15.68c9.523 27.933 23.801 55.174 37.908 72.318 7.703 9.364 15.774 18 16.819 18 .486 0 6.449-6.016 13.25-13.37zm-113.68-85.285c-3.925-7.231-7.556-7.237-7.556-.011 0 5.314.019 5.333 5.223 5.333h5.222zm21.016 3.227c1.152-1.153 2.095-3.553 2.095-5.334 0-3.02-.473-3.238-7.067-3.238-9.105 0-11.061 1.806-7.451 6.876 3.083 4.33 8.984 5.135 12.423 1.696zm-15.756-64.238c-.456-2.017-1.197-6.7-1.648-10.407-.713-5.858-.407-7.207 2.34-10.308 1.737-1.963 5.559-4.33 8.492-5.26 8.46-2.684 7.956-6.486-2.274-17.16-22.543-23.52-49.455-69.209-57.646-97.865-3.419-11.962-11.006-28.667-13.02-28.667-2.895 0-.271 25.604 4.848 47.292 1.868 7.916 1.864 7.941-.652 4.667l-2.53-3.292-.03 4.758c-.046 7.557 3.67 18.192 11.435 32.715 3.961 7.41 7.194 14.01 7.183 14.667s-2.057-1.207-4.548-4.14l-4.527-5.334-.943 3.716c-1.735 6.839.017 18.844 3.949 27.064 2.808 5.87 7.523 11.563 18.44 22.266 8.068 7.908 14.392 14.656 14.053 14.995s-3.567-1.482-7.173-4.046-6.912-4.661-7.346-4.661c-1.635 0-3.885 6.986-3.885 12.062 0 9.234 2.691 10.604 20.822 10.604h15.489z" fill="#faf8f6"/></svg>