<svg xmlns="http://www.w3.org/2000/svg" width="163.922" height="171.868" xmlns:v="https://vecta.io/nano"><path d="M60.703 169.648c-31.223-8.442-49.693-27.547-58.258-60.262-6.26-23.91-.228-53.426 14.947-73.148C33.975 14.688 62.415.207 88.555.002c25.585-.201 49.33 14.296 64.107 39.139 8.002 13.451 11.226 26.577 11.26 45.843.033 18.15-2.627 29.233-10.738 44.735-15.661 29.934-59.476 48.852-92.48 39.929zm37.494-10.62c4.597-2.19 8.445-13.622 7.155-21.26-1.372-8.12-7.471-16.624-14.29-19.925-7.099-3.437-8.73-3.505-15.84-.66-7.618 3.049-13.224 10.995-13.224 18.746 0 6.406-1.949 6.691-3.312.485-1.16-5.285 1.334-13.792 5.494-18.736 4.317-5.13 13.44-9.37 20.079-9.331 10.096.058 23.143 9.15 27.206 18.96 1.186 2.862 2.413 3.677 5.538 3.677 12.535 0 22.02-16.786 16.977-30.047-1.555-4.09-6.375-8.51-9.352-8.575-3.32-.073-7.594 3.637-8.542 7.414-1.71 6.816 6.149 11.154 11.474 6.335 2.269-2.054 2.438-2.054 2.438 0 0 7.197-11.697 9.966-18.259 4.322-3.148-2.709-3.74-4.249-3.74-9.726 0-4.057.917-7.907 2.436-10.226 5.541-8.457 19.766-9.583 27.065-2.144 4.728 4.82 6.304 4.93 8.284.584 3.421-7.507.872-18.124-5.408-22.523-1.659-1.162-5.711-2.08-9.174-2.08-5.7 0-6.263-.298-6.94-3.667-2.439-12.146-19.003-21.603-30.938-17.665-4.822 1.592-4.842 1.63-3.753 7.133 4.263 21.551-4.509 38.123-23.446 44.293-6.165 2.008-8.093 2.112-13.334.717-7.99-2.126-11.332-4.406-16.087-10.97-11.315-15.62-2.183-37.165 15.858-37.414 2.77-.039 6.357.638 7.973 1.503 4.068 2.177 8.132 9.273 8.059 14.07-.06 3.917-.119 3.882-2.836-1.723-3.703-7.637-9.036-10.45-15.91-8.39-9.49 2.843-13.23 13.701-8.567 24.865 2.047 4.896 10.237 9.825 16.427 9.885 4.197.04 12.286-3.504 16.055-7.035 8.048-7.538 9.328-22.661 2.872-33.919C70.761 35.758 62 31.013 48.93 30.997c-9.527-.013-9.835.094-14.455 4.987-20.157 21.349-26.127 51.183-16.043 80.179 7.514 21.607 23.053 35.87 46.9 43.045 9.099 2.738 26.943 2.64 32.865-.18z" fill="#faf8f6"/></svg>