<svg xmlns="http://www.w3.org/2000/svg" width="183.892" height="212.928" xmlns:v="https://vecta.io/nano"><path d="M180.969 211.178c-.05-4.155-3.034-26.343-4.404-32.75-3.416-15.975-6.279-22.038-13.737-29.092-4.541-4.295-6.446-5.344-12.353-6.804-10.596-2.62-19.492-9.927-19.481-16.002.002-1.156 2.058-7.952 4.569-15.102 3.873-11.03 4.647-14.515 5.104-23 .471-8.747.27-10.626-1.605-15-1.883-4.39-2.07-4.573-1.531-1.5 1.52 8.672 1.535 11.052.117 19.772-1.784 10.967-7.555 23.854-13.053 29.149-3.473 3.344-3.505 3.445-1.427 4.5 1.17.593 2.62 1.892 3.224 2.886.912 1.501.52 2.328-2.32 4.886-3.25 2.929-3.356 3.231-2.149 6.193 2.023 4.963 2.418 7.614 1.133 7.614-.643 0-1.837-1.687-2.654-3.75-3.532-8.915-3.567-8.969-4.464-6.75-.444 1.1-.84 3.658-.878 5.685-.092 4.848-1.75 9.13-3.191 8.24-1.125-.695-.722-8.117.63-11.606.581-1.499.265-1.562-2.918-.586-3.05.937-3.87.825-5.629-.767-1.406-1.272-1.964-2.832-1.76-4.915.246-2.516.793-3.108 3.119-3.374 1.55-.178 4.045.104 5.543.626 2.25.784 3.202.537 5.485-1.427 2.567-2.208 2.613-2.376.657-2.376-6.808 0-14.882-9.95-20.218-24.913-2.536-7.11-4.114-29.957-2.625-38.01 2.248-12.161 9.491-20.022 18.537-20.117 3.76-.04 3.774-.054 1.3-1.382-4.122-2.212-8.593-2.765-12.925-1.598-3.67.988-4.029 1.356-3.475 3.56 1.084 4.323-1.328 2.678-4.689-3.195-4.242-7.414-8.664-11.457-17.862-16.332-9.334-4.946-10.878-6.252-15.962-13.51-2.233-3.188-4.966-6.43-6.073-7.206-1.853-1.298-2.014-1.216-2.014 1.024 0 7.808 7.148 15.832 20.244 22.723 8.983 4.727 10.174 5.717 15.25 12.667 5.874 8.044 6.59 9.768 3.674 8.842-4.602-1.46-9.737 10.07-12.824 28.799-.701 4.255.59 14.563 4.245 33.906 2.853 15.097 2.945 17.813.762 22.416-2.32 4.887-4.838 6.183-13.384 6.887-10.624.875-29.13 5.076-38.287 8.69-9.392 3.707-14.652 9.047-20.64 20.95-3.8 7.551-5.138 12.36-6.74 24.225-.44 3.259-1.362 6.109-2.05 6.333-3.19 1.04.27-19.852 4.788-28.91 3.883-7.787 13.066-20.06 16.172-21.614 11.64-5.823 24.749-9.363 43.265-11.683 9.755-1.222 11.23-1.67 13.25-4.02 2.524-2.933 3.027-9.696 1.268-17.032-1.435-5.98-4.738-26.096-5.503-33.509-.548-5.314-.194-8.302 1.929-16.28 2.92-10.973 5.778-17.674 8.646-20.27 1.064-.963 1.935-2.195 1.935-2.738s-2.065-3.404-4.588-6.358c-3.366-3.94-7.074-6.71-13.925-10.403-5.347-2.883-10.895-6.758-12.982-9.068-4.692-5.194-7.785-12.321-6.966-16.051 1.203-5.477 7.042-2.506 12.823 6.524 3.445 5.382 6.736 7.976 17.742 13.983 6.128 3.345 11.048 7.758 15.096 13.542 1.499 2.143 1.971 2.264 4.879 1.25 4.782-1.667 10.226-1.367 15.921.878 2.79 1.1 5.414 2 5.83 2s1.318-2.138 2.005-4.75c2.372-9.013 9.176-21.16 15.58-27.809 6.873-7.138 10.545-8.691 13.732-5.81 5.776 5.224 8.883 19.369 4.253 19.369-.762 0-2.563-1.32-4.001-2.935l-2.615-2.936-3.468 3.686c-1.907 2.027-6.834 8.583-10.95 14.57l-7.484 10.884 2.449 2.615c3.255 3.478 5.944 9 9.873 20.28 2.898 8.32 3.237 10.425 3.111 19.336-.144 10.193-.718 12.634-6.77 28.795-3.353 8.952-3.289 12.446.303 16.378 3.67 4.019 7.992 6.22 16.55 8.426 11.184 2.883 18.214 10.976 22.934 26.401 3.618 11.827 4.634 16.655 5.642 26.822.5 5.048 1.222 11.315 1.604 13.928.585 4.013.44 4.75-.943 4.75-.9 0-1.646-.788-1.657-1.75zm-69.523-76.997c.75-1.952.765-1.94-3.706-2.775-3.27-.61-3.75-.456-3.75 1.21 0 1.052.473 2.385 1.051 2.963 1.43 1.43 5.676.502 6.405-1.398zm11.544-2.753c.994-1.198.99-1.807-.02-3.025-1.13-1.362-1.466-1.345-3.123.155-1.021.924-1.857 2.285-1.857 3.025 0 1.817 3.453 1.71 5-.155zm-.686-11.867c3.506-4.124 8.332-12.18 9.963-16.633 2.832-7.732 4.419-20.797 3.252-26.785l-1.029-5.285-2.116 2.123c-1.216 1.22-3.555 2.192-5.5 2.285-3.1.148-3.41-.1-3.688-2.963-.416-4.273 2.155-6.755 6.168-5.952 1.67.334 3.433 1.163 3.917 1.842 1.492 2.092-.247-4.448-2.358-8.87-4.533-9.492-13.633-15.689-20.505-13.964-4.4 1.105-11.909 9.49-13.243 14.79-1.451 5.76-1.516 23.081-.12 31.688 1.816 11.194 11.72 28.933 17.338 31.058 2.444.924 5.334-.293 7.92-3.334zm-2.218-15.883c-.47-1.237-1.03-3.15-1.244-4.25-.296-1.522-1.043-1.923-3.12-1.678-1.503.176-2.732-.144-2.732-.712 0-1.206 5.272-2.725 12.863-3.705 4.946-.639 5.322-.545 4.837 1.201-.289 1.042-.814 3.602-1.166 5.69-.477 2.818-1.288 4.04-3.153 4.75-3.857 1.466-5.353 1.157-6.285-1.296zm2.465-5.452c-1-2.607-1.718-.76-.906 2.334.555 2.114.853 2.393 1.134 1.06.209-.995.106-2.522-.228-3.394zm4.439 1.202c0-1.925-.45-3.5-1-3.5-1.109 0-1.387 5.28-.333 6.333 1.15 1.151 1.333.764 1.333-2.833zm-17-8.31c0-.537.713-1.25 1.584-1.584.973-.373 1.43-.15 1.187.58-.498 1.496-2.771 2.319-2.771 1.004zm-3.469-2.14c-.512-.828 2.332-3.05 3.903-3.05 1.29 0 .442 2.834-1.016 3.393-2.064.792-2.195.777-2.887-.343zm21.469-.55c0-.917.484-1.505 1.075-1.308s1.075.786 1.075 1.308-.484 1.111-1.075 1.308-1.075-.391-1.075-1.308zm-9.33-3.75l-1.337-3.25 4.911-.839c2.702-.461 5.146-.605 5.432-.319.781.782-4.986 7.658-6.423 7.658-.686 0-1.849-1.463-2.584-3.25zm10.789.183c-.363-.586-.42-1.306-.126-1.6.717-.716 2.667.546 2.667 1.726 0 1.278-1.726 1.193-2.541-.126zm-20.209-.641c-1.73-.635-1.576-3.292.191-3.292 1.819 0 3.064 1.92 1.922 2.962-.475.433-1.426.582-2.113.33zm21.375-3c-.314-.314-.331-.958-.039-1.431.702-1.136 3.414-1.11 3.414.032 0 1.104-2.595 2.179-3.375 1.399zm-21.494-6.385c-1.48-1.378-2.141-2.998-1.938-4.75.26-2.251.85-2.703 3.86-2.956 6.466-.543 11.844 6.178 7.013 8.764-3.042 1.628-6.491 1.22-8.935-1.058zm7.087-4.089c-.626-.626-.766.031-.393 1.856.426 2.093.678 2.345.97.97.216-1.021-.044-2.293-.577-2.826zm-4.218.182c0-1.1-.45-2-1-2s-1 .9-1 2 .45 2 1 2 1-.9 1-2zm14.122.325c-.871-1.499-1.067-1.542-1.092-.242-.032 1.684 1.02 3.2 1.728 2.492.234-.234-.052-1.246-.636-2.25zm4.561-1.512c-.32-.798-.556-.561-.604.604-.043 1.054.193 1.644.525 1.312s.368-1.195.08-1.917zm.317-17.139c0-.179-1.237-1.416-2.75-2.75l-2.75-2.424 2.424 2.75c2.266 2.57 3.076 3.209 3.076 2.424zm-3.293-11.424c4.187-6.566 12.895-18.083 16.61-21.967 3.662-3.828 3.928-4.45 2.88-6.75-2.03-4.455.982-2.891 4.803 2.494 3.023 4.262 3.547 4.636 3.847 2.747.497-3.136-1.437-8.805-4.15-12.165-2.21-2.739-2.487-2.818-5.226-1.5-3.13 1.506-11.065 10.764-15.19 17.724-2.985 5.035-8.413 20.145-7.67 21.347.93 1.504 2.326.846 4.096-1.93z" fill="#faf8f6"/></svg>