<svg xmlns="http://www.w3.org/2000/svg" width="639.809" height="912.759" xmlns:v="https://vecta.io/nano"><path d="M225.809 912.104c-19.295-1.873-21.399-4.292-8.554-9.835 11.947-5.155 44.768-24.287 53.22-31.023l13.616-10.879c10.624-8.513 46.301-44.431 55.328-55.7 12.46-15.556 11.41-14.174 36.97-48.667 19.07-25.736 31.365-43.59 31.402-45.601.01-.514 4.818-8.868 10.684-18.564s10.667-18.169 10.667-18.83c0-1.176 14.78-31.727 17.257-35.672.69-1.1 2.22-5.6 3.398-10s3.085-10.7 4.238-14l5.496-16c1.871-5.5 4.05-10.44 4.84-10.98s1.014-.988.497-1-.038-2.57 1.067-5.686 3.532-11.967 5.396-19.667 4.496-17.6 5.848-22c7.28-23.681 11.426-44.646 13.315-67.333l2.601-26.505c.73-6.145 1.106-11.545.837-12s-.887-12.229-1.373-26.162-1.715-31.033-2.729-38l-2.67-20c-.456-4.033-1.96-13.033-3.342-20s-2.91-15.967-3.396-20c-.96-7.99-10.29-40.516-15.821-55.161-1.904-5.039-5.833-12.791-8.731-17.228-5.56-8.51-5.731-10.288-.983-10.262 13.51.075 58.238 42.83 80.874 77.306 6.663 10.148 19.48 35.372 24.733 48.678 2.027 5.134 5.063 11.734 6.747 14.667 6.039 10.517 16.202 44.537 19.119 64l3.415 22.667c4.258 28.152 5.143 41.113 5.099 74.666-.037 28.163-.53 37.457-2.633 49.538l-2.587 14.87 5.41 1.046c2.977.576 6.611 1.193 8.078 1.372 12.133 1.483 16.84 2.376 17.415 3.307.726 1.173-8.366.507-21.904-1.607-4.67-.728-8.691-1.123-8.937-.877s-1.908 6.126-3.692 13.066-4.144 15.019-5.243 17.952-4.208 11.633-6.907 19.333c-7.968 22.732-38.05 82.102-52.604 103.822l-6.128 9.263c-.733 1.159-2.69 3.64-4.349 5.511s-4.56 5.846-6.447 8.831c-2.248 3.554-4.369 5.395-6.144 5.334-2.906-.1-4.473 1.92-5.619 7.24-.395 1.833-3.92 6.633-7.835 10.666-12.275 12.647-24.606 24-26.066 24-.773 0-2.948 2.024-4.834 4.497-4.963 6.507-27.855 26.134-40.746 34.935-11.82 8.069-64.999 34.567-77.293 38.514l-16.667 5.419c-5.444 1.818-11.308 3.067-31.333 6.672-13.4 2.413-46.92 3.53-62 2.067zm-73.55-4.687c.404-1.054 1.382-4.318 2.172-7.252s2.633-9.082 4.096-13.66c1.719-5.38 2.202-8.784 1.367-9.62-1.22-1.219-22.69-6.656-43.419-10.996-16.137-3.379-15.816-3.273-14.35-4.739.93-.93 2.168-.934 3.86-.014 1.37.745 8.49 2.38 15.824 3.635 12.27 2.099 33.531 6.27 37.79 7.414 2.761.742 3.443-1.045 14.813-38.852 2.316-7.7 5.077-15.97 6.137-18.378s1.926-4.56 1.926-4.78-4.65.755-10.333 2.167-12.467 2.286-15.074 1.941c-2.843-.376-5.74.105-7.238 1.2-3.413 2.495-34.686 1.48-48.474-1.574-12.59-2.788-28.448-9.021-35.547-13.972-7.404-5.163-24.72-23.274-29.762-31.128C25.274 752.03 14.813 726.047 9.146 702l-4.118-17.333c-.71-2.934-1.521-10.134-1.803-16S2.048 650.8 1.237 642c-1.876-20.332-1.603-45.061.713-64.667 4.02-34.034 5.94-46.55 8.001-52.138 1.19-3.224 3.237-10.662 4.551-16.528 4.298-19.187 9.195-36.697 12.045-43.074a163.43 163.43 0 0 0 4.806-12.26c3.301-9.868 16.199-35.357 19.282-38.107l2.87-2.56-.659 4c-.362 2.2-2.017 9.081-3.679 15.29s-3.166 13.71-3.344 16.668-1.122 10.176-2.098 16.043c-2.638 15.857-2.284 85.953.501 99.333 2.961 14.223 13.57 42.528 21.511 57.39l4.417 8.267 2.256-7.162c1.24-3.939 2.778-8.362 3.416-9.828s1.57-4.767 2.07-7.334c1.001-5.133 5.934-16.423 6.798-15.558.3.299-.66 4.372-2.13 9.05-4.588 14.592-8.089 26.736-8.089 28.06 0 .7.602.9 1.338.445 2.555-1.578 30.002-5.755 31.079-4.73.595.568-1.505 1.5-4.667 2.07l-7.083 1.351c-6.458 1.524-17.843 3.704-19.982 3.827-1.457.084-2.848 1.184-3.09 2.446-.533 2.767 10.143 14.524 16.93 18.645 2.645 1.606 5.109 3.302 5.475 3.768 1.004 1.277 15.747 8.026 16.952 7.76.577-.127 2.848.515 5.048 1.427 9.363 3.882 47.751 6.82 55.583 4.254 2.43-.796 9.817-1.98 16.417-2.63 8.43-.832 16.554-2.82 27.304-6.684 8.417-3.026 16.545-5.5 18.061-5.5 3.03 0 48.595-29.621 51.302-33.35.367-.505 3.367-2.608 6.667-4.673 11.518-7.207 29.665-24.235 63.92-59.978 10.542-11 21.208-22.7 23.703-26L388.68 517c4.807-6.461 8.462-8.189 8.462-4 0 1.283-1.742 7.733-3.87 14.333s-4.308 14.088-4.84 16.64c-1.417 6.782-9.332 23.545-11.759 24.903-1.238.693-2.325 3.6-2.672 7.146-.97 9.913-2.145 13.112-12.973 35.311-17.815 36.529-40.166 75.584-50.466 88.184-1.88 2.302-6.72 8.893-10.753 14.647-10.722 15.298-40.67 44.523-60.667 59.202-4.4 3.23-10.482 8.093-13.515 10.807-9.422 8.432-35.634 24.07-38.5 22.97-1.016-.39-2.117.623-2.637 2.427-.49 1.703-3.596 11.797-6.9 22.43l-22.632 75c-.364 1.283-1.286 2.333-2.049 2.333s-1.055-.862-.65-1.916zM112.42 658.756c1.92-3.106 8.417-30.969 7.785-33.385-.467-1.786-1.814-2.704-3.964-2.704-1.831 0-2.896-.584-2.432-1.334 1.48-2.396 7.175-1.453 8.726 1.445 1.103 2.061 1.07 4.554-.128 9.666C119.582 644.51 114.253 660 112.93 660c-.703 0-.933-.56-.51-1.244zm143.641-58.418c.459-2.385 2.446-2.822 23.081-5.08 8.898-.974 12.8-1.325 27.251-2.453 15.213-1.188 9.745 1.55-6.625 3.316-7.678.828-14.86 1.965-15.96 2.525s-6.369 1.116-11.709 1.236-11.235.796-13.099 1.505c-2.882 1.096-3.321.94-2.939-1.05zm117.081-12.418c0-.776.6-1.04 1.333-.588s1.334 1.089 1.334 1.412-.6.588-1.334.588-1.333-.635-1.333-1.412zm6.243-.03c1-1 3.233-1.044 7.267-.143l5.823 1.3-7.266.143c-5.213.102-6.86-.266-5.824-1.3zm19.45-.815c1.296-.338 3.096-.316 4 .05s-.16.641-2.36.614-2.938-.326-1.64-.664zm-328.36-13.32c0-1.745.412-2.614 16.838-35.495 2.945-5.896 5.923-9.864 8.505-11.333 2.186-1.244 3.978-2.813 3.982-3.488s1.756-5.175 3.89-10l4.66-10.773c.426-1.1 1.291-2.9 1.922-4s2.263-4.314 3.628-7.142 2.675-4.558 2.913-3.846c.5 1.503-10.793 28.408-13.942 33.214-1.6 2.442-1.747 3.622-.594 4.776 2.44 2.44 1.783 3.776-1.468 2.987-2.887-.7-10.334 4.137-10.334 6.713 0 1.435-15.854 33.965-18.16 37.261-1.012 1.447-1.84 1.953-1.84 1.126zm196-1.67c0-.685.566-2.733 1.257-4.55 1.224-3.22 1.146-3.273-3-2.045-8.032 2.378-32.728 1.56-42.923-1.422-10.658-3.118-25.265-12.438-30.737-19.613-5.066-6.641-15.903-27.824-18.31-35.79-5.486-18.146-6.71-26.753-6.735-47.333-.013-11.366.395-23.066.907-26s1.587-9.831 2.387-15.329c1.75-12.025 12.484-47.451 18.586-61.337 11.45-26.056 32.982-62.43 42.037-71.013 1.734-1.643 3.162-3.648 3.175-4.455.046-2.954 13.427-18.84 25.563-30.348l19.793-19.02c14.832-14.743 49.764-34.494 67.252-38.025 16.428-3.316 35.348-3.767 43.892-1.045 7.375 2.35 19.252 10.422 27.848 18.929 3.855 3.814 7.437 6.802 7.96 6.639s.643.51.265 1.494.507 3.828 1.966 6.318c3.082 5.257 8.518 25.283 7.903 29.117-.23 1.438.59 3.394 1.825 4.345 1.609 1.24 2.64 5.32 3.644 14.397 2.748 24.87.878 44.829-6.637 70.839-2.888 9.994-5.251 18.949-5.251 19.898 0 2.932-11.085 24.174-12.999 24.908-1.23.473-1.539 1.908-.967 4.51.587 2.674-.22 6.12-2.694 11.499-5.828 12.667-9.278 19.013-10.338 19.013-.551 0-1.03 1.35-1.066 3s-1.085 4.869-2.333 7.153l-5.811 10.667c-5.66 10.41-25.614 39.584-35.246 51.534-16.894 20.96-30.768 34.011-49.074 46.163l-10.139 6.734c-5.064 3.366-18.557 9.46-22.848 10.318-3.015.603-4.134 1.84-5.359 5.93-1.388 4.634-3.793 7.12-3.793 3.92zM146.324 524.94c-10.665-9.888-22.831-29.203-27.773-44.09-7.458-22.47-13.258-74.972-9.03-81.736.534-.854.253-1.792-.624-2.084-2.526-.842-1.555-31.012 1.664-51.697 3.81-24.48 8.085-42.14 15.218-62.868 6.88-19.996 14.922-39.492 17.56-42.57.991-1.158 1.803-2.725 1.803-3.482 0-1.557 6.823-16.336 10.347-22.414 1.276-2.2 6.38-11.5 11.344-20.666s12.164-20.912 16-26.1l12.976-17.946c3.3-4.681 8.25-10.881 11-13.778s5-5.723 5-6.28 2.994-4.512 6.654-8.788 6.66-8.445 6.667-9.264c.024-2.966 46.85-52.297 55.498-58.467 1.383-.986 5.814-4.947 9.847-8.802 7.538-7.205 30.797-25.241 32.55-25.241.54 0 5.288-3.2 10.55-7.11l12.864-9.334C349.466.182 361.588 0 494.772 0h145.037l-.079 115c-.06 89.468-.43 114.46-1.666 112.567-19.705-30.183-20.838-31.558-48.895-59.318-24.757-24.495-39.612-36.427-55.718-44.756-4.933-2.551-6.556-4.771-4.442-6.077s-4.219-4.083-9.316-4.083c-2.195 0-6.488-1.274-9.54-2.83-14.627-7.463-31.265-11.314-54.443-12.602-24.95-1.386-52.344 1.86-73.235 8.677-21.301 6.951-78.07 40.384-99.05 58.334-7.91 6.768-17.339 14.582-20.95 17.364s-6.933 6.116-7.38 7.41-1.461 1.951-2.255 1.46c-.837-.516-1.06-.272-.533.581.691 1.119-3.923 11.76-8.165 18.829-.183.305-.673.216-1.087-.199s1.124-4.475 3.42-9.024 3.957-8.488 3.69-8.755c-.414-.413-17.22 17.987-24.64 26.976-6.93 8.398-7.737 9.57-20.947 30.446l-16.923 26.657c-9.892 15.541-24.913 45.38-31.215 62.01-2.084 5.5-4.633 11.007-5.664 12.237-1.271 1.518-1.477 2.947-.639 4.444.816 1.458.45 5.225-1.08 11.096-7.602 29.187-11.073 58.84-10.17 86.89 1.122 34.846 5.124 54.898 13.922 69.753 3 5.067 3.881 8.966 2 8.853-.55-.033-4.369-3.183-8.485-7zM33.809 421.333c.453-.733 1.423-1.333 2.157-1.333s.963.6.51 1.333-1.425 1.334-2.158 1.334-.963-.6-.51-1.334zm10-5.333c0-.733.635-1.333 1.412-1.333s1.04.6.588 1.333-1.089 1.333-1.412 1.333-.588-.6-.588-1.333zm106.186-14.267c.497-1.98 3.291-8.73 6.21-15l19.926-42.066c.831-1.467 2.575-4.767 3.875-7.334s2.387-3.945 2.416-3.062c.068 2.05-2.53 8.107-5.316 12.396-1.19 1.833-2.976 5.433-3.967 8s-3.796 8.989-6.233 14.271-4.43 9.93-4.43 10.326c0 1.166-12.285 26.07-12.86 26.07-.289 0-.118-1.62.379-3.6zM30.475 326.95c0-.608.75-2.03 1.667-3.158 2.503-3.082 30.467-23.594 56.936-41.764 12.698-8.717 13.397-9.115 13.397-7.625 0 .675-7.65 6.521-17 12.992s-19.7 13.907-23 16.525-6.995 5.356-8.212 6.086-7.066 5.09-13 9.689-10.788 7.863-10.788 7.255zm158.667-9.46c0-.734.6-1.704 1.333-2.158s1.334-.224 1.334.51-.6 1.704-1.334 2.157-1.333.224-1.333-.51zm19.414-40.066c.506-1.783 2.09-5.083 3.522-7.333 2.324-3.653 2.506-3.734 1.69-.759-.504 1.834-2.09 5.134-3.523 7.334-2.29 3.512-2.496 3.604-1.689.758zm11.253-21.848c0-1.43 5.257-11.577 5.998-11.577.783 0-2.018 6.532-4.271 9.963-.95 1.447-1.727 2.173-1.727 1.614zm14.666-30.989c0-1.143.61-1.702 1.355-1.241s1.01 1.396.588 2.078c-1.143 1.85-1.943 1.505-1.943-.837zm3.42-4.979c.5-1.315 1.246-2.055 1.656-1.644s.001 1.486-.91 2.39c-1.317 1.308-1.47 1.154-.747-.746zm-165.4-50.296c6.581-6.611 12.173-11.396 12.428-10.634.528 1.584-20.857 22.655-22.992 22.655-.77 0 3.983-5.41 10.564-12.02zm13.98-12.69c0-.877 4.308-5.044 18.564-17.955L121.046 124c2.731-2.567 9.096-8.267 14.145-12.667l14.694-12.981c3.033-2.74 5.896-4.601 6.361-4.136s-.258 1.808-1.607 2.982l-24.763 22.135c-1.535 1.467-6.378 5.642-10.763 9.277s-10.463 9.036-13.507 12c-15.485 15.079-19.132 18.13-19.132 16.012zm75.41-68.185a244.42 244.42 0 0 1 11.153-9.77l11.256-9.447c3.032-2.63 6.714-5.184 8.18-5.677 3.101-1.042.904.993-19.214 17.79-14.15 11.816-20.722 15.92-11.374 7.104zm37.257-30.265c4.938-4.371 8.667-6.612 8.667-5.206 0 1.003-1.53 2.11-9.334 6.761-2.738 1.632-2.62 1.355.667-1.555z" fill="#faf8f6"/></svg>