<svg xmlns="http://www.w3.org/2000/svg" width="989.54" height="968.741" xmlns:v="https://vecta.io/nano"><path d="M470.501 968.419c-.416-.416-11.184-1.35-23.93-2.074s-26.775-1.876-31.175-2.557-11.3-1.596-15.333-2.033c-30.932-3.355-86.095-20.48-122.2-37.935-34.997-16.92-61.424-33.559-94.831-59.706l-17.698-13.852-20.302 7.934c-24.644 9.63-28.425 10.892-52.969 17.664-32.797 9.049-50.64 12.172-66.667 11.67-10.687-.335-15.262-1.07-19.333-3.105L.73 881.758l-.365-22.97L0 835.816l4.845-9.695c13.2-26.422 35.275-59.869 62.034-93.994l6.506-8.297-4.59-8.37c-16.055-29.277-30.32-77.318-37.917-127.702-10.509-69.693-4.368-151.616 15.74-210 10.026-29.108 11.786-33.548 20.346-51.333 20.145-41.857 47.428-81.047 80.989-116.338 19.758-20.777 65.595-59.067 69.099-57.723.999.384 1.455.113 1.013-.602-.983-1.591 17.65-13.946 41.392-27.445 48.002-27.29 103.283-45.08 161.296-51.903 24.047-2.828 66.873-2.853 92.923-.055 77.436 8.32 142.203 30.447 198.387 67.78 21.696 14.416 42.705 30.679 56.517 43.75l12.6 11.925 9.108-7.666c5.01-4.216 9.708-8.367 10.442-9.224s13.933-12.528 29.333-25.933l42.488-37.803c7.968-7.386 15.063-13.265 15.766-13.063s.955-.155.561-.793 5.032-6.802 12.056-13.7l49.79-50.086L987.742 0l.912 9.248c1.41 14.313 1.07 74.518-.531 93.844-.79 9.533-2.643 26.333-4.118 37.333l-3.37 25.333c-1.898 14.733-14.4 67.34-22.18 93.334-9.597 32.064-30.185 85.108-48.329 124.514-8.616 18.714-8.439 14.84-2.133 46.578 6.134 30.872 8.253 50.031 9.033 81.684 1.803 73.133-12.953 140.157-45.035 204.557-22.775 45.718-47.52 80.162-83.92 116.817-32.751 32.978-59.064 53.52-99.341 77.553-10.79 6.438-46.148 22.906-60.821 28.327-29.544 10.916-65.465 20.511-85.18 22.753-3.3.376-9.6 1.234-14 1.909s-18.284 1.838-30.854 2.586-23.701 1.684-24.736 2.082-2.222.381-2.638-.034zm56.067-21.301c23.067-3.205 55.286-10.26 74.162-16.24 3.666-1.16 15.506-5.627 26.31-9.925 98.083-39.015 173.488-108.126 221.699-203.195 49.523-97.656 62.514-203.827 37.114-303.333l-6.432-25.504c-.522-2.377-6.994-20.78-10.842-30.83-1.334-3.483-2.853-6.333-3.377-6.333s-7.143 6.7-14.712 14.889l-26.427 28.34c-6.967 7.4-15.6 16.913-19.186 21.14l-6.52 7.687 2.804 9.64c4.939 16.984 6.748 26.865 9.001 49.16 2.339 23.143 2 57.974-.742 76.478l-2.116 14.666c-3.937 28.692-17.462 70.921-32.441 101.294-19.483 39.505-36.857 64.24-64.722 92.145-30.064 30.108-56.854 49.388-93.411 67.225-23.423 11.428-33.988 15.296-60 21.97-61.259 15.714-126.12 14.959-184.667-2.152l-20.224-5.774c-4.93-1.136-29.937-11.765-42.434-18.036-23.408-11.747-52.725-31.1-51.099-33.732.477-.772.174-.942-.708-.397-3.014 1.862-39.862-31.19-38.047-34.127.533-.861.326-1.125-.487-.622-1.379.852-10.457-7.823-16.529-15.794-1.676-2.2-3.395-4.3-3.822-4.666-2.032-1.749-13.777-17.939-20.991-28.935-20.99-31.995-39.798-75.797-47.118-109.732-10.828-50.199-12.82-91.368-6.516-134.667 9.217-63.305 32.916-118.476 71.879-167.332 12.321-15.45 33.358-36.87 35.133-35.772.756.467.996.236.532-.515-1.722-2.786 22.784-23.304 46.856-39.231 26.618-17.611 50.818-29.125 83.478-39.716 30.053-9.746 51.122-12.993 92.764-14.298 38.14-1.194 73.169 2.157 101.333 9.694 14.136 3.783 45.1 15.045 55.333 20.125 14.634 7.264 32.504 18.23 31.736 19.473-.454.735-.137.9.716.372 1.504-.93 10.89 5.189 28.215 18.393 15.7 11.967 32.401 26.963 51.038 45.831l18.37 18.6 18.377-25.479 21.398-29.827c1.661-2.392 3.668-3.95 4.458-3.46.857.53 1.051.263.48-.66-.526-.852.247-3.239 1.718-5.304l2.674-3.756-15.59-15.298c-20.181-19.804-28.743-27.48-51.789-46.436-22.934-18.863-74.028-48.983-98.805-58.245-58.452-21.851-97.702-28.449-159.126-26.748-52.655 1.458-83.38 6.773-132.945 22.997-32.854 10.755-79.28 34.23-106.258 53.729-25.683 18.563-63.959 54.337-81.525 76.197-29.637 36.88-52.683 76.661-69.516 120-10.478 26.978-11.16 29.095-17.4 54.092-10.059 40.306-13.559 68.442-13.559 109.057 0 92.726 28.809 178.86 84.807 253.562 23.999 32.014 57.396 65.402 87.193 87.17l13.333 9.876c4.978 3.976 24.843 16.04 40.667 24.697 18.09 9.898 42.892 20.639 66.384 28.75 25.253 8.72 68.98 17.589 102.283 20.745 18.082 1.714 69.809.581 87.838-1.923zm-472.316-78c15.008-3.014 42.581-12.133 78.478-25.953l13.7-5.067c2.401-.81 4.201-1.94 4-2.509-.626-1.766-21.363-25.164-22.303-25.164-.488 0-6.853 3.603-14.143 8.007-21.772 13.152-32.725 15.917-44.458 11.223-7.032-2.814-10.08-9.053-9.01-18.438 1.052-9.23 10.72-28.038 22.15-43.095l9.212-12.133-3.777-5.956c-2.077-3.276-4.326-6.295-4.998-6.71-2.384-1.474-52.636 72.347-62.47 91.769-10.199 20.145-11.2 29.62-3.624 34.298 5.141 3.175 20.648 3.062 37.243-.272zm116.033-20.634c0-1.068-.51-1.627-1.133-1.241s-.787 1.258-.365 1.94c1.078 1.745 1.498 1.549 1.498-.7zm334.445-1.308c55.291-5.62 113.869-29.243 160.886-64.882 20.894-15.839 51.903-48.35 67.909-71.202 12.677-18.099 26.97-44.92 35.689-66.974 5.589-14.137 12.93-35.962 14.25-42.36 8.671-42.067 10.48-60.284 9.573-96.426-.568-22.618-1.478-33.237-4.183-48.811l-3.458-20.617c0-.391-2.908 2.152-6.462 5.653l-6.462 6.365 5.796 15.958c3.187 8.777 5.795 17.003 5.795 18.28 0 2.193-4.847 4.14-30.667 12.325-1.833.581-6.098 2.055-9.478 3.274l-6.146 2.218-.733 23.557c-.403 12.957-1.748 30.318-2.989 38.58s-1.96 15.791-1.6 16.73 9.571 6.336 20.468 11.99l21.636 11.446c1.44.919-.133 4.781-7.464 18.321-5.108 9.437-15.587 29.765-23.285 45.173-13.08 26.181-25.07 48.535-28.032 52.265-.96 1.208-6.883-1.19-23.505-9.511l-22.222-11.126-9.325 9.62c-5.129 5.29-16.755 15.571-25.836 22.845l-19.671 15.891-3.161 2.667 6.564 20c9.663 29.44 10.183 26.878-6.555 32.314l-48 15.632c-28.01 9.131-56.291 17.61-61.809 18.53-.628.105-1.983-2.81-3.011-6.476s-4.383-14.767-7.455-24.667l-5.585-18-22.737-.2c-15.525-.138-27.81-1.04-38.736-2.843-8.8-1.452-16.41-2.261-16.913-1.798s-5.988 10.43-12.192 22.151-12.201 21.89-13.326 22.6c-1.498.944-5.195-.286-13.807-4.598-14.367-7.191-40.638-21.646-53.092-29.212l-9.21-5.595-7.063 3.696c-3.885 2.033-7.064 4.028-7.064 4.435 0 1.07 16.324 11.606 28.186 18.192 32.508 18.05 80.404 32.534 114.48 34.62 7.7.472 14.3 1.166 14.667 1.542.62.636 46.405-.665 55.334-1.572zM99.927 807.185c4.842-3.359 10.483-7.601 12.537-9.428l3.735-3.322-5.938-9.18c-3.266-5.049-6.5-9.526-7.184-9.95s-3.083 1.755-5.328 4.841l-11.51 15.432c-8.503 11.242-9.752 14.144-7.341 17.048 2.92 3.52 11.201 1.377 21.03-5.441zm201.981-37.634c106.41-56.468 208.72-123.56 305.488-200.327l46-37.53c.367-.407 9.967-8.774 21.334-18.594 29.065-25.11 45.612-40.3 79.816-73.27 16.398-15.806 30.348-28.59 31-28.406s1.034-.165.85-.775 12.332-14.559 27.81-31l41.94-45.225c7.586-8.433 14.158-15.495 14.603-15.693 1.891-.843 16.494 36.433 15.394 39.298-.394 1.027-.224 1.563.377 1.191 1.333-.823 5.989 13.404 4.942 15.098-.41.663.23 1.062 1.42.887s2.896-2.372 3.79-4.882 4.501-11.466 8.018-19.899c10.29-24.677 26.838-70.775 33.96-94.602 9.984-33.402 11.768-40.204 16.806-64.065 10.158-48.106 14.55-81.822 16.116-123.737l.913-24.403-29.878 29.868c-34.138 34.127-48.222 47.193-86.544 80.29-65.7 56.742-62.867 54.121-61.057 56.476.919 1.195 5.124 5.936 9.346 10.536 10.916 11.895 10.937 12.553.844 27.008-33.707 48.277-73.239 97.52-117.886 146.845-35.821 39.573-141.05 138.633-144.803 136.313-.647-.4-1.012-.17-.81.51 1.123 3.794-81.31 68.202-140.3 109.623-23.983 16.839-93.899 63.501-109.334 72.97l-55.865 34.562c-1.156.923 7.42 11.685 14.44 18.121 6.511 5.97 21.986 17.018 23.836 17.018.366 0 12.711-6.392 27.434-14.206zm-71.007-39.965c6.139-3.395 16.94-9.881 24-14.415l12.838-8.243-3.887-4.585c-7.174-8.462-14.625-19.999-19.373-29.997-2.592-5.457-5.095-9.922-5.564-9.921s-4.061 1.22-7.983 2.71c-6.179 2.35-35.758 10.622-37.975 10.622-.435 0-1.438-2.55-2.229-5.666s-5.286-16.767-9.99-30.334c-15.064-43.455-28.18-87.793-26.416-89.306 1.382-1.186 43.889-14.694 46.239-14.694 1.387 0 1.948-5.466 2.565-25 .434-13.75 1.712-30.4 2.84-37 2.857-16.721 2.829-16.917-2.913-20.092l-21.99-11.944c-9.35-5.052-17-9.653-17-10.226 0-5.26 56.771-115.738 59.474-115.738 2.319 0 17.522 8.8 16.911 9.789-.442.716-.104.862.76.328s6.818 2.047 13.388 5.807l11.83 6.77 3.818-3.266c2.1-1.796 11.619-9.652 21.152-17.459s21.309-18.035 26.167-22.731l8.833-8.538-5.175-15.683c-6.344-19.221-9.7-30.955-9.01-31.5 2.791-2.21 123.688-40.216 124.602-39.17.154.176 1.83 6.32 3.723 13.653s5.111 18.252 7.151 24.262l3.71 10.929 24.666.695c21.559.607 39.482 2.507 50.667 5.37 2.975.76 3.648.166 6.263-5.535 4.821-10.51 20.512-39.054 21.469-39.054 3.382 0 108.182 54.293 114.713 59.43.556.437-19.567 40.79-21.17 42.452-.687.712 3.356 6.15 9.777 13.151 18.387 20.049 20.639 22.72 25.205 29.903 2.425 3.815 4.957 6.965 5.626 7 2.368.125 24.215-23.413 31.214-33.628l7.097-10.359-3.387-4.025c-17.939-21.319-47.555-49.415-69.5-65.935-22.922-17.253-56.843-35.438-80.64-43.232-16.905-5.536-46.247-12.051-64-14.211-24.621-2.996-71.08-2.017-94 1.98-52.086 9.084-91.725 24.551-132.22 51.595-15.164 10.126-29.182 20.74-31.298 23.698-.468.654-1.668.716-2.667.138s-1.36-.55-.805.062c1.408 1.551-19.271 22.162-21.413 21.342-.955-.365-1.385-.095-.955.6s-5.606 9.169-13.412 18.832c-17.99 22.273-26.626 35.662-38.617 59.874-14.127 28.524-22.852 54.11-29.267 85.823-8.672 42.866-7.842 101.016 1.99 139.51 8.73 34.175 21.825 64.328 41.691 96 8.515 13.574 30.144 45.333 30.874 45.333.242 0 5.463-2.777 11.603-6.171zm282.495-56.103c36.918-10.55 64.646-28.71 84.832-55.56 5.971-7.942 16.502-27.259 16.502-30.27 0-.823-3.258 1.48-7.24 5.12-10.775 9.848-26.525 21.892-56.867 43.484-41.918 29.832-55.807 40.075-55.852 41.192-.047 1.169 2.718.58 18.625-3.966zm-125.759-45.738c42.008-30.427 75.071-55.47 108.426-82.125l38.013-30.716c1.473-1.363 9.85-8.779 18.613-16.479s26.12-23.949 38.569-36.108l22.634-22.109-3.153-5.225c-11.178-18.525-33.62-41.708-52.959-54.71-19.842-13.34-38.33-20.216-64.384-23.948-69.194-9.913-133.74 25-165.347 89.433-14.008 28.559-18.979 49.034-18.934 78 .068 44.238 16.745 80.977 49.408 108.846 5.47 4.668 10.114 8.488 10.318 8.488s8.662-6.006 18.796-13.347z" fill="#faf8f6"/></svg>