<svg xmlns="http://www.w3.org/2000/svg" width="143.216" height="495" xmlns:v="https://vecta.io/nano"><path d="M83.627 481.75c-.054-17.387-2.992-31.216-9.935-46.75-3.713-8.306-12.385-35.327-15.473-48.207-1.094-4.561-1.992-10.833-1.995-13.938s-.871-8.504-1.926-12c-3.33-11.028-4.23-17.536-4.028-29.11.109-6.184-.12-17.32-.51-24.745-.419-7.982-.31-15.237.268-17.75.587-2.555.608-4.25.054-4.25-.507 0-3.597 1.35-6.865 3s-6.804 3-7.855 3c-2.143 0-3.72-4.027-1.995-5.093.711-.44.614-.819-.287-1.12-1.087-.361-1.351-4.093-1.304-18.37.032-9.854.305-20.842.607-24.417.74-8.778.603-8.997-5.234-8.306-6.037.715-8.3-.74-7.416-4.77.402-1.83.135-3.036-.796-3.59-1.922-1.144-2.874-5.444-1.556-7.032.778-.938.767-1.302-.042-1.302-.617 0-1.122-.9-1.122-2s.505-2 1.122-2c.776 0 .738-.464-.122-1.5-1.609-1.938.288-4.486 3.372-4.53 1.926-.028 1.962-.128.378-1.05-.963-.56-1.78-2.01-1.818-3.22-.067-2.188-.073-2.188-1.076-.123-.898 1.85-1.381 1.96-4.432 1.005C9.865 202.401 9.093 201 12.217 201c1.1 0 2-.45 2-1 0-1.432-5.361-1.237-6.863.25-1.01 1.001-1.472.878-2.316-.62-.853-1.512-1.224-1.607-1.938-.5-.738 1.144-1.046 1.123-1.868-.13-1.761-2.683-1.593-13.555.245-15.797 1.652-2.017 2.679.396 2.892 6.797.136 4.08.283 4.569.568 1.892l.383-3.607 7.6-.643c4.179-.353 9.555-.642 11.948-.642s4.349-.45 4.349-1-1.692-1-3.76-1c-2.746 0-4.116-.57-5.082-2.118-.975-1.56-1.617-1.824-2.44-1-.615.615-2.17 1.118-3.454 1.118-2.122 0-2.222-.205-1.093-2.25 1.042-1.888 1.298-1.978 1.598-.555.209.995.947 1.468 1.788 1.145.787-.302 1.252-.84 1.033-1.195s8.105-.635 18.5-.623c16.396.02 19.163.25 20.903 1.74 2.207 1.89 2.54 3.29 1.007 4.238-.55.34-1 4.417-1 9.06 0 7.773-.158 8.44-2 8.44-1.306 0-2 .667-2 1.92 0 1.952-.654 2.205-9.5 3.677-5.556.925-5.553.919-3.32 5.54 1.915 3.964 4.412 22.096 3.292 23.908-.507.82 3.187 28.948 3.894 29.655.649.649 5.8-5.96 7.149-9.171.699-1.666 1.987-5.504 2.863-8.529 1.992-6.885 9.103-19.52 16.302-28.97 3.03-3.976 7.977-10.855 10.995-15.287 5.289-7.768 5.472-8.26 5.095-13.65-.215-3.076-.75-6.38-1.188-7.343-.649-1.426-.308-1.75 1.842-1.75 1.485 0 2.904.693 3.246 1.584.334.871.883 1.165 1.219.654.88-1.34 6.45-2.598 5.631-1.271-.967 1.565 2.428 2.496 3.797 1.04.91-.968.908-1.358-.011-1.697-.657-.241-1.029-.973-.827-1.625s.648-4.39.992-8.305l.624-7.12-2.535.484c-2.989.571-4.479-1.932-2.54-4.268 1.095-1.32 1.396-1.29 2.53.262 1.185 1.62 1.338 1.555 1.938-.835.358-1.427.507-7.186.331-12.797-.306-9.772-.235-10.182 1.68-9.726 1.1.262 4.25.761 7 1.11 6.874.869 13.193 3.268 13.982 5.31.796 2.058.722 29.507-.086 31.612-.6 1.566-4.353 2.993-10.645 4.05-2.063.345-3.75 1.058-3.75 1.583s-.615.955-1.365.955c-2.908 0-6.37 3.94-7.016 7.982-.848 5.301.626 7.462 9.972 14.62 6.847 5.245 7.895 6.463 7.502 8.722-.078.454.271.569.777.256s1.192.14 1.525 1.008c1.012 2.638.685 15.412-.395 15.412-.55 0-.993 1.013-.985 2.25.012 1.83.2 1.97 1.003.75.684-1.037.955 1.43.879 8-.064 5.451-.598 10.115-1.254 10.942-.88 1.11-.856 1.27.107.691.975-.586 1.25 2.217 1.25 12.759 0 14.44-1.328 23.413-3.592 24.282-.768.294-1.178.89-.91 1.324s-.118 2.525-.858 4.646-1.65 7.231-2.022 11.356c-.846 9.38-2.973 17.579-4.476 17.25-.628-.137-1.142.227-1.142.81s-.563.72-1.25.307c-.807-.484-.75-.134.161.988 1.11 1.368 1.588 1.463 2.235.442.661-1.042.826-1.045.838-.016.02 1.7-3.252 2.917-3.758 1.399-.698-2.094-2.058-1.252-1.49.922.323 1.232-.027 2.468-.843 2.985-1.087.689-.972.886.523.898 1.054.008 1.62.311 1.259.673s-.227 1.178.3 1.813c1.115 1.342.182 8.53-1.106 8.53-.478 0-.87.75-.87 1.666s.298 1.37.66 1.006c1.006-1.005 3.558 3.166 2.744 4.483-.416.673-.275.883.337.504 1.624-1.003 2.451 2.393 1.027 4.217-1.112 1.424-1.064 1.464.394.325 1.117-.874 1.873-.956 2.309-.25.879 1.422 4.85 1.327 6.33-.152.66-.66 1.2-2.46 1.2-4 0-2.1.482-2.8 1.93-2.8 1.618 0 1.81.444 1.19 2.75-1.097 4.073-.321 6.449 1.877 5.751 2.595-.824 3.567 1.356 1.353 3.034-1.714 1.298-1.721 1.404-.1 1.433 2.95.054 1.968 1.786-2.92 5.15-4.547 3.127-4.607 3.235-2.279 4.097 4.534 1.677 4.832 5.296.344 4.17-1.434-.36-4.452.129-7.147 1.158l-4.664 1.781-2.042-2.886c-3.207-4.53-9.542-10.882-9.542-9.566 0 .655.722 1.468 1.606 1.807 1.365.524 1.513 1.83.987 8.719-1.713 22.416-1.72 26.023-.068 35.015 1.705 9.279 6.809 26.946 9.127 31.593 3.366 6.746 5.656 25.978 3.098 26.01-.896.01-.855.265.143.897 1.665 1.054 2.965 8.236 3.047 16.837l.06 6.25h-35.55zm21.396-24.276c-.307-.308-.867.247-1.242 1.233-.543 1.425-.428 1.54.56.56.683-.679.99-1.486.682-1.793zm-8.291-4.45c-.285-.46-1.505-.578-2.713-.262-2.088.546-2.1.609-.249 1.28 2.182.793 3.748.255 2.962-1.017zm12.485-11.417c0-.216-.699-.661-1.552-.989-.89-.341-1.292-.173-.941.394.587.95 2.493 1.405 2.493.595zm-40-30.048c0-.242-.45-.719-1-1.059s-1-.141-1 .441.45 1.06 1 1.06 1-.2 1-.442zm26-7.166c0-.216-.675-.393-1.5-.393s-1.5.436-1.5.969.675.71 1.5.393 1.5-.753 1.5-.969zm-29-18.393c0-.55-.45-1-1-1s-1 .45-1 1 .45 1 1 1 1-.45 1-1zm13-8c0-.55-.45-1-1-1s-1 .45-1 1 .45 1 1 1 1-.45 1-1zm37-4.5c-.685-.825-1.626-1.5-2.091-1.5s-.588.675-.271 1.5 1.258 1.5 2.091 1.5c1.234 0 1.284-.279.27-1.5zm2.885-4.592c-2.038-1.29-2.457-1.118-2.457 1.013 0 1.584.336 1.74 1.921.892 1.556-.833 1.657-1.195.536-1.905zm-3.279-.433c.119-.807-.194-1.72-.695-2.03s-.911.664-.911 2.163c0 2.728 1.2 2.63 1.606-.133zm7.162-4.475c1.408-2.256.612-2.475-3.42-.943-2.226.847-2.488 1.243-1.315 1.985 2.223 1.406 3.362 1.155 4.735-1.042zm-30.768-40.059c0-.518-.45-.941-1-.941s-1 .702-1 1.56.45 1.28 1 .94 1-1.041 1-1.559zM94.776 321c1.451 0 2.291-.433 1.94-1-.34-.55-.093-1 .549-1 .661 0 .898.697.547 1.611-.435 1.135-.186 1.446.842 1.051.98-.376 1.278-.083.905.889-1.242 3.237 3.23.89 5.08-2.666.683-1.312 1.786-2.266 2.452-2.12.924.2.944-.235.087-1.836-.618-1.155-1.38-1.844-1.694-1.53-1.53 1.53-3.075-3.28-2.66-8.286.469-5.684 1.06-7.436 2.26-6.695.4.247 1.382.037 2.18-.469 1.125-.711.925-.922-.885-.934-2.185-.014-2.295-.293-1.684-4.265 1.495-9.717 1.77-10.714 2.786-10.087.608.376.746.164.331-.508-.392-.635-.362-1.717.067-2.405 1.075-1.72 1.295-3.312 1.416-10.25.153-8.773.06-9.343-1.17-7.229-.567.974-1.196 2.625-1.397 3.668s-2.153 6.332-4.339 11.753-4.478 11.73-5.094 14.018c-.922 3.423-1.605 4.227-3.85 4.533l-2.728.371 2.75 1.168c2.34.995 2.75 1.758 2.75 5.134 0 2.181-.498 4.274-1.107 4.65-.772.477-.696.949.25 1.559 1.13.729 1.114 1.031-.096 1.81-.798.513-1.81.711-2.25.44s-.812.321-.83 1.316-.617 2.58-1.334 3.524c-1.038 1.367-1.585 1.468-2.692.5-.763-.668-.613-.28.335.864 2.08 2.509 2.223 3.827.337 3.103-.957-.367-1.238.037-.908 1.3.46 1.762.553 1.76 2.387-.074 1.05-1.05 3.06-1.908 4.467-1.908zm2.255 2.65c1.44.46 1.467.382.186-.54-2.153-1.549-3.012-1.36-2.921.64.043.963.297 1.213.564.556s1.244-.951 2.171-.655zm-14.814-1.18c0-.84-.605-1.175-1.5-.832-.825.317-1.5.078-1.5-.531S78.809 320 78.31 320s-.695.806-.438 1.792c.556 2.124 4.345 2.714 4.345.677zm3.312-1.557c-.782-.783-1.275-.783-1.759 0-.37.598-.168 1.087.447 1.087s.8.563.412 1.25c-.565 1-.436 1 .64 0 .97-.9 1.043-1.554.26-2.337zm-12.792-.893c-.219-2.963-1.063-3.272-1.295-.472-.112 1.348.167 2.452.619 2.452s.756-.89.676-1.98zm38.075.826c.442-.716.274-.884-.44-.441-.636.392-1.155.162-1.155-.513s-.27-.955-.6-.625c-.573.572.297 2.733 1.1 2.733.21 0 .703-.52 1.095-1.154zM78.9 316.813c-.32-.798-.556-.561-.604.604-.044 1.054.192 1.645.525 1.312s.368-1.195.079-1.916zM86.217 318c0-.55-.199-1-.441-1s-.72.45-1.06 1-.14 1 .442 1 1.059-.45 1.059-1zm-25.194-2.526c-.307-.308-.867.247-1.242 1.233-.543 1.425-.428 1.54.56.56.683-.679.99-1.486.682-1.793zm16.598-16.628c-.4-.647-.278-.886.277-.543.544.337 2.301.22 3.904-.26l2.915-.871-3.5-.097c-1.925-.053-5.188-.376-7.25-.717-2.488-.411-3.75-.24-3.75.511 0 .622 1.098 1.131 2.44 1.131s2.72.45 3.06 1 1.068 1 1.618 1 .679-.52.286-1.154zm37.541-17.577c2.072.24 4.282.754 4.911 1.142.657.406 1.144.091 1.144-.74 0-.797-.563-1.428-1.25-1.402-4.359.162-5.75-.388-5.75-2.269 0-1.13-.667-2-1.532-2-1.548 0-2.38 1.334-2.916 4.672-.393 2.446.801 4.332 1.263 1.995.295-1.487 1.073-1.75 4.13-1.398zm-34.945-.769c0-.825-.436-1.5-.969-1.5s-.71.675-.393 1.5.752 1.5.969 1.5.393-.675.393-1.5zm32.345-8.043c-.326-.849-.807-1.329-1.07-1.067s-.18.957.183 1.544c.987 1.595 1.563 1.285.887-.477zm5.569-2.624c-.586-.773 2.261-4.842 3.048-4.356 1.472.91.525-2.28-1.264-4.258-2.257-2.493-2.146-3.57.302-2.93 1.1.288 2 .116 2-.383s-1.377-.906-3.06-.906c-1.948 0-2.814-.395-2.387-1.087.37-.598 1.488-.874 2.485-.613 1.17.306 1.641.029 1.33-.784-.266-.692.326-2.067 1.315-3.057 1.478-1.477 1.543-1.884.364-2.276-2.618-.873-6.044-5.03-5.44-6.602.525-1.37.746-1.37 2.109-.008.837.837 1.773 1.271 2.08.964.643-.643-2.803-3.457-4.296-3.508-.55-.018-1.067-2.552-1.149-5.63s-.71-6.114-1.397-6.747c-.944-.872-1.087-.865-.585.029.365.65.199 1.468-.37 1.819s-.73 1.127-.361 1.724c.41.664.203.796-.536.34-.784-.485-1.616.337-2.374 2.345-.642 1.7-1.518 3.091-1.948 3.091-1.053 0-.983-.754.295-3.141.977-1.826.885-1.908-1-.9-1.141.611-2.082 1.883-2.09 2.826-.014 1.483-.157 1.512-1.054.215-.856-1.236-.982-1.149-.713.5.26 1.586.996 1.948 3.554 1.747 1.866-.147 3.228.219 3.228.866 0 .639.885.889 2.06.581 2.416-.631 3.957 2.06 1.906 3.327-1.602.99-2.076 5.027-.781 6.654.514.646 1.073 2.221 1.243 3.5s.64 3.115 1.048 4.08.561 3.296.341 5.18-.049 3.208.38 2.943.502.241.163 1.125-1.571 1.532-2.738 1.441c-4.053-.316-4.1.273-.122 1.528 3.628 1.145 5.098 1.265 4.414.361zM112.217 236c0-1.867.266-2.133 1.2-1.2s.933 1.467 0 2.4-1.2.667-1.2-1.2zm-75.271 7.396c-.333-.332-1.195-.368-1.917-.079-.798.32-.56.556.604.604 1.054.044 1.645-.193 1.313-.525zm65.62-10.928c-.793-2.067-1.35-1.824-1.35.591 0 1.133.43 1.793.957 1.468s.703-1.252.393-2.059zm13.15-7.468c-.34-.55-1.04-1-1.558-1s-.941.45-.941 1 .701 1 1.559 1 1.28-.45.94-1zm6.516-3.954c-2.796-2.148-3.348-2.078-2.432.31.347.905 1.595 1.634 2.774 1.622 2.074-.022 2.063-.084-.342-1.932zm-4.015-1.487c0-1.342-.45-2.719-1-3.059s-1-.141-1 .441-.675 1.059-1.5 1.059c-1.523 0-2.052 2.115-.834 3.333.367.367 1.492.667 2.5.667 1.277 0 1.834-.74 1.834-2.44zm-22.86-17.814c3.313-2.815 4.542-8.26 2.064-9.141a34.96 34.96 0 0 1-2.82-1.143c-.707-.34-1.362 1.315-1.787 4.513-.368 2.778-.926 5.72-1.24 6.538-.822 2.14.735 1.825 3.784-.767zm-56.6-5.678c-.362-.587-1.42-1.015-2.35-.95-1.524.104-1.518.16.06.572.962.252 1.75.95 1.75 1.551s.27.823.6.493.303-1.08-.06-1.666zm10.46.433c0-.825-.45-1.5-1-1.5s-1 .675-1 1.5.45 1.5 1 1.5 1-.675 1-1.5zm-6.85-8c0-.522-.484-1.111-1.075-1.308s-1.075.391-1.075 1.308.483 1.505 1.075 1.308 1.075-.785 1.075-1.308zm6.85 0c0-.825-.675-1.5-1.5-1.5-1.562 0-1.984 1.183-.834 2.333s2.334.729 2.334-.833zm6 0c0-.825-.45-1.5-1-1.5s-1 .675-1 1.5.45 1.5 1 1.5 1-.675 1-1.5zm-.271-3.104c-.333-.332-1.195-.368-1.917-.079-.798.32-.56.556.604.604 1.054.044 1.645-.193 1.313-.525zm-22.48-2.058c-.687-.278-1.812-.278-2.5 0s-.124.504 1.25.504 1.938-.227 1.25-.504zm4.48.058c-.333-.332-1.195-.368-1.917-.079-.798.32-.56.556.604.604 1.054.044 1.645-.193 1.313-.525zm79.954-8.583c-.32-.798-.556-.561-.604.604-.044 1.054.192 1.645.525 1.312s.368-1.195.079-1.916zm9.067-12.36c1.676-.523 1.59-3.925-.135-5.357-1.103-.915-1.509-.657-1.992 1.267-.333 1.329-1.384 2.715-2.334 3.08s-1.42.355-1.044-.022.225-1.542-.336-2.59c-1.49-2.785-.163-6.13 2.188-5.516 1.048.274 1.653.09 1.345-.408-1.058-1.712-3.14-.902-6.789 2.641-4.195 4.074-4.744 7.104-1.403 7.743 2.182.417 7.959-.043 10.5-.837zM89.985 180c-1.322-2.116-3.768-2.727-3.768-.94 0 .582.45.78 1 .44s1-.141 1 .441-1.068 1.06-2.373 1.06c-2.006 0-2.474-.637-3.031-4.125l-.66-4.124-4.718.503c-2.595.276-5.558.85-6.584 1.275-1.597.661-1.773.427-1.222-1.629l.643-2.4-1.65 2.25c-3.184 4.342-8.564 2.027-9.877-4.25l-.627-3 1.396 3c1.52 3.265 4.418 6.117 5.31 5.225.308-.308-.378-1.497-1.524-2.643-2.32-2.32-2.751-5.645-.833-6.423.972-.395.95-.718-.104-1.457-1.037-.727-1.096-1.43-.25-3.01.607-1.134 1.104-2.568 1.104-3.186 0-1.895-2.116.055-3.649 3.363l-1.45 3.13.627-3c.345-1.65 1.337-3.787 2.204-4.75 1.978-2.194 8.155-2.282 14.127-.203 7.017 2.444 8.14 1.54 8.14-6.555 0-3.78.338-7.08.75-7.331s3.676-.616 7.25-.81l6.5-.351-.118 12c-.262 26.434-.266 26.482-1.881 25.862-.825-.317-1.5-.078-1.5.531S94.918 180 95.776 180s1.28.45.94 1c-1.072 1.736-5.427 1.089-6.731-1zm-17.768-15.559c0-.857-.458-1.276-1.017-.93s-.757 1.046-.44 1.558c.857 1.387 1.457 1.129 1.457-.628zm20.773-2.262c.334-1.002-.467-1.148-3.418-.623-5.71 1.017-6.731 2.609-1.437 2.24 2.517-.176 4.607-.872 4.855-1.617zM69.217 156c0-.55-.45-1-1-1s-1 .45-1 1 .45 1 1 1 1-.45 1-1zm13.539-20.347c-1.715-1.255-1.528-1.565 2.71-4.48 3.784-2.604 4.653-2.87 5.148-1.58.753 1.964-.87 5.055-3.355 6.384-2.396 1.283-2.295 1.29-4.503-.324zm26.46-.653c0-1.727.667-2 4.894-2 4.466 0 6.107.962 6.107 3.582 0 .23-2.475.418-5.5.418-4.834 0-5.5-.242-5.5-2zm16.024-.044c.962-1.798 1.902-2.01 7.775-1.75 5.428.239 6.744.622 7.015 2.044.295 1.55-.592 1.75-7.775 1.75-7.858 0-8.075-.063-7.015-2.044zM99.217 132c0-2.889.416-4 1.5-4s1.5 1.111 1.5 4-.417 4-1.5 4-1.5-1.111-1.5-4zm10-5v-5h4.565c6.033 0 8.435 1.377 8.435 4.835 0 4.007-1.727 5.165-7.7 5.165h-5.3zm-26.532 2.948c-1.23-1.99.569-6.012 3.125-6.983 2.26-.86 6.407.126 6.407 1.522 0 .23-1.997 1.79-4.438 3.47-2.797 1.924-4.68 2.66-5.094 1.991zm45.532.61c0-.244.956-2.065 2.126-4.047l2.126-3.604 2.374 3.494c1.305 1.92 2.374 3.742 2.374 4.046s-2.025.553-4.5.553-4.5-.2-4.5-.443zm-33-6.058c0-1.167 1.333-1.5 6-1.5s6 .333 6 1.5-1.334 1.5-6 1.5-6-.333-6-1.5zm-4.112-5c-1.437-.78-3.15-2.718-3.808-4.306-1.144-2.76-.652-7.722.857-8.655.394-.244 3.574 2.441 7.068 5.966l6.351 6.409-2.743 1.043c-3.514 1.336-4.539 1.275-7.725-.457zm14.112-8c0-9.467.009-9.5 2.5-9.5s2.5.033 2.5 9.5-.01 9.5-2.5 9.5-2.5-.033-2.5-9.5zm14 0c0-9.467.009-9.5 2.5-9.5s2.5.033 2.5 9.5-.01 9.5-2.5 9.5-2.5-.033-2.5-9.5zm8 0c0-9.467.009-9.5 2.5-9.5s2.5.033 2.5 9.5-.01 9.5-2.5 9.5-2.5-.033-2.5-9.5zm6.666 8.833c-.366-.366-.666-1.491-.666-2.5 0-1.533.818-1.833 5-1.833 4.666 0 5 .167 5 2.5 0 2.282-.378 2.5-4.334 2.5-2.383 0-4.633-.3-5-.667zm-21.666-8.833c0-3.067.31-3.5 2.5-3.5s2.5.433 2.5 3.5-.31 3.5-2.5 3.5-2.5-.433-2.5-3.5zm22 0c0-2 .5-2.5 2.5-2.5s2.5.5 2.5 2.5-.5 2.5-2.5 2.5-2.5-.5-2.5-2.5zm-40.86-3.856l-3.253-3.355 3.057-1.266c2.444-1.012 3.656-1.017 6.056-.023 3.693 1.53 3.708 1.947.195 5.313l-2.804 2.686zm40.04-2.894c.273-1.92 1.016-2.295 5.07-2.555 4.506-.289 4.75-.174 4.75 2.25 0 2.404-.3 2.555-5.07 2.555-4.685 0-5.045-.17-4.75-2.25zm-58.283-6.02c-10.198-6.813-7.993-20.658 3.853-24.193l2.25-.672v13.568c0 15.05-.13 15.288-6.103 11.297zm8.103-11.678V74.104l2.974 1.037c1.636.57 4.336 2.588 6 4.483 5.093 5.8 3.644 14.807-3.014 18.74-5.722 3.38-5.96 2.928-5.96-11.312zm15 10.448c0-2.454.144-2.5 7.84-2.5 7.39 0 7.904.143 8.978 2.5l1.139 2.5h-8.979c-8.91 0-8.978-.019-8.978-2.5zm0-12V78h7.777c9.963 0 12.223 1.369 12.223 7.402 0 6.392-1.878 7.598-11.83 7.598h-8.17zm1-20.5c0-8.933.018-9 2.5-9s2.5.067 2.5 9-.019 9-2.5 9-2.5-.067-2.5-9zm11.354 6.628c-2.15-1.85-2.735-3.194-2.652-6.104.091-3.228 1.745-6.779 2.53-5.434.148.251 2.743 3.05 5.768 6.219 4.5 4.715 5.227 5.935 4 6.711-2.623 1.66-6.8 1.057-9.646-1.392zm3.178-10.594l-2.841-2.966 2.72-1.034c3.427-1.303 3.925-1.294 7.065.137l2.57 1.171-2.71 2.83c-1.491 1.555-2.992 2.828-3.336 2.828s-1.905-1.335-3.468-2.966zm-44.866-6.7c-.366-.367-.666-4.894-.666-10.06V34.88l5 4.216c4.948 4.173 5 4.276 5 10.06v5.843h-4.334c-2.383 0-4.633-.3-5-.667zm10.334-5.218c0-5.596.195-6.06 4.002-9.5 2.202-1.989 4.227-3.616 4.5-3.616s.498 4.275.498 9.5V55h-9zM91.876 52c1.754-2.97 1.86-3 10.53-3 8.721 0 8.766.013 10.31 3l1.552 3H90.104zm24.34-3.43c0-6.374.077-6.57 2.548-6.57 2.49 0 2.541.14 2.25 6.25-.267 5.614-.527 6.283-2.547 6.57-2.138.303-2.25-.01-2.25-6.25zm-17.702-7.05c1.761-3.014 3.428-5.48 3.703-5.48s1.94 2.466 3.702 5.48l3.203 5.48H95.311zm11.703-4.02c0-2.47.1-2.5 8.5-2.5s8.5.03 8.5 2.5-.1 2.5-8.5 2.5-8.5-.03-8.5-2.5zm-53.966-4.83c-4.24-1.432-8.034-6.754-8.034-11.27 0-3.326 1.78-8.4 2.948-8.4.98 0 17.052 16.077 17.052 17.057 0 2.475-7.512 4.116-11.966 2.613zM73.217 22V11h9v22h-9zm12.044.25l.045-10.75 4.527 5 9.554 10.75 5.027 5.75H85.217zm22.956-.25V11h6v22h-6zm8 7.948v-3.052l5.25.302c4.896.282 5.27.487 5.566 3.052.312 2.709.233 2.75-5.25 2.75-5.54 0-5.566-.015-5.566-3.052zm-16.38-5.366c-2.99-3.65-3.62-5.215-3.62-9V11h8v9c0 4.95-.171 9-.38 9s-2.009-1.988-4-4.418zM116.217 22c0-2.667.333-3 3-3s3 .333 3 3-.334 3-3 3-3-.333-3-3zm-58.82-7.316c-4.22-4.3-4.227-4.32-1.958-5.457 4.01-2.01 10.471-1.91 13.336.206 1.872 1.382 1.8 1.58-2.011 5.5C64.59 17.17 62.546 19 62.222 19s-2.495-1.942-4.825-4.316zm58.82-.684c0-2.97.055-3 5.5-3s5.5.03 5.5 3-.056 3-5.5 3-5.5-.03-5.5-3zm-14.81-7.5c.281-2.414.004-3.5-.891-3.5-.715 0-1.3-.675-1.3-1.5 0-1.048 1.056-1.5 3.5-1.5s3.5.452 3.5 1.5c0 .825-.45 1.5-1 1.5s-1 1.575-1 3.5c0 2.55-.436 3.5-1.609 3.5-1.25 0-1.518-.78-1.2-3.5zm6.81-1.5c0-2.75.45-5 1-5s1 2.25 1 5-.45 5-1 5-1-2.25-1-5zm7 0c0-2.75.45-5 1-5s1 2.25 1 5-.45 5-1 5-1-2.25-1-5zm3.398 3.595c-.892-2.323.013-7.912 1.352-8.351.89-.292 1.25 1.054 1.25 4.673 0 4.8-1.408 6.79-2.602 3.678zm3.602-.095c0-.833.888-1.5 2-1.5s2 .667 2 1.5-.89 1.5-2 1.5-2-.667-2-1.5zm-10-2.94c0-.858.45-1.56 1-1.56s1 .423 1 .941-.45 1.22-1 1.559-1-.083-1-.94zm10-.56c0-.55.45-1 1-1s1 .45 1 1-.45 1-1 1-1-.45-1-1zm0-3.5c0-.833.888-1.5 2-1.5s2 .667 2 1.5-.89 1.5-2 1.5-2-.667-2-1.5z" fill="#faf8f6"/></svg>