<svg xmlns="http://www.w3.org/2000/svg" width="263.909" height="263.692" xmlns:v="https://vecta.io/nano"><path d="M121.681 263.624c-28.934-2.614-54.542-13.327-75.943-31.768-2.08-1.792-4.137-3.394-4.568-3.558s-.882-.553-1-.863-2.006-2.507-4.194-4.88c-15.131-16.418-25.072-33.87-30.941-54.32C1.646 156.43.423 147.685.101 132.95c-.13-5.896-.136-10.864-.014-11.04s.396-2.048.611-4.16c3.015-29.58 16.653-58.102 37.946-79.36C56.992 20.073 80.471 7.422 105.483 2.376 115.557.343 119.401 0 132.081 0c10.067 0 12.166.088 16.64.699 2.816.384 5.706.618 6.423.52.941-.128 1.442-.039 1.805.324.276.277 2.135.871 4.132 1.322 50.609 11.424 90.258 51.828 100.454 102.367 2.046 10.14 2.38 13.9 2.374 26.758-.005 10.389-.086 12.243-.728 16.772-2.724 19.199-8.533 35.82-17.942 51.334-4.726 7.795-9.338 13.921-16.66 22.134-4.364 4.895-3.767 4.28-5.359 5.518-.737.573-2.969 2.464-4.96 4.202-16.616 14.507-37.809 24.942-59.57 29.332-9.385 1.893-13.467 2.282-25.009 2.382-5.808.05-11.208.032-12-.04zm22-4.194c.555-.836 2.14-.98 2.935-.266.437.392 1.047.373 4.505-.139 37.523-5.552 71.17-27.965 90.95-60.581 4.755-7.841 10.028-19.074 9.653-20.566-.289-1.152.091-2.217.926-2.597 1.652-.753 5.66-16.456 7.17-28.091.813-6.27.806-24.173-.013-30.72-4.949-39.576-27.406-74.23-61.451-94.83-15.14-9.16-32.675-15.205-50.915-17.552-6.418-.827-24.302-.827-30.72 0-28.834 3.71-54.829 16.31-75.067 36.382-5.694 5.648-8.613 9.083-8.613 10.137 0 1.046-.829 2.02-1.73 2.033-.368.006-.956.402-1.306.88C17.265 70.951 9.818 87.403 6 106.55c-1.932 9.691-2.239 13.144-2.239 25.28s.306 15.589 2.238 25.28c7.033 35.273 28.751 66.12 59.765 84.884 2.481 1.501 7.113 3.992 10.294 5.535 14.678 7.122 28.212 10.815 46.102 12.577.704.07 5.727.108 11.161.085 9.87-.041 9.882-.042 10.36-.761zM57.947 137.35L40.183 88.31l9.438-.085 9.543.021c.09.091 33.367 91.77 35.013 96.464l.59 1.68H75.711zm111.094 48.956c0-.046 7.98-22.114 17.734-49.04l17.733-48.956 9.467-.085c5.206-.046 9.468.026 9.47.16s-7.952 22.24-17.68 49.12l-17.684 48.877-9.52.004c-5.236.002-9.52-.034-9.52-.08zm-73.262-17.31c-.895-2.352-28.935-79.82-29.062-80.29-.144-.533.402-.56 9.37-.48l9.521.084 9.935 27.44 10.116 27.438c.1 0 3.278-8.57 7.062-19.041l6.88-19.04 12.3.081 12.3.082 6.871 18.96 7.06 18.955c.104-.003 4.653-12.383 10.109-27.512l9.92-27.508 9.52-.008 9.52.112c0 .14-28.645 79.303-29.167 80.606l-.354.884-9.621-.084-9.621-.085-8.046-22.2-8.34-22.67c-.212-.333-2.655 6.04-8.51 22.201l-8.215 22.67-9.63.084-9.628.084z" fill="#faf8f6"/></svg>