<svg xmlns="http://www.w3.org/2000/svg" width="399.686" height="798.044" xmlns:v="https://vecta.io/nano"><path d="M197.542 793.153c5.14-4.843 5.187-4.98 4.984-14.365-.113-5.21.694-12.775 1.794-16.808 3.255-11.936 2.809-14.077-4.543-21.779-6.308-6.607-6.864-6.888-13.667-6.888-7.046 0-7.108.037-9.734 5.69-1.608 3.463-3.305 5.421-4.333 5l-3.358-1.37c-1.21-.494-1.758 1.609-2 7.666-.594 14.936-7.706 37.903-11.735 37.903-1.062 0-1.931-.8-1.931-1.778 0-2.07-3.458-2.4-4.667-.444-.453.733-1.782 1.333-2.952 1.333-1.918 0-1.926-.23-.08-2.333 2.383-2.717 6.64-23.598 6.591-32.333-.019-3.3-.45-10.434-.957-15.852l-.924-9.852 3.307.83c2.31.58 3.988.079 5.564-1.663 2.14-2.365 2.06-2.658-1.527-5.645-3.56-2.964-4.74-4.905-8.041-13.223-.905-2.278-3.139-3.994-6.756-5.188-4.6-1.518-10.892-6.573-10.892-8.75 0-1.478 7.82-.53 8.335 1.01.695 2.083 13.069 1.77 17.19-.436 2.364-1.265 2.749-1.2 2.15.362-.565 1.47.226 1.767 3.464 1.305 2.307-.33 4.635-1.267 5.174-2.083.61-.923.988-.602 1 .851.012 1.387 1.037 2.334 2.524 2.334 3.617 0 6.004 3.523 6.301 9.3.16 3.091 1.47 6.423 3.394 8.63 3.784 4.34 5.493 9.712 3.335 10.487-.843.303-1.056 1.06-.473 1.683s2.148.453 3.478-.377c1.95-1.218 2.956-.97 5.215 1.289l2.798 2.798 1.247-3.28c.686-1.805 2.54-6.03 4.119-9.39s2.773-6.64 2.652-7.29c-.604-3.268.403-3.53 2.596-.678 2.383 3.099 2.367 3.31-.696 9.07-4.574 8.604-4.129 11.497.938 6.091 4.607-4.915 6.601-5.267 11.954-2.105s8.624 10.994 7.26 17.393c-.59 2.775-.993 8.345-.894 12.379.428 17.392-.002 22.237-2.467 27.81-1.807 4.083-3.166 5.589-4.563 5.053-1.176-.452-2.563.307-3.392 1.855-1.537 2.872-11.66 8.386-17.972 9.79l-4 .888zm-24.475-78.448c-.886-1.068-1.224-2.568-.751-3.333 1.249-2.02-1.488-1.707-6.154.706-4.814 2.49-4.35 3.881.66 1.977 1.927-.733 3.44-.9 3.36-.37-.33 2.182.284 2.962 2.333 2.962 1.743 0 1.85-.378.552-1.942zm58.639 10.275c-.011-1.65.58-3 1.313-3 1.67 0 1.67 1.415 0 4-1.045 1.617-1.297 1.426-1.313-1zm-52-19.333c.011-.917.602-2.567 1.313-3.667 1.007-1.559 1.297-1.19 1.313 1.667.01 2.016-.58 3.666-1.313 3.666s-1.324-.75-1.313-1.666zm-33.48-16.765c.81-1.515 2.13-3.16 2.933-3.655 1.045-.646 1.041-.122-.014 1.851-.81 1.514-2.13 3.16-2.933 3.655-1.046.646-1.042.122.014-1.851zm-20.68-77.795c-.664-1.074-.214-1.272 1.443-.636 2.004.769 2.133.594.775-1.043-2.172-2.617-.736-6.7 2.947-8.379 2.41-1.097 2.955-2.402 2.87-6.869-.118-6.225 1.594-7.345 2.952-1.932 1.2 4.78 8.664 14.9 11.066 15.003 1.053.045 3.328-1.246 5.056-2.87l3.142-2.951 3.158 3.952c3.135 3.923 3.464 6.552.441 3.53-2.433-2.436-5.044-1.872-5.044 1.088 0 2.496-.889 2.667-13.921 2.667-9.191 0-14.25-.53-14.886-1.56zm94.791-1.44c-1.434-1.65-2.617-3.577-2.63-4.283s-1.75-2.205-3.861-3.333c-2.962-1.582-3.978-1.67-4.445-.384-1.126 3.104-3.049 1.689-3.049-2.244 0-2.668-.803-4.165-2.53-4.713s-2.31-1.638-1.844-3.423c.409-1.564.019-2.62-.967-2.62-1.258 0-1.286-.442-.117-1.85 1.214-1.462.655-2.589-2.671-5.388-2.313-1.946-3.785-3.959-3.272-4.473s1.52.111 2.234 1.388 2.222 2.323 3.35 2.323 6.487 3.802 11.912 8.449c8.947 7.664 16.481 11.55 22.393 11.55 3.329 0 2.592 2.513-1.001 3.415-2.43.61-5.42-.8-12.672-5.975-5.22-3.725-10.09-6.773-10.82-6.773s-1.328 1.836-1.328 4.079c0 2.249.57 3.726 1.272 3.293 1.574-.974 8.08.556 7.683 1.806-.159.5 1.661 2.82 4.045 5.155s4.333 4.864 4.333 5.622c0 2.39-3.303 1.499-6.015-1.621zm14.79.801c-1.13-2.947-.184-3.636 1.766-1.286.947 1.141 1.08 2.228.33 2.692-.692.427-1.635-.205-2.096-1.406zm-69.793-3.725c-1.66-.765-2.757-2.072-2.438-2.905s-.028-2.122-.772-2.866c-.916-.916-.617-2.478.924-4.83 1.813-2.766 1.899-3.475.422-3.475-1.34 0-1.722-1.391-1.377-5.015.675-7.076-3.76-12.636-9.674-12.127-5.541.478-11.734-4.205-11.734-8.872 0-1.853-.489-3.67-1.087-4.04s-.433-2.609.365-4.976c1.88-5.571 2.283-5.957 3.774-3.598 1.024 1.618 1.244 1.526 1.261-.528.015-1.821.73-2.303 2.664-1.797 2.157.564 2.42.272 1.427-1.583-.735-1.373-.734-3.04.003-4.203.84-1.329 1.226-1.41 1.24-.261.011.916.62 1.666 1.354 1.666s1.333-.9 1.333-2 .6-2 1.333-2 1.334.58 1.334 1.287c0 1.59 5.283 4.54 6.304 3.52.408-.408-.032-1.675-.979-2.816-1.436-1.73-1.301-2.392.81-3.99 2.25-1.703 7.112-2.694 10.348-2.109.632.115 1.832-.647 2.666-1.693s3.767-2.296 6.517-2.777c4.114-.72 5-.485 5 1.327 0 1.604.635 1.922 2.334 1.167 1.283-.57 4.883-1.294 8-1.61s5.666-1.114 5.666-1.773 1.208-1.2 2.685-1.2 3.862-.734 5.3-1.633c2.201-1.374 2.938-1.216 4.649 1 1.834 2.376 2.196 2.427 3.7.517.916-1.165 2.361-1.883 3.21-1.597s1.936-.11 2.413-.883c1.139-1.843 10.043-1.823 10.043.023 0 .784 1.35 1.234 3 1 2.003-.285 2.87-1.202 2.609-2.76-.458-2.722 2.25-3.053 5.449-.666 2.746 2.048 1.629 8.215-1.286 7.097-1.032-.397-3.092.02-4.578.924-2.307 1.405-3.048 1.221-5.083-1.259-2.046-2.493-3.086-2.745-7.352-1.783-5.766 1.3-7.07 2.26-5.336 3.93 2.035 1.958 16.123 3.237 17.161 1.557 1.352-2.187 6.083-1.772 6.083.534 0 1.1-.581 2-1.292 2s-.941.91-.514 2.024c.64 1.667.185 1.8-2.571.752-1.842-.7-3.66-.963-4.038-.583s-1.955.012-3.502-.816-6.848-1.834-11.78-2.238-9.199-.953-9.478-1.222-1.706.15-3.17.934c-2.008 1.075-2.941.982-3.804-.38-.93-1.468-1.147-1.475-1.164-.04-.015 1.286-1.924 1.667-7.02 1.4-6.616-.346-7.006-.187-7.106 2.901-.27 8.399-.655 10.601-1.853 10.601-.71 0-.946-.9-.524-2 .435-1.133.031-2-.93-2-.934 0-1.304.395-.821.877s.209 1.683-.608 2.667-1.038 1.79-.492 1.79.247.9-.666 2c-1.36 1.637-1.269 2 .503 2 1.19 0 2.163.565 2.163 1.256 0 1.23-5.032.822-6.37-.516-.372-.372.083-1.59 1.01-2.708 2.022-2.436 1.7-2.477-3.953-.507l-4.378 1.526 3.18 2.445c2.442 1.878 2.671 2.45.987 2.474-1.205.016-2.536.93-2.958 2.03-.467 1.218-.002 2 1.19 2 1.078 0 1.959.9 1.959 2 0 2.328-2.82 2.646-4.913.553-.795-.795-2.865-1.172-4.6-.836-2.958.573-2.989.668-.487 1.54 1.467.51 3.697 2.324 4.956 4.029 2.268 3.069 2.245 3.108-2.333 3.967-4.725.886-5.561 1.905-3.404 4.146 1.644 1.71 2.083 7.377.802 10.357-1.398 3.25 1.554 6.422 3.32 3.565 1.077-1.742 1.503-1.715 3.435.217 2.817 2.816 1.704 4.565-3.579 5.622-3.572.714-3.942 1.138-2.504 2.87 2.191 2.641 1.38 3.112-2.378 1.38zm-37.449-8.676c.294-.88.969-1.555 1.5-1.5 1.595.165 1.286 1.993-.433 2.566-.88.294-1.36-.186-1.067-1.066zm21.467-2.011c0-1.864.525-3.39 1.167-3.39 2.37 0 1.075-4.273-1.5-4.946-3.944-1.032-3.238-3.006 1.406-3.935 2.704-.54 3.838-1.426 3.375-2.633-1.29-3.362 1.925-1.858 3.522 1.648 1.353 2.969 1.109 4.347-1.695 9.587-3.79 7.084-6.275 8.537-6.275 3.669zm-8.012-3.882c-2.073-4.55-3.53-15.507-2.06-15.507.676 0 2.371.835 3.767 1.855 2.177 1.592 2.28 2.167.725 4.04-1.42 1.712-1.482 2.909-.283 5.54 1.8 3.951 1.987 7.231.41 7.231-.615 0-1.767-1.421-2.559-3.16zm45.679-35.507c-.454-.734-.224-1.334.509-1.334s1.704.6 2.157 1.334.224 1.333-.509 1.333-1.704-.6-2.157-1.333zm-55.768-19.645c-.7-1.158 1.159-13.644 2.932-19.689 1.064-3.625 1.276-3.75 2.263-1.333 2.973 7.275 8.573 8.252 8.573 1.497 0-4.46 2.7-8.353 4.526-6.526.521.521.543-.109.047-1.4s-.377-2.172.263-1.959 1.314-.212 1.497-.945-.717-1.334-2-1.334-3.064-.9-3.958-2c-1.8-2.217-2.273-6.666-.709-6.668.55 0 1.038-3.15 1.084-7s.544-8.79 1.105-10.98c.897-3.502 1.18-3.694 2.354-1.596.734 1.311.945 4.691.469 7.51-.544 3.22-.315 5.468.615 6.043.815.504 1.129 2.029.697 3.389-.536 1.689.135 2.966 2.115 4.025 3.709 1.985 5.525-.435 3.777-5.032-2.302-6.054-.762-20.286 2.305-21.309.796-.265 2.202 1.34 3.125 3.568 2.337 5.641 5.987 5.674 6.07.055.064-4.293 1.813-8.005 3.773-8.005.845 0 2.314-1.245 3.265-2.768 1.397-2.236 2.102-2.458 3.672-1.155 1.069.887 1.785 2.52 1.592 3.63-.805 4.629 2.985 2.672 5.4-2.79 1.438-3.248 3.275-6.315 4.083-6.814 2.108-1.303 10.676 3.085 13.025 6.67 1.781 2.719 1.76 3.394-.203 6.39-3.366 5.137-2.178 9.42 2.745 9.902 2.629.257 4.823-.45 6.199-2 1.954-2.2 1.927-3.169-.325-11.731-4.368-16.607-2.87-36.667 2.738-36.667 1.333 0 4.286 6.075 6.64 13.663.853 2.747 2.76 5.842 4.238 6.877 2.682 1.879 2.682 1.887-.213 4.782-1.595 1.595-3.045 2.7-3.222 2.456s-1.001-4.252-1.832-8.906-2.209-9.303-3.063-10.333c-3.531-4.255-4.224-1.707-3.645 13.414.455 11.879 1.087 15.84 2.835 17.772 3.047 3.367 2.874 4.33-1.676 9.311-3.266 3.576-4.895 4.297-9.703 4.297-3.178 0-7.067.903-8.641 2.006-4.007 2.806-9.442.554-11.261-4.665-.769-2.204-1.918-4.007-2.553-4.007-2.295 0-4.015 5.456-3.159 10.018.623 3.322.39 4.648-.817 4.648-.93 0-3.546 1.414-5.815 3.142s-5.477 3.568-7.127 4.09c-3.513 1.11-6.811 6.102-4.032 6.102.95 0 3.27-1.43 5.155-3.18 2.34-2.17 4.065-2.821 5.436-2.054 1.104.618 5.544 1.467 9.866 1.886 10.374 1.008 12.766 3.348 3.422 3.348-3.862 0-8.332.679-9.934 1.51-5.742 2.976-14.398 10.836-13.76 12.496.409 1.068-.18 1.475-1.598 1.104-1.256-.328-4.248 1.2-6.787 3.466-3.434 3.067-5.712 4.008-9.355 3.865-6.938-.272-11.165 2.322-10.39 6.375.602 3.15-.872 5.605-2.123 3.539zm19.101-16.21c0-.655 1.433-1.55 3.185-1.989s4.995-2.861 7.208-5.381 4.475-4.176 5.029-3.679.573.152.044-.767c-1.082-1.88-2.86-1.136-9.952 4.162-5.123 3.828-9.05 8.842-6.923 8.842.775 0 1.409-.535 1.409-1.189zm20-14.812c0-.733-.265-1.333-.588-1.333s-.959.6-1.412 1.333-.189 1.333.588 1.333 1.412-.6 1.412-1.333zm4.493-17.667c1.625-6.064.956-14.333-1.16-14.333-1.142 0-2.062 1.287-2.146 3-.08 1.65-.32 5.1-.532 7.667s-.112 5.116.225 5.666c1.162 1.902 2.812.989 3.613-2zm-7.708-3.326c-1.434-1.434-2.196.574-1.19 3.135.945 2.403 1.016 2.407 1.483.087.27-1.34.138-2.79-.293-3.222zm-3.452 1.102c0-2.307-1.618-5.442-2.809-5.442-.655 0-1.19 1.5-1.19 3.333 0 2.074.755 3.333 2 3.333 1.1 0 2-.55 2-1.224zm32.502-5.26c1.236-1.366 2.594-5.416 3.017-9 .629-5.319.31-6.932-1.738-8.782-3.85-3.478-6.82-1.074-4.624 3.744 1.41 3.096 1.314 4.333-.619 7.922-2.196 4.077-1.908 8.6.547 8.6.643 0 2.18-1.117 3.417-2.483zm-9.295 48.653c3.622-1.688 3.709-1.9 1.334-3.28-1.857-1.077-2.003-1.48-.54-1.497 4.19-.046 8 1.664 8 3.594 0 1.514-.434 1.648-1.766.543-1-.83-2.3-.966-3-.313-.679.633-2.735 1.513-4.568 1.955-2.872.692-2.797.553.54-1.002zm-20.54-2.169c-4.361-3.411-1.818-3.411 3.333 0 2.2 1.457 3.1 2.64 2 2.629s-3.5-1.195-5.333-2.629zm11.556 1.778c-1.495-1.495-.992-3.111.968-3.111 1.022 0 2.203.9 2.625 2 .77 2.005-1.88 2.824-3.593 1.111zm27.11-4.444a1.34 1.34 0 0 1 1.334-1.334 1.34 1.34 0 0 1 1.333 1.334 1.34 1.34 0 0 1-1.333 1.333 1.34 1.34 0 0 1-1.333-1.333zm10-1.334c.454-.733 1.09-1.333 1.413-1.333s.588.6.588 1.333-.636 1.334-1.412 1.334-1.042-.6-.588-1.334zm26.667-5.206c-2.2-1.293-5.692-2.772-7.761-3.288l-3.762-.937 5.418-4.951c5.395-4.93 13.439-6.954 13.439-3.382 0 .863 1.05 1.843 2.333 2.179 1.504.393 1.089.664-1.17.764-1.927.085-4.276 1.085-5.22 2.222-1.449 1.746-1.267 2.185 1.17 2.822 3.481.91 3.76 2.687.553 3.525-1.712.447-1.513.65.746.764 1.693.085 2.708.755 2.254 1.488-1.15 1.86-3.345 1.529-8-1.206zm1.334-9.46c-.454-.734-1.424-1.334-2.158-1.334s-.962.6-.509 1.334 1.424 1.333 2.157 1.333.963-.6.51-1.333zm-62 6.95c0-.577 1.213-1.14 2.695-1.253s2.347.361 1.921 1.05c-.936 1.516-4.616 1.677-4.616.203zm6.666-1.22c0-2.983 3.717-6.115 6.419-5.409 3.845 1.006 6.213-1.984 4.34-5.482-1.9-3.55-1.8-5.506.285-5.506 1.115 0 1.807 2.228 1.988 6.403.273 6.274.179 6.439-4.71 8.188l-6.655 2.407c-.917.341-1.667.071-1.667-.6zm34.727-1.62c-1.272-2.374-2.737-2.777-10.107-2.777-8.25 0-8.62-.14-8.62-3.255 0-1.79.61-3.631 1.355-4.092s.993-1.425.549-2.142-.446-2.244-.006-3.392c.652-1.698 1.174-1.776 2.81-.418 1.63 1.353 2.464 1.255 4.422-.517 1.328-1.201 3.59-2.184 5.027-2.184s4.907-1.17 7.711-2.6c4.817-2.455 5.287-2.475 8.518-.358 3.342 2.19 3.402 2.173 2.642-.734-.51-1.95-.181-2.975.954-2.975 3.01 0 5.37-7.567 3.183-10.202-.914-1.102-.889-2.489.08-4.298 1.039-1.942 1.009-2.93-.11-3.622-1.084-.67-.876-1.436.702-2.59 1.994-1.458 2.012-1.727.16-2.438-1.405-.539-2.491.278-3.34 2.51-1.32 3.47-3.89 4.491-4.132 1.64-.077-.916-.097-5.829-.043-10.916s-.534-10.01-1.307-10.941-1.065-2.241-.65-2.912-.078-4.446-1.092-8.391c-2.448-9.516.066-32.73 3.482-32.152 2.463.417 4.047-4.193 2.107-6.132-.893-.893-.443-1.894 1.355-3.017 1.633-1.02 2.383-2.504 1.907-3.776-.677-1.811-.477-1.847 1.467-.266 3.037 2.47 3.057-.546.023-3.58-1.619-1.619-2.377-1.775-2.778-.571-.781 2.343-4.33 2.06-4.33-.346 0-1.39 1.398-2 4.579-2 4.003 0 4.631-.46 5-3.666.39-3.392.973-3.726 7.755-4.45 4.034-.43 6.584-.88 5.667-1-2.384-.31-2.058-2.448.524-3.44 3.137-1.203 3.387-.473 1.982 5.783-1.652 7.353 1.228 6.77 3.256-.66 2.25-8.246 3.181-9.62 7.561-11.146 2.26-.788 4.327-1.215 4.592-.95s-.431 3.995-1.55 8.286c-2.379 9.135-2.605 12.35-.737 10.482.712-.713 2.11-4.883 3.106-9.267s2.513-8.047 3.371-8.138c3.291-.352 3.504-.578 1.647-1.752-1.55-.981-1.595-1.596-.24-3.228 1.294-1.56 1.32-2.675.116-4.927l-1.558-2.91-1.572 3.159c-1.395 2.802-10.09 8.275-11.3 7.114-.259-.248.552-3.528 1.802-7.29s1.936-7.175 1.526-7.584c-.79-.79-3.421 4.747-6.459 13.584-1.304 3.795-2.694 5.458-4.816 5.764-1.641.237-3.911 1.846-5.045 3.577s-3.07 3.193-4.3 3.25l-4.906.283c-1.467.098-3.638-.242-4.825-.756-1.706-.74-2.081-.233-1.79 2.413.201 1.842-.54 4.101-1.649 5.021-1.77 1.47-1.924.785-1.27-5.606 1.177-11.482 3.125-22.203 3.504-19.279.19 1.467.266 3.142.169 3.724s.881.487 2.175-.21 4.102-4.621 6.241-8.723 4.345-7.458 4.902-7.458 1.288-1.05 1.624-2.333c.459-1.756.648-1.59.764.667.174 3.374 2.822 4.187 2.822.866 0-1.173 2.04-4.173 4.533-6.666 5.173-5.173 4.948-5.77-.666-1.772-3.356 2.389-3.985 2.483-4.67.697-.611-1.591-1.755-.889-4.995 3.065-4.136 5.048-6.445 8.208-8.865 12.132-1.789 2.9-4.52-.263-3.366-3.9 1.205-3.797 6.067-8.205 7.897-7.161.806.46.118-.647-1.529-2.46s-3.12-4.82-3.275-6.684c-.303-3.666 9.23-19.752 11.718-19.772 1.429-.012 6.68-9.846 12.734-23.85 3.466-8.02 6.046-10.186 13.817-11.606 7.11-1.298 13.546-5.65 15.614-10.556.928-2.2 1.538-4.468 1.356-5.04-.586-1.847 3.505-8.567 8.33-13.683 2.585-2.741 4.7-6.094 4.7-7.452s1.2-3.218 2.667-4.134c2.9-1.812 3.522-3.691 1.222-3.691-2.055 0-10.143 8.6-11.19 11.899-.483 1.522-1.366 2.768-1.96 2.768s-1.82 1.78-2.72 3.955c-2.179 5.259-5.188 7.802-6.575 5.557-.803-1.3-1.77-1.306-4.57-.03-1.954.89-3.91 1.26-4.348.822-1.038-1.038.487-2.876 14.807-17.856 6.6-6.904 12.193-13.107 12.428-13.784s-1.264-1.598-3.333-2.045-5.947-1.731-8.617-2.854c-3.08-1.294-6.373-1.707-9-1.13l-4.144.91v-6.71c0-6.618.068-6.729 5-8.099 2.75-.763 6.1-1.391 7.444-1.396 1.378-.004 2.188-.734 1.857-1.674-.6-1.697-1.797-1.718-10.635-.19-3.333.576-5 .363-5-.64 0-.826 1.727-1.503 3.837-1.503s4.584-.9 5.497-2 2.486-2 3.496-2c1.323 0 1.837-1.926 1.837-6.889 0-7.365 1.041-7.589 3.325-.713 1.143 3.442 2.05 4.197 4.684 3.897 4.95-.563 6.268-2.611 3.253-5.056-2.504-2.03-2.478-2.073.738-1.23l6.15 1.552c1.558.376 5.432-.685 8.667-2.374 3.217-1.68 6.583-2.91 7.478-2.737s2.015-1.222 2.487-3.103c.685-2.73 1.23-3.11 2.705-1.886s1.846.974 1.846-1.219c0-1.513-.6-3.122-1.333-3.575-1.614-.998-1.8-10-.207-10 1.688 0 5.102 4.264 6.139 7.666.942 3.093 3.947 4.02 5.401 1.667.453-.733 1.64-1.333 2.638-1.333 1.439 0 1.54.991.49 4.791-.727 2.636-.982 5.132-.567 5.548s4.094.009 8.173-.904c6.491-1.453 7.695-2.245 9.65-6.345l2.235-4.685-4.33-3.87c-2.382-2.128-5.221-3.869-6.31-3.869-2.531 0-2.5-1.79.118-6.853 1.153-2.23 1.747-4.964 1.32-6.076s-.134-4.408.651-7.324c1.157-4.295 1.036-5.899-.639-8.454-1.276-1.949-1.56-3.466-.744-3.97.863-.534.82-1.757-.123-3.518-.794-1.485-1.145-3-.779-3.366.97-.968-1.834-8.728-4.102-11.355-1.994-2.309-1.147-5.735 1.078-4.36.683.422 1.241.167 1.241-.566s-.6-1.704-1.333-2.158-1.333-.148-1.333.678c0 .857-1.064 1.164-2.479.715-1.363-.432-3.11-.023-3.88.91-1.613 1.951-1.65 11.697-.044 11.697.588 0 1.07 1.5 1.07 3.334s1.213 4.547 2.696 6.03c2.102 2.102 2.396 3.26 1.334 5.246-.75 1.402-1.364 3.968-1.364 5.703s-.72 3.874-1.6 4.754c-1.245 1.244-1.245 1.6 0 1.6.88 0 1.6.9 1.6 2s1.144 2 2.542 2c1.885 0 2.361.689 1.844 2.667-1.013 3.874-6.733 3.613-7.293-.334-.34-2.385-1.3-3.01-4.695-3.046-5.421-.058-5.632-.307-6.867-8.12-.566-3.578-1.646-7.609-2.4-8.958-1.242-2.217-1.538-2.056-3.088 1.686-1.913 4.62-7.255 6.84-9.807 4.078-1.212-1.31-1.19-1.483.097-.757 1.011.571 1.667.154 1.667-1.059 0-1.1.702-2.433 1.56-2.964 1.049-.648 1.28-.237.708 1.255-1.235 3.219 2.074 2.779 4.154-.552 1.174-1.88 1.302-3.29.397-4.379-.828-.997-.868-2.347-.107-3.562 1.679-2.675.215-6.7-3.498-9.62-1.7-1.338-2.78-3.25-2.396-4.25s.022-2.232-.802-2.742c-1.583-.978-19.076 2.614-22.963 4.715-1.255.677-3.089.922-4.076.543s-3.861.26-6.386 1.421c-3.799 1.746-3.972 1.983-1.006 1.372 1.979-.407 3.992-.077 4.495.735.509.824 2.549 1.145 4.628.73 2.537-.508 3.952-.134 4.455 1.178.836 2.178-2.91 4.63-7.075 4.63-1.641 0-2.755.866-2.755 2.142 0 1.438-.719 1.867-2.187 1.304-1.36-.522-2.873.14-4.004 1.755-1 1.427-4.065 3.335-6.813 4.24s-5.727 2.6-6.62 3.769c-1.422 1.859-1.63 1.74-1.667-.953-.086-6.228 3.078-15.171 6.603-18.665 4.445-4.407 15.06-8.251 22.867-8.282 3.202-.012 10.321-1.247 15.821-2.743s11.2-2.875 12.667-3.063c4.542-.582 18.493-4.876 22-6.77 2.344-1.267 5.708-1.545 11.333-.935 7.967.864 8.015.895 11.587 7.56 5.087 9.493 11.864 28.41 10.483 29.264-.64.395-2.07.37-3.18-.056-3.427-1.315-4.535 3.438-3.442 14.766.566 5.867 1.092 16.667 1.168 24 .12 11.422.537 13.811 2.913 16.667 2.228 2.679 3.92 3.308 8.622 3.205l5.85-.128v17.6c0 9.679-.386 21.286-.857 25.794-.829 7.926-.982 8.195-4.667 8.195-2.096 0-3.81-.558-3.81-1.24s-1.35-1.475-3-1.762c-2.886-.502-2.86-.58.667-2.06 4.883-2.049 4.825-5.245-.09-4.952-2.067.123-4.467.662-5.334 1.198s-1.576.379-1.576-.348c0-1.258-1.513-1.906-8.334-3.566-2.558-.623-2.664-.52-.722.702 1.253.788 1.972 2.23 1.598 3.204-1.506 3.926 11.142 26.977 16.752 30.53 4.697 2.973 4.666 2.76 1.969 13.435-3.234 12.8-8.887 26.547-10.105 24.576-.8-1.294-1.537-1.064-3.063.957-2.48 3.282-2.562 4.25-.429 5.11.996.402.728.715-.666.778-1.385.062-2.334 1.157-2.334 2.693 0 1.423-.652 2.991-1.45 3.484s-1.13 2.114-.74 3.604c.744 2.848-5.849 17.42-6.726 14.865-.275-.802.73-4.327 2.232-7.834 2.89-6.741 1.93-10.69-2.212-9.101-1.628.625-1.773.275-.725-1.746 4.889-9.43 7.749-22.63 5.493-25.348-.83-.999-2.045-1.484-2.702-1.077s-2.77-.5-4.696-2.015c-3.732-2.936-7.14-3.614-7.14-1.42 0 2.413-2.341 1.39-3.053-1.333-.894-3.419-3.614-3.478-3.614-.079 0 1.423-.6 2.959-1.333 3.412s-1.394 2.739-1.467 5.079c-.298 9.566-2.114 10.875-2.311 1.666-.11-5.09-.804-9.86-1.544-10.6-1.412-1.412-1.88 1.862-1.662 11.636.111 4.997.053 5.06-2.498 2.751-1.437-1.3-2.31-3.152-1.94-4.115.91-2.374-2.524-2.226-4.533.195-.983 1.185-1.269 3.521-.73 5.976.723 3.287 1.85 4.29 6.119 5.44 6.624 1.783 7.097 4.619.566 3.393-4.609-.864-4.667-.817-4.667 3.773 0 2.557.6 5.02 1.333 5.473 1.907 1.178 1.648 3.333-.4 3.333-2.454 0-8.91-3.136-8.923-4.333-.01-1.057 2.095-1.488 5.171-1.058 1.209.169 1.555-.506 1-1.951-.466-1.215-.848-2.69-.848-3.277s-2.41-1.1-5.355-1.14c-4.423-.062-5.859.607-8.25 3.842-1.825 2.468-4.097 3.917-6.142 3.917-2.688 0-2.97-.333-1.638-1.938 1.294-1.559 1-2.591-1.503-5.284-3.953-4.251-15.413-10.098-19.807-10.106-3.04-.005-3.537.792-5.198 8.328-3.455 15.67-3.32 27.605.491 43.343l5.369 20.99c3.882 13.619 3.881 13.624-1.41 15.37-4.376 1.444-4.954 1.323-6.892-1.443l-2.115-3.02-1.137 3.074c-.625 1.69-.824 3.386-.441 3.768s.695-.04.695-.938.639-1.24 1.42-.757c.93.575.628 1.753-.873 3.412-1.582 1.748-1.766 2.534-.59 2.534 1.347 0 1.33.45-.085 2.154-1.552 1.87-1.442 2.083.837 1.616 1.643-.337 2.536-1.509 2.387-3.135-.29-3.161 1.206-4.223 8.684-6.17 6.563-1.709 10.345-6.88 6.81-9.314-1.504-1.037-1.342-1.186.743-.685l9.701 2.348c6.721 1.632 7.375 1.542 14.667-2.017 4.198-2.05 10.932-5.953 14.966-8.676 11.126-7.51 11.154-7.524 9.523-4.475-.776 1.449-5.185 7.4-9.8 13.225l-19.662 25.527c-6.2 8.214-11.75 14.936-12.334 14.936-2.17 0-.954-2.43 2.273-4.544 1.833-1.202 3.333-2.873 3.333-3.715s.996-2.632 2.214-3.978c4.442-4.909.246-4.109-5.194.99-5.24 4.912-5.187 4.794.826-1.84 3.533-3.899 6.15-7.363 5.813-7.699-1.138-1.137-4.886 1.019-5.636 3.242-.41 1.216-2.748 3.693-5.195 5.504-5.55 4.11-9.713 10.706-6.755 10.706 1.588 0 1.653.474.352 2.559-1.258 2.014-1.226 3.006.152 4.666 1.502 1.81 1.348 2.109-1.08 2.109-1.722 0-2.83.847-2.83 2.163 0 1.732-.383 1.846-1.922.569-1.575-1.308-2.596-.58-5.666 4.036-5.595 8.41-5.52 8.265-6.484 12.565-.88 3.924-.924 3.943-2.288.989-1-2.163-.936-4.012.224-6.558 1.468-3.22 1.272-3.821-2.123-6.529-2.057-1.64-4.105-2.756-4.55-2.48s-1.538 4.267-2.428 8.872l-2.07 10.723c-.25 1.293.67 2.953 2.044 3.687s2.198 2.115 1.833 3.066.814 2.52 2.62 3.487l3.283 1.757-4.863 9.826c-2.674 5.405-5.322 9.827-5.884 9.827s-2.61-2.4-4.551-5.334-4.315-5.333-5.274-5.333c-2.863 0-3.637 2.678-1.47 5.084 1.114 1.237 2.223 3.146 2.464 4.243s2.102 3.046 4.137 4.333l3.698 2.34-2.365 4.508c-3.72 7.091-10.35 11.962-15.015 11.029-4.883-.977-9.704 1.46-16.91 8.55-5.373 5.284-5.611 5.375-7.047 2.691zm29.3-51.684c-2.77-5.892-5.973-9.616-8.36-9.717-2.244-.095-.796 3.417 1.914 4.641 3.68 1.663 4.82 4.712 1.51 4.039-1.333-.271-3.556-.94-4.94-1.487-1.852-.732-2.335-.499-1.833.885.375 1.034 1.374 1.724 2.22 1.534s1.884.56 2.309 1.666 2.144 2.013 3.82 2.013 3.426.986 3.889 2.19 1.203 1.829 1.647 1.385-.536-3.66-2.176-7.149zm19.723 3.657c.334-1-.166-1.5-1.166-1.167-.963.321-2.013 1.371-2.334 2.334-.333 1 .167 1.5 1.167 1.166.963-.32 2.013-1.37 2.333-2.333zm-1.083-4.083c0-.734-.265-1.334-.588-1.334s-.959.6-1.412 1.334-.189 1.333.588 1.333 1.412-.6 1.412-1.333zm-30.334-8.635c-.875-4.575-1.666-4.237-1.666.713 0 2.244.52 3.758 1.155 3.366s.865-2.228.51-4.08zm8.48-8.012c-3.55-3.593-4.362-3.908-5.644-2.192s-1.63 1.587-2.423-.912c-1.106-3.484-3.42-3.881-3.392-.583.032 3.665 2.17 6.135 4.528 5.23 1.182-.453 3.651-.14 5.487.696 2.528 1.152 3.137 2.192 2.513 4.297-.801 2.7-.77 2.706 1.127.219 1.776-2.329 1.579-2.936-2.195-6.755zm8.906 1.005c.643-3.361.555-3.449-1.135-1.137-1.008 1.378-1.515 3.016-1.129 3.642 1.122 1.814 1.523 1.37 2.264-2.505zm6.281-2.983c0-.71-.9-.946-2-.524s-2 1.003-2 1.291.9.524 2 .524 2-.58 2-1.291zm-7.441-5.844c-.461-1.2-1.404-1.833-2.096-1.405-.75.464-.618 1.55.33 2.691 1.95 2.35 2.896 1.661 1.766-1.286zm-11.973-3c-.64-5.825-3.252-7.18-3.252-1.687 0 2.591.383 5.095.852 5.564 1.596 1.595 2.79-.333 2.4-3.877zm9.692-4.028c.274-.824-.692-1.808-2.146-2.189-3.196-.835-4.198-.04-3.205 2.548.837 2.182 4.589 1.93 5.35-.36zm6.547-2.719c-1.128-2.081-2.075-3.363-2.105-2.847-.09 1.585 3.012 7.775 3.601 7.186.305-.305-.368-2.257-1.496-4.339zm29.842-10.13c0-.924 1.209-2.434 2.686-3.357 1.996-1.247 2.472-2.53 1.853-4.997-.521-2.077-.009-4.578 1.37-6.681 2.17-3.312 1.854-5.953-.711-5.953-1.756 0-9.522 16.557-8.004 17.064.654.219.883 1.569.509 3s-.012 2.603.808 2.603 1.489-.756 1.489-1.68zm-5.333-5.054c0-1.503.915-4.503 2.034-6.667 2.765-5.347.473-4.956-4.563.78-5.364 6.109-5.34 8.62.084 8.62 1.576 0 2.445-.972 2.445-2.733zm-38.263-1.934c-.448-2.269-4.023-2.25-4.896.027-.634 1.652-.127 2.058 2.165 1.732 1.647-.234 2.875-1.025 2.73-1.759zm-4.68-2.724c2.892-2.717 3.08-3.207.943-2.46-3.44 1.202-6 3.199-6 4.68 0 1.912 1.241 1.366 5.058-2.22zm9.968-2.817c-.903-.365-2.703-.387-4-.05s-.559.638 1.641.665 3.262-.25 2.359-.615zm30.308-27.902c0-2.355-2.87-1.945-3.694.528-.29.87.422 1.583 1.583 1.583a2.12 2.12 0 0 0 2.111-2.111zm1.62-8.238c-2.506-.835-5.923.78-4.957 2.343.549.888 1.826.815 3.748-.214 1.886-1.01 2.313-1.761 1.208-2.13zm45.796-67.118c1.117-1.807-2.332-11.866-4.07-11.866-2.11 0-4.936 12.35-3.087 13.493 1.637 1.012 6.162-.016 7.157-1.627zm-25.074-8.354c1.86-4.08.557-20.278-1.467-18.254-2.103 2.103-4.111 1.701-2.316-.462 2.05-2.47 4.214-10.13 2.862-10.13-1.74 0-5.422 11.12-4.648 14.04.73 2.755-.785 7.452-3.74 11.591-1.361 1.906-1.191 2.637.996 4.291 3.824 2.89 6.674 2.522 8.313-1.076zm66.991-10.18a1.34 1.34 0 0 0-1.333-1.333 1.34 1.34 0 0 0-1.333 1.333 1.34 1.34 0 0 0 1.333 1.333 1.34 1.34 0 0 0 1.333-1.333zm-77.482-10c.03-.733-.803.167-1.851 2s-1.881 4.533-1.851 6c.035 1.746.674 1.056 1.851-2 .988-2.567 1.822-5.267 1.851-6zm74.816-33.078c0-2.379-3.584-7.116-4.608-6.092-1.042 1.042 1.982 7.837 3.488 7.837.616 0 1.12-.786 1.12-1.745zm-49.334-4.673c0-1.675-.39-1.576-1.957.496-2.561 3.386-2.587 5.367-.043 3.255 1.1-.913 2-2.601 2-3.751zm76 1.084c0-.733-.264-1.333-.588-1.333s-.958.6-1.412 1.333-.188 1.334.588 1.334 1.412-.6 1.412-1.334zm-81.333-17.333c0-.733-1.35-1.324-3-1.313-2.426.017-2.617.268-1 1.313 2.585 1.67 4 1.67 4 0zm-13.333-12c0-.733-1.2-1.333-2.667-1.333s-2.667.6-2.667 1.333 1.2 1.333 2.667 1.333 2.667-.6 2.667-1.333zm55.828-9.818c.272-.633 1.622-2.117 3-3.296s2.505-2.933 2.505-3.896.981-3.248 2.18-5.079c2.918-4.452 1.556-5.389-4-2.752-2.52 1.196-5.392 2.193-6.381 2.217-2.434.057-6.924 3.567-7.196 5.624l-1.131 8.72-.912 7.055 5.72-3.72c3.146-2.047 5.943-4.24 6.215-4.873zm-4.59-3.348c0-1.556.682-2.27 1.77-1.852 1.922.738 1.621 3.253-.473 3.95-.713.238-1.297-.706-1.297-2.098zm-29.905 6.363c0-1.96-6.811-2.969-11.615-1.72-5.266 1.367-5.948 3.514-1.464 4.606 3.599.877 13.079-1.216 13.079-2.886zm19.56-1.405c-.371-1.416-.178-4.303.428-6.416 1.285-4.48.78-5.327-2.64-4.433-1.664.435-2.222 1.387-1.673 2.855.705 1.883.51 1.947-1.338.444-1.19-.966-4.152-1.566-6.583-1.333-3.364.323-4.52 1.12-4.835 3.334-.457 3.208 3.617 6.235 6.765 5.027 1.032-.396 3.322.45 5.09 1.882 3.682 2.982 5.766 2.39 4.785-1.36zm-25.254-4.598c-.443-.443-1.593-.49-2.556-.105-1.064.426-.748.742.806.806 1.405.058 2.193-.258 1.75-.7zm-31.306-73.41c-.917-.37-2.417-.37-3.333 0s-.167.672 1.666.672 2.584-.302 1.667-.672zm-54.97 360.73c.039-2.43 5.235-9.054 5.274-6.724.016.984-1.17 3.315-2.637 5.18-1.501 1.908-2.654 2.583-2.637 1.543zm-10.583-12.514c.14-2.526 2.361-6.778 2.439-4.667.04 1.1-.508 2.9-1.22 4s-1.259 1.4-1.219.667zm-66.78-2c0-.733.635-1.333 1.412-1.333s1.04.6.588 1.333-1.089 1.333-1.412 1.333-.588-.6-.588-1.333zm75.212-1.835c-1.13-2.943.373-4.446 2.41-2.41 1.202 1.203 1.208 1.948.021 3.135s-1.764 1.014-2.431-.725zm1.088-10.958c1.402-3.077 1.673-3.188 2.456-1 .484 1.353.212 2.9-.605 3.44-2.798 1.845-3.426 1.017-1.851-2.44zm-70.947-.953c.044-3.42 2.301-4.372 10.275-4.334l8.295.04-3.628 2.972c-4.264 3.493-5.843 3.845-4.777 1.068.974-2.54-1.728-2.57-6.518-.07-2.65 1.382-3.661 1.472-3.647.324zm7.98-17.444c0-.288.931-.881 2.07-1.318 1.186-.455 1.721-.232 1.254.524-.783 1.267-3.324 1.874-3.324.794zm10.424-10.81c-1.146-2.515-1.13-4.186.064-6.806 1.461-3.208 1.802-3.327 4.474-1.553 3.822 2.538 4.705 5.33 1.513 4.783-1.923-.33-2.463.393-2.422 3.243.065 4.57-1.627 4.726-3.629.333zm7.576-10c.453-.733 1.389-1.333 2.079-1.333s1.254.6 1.254 1.333-.935 1.333-2.078 1.333-1.708-.6-1.255-1.333zm12.074-3.407c-.502-2.676-.646-5.132-.32-5.458s1.003 1.597 1.505 4.272.646 5.132.32 5.458-1.003-1.597-1.505-4.272zm9.926-2.005c0-.777.6-1.041 1.333-.588s1.334 1.089 1.334 1.412-.6.588-1.334.588-1.333-.635-1.333-1.412zm6.784-6.486c-3.087-2.677-4.102-8.951-1.981-12.243.658-1.023 1.197-2.897 1.197-4.167s.6-2.169 1.333-2 1.122 1.208.864 2.308-.558 4.824-.667 8.276c-.152 4.864.403 6.73 2.47 8.29 1.467 1.11 2.008 2.035 1.204 2.058s-2.793-1.111-4.42-2.522zm-18.679-3.546c.064-1.554.38-1.87.806-.806.385.962.338 2.112-.105 2.556s-.759-.345-.7-1.75zm31.58 1.35c-.46-.458-.478-1.763-.042-2.9.629-1.637.053-1.925-2.77-1.386-2.896.554-3.28.34-2.055-1.136 1.983-2.389 6.403-2.328 7.335.102.84 2.187-1.202 6.588-2.468 5.32zm-26.39-8.643c-.805-1.505-1.27-3.745-1.032-4.978.252-1.31 1.067-.172 1.96 2.737 1.692 5.513 1.314 6.428-.927 2.241zm11.805-13.026c-1.092-3.754.096-11.995 1.89-13.103.78-.482.938.326.396 2.032-.533 1.682-.32 2.834.524 2.834.783 0 1.423-.6 1.423-1.333s.75-1.314 1.667-1.29.361 1.135-1.234 2.467c-1.675 1.4-3.083 4.337-3.333 6.956-.38 3.986-.542 4.16-1.333 1.437zm84.233-10.904a1.34 1.34 0 0 1 1.334-1.333 1.34 1.34 0 0 1 1.333 1.333 1.34 1.34 0 0 1-1.333 1.334 1.34 1.34 0 0 1-1.334-1.334zm-71.347-4.139c1.459-1.757 2.809-3.444 3-3.75s.347.424.347 1.62-1.35 2.884-3 3.75l-3 1.574zm74.167-.385c-2.053-1.138-2.644-2.094-1.666-2.698.832-.514 1.513-.3 1.513.477s1.5 1.412 3.333 1.412 3.334.6 3.334 1.333c0 1.816-2.683 1.6-6.514-.524zm-6.153-12.809c-.453-.733-.189-1.333.588-1.333s1.412.6 1.412 1.333-.265 1.333-.588 1.333-.959-.6-1.412-1.333zm66.074-6c-.008-.733 1.159-2.833 2.593-4.667s2.62-2.65 2.637-1.814-1.15 2.935-2.593 4.667-2.629 2.547-2.637 1.814zm-66.074-34.406l-5.333-2.894 5.625-1.197c4.548-.968 6.315-.745 9.23 1.165 3.442 2.255 3.493 2.446 1.121 4.18-3.208 2.347-4.229 2.227-10.643-1.254zm-241.286-77.26c-1.724-5.37-6.235-28.16-6.313-31.899-.052-2.44-.889-6.009-1.86-7.933s-1.472-3.793-1.11-4.155-.327-3.56-1.53-7.105c-1.436-4.228-1.914-8.457-1.39-12.286 1.129-8.229-1.962-6.778-4.34 2.038-1.035 3.835-2.772 7.105-4 7.528-1.194.411-4.871 2.822-8.171 5.358-6.65 5.109-11.028 5.786-18.154 2.808-4.298-1.796-4.654-2.343-3.863-5.942.479-2.181 1.962-6.24 3.297-9.022s4.076-9.724 6.092-15.427 3.838-10.198 4.047-9.99c.54.54-2.832 14.287-4.604 18.78-2.284 5.785-1.89 13.804.726 14.808 2.808 1.078 5.912-1.824 19.544-18.27 10.875-13.119 13.125-17.75 14.993-30.86.41-2.879 1.37-6.399 2.13-7.822 1.237-2.31 1.602-2.371 3.404-.569 1.688 1.688 1.756 2.813.415 6.877-.882 2.673-1.275 5.715-.873 6.761s.146 2.263-.567 2.704-.952 1.36-.53 2.043.38 1.868-.094 2.634-.907 6.916-.963 13.667c-.107 12.818 2.927 25.817 6.33 27.123.945.363 2.125 3.916 2.622 7.896.614 4.91 1.731 7.815 3.478 9.039 1.416.991 2.597 3.246 2.626 5.009l.137 6.892c.048 2.026-.268 5.098-.701 6.825-.562 2.236.166 4.17 2.526 6.717 5.455 5.885 4.468 7.439-4.726 7.439-5.26 0-8.228-.577-8.577-1.667zm325.953-.413c0-1.143.61-1.702 1.355-1.24s1.01 1.395.588 2.078c-1.143 1.85-1.943 1.504-1.943-.838zm-284-19.764c0-1.1.6-2.37 1.333-2.824s1.333.076 1.333 1.176-.6 2.371-1.333 2.824-1.333-.076-1.333-1.176zm-10-7.49c.453-.734 1.388-1.334 2.078-1.334s1.255.6 1.255 1.334-.935 1.333-2.079 1.333-1.708-.6-1.254-1.333zm-13.667-9.814c-2.985-1.478-4.052-3.52-1.84-3.52.638 0 1.468-2.73 1.844-6.066.647-5.74 1.7-8.394 2.841-7.156.833.903 1.682 18.57.885 18.392-.402-.09-2.08-.832-3.73-1.65zm315.877-21.266c-1.816-2.188.651-11.12 3.358-12.16 1.438-.551 1.527-.14.416 1.936-1.591 2.973-.966 3.256 2.77 1.257 1.512-.81 2.579-.863 2.579-.13 0 .687-1.818 1.883-4.04 2.657-3.46 1.206-3.917 1.895-3.188 4.797.94 3.748.308 4.297-1.895 1.643zm-93.714-12.472c-1.674-2.03-1.545-2.07 1.504-.486 4.47 2.323 4.806 2.704 2.385 2.704-1.132 0-2.882-.998-3.889-2.218zm-214.496-1.204c0-.416 1.57-2.816 3.491-5.333 3.558-4.664 6.75-6.2 5.36-2.578-.45 1.174-.018 2 1.048 2 .998 0 2.125.806 2.503 1.792.499 1.3-.241 1.614-2.699 1.144-2.258-.431-3.794.082-4.61 1.542-1.136 2.028-5.093 3.142-5.093 1.433zm24-.42c0-.734.6-1.704 1.333-2.158s1.333-.224 1.333.51-.6 1.704-1.333 2.157-1.333.224-1.333-.51zm287.12-6.824l-2.662-6 3.438-.696c4.052-.82 4.877 1.39 3.068 8.222l-1.184 4.474zm-319.097-6.32c-1.086-.427-2.78-1.58-3.761-2.561-2.347-2.347-3.797-2.256-4.777.299-.952 2.481-3.485 1.297-3.485-1.63 0-2.344 8.313-11.122 10.533-11.122 2.202 0 1.765 3.97-.533 4.851-1.1.423-2 1.951-2 3.398 0 2.256.596 2.499 4.2 1.707 3.522-.773 4.067-.575 3.375 1.228-.454 1.182-.208 2.15.545 2.15s1 .6.546 1.333c-.901 1.459-1.665 1.516-4.643.347zm12.227-1.764c.32-.962 1.37-2.012 2.333-2.333 1-.333 1.5.167 1.167 1.167-.321.962-1.371 2.012-2.334 2.333-1 .333-1.5-.167-1.166-1.167zm-66.917-1.838c0-1.143.6-2.078 1.333-2.078s1.334.564 1.334 1.254-.6 1.626-1.334 2.079-1.333-.111-1.333-1.255zm62.667-3.333c0-.69.629-1.643 1.398-2.119.953-.589.892-1.473-.19-2.777-.874-1.053-1.251-2.25-.84-2.662 1.2-1.2 3.91 4.83 3.11 6.917-.81 2.111-3.478 2.603-3.478.641zm-58.052-6.349c.502-1.999 3.269-6.955 6.149-11.015 4.96-6.991 5.05-10.636.159-6.34-3.309 2.905-17.61 10.717-18.32 10.007-.767-.768 6.832-23.683 8.361-25.213 3.115-3.115 16.716-10.285 18.332-9.665 4.468 1.714 6.246 15.698 2.37 18.64-2.075 1.576-1.789 1.776 2.589 1.814 2.706.023 5.257-.501 5.668-1.166 1.04-1.682 6.298-.122 5.694 1.69-.27.811-3.145 1.954-6.388 2.54-11.202 2.022-11.896 2.308-11.896 4.895 0 1.394-2.1 4.514-4.666 6.935s-4.667 5.406-4.667 6.632-.967 2.602-2.148 3.055c-1.77.68-1.988.184-1.237-2.809zm78.332 1.738c.946-1.026 1.93-1.666 2.187-1.422.79.751-1.214 3.288-2.599 3.288-.719 0-.533-.84.412-1.866zm-15.391-3.023c-.49-.49-.89-1.51-.89-2.267 0-.835.622-.757 1.578.2.868.868 1.268 1.888.89 2.267s-1.09.289-1.578-.2zm239.216-5.366c-.058-1.607.535-3.317 1.317-3.8 1.88-1.162 3.584.595 1.739 1.794-.785.51-1.77 1.827-2.19 2.927-.518 1.361-.794 1.067-.866-.921zm-222.53-4.079l2.685-5-6.88-7.333-6.88-7.333.417 8.4c.446 9.017-1.09 10.986-3.99 5.118-1.953-3.95-3.957-4.527-5.128-1.476-.545 1.42-2.464 1.994-6.292 1.88-3.029-.089-6.643.042-8.03.291-4.815.865-3.58-2.64 2.455-6.975 5.332-3.83 7.97-7.935 5.068-7.89-2.295.037-14.68 3.72-17.395 5.173-1.943 1.04-2.939 1.098-2.939.173 0-1.92 8.058-6.681 11.334-6.698 1.466-.007 4.34-.886 6.386-1.953 3.368-1.757 4.124-1.693 8 .67 5.716 3.485 14.28 3.3 14.28-.309 0-2.18 5.805-6.313 8.934-6.36 1.614-.024 3.414-.794 4-1.711s1.666-1.7 2.4-1.741c3.919-.219 8.666-2.448 8.666-4.07 0-1.02.6-1.856 1.334-1.856s1.333-.717 1.333-1.593 1.59-3.254 3.534-5.283c3.102-3.238 3.505-4.673 3.294-11.726-.165-5.493.44-9.077 1.914-11.325 1.185-1.809 1.822-3.827 1.416-4.484s.122-2.334 1.176-3.726c3.407-4.502 2.243-6.817-1.336-2.655-1.832 2.13-3.331 4.68-3.331 5.666s-.596 1.793-1.324 1.793-1.177-2.55-1-5.667-.272-5.88-1-6.141-3.105 3.638-5.284 8.666c-4.197 9.684-5.926 11.809-7.955 9.78-.78-.78-.189-3.65 1.567-7.612 2.984-6.734 5.055-17.693 3.342-17.693-2.069 0-7.333 11.95-6.707 15.226.407 2.13-.063 3.574-1.323 4.057-1.305.501-1.729 1.93-1.275 4.302.388 2.03-.078 4.31-1.086 5.317-2.29 2.29-3.289 2.233-3.289-.188 0-1.074-1.2-2.595-2.666-3.38-2.129-1.14-2.667-1.014-2.667.62 0 2.577 4.71 7.38 7.238 7.38 1.048 0 2.805-.9 3.905-2 1.807-1.807 4.857-2.75 4.857-1.501 0 .274-.876 2.983-1.947 6.019-1.922 5.446-1.911 5.5.841 4.027 2.41-1.29 2.29-.838-.877 3.314-2.017 2.644-4.16 4.807-4.763 4.807-2.276 0-2.773-2.92-.866-5.084 2.821-3.2.696-8.249-3.472-8.249-3.465 0-7.583-3.722-7.583-6.854 0-1.088-1.814-3.32-4.031-4.959l-4.032-2.98-5.916 4.847c-3.253 2.666-6.253 5.91-6.665 7.21-.87 2.74.388 6.736 2.12 6.736 1.82 0 1.417 3.699-.476 4.36-1.198.42-.95 1.39.881 3.453 1.401 1.579 2.19 3.227 1.755 3.663-2.015 2.014-11.636-11.981-11.636-16.927 0-1.448-.896-2.977-1.992-3.397s-1.644-1.328-1.219-2.017.11-2.053-.703-3.031c-1.015-1.224-1.067-2.856-.164-5.23 1.023-2.692.823-3.938-.91-5.672-2.072-2.072-1.957-2.431 1.717-5.371 5.18-4.145 5.634-4.013 5.196 1.502-.203 2.567.159 4.667.805 4.667 1.254 0 7.937-9.252 7.937-10.988 0-2.605 8.05-9.656 15.086-13.216 8.35-4.224 12.914-4.092 12.914.373 0 1.46.6 2.284 1.333 1.831s1.334-2.618 1.334-4.81c0-3.402.83-4.36 5.666-6.533l5.667-2.545.813 2.944c.794 2.877.845 2.864 2.253-.597 1.215-2.989 2.857-3.86 10.52-5.575 17.354-3.887 19.08-4.048 19.08-1.778 0 1.139-.561 2.417-1.248 2.842-1.09.673-5.418 8.335-5.418 9.59 0 .254.883.462 1.963.462s3.241-2.971 4.813-6.625c1.567-3.643 3.584-7.234 4.481-7.978s7.833-1.76 15.413-2.258c12.893-.845 13.721-.749 12.865 1.484-.504 1.313-1.59 5.06-2.412 8.326-1.196 4.75-2.392 6.366-5.976 8.075-5.245 2.501-5.613 3.695-1.48 4.802 4.745 1.272 6.333.988 6.333-1.132 0-1.895 6.725-6.006 13-7.946 2.805-.867 3-.536 3 5.083 0 3.307.688 6.437 1.53 6.957 1.097.678 1.338-.741.855-5.033-.662-5.873 1.047-10.422 3.916-10.422.736 0 2.952-1.268 4.923-2.818 4.774-3.755 5.124-2.883 1.267 3.152-3.14 4.911-6.48 6.926-4.973 3 .422-1.1.103-2-.709-2-1.845 0-1.95 6.992-.132 8.81.903.903.224 4.1-2.07 9.746-4.156 10.23-3.757 15.71.446 6.11 1.605-3.666 3.516-7.566 4.246-8.666s2.206-3.95 3.28-6.334c1.948-4.325 4.67-5.821 4.85-2.666.684 12.004 3.799 20.128 3.864 10.078.022-3.44.64-6.625 1.374-7.078 2.158-1.334 1.574-4.676-.667-3.816-3.206 1.23-2.345-2.73.914-4.201 3.99-1.803 5.052-5.242 1.244-4.033-2.057.652-2.825.328-2.825-1.194 0-1.15.72-2.09 1.6-2.09 1.245 0 1.245-.355 0-1.6-2.77-2.77-1.771-3.733 3.876-3.733 4.036 0 5.296.471 4.789 1.791-1.627 4.24-2.519 16.876-1.19 16.876 1.339 0 1.887-1.83 3.695-12.334.762-4.425 1.303-5 4.712-5 4.567 0 4.657.602 1.214 8.188-3.032 6.684-3.547 12.42-1.029 11.465.917-.348 5.112-1.762 9.324-3.143s7.66-3.11 7.666-3.843c.013-1.863-8.035-1.56-11.657.438-2.535 1.4-3 1.334-3-.42 0-2.461 11.397-10.018 15.107-10.018 1.421 0 5.054.669 8.072 1.486 9.943 2.691 9.4 2.322 7.177 4.875-1.104 1.268-1.736 3.056-1.404 3.972s-.373 1.667-1.568 1.667-3.785 1.614-5.758 3.586-5.524 4.902-7.892 6.509-5.876 4.787-7.795 7.068c-3.139 3.73-3.693 3.94-5.539 2.094-1.128-1.128-2.389-1.712-2.803-1.298s-.074 1.43.755 2.26c1.12 1.12.53 2.91-2.304 6.977-4.7 6.746-9.381 10.904-9.381 8.334 0-3.088-8.565-.565-14.045 4.137-3.154 2.705-4.26 4.333-2.946 4.333 3.551 0 6.324-1.524 6.324-3.476 0-2.667 2.368-2.294 3.026.476.438 1.843.872 1.563 2.065-1.333 1.49-3.62 5.189-5.39 3.823-1.83-.388 1.011-.088 2.455.666 3.21.94.94.258 2.101-2.167 3.69-2.8 1.835-3.38 3.044-2.78 5.791.572 2.61.058 3.91-2.066 5.231-1.554.968-3.204 1.381-3.666.92s-1.857 2.046-3.1 5.574c-2.255 6.398-2.26 6.403-2.364 1.814-.14-6.208-2.735-3.588-3.364 3.396l-.604 6.204c-.074.55-1.335 1-2.802 1s-2.667.585-2.667 1.3c0 .845 1.198.845 3.42 0 1.882-.715 3.682-1.3 4-1.3 1.08 0 .588 4.454-.964 8.748l-1.545 4.271-15.455.612c-12.125.48-17.696 1.378-25.854 4.169-8.036 2.75-10.997 3.237-13.037 2.145-1.452-.777-2.33-1.914-1.95-2.526s-.808-1.4-2.635-1.75c-2.896-.553-9.68 2.026-16.631 6.321-1.077.666-4.67 1.33-7.986 1.478-10.012.444-12.734 1.256-12.304 3.667.215 1.209-.39 2.198-1.346 2.198s-2.487 1.2-3.403 2.667c-2.982 4.774-4.164 2.807-1.402-2.334zm29.666-17.815c-.971-1.572 2.8-5.343 4.12-4.121.558.515.604-.771.102-2.858-.518-2.156-.291-4.542.525-5.525 1.054-1.27.867-2.302-.704-3.873-1.966-1.966-1.922-2.141.544-2.141 4.341 0 17.505-8.177 17.505-10.873 0-2.061-3.554-1.164-5.972 1.508-2.489 2.751-5.838 2.354-3.544-.42 2.115-2.56.223-8.882-2.659-8.882-2.772 0-13.529 9.24-10.825 9.298 1.766.038 2.396 4.036.636 4.036-.566 0-1.03 2.337-1.03 5.193 0 4.346-.975 6.2-5.968 11.352-8.341 8.608-10.016 16.737-2.634 12.786 2.131-1.14 3.19-.995 4.853.668 1.947 1.948 2.282 1.829 3.961-1.408 1.01-1.945 1.5-4.078 1.09-4.74zm14.092.149c0-.734-.265-1.334-.588-1.334s-.959.6-1.412 1.334-.189 1.333.588 1.333 1.412-.6 1.412-1.333zm28.592-1.213c.911-1.474-.477-5.454-1.901-5.454-.564 0-1.024 1.5-1.024 3.333 0 3.327 1.506 4.418 2.925 2.12zm-75.259-4.12c0-.734-.635-1.334-1.412-1.334s-1.04.6-.588 1.333 1.089 1.334 1.412 1.334.588-.6.588-1.334zm76-5.454c0-.488-.826-1.573-1.837-2.412-1.44-1.195-1.984-.963-2.517 1.076-.507 1.938-.038 2.553 1.837 2.411 1.385-.104 2.517-.588 2.517-1.075zm-6-11.71c.745-5.544 1.557-7.32 3.594-7.852s2.23-.953.852-1.861c-1.373-.906-.942-1.802 1.888-3.927 3.97-2.98 4.973-5.983 1.56-4.674-1.734.666-1.95.104-1.227-3.19 1.258-5.728-1.315-4.987-3.741 1.076-2.36 5.897-4.219 7.695-9.266 8.962-4.282 1.075-4.232 1.255-1.66-6.037 2.747-7.786 2.411-11.013-.555-5.334-2.082 3.987-8.111 26.914-8.111 30.846 0 3.44 2.568-.88 3.951-6.644 1.315-5.48 2.371-6.933 6.889-9.472 2.934-1.65 5.602-2.732 5.928-2.406s-.313 3.163-1.42 6.303c-2.175 6.16-2.808 16.902-.79 13.373.63-1.1 1.577-5.223 2.107-9.163zm34 6.34c0-.734-.6-.963-1.333-.51s-1.333 1.424-1.333 2.157.6.963 1.333.51 1.333-1.424 1.333-2.158zm-27.93-3.177c-.104-1.979-3.087-1.615-3.779.461-.374 1.122.236 1.621 1.626 1.333 1.223-.253 2.193-1.06 2.154-1.794zm2.597-8.047c0-.34-1.2-.62-2.667-.62-1.508 0-2.666.89-2.666 2.048 0 1.633.538 1.758 2.666.62 1.467-.786 2.667-1.707 2.667-2.048zm24.1-5.224c.679.42 1.233-.816 1.233-2.745 0-3.118-.222-3.285-2-1.507-1.1 1.1-1.93 3.392-1.845 5.095.114 2.285.315 2.48.768.745.337-1.292 1.167-2.007 1.845-1.588zm-5.295-1.124c-1.711-1.71-3.447-.388-2.18 1.662.491.794 1.503 1.066 2.25.605.91-.563.888-1.309-.07-2.267zm-58.887-7.407c2.524-6.093 9.403-15.742 9.41-13.198.009 3.567 1.697 2.776 5.018-2.35 1.656-2.557 3.606-4.65 4.333-4.65s1.321-.64 1.321-1.424-1.732-.19-3.849 1.317l-3.849 2.74-.818-2.983-.818-2.983-1.666 2.914c-3.117 5.452-11.726 17.632-13.032 18.44-.716.442-1.301 2.25-1.301 4.016 0 4.203 3.215 3.077 5.25-1.839zm78.443 1.385c.325-.975-.284-1.273-1.583-.774-1.161.445-2.111 1.396-2.111 2.112 0 1.752 3.03.655 3.694-1.338zm-18.294-5.25c2.66 4.438 10.417 1.498 10.557-4 .024-.916-.407-1.595-.957-1.508-3.315.523-7-.382-7-1.72 0-2.754-4.315-6.438-7.54-6.438-4.369 0-3.924 2.398.54 2.911 2.783.32 3.756 1.225 4.039 3.756.327 2.927.163 3.07-1.35 1.179-1.556-1.948-1.95-1.852-4.101 1-1.309 1.734-1.751 3.154-.984 3.154s1.396 1.015 1.396 2.255c0 1.97.253 1.927 2-.333 1.884-2.437 2.084-2.452 3.4-.255zm2.6-1.666c0-.733.9-1.333 2-1.333s2 .6 2 1.333-.9 1.333-2 1.333-2-.6-2-1.333zm-50.667.588c0-1.143-.6-1.708-1.333-1.255s-1.334 1.389-1.334 2.079.6 1.255 1.334 1.255 1.333-.936 1.333-2.079zM101.56 46.409c2.196-6.446 2.885-16.47 1.125-16.375-1.745.095-9.962 18.585-9.173 20.642.416 1.084 1.919 1.97 3.34 1.97 1.884 0 3.158-1.687 4.708-6.237zm31.484 1.54c1.409-1.697 1.327-1.892-.503-1.19-1.204.462-2.189 1.375-2.189 2.03 0 1.715.772 1.474 2.692-.84zm-42.359-7.211c4.053-8.712 4.235-9.425 2.404-9.425-1.465 0-8.07 12.64-8.07 15.443 0 3.87 2.107 1.633 5.666-6.018zm-13.666-.091c.785-1.467.95-2.667.367-2.667s-1.809 1.2-2.725 2.667c-.922 1.477-1.086 2.666-.367 2.666s1.94-1.2 2.725-2.666zm8.602-5.606c1.783-3.573 1.77-4.212-.118-6.1-1.923-1.924-2.329-1.824-4.6 1.131-2.683 3.49-3.433 7.277-1.164 5.875.913-.564 1.065.434.445 2.921-.845 3.394-.718 3.595 1.253 1.972 1.206-.994 3.089-3.603 4.184-5.799zm-4.352-2.478c.32-.962 1.37-2.012 2.333-2.333 1-.333 1.5.167 1.167 1.167-.321.962-1.371 2.012-2.334 2.333-1 .333-1.5-.167-1.166-1.167zm95.083-5.25c.453-.733.189-1.333-.588-1.333s-1.412.6-1.412 1.333.265 1.334.588 1.334.959-.6 1.412-1.334zm50.095 82c0-.733.857-2.833 1.905-4.666s1.906-2.734 1.906-2-.858 2.833-1.906 4.666-1.905 2.734-1.905 2zm-9.428-3.17c0-.643.998-1.993 2.218-3 2.011-1.66 2.07-1.55.62 1.17-1.653 3.103-2.838 3.867-2.838 1.83zm-11.98-.464c-.011-.532 1.177-2.932 2.641-5.333s2.664-3.616 2.667-2.7c.01 3.224 2.03 1.543 4.448-3.7 1.344-2.915 2.938-5.3 3.542-5.3 1.604 0 .04 4.987-2.13 6.787-1.02.847-1.874 2.517-1.897 3.71s-.947 3.367-2.053 4.83c-1.727 2.285-2.191 2.38-3.291.667-1.136-1.768-1.429-1.767-2.594.006-.722 1.1-1.322 1.565-1.333 1.032zm-119.035-9.63c-1.275-.933-2.319-2.024-2.319-2.424 0-1.052 5.25.475 6.043 1.757 1.201 1.944-1.352 2.4-3.724.666zm-9.43-4.291c-1.496-1.497-.986-4.662.594-3.686.815.504 1.99.094 2.61-.91.825-1.334 1.527-1.429 2.604-.352s.887 2.062-.706 3.656c-2.351 2.35-3.701 2.692-5.102 1.292zm249.778-8.623c-1.833-.738-4.786-1.46-6.562-1.602s-3.443-.9-3.703-1.682c-.299-.896 2.13-1.381 6.562-1.313 7.149.11 10.581-2.209 4.411-2.98-3.753-.47-4.302-2.649-2.915-11.578.29-1.865-8.502-2.121-12.119-.353l-2.992 1.462 4.232 3.779c2.328 2.078 4.725 3.779 5.326 3.779 2.709 0 .663 2.567-3.693 4.634-4.588 2.177-4.907 2.164-7.667-.316-3.054-2.744-7.547-4.782-7.547-3.423 0 .446 1.05 1.578 2.332 2.515 3.645 2.666 1.413 3.32-3.39.994-4.018-1.946-4.525-1.925-6.979.296-1.455 1.317-3.092 1.946-3.637 1.399-1.104-1.108 1.81-3.629 10.51-9.097a169.15 169.15 0 0 0 11.408-8c9.737-7.57 16.912-11.395 23.095-12.314 5.976-.888 6.04-.855 13.375 6.876 8.538 9 15.953 17.97 15.953 19.299 0 .507-2.85.684-6.333.393-10.602-.885-21.845-.856-22.76.06-.477.476.547 1.933 2.275 3.237 2.555 1.926 2.762 2.516 1.11 3.15-1.12.43-3.386.428-5.039-.004-2.076-.543-2.709-.31-2.05.757 1.106 1.79 1.159 1.789-3.203.032zm-15.333-9.155c.453-.733.188-1.333-.588-1.333s-1.412.6-1.412 1.333.264 1.333.588 1.333.958-.6 1.412-1.333zm-5.334-2.667c.454-.733.189-1.333-.588-1.333s-1.412.6-1.412 1.333.265 1.334.588 1.334.96-.6 1.412-1.334zm-50.355 9.168c.904-.911 1.98-1.32 2.39-.91s-.329 1.156-1.644 1.657c-1.9.723-2.053.57-.746-.747zm-35.645-1.089c0-.777-.9-1.412-2-1.412-2.578 0-2.592-2.154-.02-3.141 2.354-.903 5.454 3.843 3.357 5.139-.735.454-1.337.19-1.337-.586zm53.016-1.022c1.658-.319 4.058-.306 5.333.027s-.082.595-3.015.58-3.977-.288-2.318-.607zm-43.682-1.517c0-.62 1.2-2.212 2.666-3.54 2.117-1.915 2.667-2.013 2.667-.473 0 2.091-2.53 5.14-4.267 5.14-.586 0-1.066-.507-1.066-1.127zm-5.775-1.092c-1.392-1.393-1.067-2.749 1.203-5.02 2.57-2.568 4.572-2.7 4.572-.301 0 2.279-4.59 6.507-5.775 5.32zm16.364-7.01c3.581-2.752 13.249-6.044 14.392-4.9.397.396-.711 1.267-2.463 1.933s-5.508 2.184-8.348 3.37c-6.679 2.793-7.603 2.689-3.58-.403zm-207.923.17c0-.705.97-2.086 2.154-3.069 1.864-1.546 2.088-1.448 1.667.727-.502 2.591-3.82 4.626-3.82 2.342zm14.667-.135c-3.046-.849-3.112-1.014-.763-1.916 1.646-.633 3.306-.252 4.619 1.061 2.18 2.18 1.47 2.338-3.856.855zm185.333-2.663c0-.655.985-1.569 2.189-2.03 1.83-.703 1.912-.508.503 1.19-1.92 2.313-2.692 2.554-2.692.84zM48.099 53.405c-1.978-2.253-.898-3.425 3.153-3.425 2.789 0 2.945.285 1.457 2.667-1.94 3.108-2.47 3.195-4.61.758zm195.612-1.425c-.02-1.636 4.99-10 5.989-10 .396 0-.173 1.65-1.265 3.667-2.985 5.513-4.707 7.82-4.724 6.333zm41.308-2.048c-1.72-1.151-1.601-1.663.842-3.646 1.563-1.268 3.963-3.02 5.333-3.894 2.362-1.506 2.34-1.593-.43-1.667-1.607-.043-3.292.522-3.745 1.255-1.415 2.289-4.09 1.46-4.3-1.333-.11-1.467.58-2.667 1.534-2.667s5.805-3.005 10.78-6.678l9.047-6.678 6.136 3.522c3.375 1.937 6.648 3.984 7.274 4.55 1.43 1.29-.894 5.608-3.321 6.173-7.302 1.698-21.72 5.903-22.329 6.512-.41.41.139 1.302 1.217 1.984 1.645 1.04 1.585 1.244-.372 1.261-1.283.011-2.333.62-2.333 1.354 0 1.705-2.754 1.68-5.333-.048zm18-10.619c.453-.733-.112-1.333-1.255-1.333s-2.079.6-2.079 1.333.565 1.334 1.255 1.334 1.625-.6 2.079-1.334zm-48.667-3.73c0-.584 2.435-3.434 5.41-6.332s6.543-7.821 7.926-10.938c2.035-4.586 3.18-5.666 6.01-5.666 1.923 0 4.717.653 6.21 1.452 2.66 1.424 2.64 1.531-1.004 5.334-2.044 2.134-4.658 3.88-5.807 3.88s-5.088 2.981-8.75 6.624c-6.132 6.098-9.995 8.28-9.995 5.647zm-73.333-22.858c0-.69.61-1.631 1.355-2.092s1.076-1.288.736-1.84.469-2.792 1.8-4.98c2.399-3.944 2.512-3.976 13.597-3.727 13.333.298 13.178.279 13.178 1.626 0 .586-2.202 1.862-4.894 2.836-4.296 1.553-5.089 1.504-6.48-.4-1.928-2.635-3.292-2.79-3.292-.375 0 .987-1.303 2.937-2.896 4.334s-2.409 1.71-1.813.698-1.24-.263-4.08 1.667c-5.499 3.736-7.211 4.271-7.211 2.253zm59.403-6.631a1.49 1.49 0 0 1 .483-2.044 1.49 1.49 0 0 1 2.043.483 1.49 1.49 0 0 1-.482 2.043 1.49 1.49 0 0 1-2.044-.482z" fill="#faf8f6"/></svg>